<svg width="30" height="30" viewBox="0 0 30 30" fill="none" xmlns="http://www.w3.org/2000/svg">
<rect width="30" height="30" rx="6" fill="#419ECC"/>
<path d="M5 25L6.40583 19.8642C5.53833 18.3608 5.0825 16.6567 5.08333 14.9092C5.08583 9.44583 9.53166 5 14.9941 5C17.645 5.00083 20.1333 6.03333 22.005 7.90667C23.8758 9.78 24.9058 12.27 24.905 14.9183C24.9025 20.3825 20.4566 24.8283 14.9941 24.8283C13.3358 24.8275 11.7017 24.4117 10.2542 23.6217L5 25ZM10.4975 21.8275C11.8942 22.6567 13.2275 23.1533 14.9908 23.1542C19.5308 23.1542 23.2291 19.4592 23.2316 14.9167C23.2333 10.365 19.5525 6.675 14.9975 6.67333C10.4542 6.67333 6.75833 10.3683 6.75666 14.91C6.75583 16.7642 7.29916 18.1525 8.21166 19.605L7.37916 22.645L10.4975 21.8275ZM19.9866 17.2742C19.925 17.1708 19.76 17.1092 19.5116 16.985C19.2641 16.8608 18.0466 16.2617 17.8191 16.1792C17.5925 16.0967 17.4275 16.055 17.2616 16.3033C17.0966 16.5508 16.6216 17.1092 16.4775 17.2742C16.3333 17.4392 16.1883 17.46 15.9408 17.3358C15.6933 17.2117 14.895 16.9508 13.9491 16.1067C13.2133 15.45 12.7158 14.6392 12.5716 14.3908C12.4275 14.1433 12.5566 14.0092 12.68 13.8858C12.7916 13.775 12.9275 13.5967 13.0516 13.4517C13.1775 13.3083 13.2183 13.205 13.3016 13.0392C13.3841 12.8742 13.3433 12.7292 13.2808 12.605C13.2183 12.4817 12.7233 11.2625 12.5175 10.7667C12.3158 10.2842 12.1117 10.3492 11.96 10.3417L11.485 10.3333C11.32 10.3333 11.0517 10.395 10.825 10.6433C10.5983 10.8917 9.95832 11.49 9.95832 12.7092C9.95832 13.9283 10.8458 15.1058 10.9692 15.2708C11.0933 15.4358 12.715 17.9375 15.1991 19.01C15.79 19.265 16.2516 19.4175 16.6108 19.5317C17.2041 19.72 17.7441 19.6933 18.1708 19.63C18.6466 19.5592 19.6358 19.0308 19.8425 18.4525C20.0491 17.8733 20.0491 17.3775 19.9866 17.2742Z" fill="#D6EEF4"/>
</svg>
