<svg width="8" height="9" viewBox="0 0 8 9" fill="none" xmlns="http://www.w3.org/2000/svg">
<path d="M0.666667 8.5C0.466667 8.5 0.333333 8.43333 0.2 8.3C-0.0666667 8.03333 -0.0666667 7.63333 0.2 7.36667L6.86667 0.7C7.13333 0.433333 7.53333 0.433333 7.8 0.7C8.06667 0.966667 8.06667 1.36667 7.8 1.63333L1.13333 8.3C1 8.43333 0.866667 8.5 0.666667 8.5Z" fill="#A7A7AB"/>
<path d="M7.33317 7.83333C6.93317 7.83333 6.6665 7.56667 6.6665 7.16667V1.83333H1.33317C0.933171 1.83333 0.666504 1.56667 0.666504 1.16667C0.666504 0.766667 0.933171 0.5 1.33317 0.5H7.33317C7.73317 0.5 7.99984 0.766667 7.99984 1.16667V7.16667C7.99984 7.56667 7.73317 7.83333 7.33317 7.83333Z" fill="#A7A7AB"/>
</svg>
