<svg width="30" height="30" viewBox="0 0 30 30" fill="none" xmlns="http://www.w3.org/2000/svg">
<g clip-path="url(#clip0_243_3148)">
<path d="M25.9091 0H4.09091C1.83156 0 0 1.83156 0 4.09091V25.9091C0 28.1684 1.83156 30 4.09091 30H25.9091C28.1684 30 30 28.1684 30 25.9091V4.09091C30 1.83156 28.1684 0 25.9091 0Z" fill="#419ECC"/>
<path d="M10.8068 8.18182C10.8068 8.68751 10.6569 9.18184 10.3759 9.60231C10.095 10.0228 9.69565 10.3505 9.22846 10.544C8.76126 10.7375 8.24717 10.7882 7.75119 10.6895C7.25522 10.5909 6.79964 10.3473 6.44206 9.98976C6.08448 9.63218 5.84097 9.1766 5.74231 8.68063C5.64366 8.18465 5.69429 7.67056 5.88781 7.20337C6.08133 6.73617 6.40904 6.33685 6.82951 6.0559C7.24998 5.77495 7.74431 5.625 8.25 5.625C8.92811 5.625 9.57845 5.89438 10.0579 6.37387C10.5374 6.85337 10.8068 7.50371 10.8068 8.18182Z" fill="#D6EEF4"/>
<path d="M10.2268 12.4427V23.7387C10.2273 23.822 10.2112 23.9046 10.1797 23.9818C10.1481 24.0589 10.1016 24.129 10.0428 24.1881C9.98404 24.2472 9.91417 24.294 9.83722 24.326C9.76028 24.358 9.67776 24.3745 9.59443 24.3745H6.89954C6.81621 24.3747 6.73365 24.3585 6.65662 24.3267C6.57959 24.2949 6.5096 24.2482 6.45067 24.1893C6.39175 24.1304 6.34505 24.0604 6.31326 23.9833C6.28148 23.9063 6.26523 23.8237 6.26545 23.7404V12.4427C6.26545 12.2745 6.33226 12.1132 6.45117 11.9943C6.57009 11.8754 6.73137 11.8086 6.89954 11.8086H9.59443C9.76231 11.809 9.92315 11.8761 10.0417 11.9949C10.1602 12.1138 10.2268 12.2748 10.2268 12.4427Z" fill="#D6EEF4"/>
<path d="M24.3133 18.3234V23.7915C24.3135 23.8682 24.2985 23.9441 24.2693 24.0149C24.2401 24.0857 24.1972 24.1501 24.143 24.2043C24.0888 24.2584 24.0245 24.3014 23.9536 24.3306C23.8828 24.3598 23.8069 24.3747 23.7303 24.3745H20.8326C20.756 24.3747 20.68 24.3598 20.6092 24.3306C20.5384 24.3014 20.474 24.2584 20.4199 24.2043C20.3657 24.1501 20.3227 24.0857 20.2935 24.0149C20.2643 23.9441 20.2494 23.8682 20.2496 23.7915V18.4921C20.2496 17.7012 20.4814 15.0285 18.182 15.0285C16.4008 15.0285 16.0377 16.8575 15.9661 17.679V23.7915C15.9661 23.9447 15.9059 24.0917 15.7984 24.2008C15.6909 24.3099 15.5448 24.3723 15.3917 24.3745H12.5928C12.5163 24.3745 12.4406 24.3594 12.37 24.3301C12.2993 24.3008 12.2352 24.2578 12.1812 24.2037C12.1272 24.1495 12.0844 24.0852 12.0553 24.0145C12.0262 23.9438 12.0113 23.868 12.0115 23.7915V12.3933C12.0113 12.3168 12.0262 12.241 12.0553 12.1703C12.0844 12.0996 12.1272 12.0353 12.1812 11.9811C12.2352 11.927 12.2993 11.884 12.37 11.8547C12.4406 11.8254 12.5163 11.8103 12.5928 11.8103H15.3917C15.5463 11.8103 15.6945 11.8717 15.8039 11.981C15.9132 12.0904 15.9746 12.2386 15.9746 12.3933V13.3785C16.636 12.3864 17.6161 11.6211 19.7076 11.6211C24.3405 11.6211 24.3133 15.9472 24.3133 18.3234Z" fill="#D6EEF4"/>
</g>
<defs>
<clipPath id="clip0_243_3148">
<rect width="30" height="30" fill="white"/>
</clipPath>
</defs>
</svg>
