<svg width="135" height="141" viewBox="0 0 135 141" fill="none" xmlns="http://www.w3.org/2000/svg">
<g opacity="0.15">
<path d="M95.1155 98.4117C83.1785 96.7183 71.7135 97.1069 60.4704 100.716C58.3051 101.41 56.4174 102.409 54.7795 104.38C50.9763 108.961 46.146 112.57 41.2602 115.984C39.9832 116.873 39.9832 117.539 40.3441 118.621C42.0097 123.757 42.8981 129.06 43.9807 134.334C44.6192 137.416 44.0085 138.221 41.0381 137.971C29.9617 137.027 19.2183 134.945 10.0018 128.088C6.28194 125.312 3.20053 121.953 0.507751 118.066C-6.82101 129.615 -18.0085 134.501 -30.7506 136.777C-34.1651 137.388 -37.6074 137.776 -41.0775 138.026C-42.7986 138.137 -43.3261 137.416 -43.0485 135.861C-42.0491 130.253 -41.1608 124.618 -39.3286 119.232C-38.8011 117.705 -38.8289 116.567 -40.3557 115.651C-44.2977 113.347 -47.8788 110.488 -50.6549 106.962C-54.8189 101.687 -60.5931 100.133 -66.6171 98.8003C-73.6406 97.2457 -80.7472 97.5511 -87.8539 97.6066C-89.3808 97.6066 -90.8798 97.9953 -92.4067 98.2174C-94.0168 98.4394 -93.5171 99.3555 -93.0174 100.216C-90.3246 104.908 -87.3542 109.405 -83.9675 113.625C-76.1668 123.424 -66.2563 130.559 -55.5685 136.749C-55.1243 136.999 -54.7357 137.332 -54.3192 137.61C-54.0139 137.832 -53.7085 138.082 -53.3199 138.415C-57.1231 140.081 -61.1206 139.414 -64.896 139.692C-77.1661 140.58 -89.2142 138.887 -100.818 134.612C-113.116 130.059 -123.859 123.202 -132.076 112.764C-133.353 111.154 -133.27 110.043 -131.716 108.683C-124.359 102.354 -116.17 97.4956 -106.953 94.4141C-105.01 93.7479 -104.649 92.804 -105.371 91.0551C-109.035 82.366 -111.145 73.316 -112.228 63.9328C-112.589 60.7403 -112.561 57.5756 -112.727 54.3831C-112.811 52.9951 -112.616 52.2456 -110.812 52.0512C-103.927 51.2462 -97.0982 51.3572 -90.1858 51.9957C-85.1889 52.4676 -80.2753 53.1617 -75.445 54.5219C-73.9737 54.9384 -73.4462 54.2166 -73.474 52.7175C-73.5573 48.9976 -73.585 45.2499 -73.474 41.5299C-73.2241 33.1462 -71.6418 24.9012 -70.2815 16.6285C-70.0872 15.5181 -69.6153 14.6853 -67.6998 15.1017C-56.7622 17.4058 -46.2409 20.7371 -36.6636 26.6224C-36.2749 26.8722 -35.8585 27.3164 -35.1367 26.9833C-34.2484 18.9604 -32.1941 11.1597 -29.307 3.52546C-28.3354 0.943711 -27.1972 0.444018 -24.4767 1.60997C-15.8154 5.38543 -7.59831 9.79939 -0.436096 16.0178C0.646561 16.9617 1.09073 16.2954 1.86803 15.6847C9.55769 9.52178 17.9691 4.60813 27.1856 1.11028C28.5181 0.610582 29.1566 0.360735 29.9061 2.10966C33.0153 9.27193 35.0141 16.6841 36.0967 24.3738C36.2078 25.2621 36.6242 26.0949 36.9573 27.1499C41.8432 24.2627 46.84 21.7365 52.1145 19.7933C57.8609 17.6834 63.8017 16.3787 69.7147 14.8518C70.9917 14.5187 71.3803 15.1295 71.6024 16.462C73.0737 25.7618 74.8226 34.9784 74.8504 44.5003C74.8504 47.0265 74.8504 49.525 74.6838 52.0512C74.5172 54.161 74.8504 54.9661 77.4321 54.2721C87.8423 51.4405 98.5301 51.3017 109.246 51.5238C110.689 51.5515 111.994 52.1623 113.465 52.2456C115.242 52.3288 114.548 54.05 114.465 54.9661C113.743 63.4054 112.966 71.8446 110.55 80.0063C109.412 83.8928 108.357 87.8348 106.636 91.5548C106.081 92.7762 105.914 93.6923 107.747 94.2753C117.602 97.4123 126.124 102.853 134.036 109.433C135.341 110.515 134.535 111.265 134.036 111.931C129.094 118.177 123.376 123.507 116.547 127.727C106.497 133.918 95.4764 137.471 83.9281 139.164C77.1267 140.164 70.2144 140.608 63.3298 139.387C61.4143 139.053 59.3878 139.248 57.4168 139.331C56.5007 139.331 55.3903 138.942 55.2515 138.498C55.0294 137.721 56.001 137.221 56.7505 136.805C66.1058 131.558 74.7393 125.451 82.0126 117.456C87.2038 111.765 91.59 105.574 95.3376 98.495L95.1155 98.4117ZM-7.57055 90.6387C-11.9289 91.4715 -15.6488 94.0532 -18.758 97.2735C-26.9196 105.741 -31.2503 116.151 -33.8875 127.477C-34.4982 130.114 -33.943 130.087 -31.861 129.587C-27.4193 128.504 -22.9499 127.477 -18.8136 125.478C-10.4854 121.425 -3.40646 114.818 -3.2399 103.575C-3.18439 100.438 -1.82413 98.717 0.729843 98.8281C3.70021 98.9669 4.14439 100.993 4.28319 103.547C4.64407 110.21 7.11476 115.873 12.306 120.343C18.33 125.534 25.4089 127.921 33.0153 129.504C35.3472 129.976 35.597 129.615 35.1251 127.616C33.4317 120.537 31.0721 113.736 27.4632 107.406C23.4935 100.438 18.4411 94.5529 10.8347 91.2494C9.25232 90.5554 8.0031 90.4721 6.30971 91.1661C3.9223 92.1377 1.50713 92.9428 -1.3522 92.1655C-3.26767 91.6381 -5.21091 90.8608 -7.54279 90.6664L-7.57055 90.6387ZM-31.1392 83.3098C-31.3058 82.0606 -31.3058 81.4221 -31.5001 80.8669C-34.5815 71.0673 -35.9418 61.018 -36.2194 50.7742C-36.3304 46.6379 -36.3027 42.5015 -36.2194 38.3652C-36.1916 36.6718 -36.7468 35.6446 -38.2181 34.6175C-44.0479 30.5922 -50.405 27.7328 -57.0953 25.512C-59.2051 24.8179 -61.7313 23.2356 -63.3969 23.8741C-65.3679 24.6236 -64.5906 27.7328 -64.9515 29.8704C-66.2285 37.2548 -66.9503 44.7224 -66.5894 52.19C-66.5061 54.1333 -67.2556 57.0759 -64.6739 58.1031C-51.3211 63.2666 -40.9664 72.3999 -31.1392 83.3376V83.3098ZM32.1825 83.0322C34.4311 82.2272 34.9863 80.1173 36.3188 78.7293C44.647 70.0957 53.9745 62.9057 65.1897 58.3529C66.7721 57.7144 67.6049 56.6873 67.6882 54.9384C68.1323 45.0278 67.0219 35.2282 65.7449 25.4287C65.5784 24.1517 65.0509 23.5132 63.2742 24.0129C55.7511 26.0672 48.6167 28.8988 41.9264 32.8963C37.2349 35.6724 37.2071 35.5891 37.8179 40.8914C37.9012 41.5022 37.7901 42.1407 37.8179 42.7514C38.2343 46.9988 37.1239 51.1629 37.1239 55.3825C37.1239 59.7687 36.2633 64.0994 35.6248 68.4578C34.903 73.3715 33.3484 78.0908 32.1825 83.06V83.0322ZM-22.3391 90.7775C-19.7019 87.9181 -16.9814 86.5856 -14.2331 85.2808C-12.8173 84.6146 -13.2059 83.865 -13.7334 82.8379C-16.4539 77.4523 -16.3706 71.9557 -13.7611 66.6534C-9.54154 58.1031 0.11911 54.3831 8.91919 59.5466C16.6644 64.0994 18.5521 75.1204 15.2764 82.366C14.9155 83.1433 13.5552 84.1426 15.1098 84.8922C18.1912 86.419 20.884 88.5844 24.1042 90.5276C24.3263 83.8373 23.5212 77.5634 22.5496 71.3172C21.3559 63.8495 19.0795 56.6873 16.0536 49.7749C12.5836 41.863 7.78101 34.7841 2.03459 28.3713C0.979691 27.2054 0.202393 27.011 -0.90802 28.3158C-7.34846 36.0333 -12.9006 44.306 -16.4539 53.7724C-20.8123 65.3764 -23.2275 77.2858 -22.2836 90.7497L-22.3391 90.7775ZM-63.1471 91.9712C-63.4802 91.1661 -63.6745 90.5831 -63.9521 90.0279C-68.2828 81.9773 -71.2532 73.4825 -72.3081 64.377C-72.4746 63.0445 -73.3352 62.9057 -74.3901 62.5448C-83.329 59.5189 -92.5177 58.7416 -101.901 58.8249C-104.899 58.8526 -105.704 59.8242 -105.288 62.4893C-103.9 71.5393 -101.623 80.3672 -98.4862 89.0008C-97.5424 91.5825 -95.9322 91.5548 -94.0168 91.1939C-87.1044 89.8891 -80.2476 89.7226 -73.2241 90.4999C-69.9206 90.8608 -66.6449 91.6658 -63.1193 91.9434L-63.1471 91.9712ZM106.414 59.0747C96.4203 58.4917 86.5653 59.2135 76.8769 61.9341C74.6561 62.5726 73.6289 63.7385 73.3513 65.6818C72.0743 74.9816 68.7153 83.5319 64.1071 91.9989C67.7437 91.4437 71.186 90.9718 74.6005 90.4721C81.2075 89.5282 87.7313 89.9724 94.255 90.9163C98.2802 91.4993 98.7244 91.4992 100.057 87.7515C103.388 78.5072 106.053 69.1241 106.442 59.0192L106.414 59.0747ZM77.4599 132.53C81.5406 131.863 85.677 131.447 89.6467 130.448C102.056 127.338 113.521 122.341 122.765 113.097C123.903 111.959 124.514 111.209 122.793 110.099C117.491 106.684 112.049 103.603 106.081 101.382C103.194 100.299 101.917 101.077 100.612 103.631C94.949 114.735 86.7596 123.785 77.4599 132.502V132.53ZM-75.8892 132.446C-76.6665 131.558 -76.8885 131.197 -77.1939 130.947C-87.1322 123.035 -94.5165 113.069 -100.513 101.993C-101.262 100.605 -102.04 100.41 -103.455 100.91C-109.84 103.159 -115.725 106.296 -121.361 110.043C-123.138 111.237 -123.193 111.792 -121.694 113.208C-115.337 119.316 -107.925 123.729 -99.8187 126.922C-92.3234 129.892 -84.5227 131.558 -75.8892 132.391V132.446ZM-35.914 109.738C-33.9708 106.601 -33.0269 103.187 -30.8061 100.466C-29.6124 98.9947 -29.9178 97.7732 -30.8894 96.3296C-36.3304 88.279 -42.7154 81.1167 -50.3217 75.1204C-54.6524 71.6781 -59.2884 68.5966 -64.7294 66.3203C-61.2316 85.142 -50.8214 98.9114 -35.8863 109.766L-35.914 109.738ZM65.856 66.6256C65.3563 66.5701 65.1342 66.4868 64.9676 66.5701C63.3575 67.4585 61.7474 68.3468 60.1651 69.2629C48.2558 76.1753 38.9838 85.7805 31.5162 97.2457C30.9055 98.1896 30.9333 98.7726 31.5162 99.7164C33.1541 102.409 34.7087 105.158 36.0967 107.989C36.7907 109.433 37.6513 109.46 38.6229 108.655C41.8709 105.99 45.3132 103.492 48.1448 100.438C53.8079 94.3864 58.6105 87.6405 61.8029 79.9508C63.5796 75.6756 65.2175 71.3449 65.8005 66.6534L65.856 66.6256ZM28.7402 64.0161C29.8784 55.8267 30.5724 47.6373 30.4058 39.3923C30.3781 37.3936 29.7951 35.5614 29.6841 33.5903C29.2676 26.3448 28.0462 19.238 25.7421 12.3256C25.1591 10.6044 24.6039 10.077 22.7717 10.9931C17.2751 13.7414 12.2782 17.2393 7.25356 20.7094C5.7545 21.7643 6.58731 22.4028 7.42014 23.2911C12.9167 29.1209 17.3861 35.7002 20.9673 42.8347C24.354 49.5528 26.8802 56.604 28.7124 63.9884L28.7402 64.0161ZM-27.6692 63.1833C-25.9202 56.9649 -23.5884 51.0518 -20.9789 45.2776C-17.3145 37.116 -12.2066 29.8704 -6.32132 23.2078C-5.32195 22.0696 -5.29419 21.4589 -6.40461 20.5983C-11.4015 16.7118 -16.7593 13.4083 -22.5057 10.7155C-23.5328 10.2436 -24.0048 10.2436 -24.4489 11.6038C-27.808 21.9864 -28.6685 32.7575 -29.3903 43.5287C-29.6402 47.1376 -28.4187 50.6632 -28.7241 54.2999C-28.9461 57.2425 -27.7247 60.1018 -27.6692 63.1833ZM-8.23681 74.9538C-8.23681 80.0618 -3.8784 85.2253 0.479996 85.031C5.92107 84.8089 9.69649 80.3394 9.66872 74.7873C9.66872 69.013 5.83778 64.6824 0.813126 64.5436C-4.0172 64.4325 -8.26456 69.4017 -8.23681 74.9261V74.9538Z" fill="#EBB38A"/>
</g>
</svg>
