<svg width="188" height="99" viewBox="0 0 188 99" fill="none" xmlns="http://www.w3.org/2000/svg">
<g opacity="0.15">
<path d="M159.413 69.0745C151.071 67.8911 143.059 68.1627 135.202 70.6847C133.689 71.1697 132.37 71.8681 131.225 73.2455C128.567 76.4465 125.192 78.9685 121.777 81.3547C120.885 81.9755 120.885 82.4411 121.137 83.1977C122.301 86.7867 122.922 90.4921 123.679 94.1781C124.125 96.3315 123.698 96.8941 121.622 96.7195C113.882 96.0599 106.374 94.6049 99.9333 89.8131C97.3337 87.8731 95.1803 85.5257 93.2985 82.8097C88.177 90.8801 80.3588 94.2945 71.4543 95.8853C69.0681 96.3121 66.6626 96.5837 64.2376 96.7583C63.0348 96.8359 62.6662 96.3315 62.8602 95.2451C63.5586 91.3263 64.1794 87.3881 65.4598 83.6245C65.8284 82.5575 65.809 81.7621 64.742 81.1219C61.9872 79.5117 59.4846 77.5135 57.5446 75.0497C54.6347 71.3637 50.5995 70.2773 46.3897 69.3461C41.4816 68.2597 36.5152 68.4731 31.5489 68.5119C30.4819 68.5119 29.4343 68.7835 28.3673 68.9387C27.2421 69.0939 27.5913 69.7341 27.9405 70.3355C29.8223 73.6141 31.8981 76.7569 34.2648 79.7057C39.7162 86.5539 46.6419 91.5397 54.1109 95.8659C54.4213 96.0405 54.6929 96.2733 54.9839 96.4673C55.1973 96.6225 55.4107 96.7971 55.6823 97.0299C53.0245 98.1939 50.2309 97.7283 47.5925 97.9223C39.0178 98.5431 30.5983 97.3597 22.4891 94.3721C13.895 91.1905 6.38728 86.3987 0.644928 79.1043C-0.247464 77.9791 -0.189265 77.2031 0.897126 76.2525C6.03808 71.8293 11.761 68.4343 18.2018 66.2809C19.5598 65.8153 19.812 65.1557 19.3076 63.9335C16.7468 57.8613 15.2724 51.5369 14.5158 44.9797C14.2636 42.7487 14.283 40.5371 14.1666 38.3061C14.1084 37.3361 14.2442 36.8123 15.5052 36.6765C20.3164 36.1139 25.0887 36.1915 29.9193 36.6377C33.4112 36.9675 36.845 37.4525 40.2206 38.4031C41.2488 38.6941 41.6174 38.1897 41.598 37.1421C41.5398 34.5425 41.5204 31.9235 41.598 29.3239C41.7726 23.4651 42.8784 17.7033 43.829 11.9221C43.9648 11.1461 44.2946 10.5641 45.6331 10.8551C53.2767 12.4653 60.6292 14.7933 67.3222 18.9061C67.5938 19.0807 67.8848 19.3911 68.3891 19.1583C69.0099 13.5517 70.4455 8.10034 72.4631 2.76534C73.1421 0.961143 73.9375 0.611943 75.8387 1.42674C81.8914 4.06514 87.6338 7.14974 92.6389 11.4953C93.3955 12.1549 93.7059 11.6893 94.2491 11.2625C99.6229 6.95574 105.501 3.52194 111.942 1.07754C112.873 0.728343 113.319 0.553743 113.843 1.77594C116.016 6.78114 117.413 11.9609 118.169 17.3347C118.247 17.9555 118.538 18.5375 118.771 19.2747C122.185 17.2571 125.677 15.4917 129.363 14.1337C133.379 12.6593 137.53 11.7475 141.662 10.6805C142.555 10.4477 142.826 10.8745 142.981 11.8057C144.01 18.3047 145.232 24.7455 145.251 31.3997C145.251 33.1651 145.251 34.9111 145.135 36.6765C145.018 38.1509 145.251 38.7135 147.055 38.2285C154.33 36.2497 161.799 36.1527 169.288 36.3079C170.296 36.3273 171.208 36.7541 172.236 36.8123C173.478 36.8705 172.993 38.0733 172.935 38.7135C172.43 44.6111 171.887 50.5087 170.199 56.2123C169.404 58.9283 168.667 61.6831 167.464 64.2827C167.076 65.1363 166.96 65.7765 168.24 66.1839C175.127 68.3761 181.083 72.1785 186.612 76.7763C187.524 77.5329 186.961 78.0567 186.612 78.5223C183.159 82.8873 179.162 86.6121 174.39 89.5609C167.367 93.8871 159.665 96.3703 151.595 97.5537C146.842 98.2521 142.012 98.5625 137.2 97.7089C135.862 97.4761 134.446 97.6119 133.068 97.6701C132.428 97.6701 131.652 97.3985 131.555 97.0881C131.4 96.5449 132.079 96.1957 132.603 95.9047C139.14 92.2381 145.174 87.9701 150.256 82.3829C153.884 78.4059 156.949 74.0797 159.568 69.1327L159.413 69.0745ZM87.6532 63.6425C84.6074 64.2245 82.0078 66.0287 79.8351 68.2791C74.1315 74.1961 71.1051 81.4711 69.2621 89.3863C68.8353 91.2293 69.2233 91.2099 70.6783 90.8607C73.7823 90.1041 76.9057 89.3863 79.7962 87.9895C85.6162 85.1571 90.5632 80.5399 90.6796 72.6829C90.7184 70.4907 91.6689 69.2879 93.4537 69.3655C95.5295 69.4625 95.8399 70.8787 95.9369 72.6635C96.1891 77.3195 97.9157 81.2771 101.543 84.4005C105.753 88.0283 110.7 89.6967 116.016 90.8025C117.645 91.1323 117.82 90.8801 117.49 89.4833C116.307 84.5363 114.658 79.7833 112.136 75.3601C109.362 70.4907 105.831 66.3779 100.515 64.0693C99.4095 63.5843 98.5365 63.5261 97.3531 64.0111C95.6847 64.6901 93.9969 65.2527 91.9987 64.7095C90.6601 64.3409 89.3022 63.7977 87.6726 63.6619L87.6532 63.6425ZM71.1827 58.5209C71.0663 57.6479 71.0663 57.2017 70.9305 56.8137C68.7771 49.9655 67.8266 42.9427 67.6326 35.7841C67.555 32.8935 67.5744 30.0029 67.6326 27.1123C67.652 25.9289 67.264 25.2111 66.2358 24.4933C62.1618 21.6803 57.7192 19.6821 53.0439 18.1301C51.5695 17.6451 49.8041 16.5393 48.6401 16.9855C47.2627 17.5093 47.8059 19.6821 47.5537 21.1759C46.6613 26.3363 46.1569 31.5549 46.4091 36.7735C46.4673 38.1315 45.9435 40.1879 47.7477 40.9057C57.079 44.5141 64.3152 50.8967 71.1827 58.5403V58.5209ZM115.434 58.3269C117.005 57.7643 117.393 56.2899 118.324 55.3199C124.144 49.2865 130.663 44.2619 138.5 41.0803C139.606 40.6341 140.188 39.9163 140.246 38.6941C140.557 31.7683 139.781 24.9201 138.888 18.0719C138.772 17.1795 138.403 16.7333 137.162 17.0825C131.904 18.5181 126.918 20.4969 122.243 23.2905C118.965 25.2305 118.945 25.1723 119.372 28.8777C119.43 29.3045 119.353 29.7507 119.372 30.1775C119.663 33.1457 118.887 36.0557 118.887 39.0045C118.887 42.0697 118.286 45.0961 117.839 48.1419C117.335 51.5757 116.249 54.8737 115.434 58.3463V58.3269ZM77.3325 63.7395C79.1755 61.7413 81.0766 60.8101 82.9972 59.8983C83.9866 59.4327 83.715 58.9089 83.3464 58.1911C81.4452 54.4275 81.5034 50.5863 83.327 46.8809C86.2758 40.9057 93.0269 38.3061 99.1767 41.9145C104.589 45.0961 105.908 52.7979 103.619 57.8613C103.367 58.4045 102.416 59.1029 103.503 59.6267C105.656 60.6937 107.538 62.2069 109.788 63.5649C109.944 58.8895 109.381 54.5051 108.702 50.1401C107.868 44.9215 106.277 39.9163 104.162 35.0857C101.737 29.5567 98.3813 24.6097 94.3655 20.1283C93.6283 19.3135 93.0851 19.1777 92.3091 20.0895C87.8084 25.4827 83.9284 31.2639 81.4452 37.8793C78.3995 45.9885 76.7117 54.3111 77.3713 63.7201L77.3325 63.7395ZM48.8147 64.5737C48.5819 64.0111 48.4461 63.6037 48.2521 63.2157C45.2257 57.5897 43.15 51.6533 42.4128 45.2901C42.2964 44.3589 41.695 44.2619 40.9578 44.0097C34.711 41.8951 28.2897 41.3519 21.7325 41.4101C19.6374 41.4295 19.0748 42.1085 19.3658 43.9709C20.3358 50.2953 21.9265 56.4645 24.1187 62.4979C24.7783 64.3021 25.9035 64.2827 27.2421 64.0305C32.0727 63.1187 36.8644 63.0023 41.7726 63.5455C44.0812 63.7977 46.3703 64.3603 48.8341 64.5543L48.8147 64.5737ZM167.309 41.5847C160.325 41.1773 153.438 41.6817 146.667 43.5829C145.115 44.0291 144.398 44.8439 144.204 46.2019C143.311 52.7009 140.964 58.6761 137.744 64.5931C140.285 64.2051 142.69 63.8753 145.077 63.5261C149.694 62.8665 154.253 63.1769 158.812 63.8365C161.625 64.2439 161.935 64.2439 162.866 61.6249C165.194 55.1647 167.057 48.6075 167.328 41.5459L167.309 41.5847ZM147.075 92.9171C149.927 92.4515 152.817 92.1605 155.591 91.4621C164.263 89.2893 172.275 85.7973 178.735 79.3371C179.531 78.5417 179.958 78.0179 178.755 77.2419C175.049 74.8557 171.247 72.7023 167.076 71.1503C165.059 70.3937 164.166 70.9369 163.254 72.7217C159.297 80.4817 153.574 86.8061 147.075 92.8977V92.9171ZM39.9102 92.8589C39.367 92.2381 39.2118 91.9859 38.9984 91.8113C32.0533 86.2823 26.8929 79.3177 22.7025 71.5771C22.1787 70.6071 21.6355 70.4713 20.6462 70.8205C16.1842 72.3919 12.0714 74.5841 8.13326 77.2031C6.89167 78.0373 6.85287 78.4253 7.90047 79.4147C12.343 83.6827 17.5228 86.7673 23.1875 88.9983C28.4255 91.0741 33.8768 92.2381 39.9102 92.8201V92.8589ZM67.846 76.9897C69.2039 74.7975 69.8635 72.4113 71.4155 70.5101C72.2497 69.4819 72.0363 68.6283 71.3573 67.6195C67.5549 61.9935 63.093 56.9883 57.7774 52.7979C54.7511 50.3923 51.5113 48.2389 47.7089 46.6481C50.1533 59.8013 57.4282 69.4237 67.8653 77.0091L67.846 76.9897ZM138.966 46.8615C138.617 46.8227 138.461 46.7645 138.345 46.8227C137.22 47.4435 136.095 48.0643 134.989 48.7045C126.666 53.5351 120.187 60.2475 114.968 68.2597C114.541 68.9193 114.561 69.3267 114.968 69.9863C116.113 71.8681 117.199 73.7887 118.169 75.7675C118.654 76.7763 119.256 76.7957 119.935 76.2331C122.204 74.3707 124.61 72.6247 126.589 70.4907C130.546 66.2615 133.902 61.5473 136.133 56.1735C137.375 53.1859 138.52 50.1595 138.927 46.8809L138.966 46.8615ZM113.028 45.0379C113.824 39.3149 114.309 33.5919 114.192 27.8301C114.173 26.4333 113.765 25.1529 113.688 23.7755C113.397 18.7121 112.543 13.7457 110.933 8.91514C110.526 7.71234 110.138 7.34374 108.857 7.98394C105.016 9.90454 101.524 12.3489 98.0127 14.7739C96.9651 15.5111 97.5471 15.9573 98.1291 16.5781C101.97 20.6521 105.094 25.2499 107.596 30.2357C109.963 34.9305 111.728 39.8581 113.009 45.0185L113.028 45.0379ZM73.6077 44.4559C74.8299 40.1103 76.4595 35.9781 78.2831 31.9429C80.8438 26.2393 84.4134 21.1759 88.5262 16.5199C89.2246 15.7245 89.244 15.2977 88.468 14.6963C84.976 11.9803 81.2318 9.67174 77.2161 7.78994C76.4983 7.46014 76.1685 7.46014 75.8581 8.41074C73.5107 15.6663 72.9093 23.1935 72.4049 30.7207C72.2303 33.2427 73.0839 35.7065 72.8705 38.2479C72.7153 40.3043 73.5689 42.3025 73.6077 44.4559ZM87.1876 52.6815C87.1876 56.2511 90.2334 59.8595 93.2791 59.7237C97.0815 59.5685 99.7199 56.4451 99.7005 52.5651C99.7005 48.5299 97.0233 45.5035 93.5119 45.4065C90.1364 45.3289 87.1682 48.8015 87.1876 52.6621V52.6815Z" fill="#67A1ED"/>
</g>
</svg>
