<svg width="14" height="14" viewBox="0 0 14 14" fill="none" xmlns="http://www.w3.org/2000/svg">
<path d="M4.08333 10.5C3.90833 10.5 3.79167 10.4417 3.675 10.325C3.44167 10.0917 3.44167 9.74167 3.675 9.50833L9.50833 3.675C9.74167 3.44167 10.0917 3.44167 10.325 3.675C10.5583 3.90833 10.5583 4.25833 10.325 4.49167L4.49167 10.325C4.375 10.4417 4.25833 10.5 4.08333 10.5Z" fill="#A7A7AB"/>
<path d="M9.91634 9.91667C9.56634 9.91667 9.33301 9.68333 9.33301 9.33333V4.66667H4.66634C4.31634 4.66667 4.08301 4.43333 4.08301 4.08333C4.08301 3.73333 4.31634 3.5 4.66634 3.5H9.91634C10.2663 3.5 10.4997 3.73333 10.4997 4.08333V9.33333C10.4997 9.68333 10.2663 9.91667 9.91634 9.91667Z" fill="#A7A7AB"/>
</svg>
