<svg width="18" height="18" viewBox="0 0 18 18" fill="none" xmlns="http://www.w3.org/2000/svg">
<path d="M3.29798 12.198L8.56861 7.0106C8.68361 6.89683 8.83884 6.83302 9.00061 6.83302C9.16237 6.83302 9.31761 6.89683 9.43261 7.0106L14.7032 12.1969C14.8189 12.3106 14.9747 12.3743 15.1369 12.3743C15.2992 12.3743 15.4549 12.3106 15.5706 12.1969C15.6276 12.1413 15.6729 12.0749 15.7038 12.0016C15.7347 11.9283 15.7506 11.8495 15.7506 11.7699C15.7506 11.6903 15.7347 11.6116 15.7038 11.5382C15.6729 11.4649 15.6276 11.3985 15.5706 11.343L10.3011 6.15673C9.95402 5.81593 9.48703 5.625 9.00061 5.625C8.51418 5.625 8.0472 5.81593 7.70011 6.15673L2.43061 11.343C2.37346 11.3985 2.32803 11.465 2.297 11.5384C2.26598 11.6119 2.25 11.6908 2.25 11.7705C2.25 11.8502 2.26598 11.9291 2.297 12.0025C2.32803 12.0759 2.37346 12.1424 2.43061 12.198C2.54632 12.3117 2.70206 12.3754 2.8643 12.3754C3.02653 12.3754 3.18227 12.3117 3.29798 12.198Z" fill="black"/>
</svg>
