<svg width="100" height="100" viewBox="0 0 100 100" fill="none" xmlns="http://www.w3.org/2000/svg">
<g opacity="0.3">
<path d="M93.7165 47.1217C93.7283 46.8294 93.6578 46.5398 93.513 46.2857C93.3683 46.0315 93.1551 45.8231 92.8978 45.6842C92.6728 45.5623 87.8244 43.0295 80.0962 43.7623C83.1353 36.1482 83.5806 28.9201 81.3681 22.2467C81.2738 21.9618 81.0994 21.7101 80.8658 21.5216C80.6322 21.3332 80.3493 21.2161 80.0509 21.1842C79.5759 21.131 69.5041 20.1795 61.6447 27.6732C60.4884 13.7435 51.6103 5.52947 51.1244 5.09041C50.8313 4.82576 50.449 4.68187 50.0542 4.68767C49.6593 4.69347 49.2814 4.84852 48.9962 5.12166C40.3994 13.3638 37.6228 21.4435 37.2056 27.917C29.5603 20.5013 20.4087 21.1451 19.9744 21.1795C19.6692 21.205 19.3783 21.3196 19.1377 21.509C18.8972 21.6985 18.7176 21.9544 18.6212 22.2451C16.4087 28.9217 16.8556 36.1513 19.8931 43.7607C12.1634 43.0295 7.31499 45.5623 7.09155 45.6826C6.83398 45.8217 6.62066 46.0303 6.47591 46.2848C6.33115 46.5392 6.26077 46.8292 6.2728 47.1217C7.1228 68.3201 24.1603 73.6013 29.0041 74.6763V79.3623C24.9181 79.8154 21.9259 83.5138 22.2462 87.6607C22.2462 91.8795 25.6791 95.3138 29.8994 95.3138H70.1681C79.8415 95.1826 80.5712 80.5795 71.0634 79.3607V74.6576C76.0103 73.5451 92.8697 68.206 93.7165 47.1217ZM90.5369 48.0592C89.3212 65.5201 75.954 70.3045 71.0634 71.4763C70.9634 68.8904 71.3837 61.481 70.6212 59.0857C72.0197 57.5232 75.6806 53.1326 78.6197 47.1092C84.49 46.1763 88.7837 47.392 90.5369 48.0592ZM62.1619 62.7279C61.7475 62.7279 61.35 62.8925 61.057 63.1856C60.764 63.4786 60.5994 63.876 60.5994 64.2904V79.2717H39.5572V64.2904C39.5275 62.2388 36.4634 62.2357 36.4322 64.2904V79.2717H32.1291V62.5795C32.1291 56.2904 37.2462 51.1732 43.5353 51.1732C47.3072 51.1967 52.7603 51.1888 56.5322 51.1732C62.8212 51.1732 67.9384 56.2904 67.9384 62.5795V79.2701H63.7244V64.2888C63.7244 63.8744 63.5597 63.477 63.2667 63.184C62.9737 62.891 62.5763 62.7279 62.1619 62.7279ZM50.8072 48.0482C46.6822 48.4857 42.8525 45.2451 42.8869 40.9967C43.1869 31.5763 56.8853 31.5779 57.1837 40.9967C57.1837 44.6638 54.3822 47.6592 50.8072 48.0482ZM78.7134 24.2388C82.1087 34.2935 75.8822 48.2513 69.354 55.7513C68.1849 53.5642 66.4757 51.7126 64.389 50.3725C62.3023 49.0324 59.9074 48.2484 57.4322 48.0951C59.2151 46.2512 60.2377 43.8031 60.2962 41.2388C61.1759 38.0482 61.6181 35.0388 61.7369 32.217C67.5165 24.767 75.8337 24.1857 78.7134 24.2388ZM50.0666 8.4576C52.8634 11.4998 60.115 20.9248 58.354 35.0045C57.4037 33.6865 56.154 32.6129 54.7078 31.8722C53.2616 31.1314 51.6602 30.7446 50.0353 30.7435C48.2045 30.7445 46.4071 31.2343 44.829 32.1625C43.2508 33.0907 41.9493 34.4235 41.0587 36.0232C39.5587 30.3982 38.9728 19.7717 50.0666 8.4576ZM21.2697 24.2748C24.0197 24.3373 31.6181 25.2404 37.3119 32.7263C37.8025 37.2373 39.2541 40.3982 39.7837 41.4279C39.8862 43.9243 40.9014 46.2962 42.6369 48.0935C40.1508 48.2486 37.7463 49.0399 35.654 50.3915C33.5617 51.7431 31.8518 53.6097 30.6884 55.8123C24.1416 48.2873 17.8916 34.4013 21.2681 24.2748H21.2697ZM9.45405 48.056C11.2119 47.3842 15.5009 46.1748 21.3712 47.1076C24.3603 53.231 28.0869 57.6576 29.4306 59.1545C28.6978 61.4717 29.1025 69.006 29.0056 71.4982C24.1837 70.3763 10.6775 65.6717 9.45405 48.056ZM25.3697 87.6607C25.0525 84.5685 27.4572 82.0951 30.565 82.3967H53.6275C53.3004 83.3668 52.6776 84.21 51.8467 84.8081C51.0158 85.4061 50.0184 85.7289 48.9947 85.731C44.765 85.3248 40.7853 88.0638 40.0119 92.1888H29.9009C28.7004 92.1876 27.5494 91.7101 26.7004 90.8612C25.8515 90.0123 25.374 88.8613 25.3728 87.6607H25.3697ZM74.6947 86.9263C74.9947 89.6576 72.9947 92.2076 70.1681 92.1888H43.2603C43.5875 91.2195 44.2099 90.377 45.0402 89.7793C45.8704 89.1816 46.867 88.8587 47.89 88.856C52.1212 89.2623 56.1009 86.5232 56.8744 82.3967H69.5009C72.2134 82.1154 74.7165 84.1373 74.6962 86.9248L74.6947 86.9263Z" fill="black"/>
</g>
</svg>
