<svg width="33" height="28" viewBox="0 0 33 28" fill="none" xmlns="http://www.w3.org/2000/svg">
<g clip-path="url(#clip0_280_30159)">
<path d="M9.35965 11.6218H12.2168C12.3683 11.6218 12.5137 11.5616 12.6209 11.4544C12.728 11.3473 12.7882 11.2019 12.7882 11.0504C12.7882 10.8988 12.728 10.7535 12.6209 10.6463C12.5137 10.5391 12.3683 10.4789 12.2168 10.4789H9.35965C9.2081 10.4789 9.06276 10.5391 8.95559 10.6463C8.84843 10.7535 8.78823 10.8988 8.78823 11.0504C8.78823 11.2019 8.84843 11.3473 8.95559 11.4544C9.06276 11.5616 9.2081 11.6218 9.35965 11.6218ZM14.5025 11.6218H15.0739C15.2255 11.6218 15.3708 11.5616 15.478 11.4544C15.5852 11.3473 15.6454 11.2019 15.6454 11.0504C15.6454 10.8988 15.5852 10.7535 15.478 10.6463C15.3708 10.5391 15.2255 10.4789 15.0739 10.4789H14.5025C14.351 10.4789 14.2056 10.5391 14.0984 10.6463C13.9913 10.7535 13.9311 10.8988 13.9311 11.0504C13.9311 11.2019 13.9913 11.3473 14.0984 11.4544C14.2056 11.5616 14.351 11.6218 14.5025 11.6218ZM9.35965 13.9075H9.93108C10.0826 13.9075 10.228 13.8473 10.3351 13.7401C10.4423 13.633 10.5025 13.4876 10.5025 13.3361C10.5025 13.1845 10.4423 13.0392 10.3351 12.932C10.228 12.8249 10.0826 12.7646 9.93108 12.7646H9.35965C9.2081 12.7646 9.06276 12.8249 8.95559 12.932C8.84843 13.0392 8.78823 13.1845 8.78823 13.3361C8.78823 13.4876 8.84843 13.633 8.95559 13.7401C9.06276 13.8473 9.2081 13.9075 9.35965 13.9075ZM15.0739 12.7646H12.2168C12.0652 12.7646 11.9199 12.8249 11.8127 12.932C11.7056 13.0392 11.6454 13.1845 11.6454 13.3361C11.6454 13.4876 11.7056 13.633 11.8127 13.7401C11.9199 13.8473 12.0652 13.9075 12.2168 13.9075H15.0739C15.2255 13.9075 15.3708 13.8473 15.478 13.7401C15.5852 13.633 15.6454 13.4876 15.6454 13.3361C15.6454 13.1845 15.5852 13.0392 15.478 12.932C15.3708 12.8249 15.2255 12.7646 15.0739 12.7646ZM9.35965 16.1932H15.0739C15.2255 16.1932 15.3708 16.133 15.478 16.0259C15.5852 15.9187 15.6454 15.7733 15.6454 15.6218C15.6454 15.4702 15.5852 15.3249 15.478 15.2177C15.3708 15.1106 15.2255 15.0504 15.0739 15.0504H9.35965C9.2081 15.0504 9.06276 15.1106 8.95559 15.2177C8.84843 15.3249 8.78823 15.4702 8.78823 15.6218C8.78823 15.7733 8.84843 15.9187 8.95559 16.0259C9.06276 16.133 9.2081 16.1932 9.35965 16.1932ZM17.3597 15.0504V16.1932C17.3597 16.3448 17.2995 16.4901 17.1923 16.5973C17.0851 16.7044 16.9398 16.7646 16.7882 16.7646C16.6367 16.7646 16.4913 16.8249 16.3842 16.932C16.277 17.0392 16.2168 17.1845 16.2168 17.3361C16.2168 17.4876 16.277 17.633 16.3842 17.7401C16.4913 17.8473 16.6367 17.9075 16.7882 17.9075C17.2429 17.9075 17.6789 17.7269 18.0004 17.4054C18.3219 17.0839 18.5025 16.6479 18.5025 16.1932V15.0504C18.5025 14.7473 18.6229 14.4566 18.8372 14.2422C19.0516 14.0279 19.3423 13.9075 19.6454 13.9075C19.7969 13.9075 19.9423 13.8473 20.0494 13.7401C20.1566 13.633 20.2168 13.4876 20.2168 13.3361C20.2168 13.1845 20.1566 13.0392 20.0494 12.932C19.9423 12.8249 19.7969 12.7646 19.6454 12.7646C19.3423 12.7646 19.0516 12.6442 18.8372 12.4299C18.6229 12.2156 18.5025 11.9249 18.5025 11.6218V10.4789C18.5025 10.0243 18.3219 9.58824 18.0004 9.26675C17.6789 8.94526 17.2429 8.76465 16.7882 8.76465C16.6367 8.76465 16.4913 8.82485 16.3842 8.93202C16.277 9.03918 16.2168 9.18452 16.2168 9.33608C16.2168 9.48763 16.277 9.63297 16.3842 9.74014C16.4913 9.8473 16.6367 9.90751 16.7882 9.90751C16.9398 9.90751 17.0851 9.96771 17.1923 10.0749C17.2995 10.182 17.3597 10.3274 17.3597 10.4789V11.6218C17.3615 11.9472 17.4328 12.2685 17.5688 12.5641C17.7048 12.8597 17.9023 13.1229 18.1482 13.3361C17.9023 13.5492 17.7048 13.8124 17.5688 14.108C17.4328 14.4037 17.3615 14.725 17.3597 15.0504ZM4.78823 13.9075C5.09133 13.9075 5.38202 14.0279 5.59635 14.2422C5.81067 14.4566 5.93108 14.7473 5.93108 15.0504V16.1932C5.93108 16.6479 6.11169 17.0839 6.43319 17.4054C6.75468 17.7269 7.19071 17.9075 7.64537 17.9075C7.79692 17.9075 7.94227 17.8473 8.04943 17.7401C8.15659 17.633 8.2168 17.4876 8.2168 17.3361C8.2168 17.1845 8.15659 17.0392 8.04943 16.932C7.94227 16.8249 7.79692 16.7646 7.64537 16.7646C7.49382 16.7646 7.34847 16.7044 7.24131 16.5973C7.13414 16.4901 7.07394 16.3448 7.07394 16.1932V15.0504C7.0721 14.725 7.0008 14.4037 6.86481 14.108C6.72882 13.8124 6.53127 13.5492 6.28537 13.3361C6.53127 13.1229 6.72882 12.8597 6.86481 12.5641C7.0008 12.2685 7.0721 11.9472 7.07394 11.6218V10.4789C7.07394 10.3274 7.13414 10.182 7.24131 10.0749C7.34847 9.96771 7.49382 9.90751 7.64537 9.90751C7.79692 9.90751 7.94227 9.8473 8.04943 9.74014C8.15659 9.63297 8.2168 9.48763 8.2168 9.33608C8.2168 9.18452 8.15659 9.03918 8.04943 8.93202C7.94227 8.82485 7.79692 8.76465 7.64537 8.76465C7.19071 8.76465 6.75468 8.94526 6.43319 9.26675C6.11169 9.58824 5.93108 10.0243 5.93108 10.4789V11.6218C5.93108 11.9249 5.81067 12.2156 5.59635 12.4299C5.38202 12.6442 5.09133 12.7646 4.78823 12.7646C4.63667 12.7646 4.49133 12.8249 4.38416 12.932C4.277 13.0392 4.2168 13.1845 4.2168 13.3361C4.2168 13.4876 4.277 13.633 4.38416 13.7401C4.49133 13.8473 4.63667 13.9075 4.78823 13.9075Z" fill="#E85F3C"/>
<path d="M31.0739 23.0504H30.5025V5.33608C30.5025 5.18452 30.4423 5.03918 30.3351 4.93202C30.228 4.82485 30.0826 4.76465 29.9311 4.76465H2.50251C2.35096 4.76465 2.20561 4.82485 2.09845 4.93202C1.99129 5.03918 1.93108 5.18452 1.93108 5.33608V23.0504H1.35965C1.05655 23.0504 0.765859 23.1708 0.551532 23.3851C0.337205 23.5994 0.216797 23.8901 0.216797 24.1932V24.7646C0.216797 25.5224 0.517816 26.2491 1.05363 26.785C1.58945 27.3208 2.31618 27.6218 3.07394 27.6218H29.3597C30.1174 27.6218 30.8441 27.3208 31.38 26.785C31.9158 26.2491 32.2168 25.5224 32.2168 24.7646V24.1932C32.2168 23.8901 32.0964 23.5994 31.8821 23.3851C31.6677 23.1708 31.377 23.0504 31.0739 23.0504ZM25.9311 18.4789C25.705 18.4789 25.4841 18.4119 25.2961 18.2863C25.1082 18.1607 24.9617 17.9823 24.8752 17.7734C24.7887 17.5646 24.7661 17.3348 24.8102 17.1131C24.8543 16.8914 24.9631 16.6878 25.123 16.528C25.2828 16.3681 25.4864 16.2593 25.7081 16.2152C25.9298 16.1711 26.1596 16.1937 26.3684 16.2802C26.5773 16.3667 26.7558 16.5132 26.8813 16.7011C27.0069 16.8891 27.0739 17.11 27.0739 17.3361C27.0739 17.6392 26.9535 17.9299 26.7392 18.1442C26.5249 18.3585 26.2342 18.4789 25.9311 18.4789ZM24.9311 19.3818C25.2409 19.5394 25.5835 19.6215 25.9311 19.6215C26.2786 19.6215 26.6213 19.5394 26.9311 19.3818C27.1508 19.5396 27.3301 19.7471 27.4542 19.9875C27.5784 20.2278 27.6439 20.4941 27.6454 20.7646H24.2168C24.2183 20.4941 24.2838 20.2278 24.408 19.9875C24.5321 19.7471 24.7114 19.5396 24.9311 19.3818ZM27.7882 18.6275C28.0234 18.2842 28.1604 17.8832 28.1844 17.4677C28.2084 17.0522 28.1186 16.6381 27.9245 16.2699C27.7305 15.9018 27.4396 15.5936 27.0833 15.3787C26.7269 15.1637 26.3187 15.0501 25.9025 15.0501C25.4864 15.0501 25.0781 15.1637 24.7218 15.3787C24.3654 15.5936 24.0746 15.9018 23.8805 16.2699C23.6865 16.6381 23.5966 17.0522 23.6206 17.4677C23.6446 17.8832 23.7816 18.2842 24.0168 18.6275C23.7162 18.8958 23.4766 19.2254 23.3139 19.594C23.1513 19.9626 23.0695 20.3618 23.0739 20.7646H22.5025V13.9075H29.3597V20.7646H28.7882C28.7891 20.3596 28.7028 19.9591 28.5352 19.5903C28.3676 19.2215 28.1226 18.8932 27.8168 18.6275H27.7882ZM25.9311 10.4789C25.705 10.4789 25.4841 10.4119 25.2961 10.2863C25.1082 10.1607 24.9617 9.98226 24.8752 9.77343C24.7887 9.5646 24.7661 9.33481 24.8102 9.11312C24.8543 8.89142 24.9631 8.68779 25.123 8.52796C25.2828 8.36812 25.4864 8.25928 25.7081 8.21518C25.9298 8.17108 26.1596 8.19371 26.3684 8.28021C26.5773 8.36671 26.7558 8.5132 26.8813 8.70114C27.0069 8.88908 27.0739 9.11004 27.0739 9.33608C27.0739 9.63918 26.9535 9.92987 26.7392 10.1442C26.5249 10.3585 26.2342 10.4789 25.9311 10.4789ZM24.9311 11.3818C25.2409 11.5394 25.5835 11.6215 25.9311 11.6215C26.2786 11.6215 26.6213 11.5394 26.9311 11.3818C27.1508 11.5396 27.3301 11.7471 27.4542 11.9875C27.5784 12.2278 27.6439 12.4941 27.6454 12.7646H24.2168C24.2183 12.4941 24.2838 12.2278 24.408 11.9875C24.5321 11.7471 24.7114 11.5396 24.9311 11.3818ZM29.3597 5.90751V12.7646H28.7882C28.7891 12.3596 28.7028 11.9591 28.5352 11.5903C28.3676 11.2215 28.1226 10.8932 27.8168 10.6275C28.052 10.2842 28.189 9.88315 28.213 9.46769C28.237 9.05223 28.1471 8.63809 27.9531 8.26995C27.759 7.90181 27.4682 7.59363 27.1118 7.37865C26.7555 7.16367 26.3472 7.05006 25.9311 7.05006C25.5149 7.05006 25.1067 7.16367 24.7503 7.37865C24.394 7.59363 24.1031 7.90181 23.9091 8.26995C23.715 8.63809 23.6252 9.05223 23.6492 9.46769C23.6732 9.88315 23.8102 10.2842 24.0454 10.6275C23.7396 10.8932 23.4946 11.2215 23.327 11.5903C23.1593 11.9591 23.073 12.3596 23.0739 12.7646H22.5025V5.90751H29.3597ZM21.3597 5.90751V20.7646H3.07394V5.90751H21.3597ZM3.07394 21.9075H29.3597V23.0504H20.7882C20.713 23.0499 20.6385 23.0643 20.5689 23.0928C20.4992 23.1212 20.4359 23.1631 20.3825 23.2161L19.4111 24.1932H13.0225L12.0511 23.2161C11.9977 23.1631 11.9344 23.1212 11.8647 23.0928C11.7951 23.0643 11.7206 23.0499 11.6454 23.0504H3.07394V21.9075ZM31.0739 24.7646C31.0739 25.2193 30.8933 25.6553 30.5718 25.9768C30.2503 26.2983 29.8143 26.4789 29.3597 26.4789H3.07394C2.61928 26.4789 2.18325 26.2983 1.86176 25.9768C1.54027 25.6553 1.35965 25.2193 1.35965 24.7646V24.1932H11.4111L12.3825 25.1704C12.4359 25.2233 12.4992 25.2652 12.5689 25.2937C12.6385 25.3221 12.713 25.3365 12.7882 25.3361H19.6454C19.7206 25.3365 19.7951 25.3221 19.8647 25.2937C19.9344 25.2652 19.9977 25.2233 20.0511 25.1704L21.0225 24.1932H31.0739V24.7646Z" fill="#E85F3C"/>
</g>
<defs>
<clipPath id="clip0_280_30159">
<rect width="32" height="27" fill="white" transform="translate(0.216797 0.764648)"/>
</clipPath>
</defs>
</svg>
