<svg width="19" height="19" viewBox="0 0 19 19" fill="none" xmlns="http://www.w3.org/2000/svg">
<path d="M17.1036 4.53851H14.8381C14.6844 4.53851 14.5598 4.66309 14.5598 4.81683C14.5598 4.97058 14.6844 5.09515 14.8381 5.09515H17.1036C17.2573 5.09515 17.3819 4.97058 17.3819 4.81683C17.3819 4.66309 17.2573 4.53851 17.1036 4.53851ZM17.1036 5.77908H14.8381C14.6844 5.77908 14.5598 5.90366 14.5598 6.0574C14.5598 6.21114 14.6844 6.33572 14.8381 6.33572H17.1036C17.2573 6.33572 17.3819 6.21114 17.3819 6.0574C17.3819 5.90366 17.2573 5.77908 17.1036 5.77908Z" fill="black"/>
<path d="M18.5361 7.60333C18.7919 7.60333 19 7.39526 19 7.13946V3.73486C19 3.47907 18.7919 3.271 18.5361 3.271H13.4055C13.1497 3.271 12.9416 3.47907 12.9416 3.73486V4.07835H6.3457C6.192 4.07835 6.06738 4.20292 6.06738 4.35667C6.06738 4.51041 6.192 4.63499 6.3457 4.63499H12.9416V5.16769H3.29127C3.03547 5.16769 2.8274 5.37577 2.8274 5.63156V12.8292C2.8274 13.085 3.03547 13.2931 3.29127 13.2931H15.7087C15.9645 13.2931 16.1726 13.085 16.1726 12.8292V10.3164C16.1726 10.1627 16.048 10.0381 15.8943 10.0381C15.7406 10.0381 15.616 10.1627 15.616 10.3164V12.7364H15.0419C14.9731 12.403 14.8295 12.0895 14.6219 11.8196C14.4143 11.5497 14.1482 11.3305 13.8435 11.1784C14.058 10.9391 14.1887 10.6231 14.1887 10.2772C14.1887 9.5315 13.582 8.92483 12.8363 8.92483C12.0906 8.92483 11.4839 9.53153 11.4839 10.2772C11.4839 10.6231 11.6146 10.9391 11.8291 11.1784C11.5244 11.3305 11.2583 11.5497 11.0507 11.8196C10.8431 12.0895 10.6995 12.403 10.6307 12.7364H10.0566V5.72433H12.9416V7.13946C12.9416 7.39526 13.1497 7.60333 13.4055 7.60333H13.8586V8.33947C13.8586 8.51633 13.9568 8.67531 14.115 8.75439C14.1795 8.7868 14.2507 8.80371 14.3229 8.80378C14.4211 8.80378 14.5185 8.77228 14.6008 8.71056L15.6159 7.94915V9.01757C15.6159 9.17131 15.7405 9.29589 15.8942 9.29589C16.0479 9.29589 16.1726 9.17131 16.1726 9.01757V7.60333H16.7076V13.8239H2.30078V4.72772C2.30078 4.67655 2.34242 4.63495 2.39355 4.63495H5.04688C5.20058 4.63495 5.3252 4.51038 5.3252 4.35663C5.3252 4.20289 5.20058 4.07831 5.04688 4.07831H2.39355C2.03549 4.07831 1.74414 4.36966 1.74414 4.72772V13.8239H0.463867C0.208072 13.8239 0 14.0319 0 14.2877V15.2651C0 15.5209 0.208072 15.729 0.463867 15.729H12.6543C12.808 15.729 12.9326 15.6044 12.9326 15.4507C12.9326 15.2969 12.808 15.1723 12.6543 15.1723H0.556641V14.3805H18.4434V15.1723H13.9531C13.7994 15.1723 13.6748 15.2969 13.6748 15.4507C13.6748 15.6044 13.7994 15.729 13.9531 15.729H18.5361C18.7919 15.729 19 15.5209 19 15.2651V14.2877C19 14.0319 18.7919 13.8239 18.5361 13.8239H17.2643V7.60333H18.5361ZM5.26656 12.7364C5.3999 12.3544 5.71106 12.0638 6.0993 11.9544C6.20729 11.9897 6.32244 12.009 6.44204 12.009C6.56164 12.009 6.67679 11.9897 6.78478 11.9544C7.17298 12.0638 7.48418 12.3544 7.61752 12.7364H5.26656ZM5.89122 10.9015C5.89122 10.5978 6.1383 10.3507 6.44204 10.3507C6.74574 10.3507 6.99282 10.5978 6.99282 10.9015C6.99282 11.2052 6.74574 11.4523 6.44204 11.4523C6.1383 11.4523 5.89122 11.2052 5.89122 10.9015ZM9.5 12.7364H8.19583C8.07812 12.2321 7.75467 11.8161 7.31986 11.5755C7.46889 11.3825 7.54965 11.1454 7.54946 10.9015C7.54946 10.2909 7.05267 9.79405 6.44204 9.79405C5.83137 9.79405 5.33458 10.2909 5.33458 10.9015C5.33458 11.155 5.42038 11.3887 5.56418 11.5755C5.12937 11.8162 4.80592 12.2321 4.68821 12.7364H3.38404V9.50871H9.5V12.7364ZM6.09926 8.16999C6.20725 8.20524 6.3224 8.22454 6.442 8.22454C6.56161 8.22454 6.67676 8.20524 6.78474 8.16999C7.17295 8.27943 7.48411 8.56999 7.61748 8.95203H5.26656C5.39993 8.56995 5.71106 8.27943 6.09926 8.16999ZM5.89122 7.11712C5.89122 6.81338 6.1383 6.56631 6.44204 6.56631C6.74574 6.56631 6.99282 6.81338 6.99282 7.11712C6.99282 7.42083 6.74574 7.6679 6.44204 7.6679C6.1383 7.6679 5.89122 7.42083 5.89122 7.11712ZM9.5 8.95203H8.19583C8.07812 8.44772 7.75467 8.03176 7.31986 7.7911C7.46889 7.59805 7.54965 7.36101 7.54946 7.11712C7.54946 6.50649 7.05267 6.00967 6.44204 6.00967C5.83137 6.00967 5.33458 6.50649 5.33458 7.11712C5.33458 7.37058 5.42038 7.6043 5.56418 7.79114C5.12941 8.0318 4.80596 8.44775 4.68821 8.95207H3.38404V5.72433H9.5V8.95203ZM12.8363 9.48144C13.2751 9.48144 13.632 9.83839 13.632 10.2772C13.632 10.7159 13.275 11.0729 12.8363 11.0729C12.3975 11.0729 12.0405 10.7159 12.0405 10.2772C12.0405 9.83839 12.3975 9.48144 12.8363 9.48144ZM12.3932 11.5546C12.5321 11.6029 12.6811 11.6295 12.8363 11.6295C12.9914 11.6295 13.1405 11.6029 13.2794 11.5546C13.564 11.6301 13.8238 11.779 14.0329 11.9864C14.2419 12.1938 14.3929 12.4524 14.4707 12.7364H11.2018C11.2797 12.4524 11.4307 12.1938 11.6397 11.9864C11.8488 11.7791 12.1086 11.6301 12.3932 11.5546ZM16.0462 7.04669C15.9464 7.04669 15.8476 7.07964 15.7678 7.13946L14.4152 8.15392V7.51056C14.4152 7.25476 14.2072 7.04669 13.9514 7.04669H13.4983V3.82764H18.4434V7.04669H16.0462Z" fill="black"/>
<path d="M10.8174 6.75391C10.9711 6.75391 11.0957 6.6293 11.0957 6.47559C11.0957 6.32187 10.9711 6.19727 10.8174 6.19727C10.6637 6.19727 10.5391 6.32187 10.5391 6.47559C10.5391 6.6293 10.6637 6.75391 10.8174 6.75391Z" fill="black"/>
<path d="M11.5967 6.75391C11.7504 6.75391 11.875 6.6293 11.875 6.47559C11.875 6.32187 11.7504 6.19727 11.5967 6.19727C11.443 6.19727 11.3184 6.32187 11.3184 6.47559C11.3184 6.6293 11.443 6.75391 11.5967 6.75391Z" fill="black"/>
</svg>
