<svg width="30" height="31" viewBox="0 0 30 31" fill="none" xmlns="http://www.w3.org/2000/svg">
<g clip-path="url(#clip0_280_20320)">
<path d="M1.164 9.45027H28.836C29.1447 9.45027 29.4408 9.32763 29.6591 9.10934C29.8774 8.89105 30 8.59498 30 8.28627C30 7.97756 29.8774 7.68149 29.6591 7.4632C29.4408 7.2449 29.1447 7.12227 28.836 7.12227H1.164C0.855288 7.12227 0.55922 7.2449 0.340928 7.4632C0.122635 7.68149 0 7.97756 0 8.28627C0 8.59498 0.122635 8.89105 0.340928 9.10934C0.55922 9.32763 0.855288 9.45027 1.164 9.45027Z" fill="white"/>
<path d="M28.836 14.5911H1.164C0.855288 14.5911 0.55922 14.7137 0.340928 14.932C0.122635 15.1503 0 15.4464 0 15.7551C0 16.0638 0.122635 16.3599 0.340928 16.5782C0.55922 16.7964 0.855288 16.9191 1.164 16.9191H28.836C29.1447 16.9191 29.4408 16.7964 29.6591 16.5782C29.8774 16.3599 30 16.0638 30 15.7551C30 15.4464 29.8774 15.1503 29.6591 14.932C29.4408 14.7137 29.1447 14.5911 28.836 14.5911Z" fill="white"/>
<path d="M28.836 22.0598H1.164C0.855288 22.0598 0.55922 22.1824 0.340928 22.4007C0.122635 22.619 0 22.9151 0 23.2238C0 23.5325 0.122635 23.8286 0.340928 24.0468C0.55922 24.2651 0.855288 24.3878 1.164 24.3878H28.836C29.1447 24.3878 29.4408 24.2651 29.6591 24.0468C29.8774 23.8286 30 23.5325 30 23.2238C30 22.9151 29.8774 22.619 29.6591 22.4007C29.4408 22.1824 29.1447 22.0598 28.836 22.0598Z" fill="white"/>
</g>
<defs>
<clipPath id="clip0_280_20320">
<rect width="30" height="30" fill="white" transform="translate(0 0.755081)"/>
</clipPath>
</defs>
</svg>
