<svg width="18" height="18" viewBox="0 0 18 18" fill="none" xmlns="http://www.w3.org/2000/svg">
<g clip-path="url(#clip0_4100_913)">
<path d="M4.59117 0.457031C4.07472 0.457031 3.67007 0.757863 3.67007 1.14191V1.8951H1.98212C1.68587 1.89544 1.40186 2.01328 1.19238 2.22276C0.98291 2.43224 0.865081 2.71626 0.864746 3.0125V16.4266C0.865221 16.7227 0.983127 17.0065 1.1926 17.2158C1.40207 17.4251 1.68601 17.5428 1.98212 17.543H16.0211C16.317 17.5426 16.6008 17.4249 16.8101 17.2156C17.0194 17.0063 17.1371 16.7226 17.1374 16.4266V3.0125C17.1372 2.71639 17.0196 2.43245 16.8103 2.22296C16.601 2.01348 16.3172 1.89557 16.0211 1.8951H14.332V1.14191C14.332 0.757863 13.9278 0.457031 13.412 0.457031C12.8955 0.457031 12.4909 0.757863 12.4909 1.14191V1.8951H9.92219V1.14191C9.92219 0.757863 9.51758 0.457031 9.0011 0.457031C8.48462 0.457031 8.08 0.757863 8.08 1.14191V1.8951H5.51219V1.14191C5.51223 0.757863 5.10765 0.457031 4.59117 0.457031ZM4.23257 1.14609C4.24959 1.10925 4.37886 1.01953 4.59117 1.01953C4.80348 1.01953 4.93271 1.10925 4.94976 1.14609V1.8951H4.23257V1.14609ZM1.42711 5.41055H16.5749V13.7795H14.4784C14.4038 13.7795 14.3323 13.8091 14.2796 13.8619C14.2268 13.9146 14.1972 13.9862 14.1972 14.0607V16.1574H1.98212C1.83498 16.1572 1.69392 16.0987 1.58989 15.9946C1.48586 15.8906 1.42737 15.7495 1.42725 15.6023L1.42711 5.41055ZM16.1771 14.342L14.7597 15.7595V14.3419L16.1771 14.342ZM16.0211 16.9805H1.98212C1.86276 16.9804 1.7466 16.9419 1.65083 16.8707C1.55505 16.7994 1.48476 16.6992 1.45034 16.585C1.61354 16.6737 1.79637 16.72 1.98212 16.7198H14.4784C14.553 16.7198 14.6246 16.6901 14.6774 16.6374L16.5751 14.7397V16.4266C16.5749 16.5734 16.5165 16.7143 16.4126 16.8181C16.3087 16.9219 16.1679 16.9803 16.0211 16.9805ZM13.0534 1.14609C13.0702 1.10936 13.1993 1.01971 13.412 1.01971C13.6241 1.01971 13.753 1.10936 13.7696 1.14606V1.8951H13.0535L13.0534 1.14609ZM8.6425 1.14609C8.65955 1.10929 8.78879 1.01953 9.0011 1.01953C9.21341 1.01953 9.34261 1.10925 9.35969 1.14609V1.8951H8.6425V1.14609ZM9.0011 3.64957C9.07569 3.64957 9.14723 3.61994 9.19997 3.56719C9.25272 3.51445 9.28235 3.44291 9.28235 3.36832C9.28235 3.29373 9.25272 3.22219 9.19997 3.16945C9.14723 3.1167 9.07569 3.08707 9.0011 3.08707C8.7896 3.08707 8.66008 2.99721 8.6425 2.96016V2.4576H12.4909V2.96466C12.4909 3.3487 12.8955 3.64954 13.412 3.64954C13.4866 3.64954 13.5581 3.6199 13.6109 3.56716C13.6636 3.51441 13.6933 3.44288 13.6933 3.36829C13.6933 3.29369 13.6636 3.22216 13.6109 3.16941C13.5581 3.11667 13.4866 3.08704 13.412 3.08704C13.2001 3.08704 13.0707 2.99725 13.0534 2.9603V2.45756H16.0211C16.168 2.45786 16.3089 2.51645 16.4127 2.62048C16.5166 2.72451 16.5749 2.86548 16.5749 3.01247V4.84805H1.42725V3.0125C1.42739 2.86539 1.4859 2.72433 1.58993 2.6203C1.69395 2.51627 1.835 2.45776 1.98212 2.4576H3.67014V2.96466C3.67014 3.3487 4.07472 3.64954 4.59124 3.64954C4.66583 3.64954 4.73737 3.6199 4.79011 3.56716C4.84286 3.51441 4.87249 3.44288 4.87249 3.36829C4.87249 3.29369 4.84286 3.22216 4.79011 3.16941C4.73737 3.11667 4.66583 3.08704 4.59124 3.08704C4.37974 3.08704 4.25022 2.99718 4.23264 2.96012V2.4576H8.08V2.96466C8.08 3.3487 8.48462 3.64957 9.0011 3.64957ZM6.66011 8.75605H8.09122C8.16581 8.75605 8.23735 8.72642 8.29009 8.67367C8.34284 8.62093 8.37247 8.54939 8.37247 8.4748V7.21213C8.37247 7.13754 8.34284 7.066 8.29009 7.01326C8.23735 6.96051 8.16581 6.93088 8.09122 6.93088H6.66011C6.58552 6.93088 6.51398 6.96051 6.46124 7.01326C6.40849 7.066 6.37886 7.13754 6.37886 7.21213V8.4748C6.37886 8.54939 6.40849 8.62093 6.46124 8.67367C6.51398 8.72642 6.58552 8.75605 6.66011 8.75605ZM6.94136 7.49338H7.80997V8.19355H6.94136V7.49338ZM9.91098 8.75605H11.342C11.4166 8.75605 11.4882 8.72642 11.5409 8.67367C11.5937 8.62093 11.6233 8.54939 11.6233 8.4748V7.21213C11.6233 7.13754 11.5937 7.066 11.5409 7.01326C11.4882 6.96051 11.4166 6.93088 11.342 6.93088H9.91098C9.83638 6.93088 9.76485 6.96051 9.7121 7.01326C9.65936 7.066 9.62973 7.13754 9.62973 7.21213V8.4748C9.62973 8.54939 9.65936 8.62093 9.7121 8.67367C9.76485 8.72642 9.83638 8.75605 9.91098 8.75605ZM10.1922 7.49338H11.0608V8.19355H10.1922V7.49338ZM3.40925 11.8455H4.8413C4.9159 11.8455 4.98743 11.8158 5.04018 11.7631C5.09292 11.7104 5.12255 11.6388 5.12255 11.5642V10.3025C5.12255 10.2279 5.09292 10.1564 5.04018 10.1037C4.98743 10.0509 4.9159 10.0213 4.8413 10.0213H3.40925C3.33466 10.0213 3.26312 10.0509 3.21038 10.1037C3.15763 10.1564 3.128 10.2279 3.128 10.3025V11.5642C3.128 11.6388 3.15763 11.7104 3.21038 11.7631C3.26312 11.8158 3.33466 11.8455 3.40925 11.8455ZM3.6905 10.5838H4.56005V11.283H3.6905V10.5838ZM6.66011 11.8455H8.09122C8.16581 11.8455 8.23735 11.8158 8.29009 11.7631C8.34284 11.7104 8.37247 11.6388 8.37247 11.5642V10.3025C8.37247 10.2279 8.34284 10.1564 8.29009 10.1037C8.23735 10.0509 8.16581 10.0213 8.09122 10.0213H6.66011C6.58552 10.0213 6.51398 10.0509 6.46124 10.1037C6.40849 10.1564 6.37886 10.2279 6.37886 10.3025V11.5642C6.37886 11.6388 6.40849 11.7104 6.46124 11.7631C6.51398 11.8158 6.58552 11.8455 6.66011 11.8455ZM6.94136 10.5838H7.80997V11.283H6.94136V10.5838ZM9.91098 11.8455H11.342C11.4166 11.8455 11.4882 11.8158 11.5409 11.7631C11.5937 11.7104 11.6233 11.6388 11.6233 11.5642V10.3025C11.6233 10.2279 11.5937 10.1564 11.5409 10.1037C11.4882 10.0509 11.4166 10.0213 11.342 10.0213H9.91098C9.83638 10.0213 9.76485 10.0509 9.7121 10.1037C9.65936 10.1564 9.62973 10.2279 9.62973 10.3025V11.5642C9.62973 11.6388 9.65936 11.7104 9.7121 11.7631C9.76485 11.8158 9.83638 11.8455 9.91098 11.8455ZM10.1922 10.5838H11.0608V11.283H10.1922V10.5838ZM3.40925 14.9349H4.8413C4.9159 14.9349 4.98743 14.9053 5.04018 14.8525C5.09292 14.7998 5.12255 14.7282 5.12255 14.6537V13.392C5.12255 13.3174 5.09292 13.2458 5.04018 13.1931C4.98743 13.1403 4.9159 13.1107 4.8413 13.1107H3.40925C3.33466 13.1107 3.26312 13.1403 3.21038 13.1931C3.15763 13.2458 3.128 13.3174 3.128 13.392V14.6537C3.128 14.7282 3.15763 14.7998 3.21038 14.8525C3.26312 14.9053 3.33466 14.9349 3.40925 14.9349ZM3.6905 13.6732H4.56005V14.3724H3.6905V13.6732ZM6.66011 14.9349H8.09122C8.16581 14.9349 8.23735 14.9053 8.29009 14.8525C8.34284 14.7998 8.37247 14.7282 8.37247 14.6537V13.392C8.37247 13.3174 8.34284 13.2458 8.29009 13.1931C8.23735 13.1403 8.16581 13.1107 8.09122 13.1107H6.66011C6.58552 13.1107 6.51398 13.1403 6.46124 13.1931C6.40849 13.2458 6.37886 13.3174 6.37886 13.392V14.6537C6.37886 14.7282 6.40849 14.7998 6.46124 14.8525C6.51398 14.9053 6.58552 14.9349 6.66011 14.9349ZM6.94136 13.6732H7.80997V14.3724H6.94136V13.6732ZM3.40925 8.75605H4.8413C4.9159 8.75605 4.98743 8.72642 5.04018 8.67367C5.09292 8.62093 5.12255 8.54939 5.12255 8.4748V7.21213C5.12255 7.13754 5.09292 7.066 5.04018 7.01326C4.98743 6.96051 4.9159 6.93088 4.8413 6.93088H3.40925C3.33466 6.93088 3.26312 6.96051 3.21038 7.01326C3.15763 7.066 3.128 7.13754 3.128 7.21213V8.4748C3.128 8.54939 3.15763 8.62093 3.21038 8.67367C3.26312 8.72642 3.33466 8.75605 3.40925 8.75605ZM3.6905 7.49338H4.56005V8.19355H3.6905V7.49338ZM14.5929 10.0213H13.1618C13.0872 10.0213 13.0157 10.0509 12.963 10.1037C12.9102 10.1564 12.8806 10.2279 12.8806 10.3025V11.5642C12.8806 11.6388 12.9102 11.7104 12.963 11.7631C13.0157 11.8158 13.0872 11.8455 13.1618 11.8455H14.5929C14.6675 11.8455 14.7391 11.8158 14.7918 11.7631C14.8446 11.7104 14.8742 11.6388 14.8742 11.5642V10.3025C14.8742 10.2279 14.8446 10.1564 14.7918 10.1037C14.7391 10.0509 14.6675 10.0213 14.5929 10.0213ZM14.3117 11.283H13.4431V10.5838H14.3117V11.283ZM9.91098 14.9349H11.342C11.4166 14.9349 11.4882 14.9053 11.5409 14.8525C11.5937 14.7998 11.6233 14.7282 11.6233 14.6537V13.392C11.6233 13.3174 11.5937 13.2458 11.5409 13.1931C11.4882 13.1403 11.4166 13.1107 11.342 13.1107H9.91098C9.83638 13.1107 9.76485 13.1403 9.7121 13.1931C9.65936 13.2458 9.62973 13.3174 9.62973 13.392V14.6537C9.62973 14.7282 9.65936 14.7998 9.7121 14.8525C9.76485 14.9053 9.83638 14.9349 9.91098 14.9349ZM10.1922 13.6732H11.0608V14.3724H10.1922V13.6732ZM12.9239 8.02058C12.8974 7.9946 12.8764 7.96366 12.862 7.92953C12.8476 7.8954 12.84 7.85876 12.8398 7.8217C12.8396 7.78465 12.8467 7.74792 12.8607 7.71362C12.8747 7.67932 12.8954 7.64813 12.9215 7.62184C12.9476 7.59555 12.9787 7.57468 13.0129 7.56043C13.0471 7.54618 13.0838 7.53882 13.1208 7.53879C13.1579 7.53876 13.1946 7.54605 13.2288 7.56024C13.263 7.57443 13.2941 7.59525 13.3203 7.62149L13.6822 7.98089L14.4182 7.11116C14.4664 7.05422 14.5352 7.01875 14.6095 7.01256C14.6839 7.00637 14.7576 7.02996 14.8146 7.07815C14.8715 7.12634 14.907 7.19517 14.9132 7.2695C14.9194 7.34384 14.8958 7.41759 14.8476 7.47453L13.9148 8.57675C13.8897 8.60642 13.8587 8.63056 13.8238 8.64765C13.7889 8.66474 13.7509 8.67442 13.712 8.67607C13.708 8.67607 13.7039 8.67632 13.6999 8.67632C13.6256 8.67632 13.5544 8.64695 13.5017 8.59461L12.9239 8.02058Z" fill="black"/>
</g>
<defs>
<clipPath id="clip0_4100_913">
<rect width="18" height="18" fill="white"/>
</clipPath>
</defs>
</svg>
