<svg width="20" height="20" viewBox="0 0 20 20" fill="none" xmlns="http://www.w3.org/2000/svg">
<g clip-path="url(#clip0_4825_96)">
<path d="M18.4592 12.5147C18.1841 12.5147 17.9611 12.7377 17.9611 13.0128V17.4354C17.9601 18.2604 17.2918 18.929 16.4668 18.9298H2.49052C1.66551 18.929 0.997203 18.2604 0.996207 17.4354V4.45536C0.997203 3.63055 1.66556 2.96205 2.49052 2.96105H6.91318C7.18828 2.96105 7.41128 2.73805 7.41128 2.46295C7.41128 2.18799 7.18828 1.96484 6.91318 1.96484H2.49052C1.11565 1.96639 0.00154412 3.0805 0 4.45536V17.4356C0.00154412 18.8105 1.11565 19.9246 2.49052 19.9262H16.4668C17.8416 19.9246 18.9558 18.8105 18.9573 17.4356V13.0128C18.9573 12.7377 18.7343 12.5147 18.4592 12.5147Z" fill="black"/>
<path d="M18.7617 0.683869C17.8863 -0.191498 16.4671 -0.191498 15.5918 0.683869L6.70519 9.57038C6.64436 9.63121 6.60033 9.70675 6.57738 9.78965L5.40878 14.0086C5.38519 14.0935 5.38458 14.1832 5.407 14.2685C5.42943 14.3537 5.47409 14.4315 5.53642 14.4939C5.59874 14.5562 5.6765 14.6009 5.76176 14.6233C5.84701 14.6458 5.93669 14.6452 6.02164 14.6217L10.2406 13.4529C10.3235 13.4299 10.399 13.3859 10.4598 13.325L19.3461 4.43837C20.2201 3.56236 20.2201 2.14436 19.3461 1.26839L18.7617 0.683869ZM7.79051 9.89415L15.0635 2.62104L17.409 4.96661L10.1359 12.2397L7.79051 9.89415ZM7.32199 10.8343L9.19586 12.7084L6.60383 13.4266L7.32199 10.8343ZM18.6418 3.73401L18.1136 4.26219L15.7678 1.91643L16.2963 1.38819C16.7825 0.901939 17.5709 0.901939 18.0571 1.38819L18.6418 1.97266C19.1273 2.45951 19.1273 3.24736 18.6418 3.73401Z" fill="black"/>
</g>
<defs>
<clipPath id="clip0_4825_96">
<rect width="20" height="20" fill="white"/>
</clipPath>
</defs>
</svg>
