<svg width="313" height="19" viewBox="0 0 313 19" fill="none" xmlns="http://www.w3.org/2000/svg">
<path d="M8.65625 15L7.39062 11.6016H2.91406L1.66406 15H0L4.35938 3.53125H6L10.3359 15H8.65625ZM6.94531 10.2109L5.74219 6.84375C5.70573 6.72917 5.64844 6.55729 5.57031 6.32812C5.4974 6.09896 5.42188 5.86198 5.34375 5.61719C5.27083 5.3724 5.21094 5.16927 5.16406 5.00781C5.11198 5.22135 5.05208 5.44792 4.98438 5.6875C4.91667 5.92188 4.84896 6.14323 4.78125 6.35156C4.71875 6.55469 4.66667 6.71875 4.625 6.84375L3.40625 10.2109H6.94531ZM21.5312 12.5938C21.5312 13.151 21.3932 13.6224 21.1172 14.0078C20.8464 14.388 20.4505 14.6745 19.9297 14.8672C19.4089 15.0599 18.7839 15.1562 18.0547 15.1562C17.4505 15.1562 16.9297 15.1094 16.4922 15.0156C16.0547 14.9271 15.6589 14.7969 15.3047 14.625V13.2344C15.6849 13.4167 16.125 13.5781 16.625 13.7188C17.125 13.8594 17.6146 13.9297 18.0938 13.9297C18.7656 13.9297 19.25 13.8229 19.5469 13.6094C19.849 13.3958 20 13.1068 20 12.7422C20 12.5286 19.9401 12.3411 19.8203 12.1797C19.7005 12.013 19.4896 11.849 19.1875 11.6875C18.8906 11.5208 18.4635 11.3307 17.9062 11.1172C17.3594 10.9036 16.8906 10.6901 16.5 10.4766C16.1146 10.263 15.8203 10.0052 15.6172 9.70312C15.4141 9.40104 15.3125 9.01042 15.3125 8.53125C15.3125 7.78646 15.6094 7.21875 16.2031 6.82812C16.8021 6.43229 17.5911 6.23438 18.5703 6.23438C19.0911 6.23438 19.5807 6.28646 20.0391 6.39062C20.5026 6.49479 20.9453 6.64062 21.3672 6.82812L20.8594 8.03906C20.4844 7.8776 20.099 7.74479 19.7031 7.64062C19.3073 7.53125 18.9036 7.47656 18.4922 7.47656C17.9557 7.47656 17.5443 7.5625 17.2578 7.73438C16.9766 7.90625 16.8359 8.14323 16.8359 8.44531C16.8359 8.67969 16.901 8.875 17.0312 9.03125C17.1667 9.1875 17.3906 9.34115 17.7031 9.49219C18.0156 9.63802 18.4375 9.8125 18.9688 10.0156C19.4948 10.2135 19.9479 10.4193 20.3281 10.6328C20.7135 10.8464 21.0104 11.1068 21.2188 11.4141C21.4271 11.7214 21.5312 12.1146 21.5312 12.5938ZM26.5703 13.8828C26.7943 13.8828 27.0208 13.8646 27.25 13.8281C27.4792 13.7865 27.6771 13.7344 27.8438 13.6719V14.875C27.6667 14.9531 27.4297 15.0182 27.1328 15.0703C26.8411 15.1276 26.5417 15.1562 26.2344 15.1562C25.7656 15.1562 25.3411 15.0755 24.9609 14.9141C24.5807 14.7526 24.276 14.4766 24.0469 14.0859C23.8229 13.6953 23.7109 13.1536 23.7109 12.4609V7.60156H22.5156V6.875L23.7656 6.29688L24.3203 4.4375H25.2891V6.39062H27.7812V7.60156H25.2891V12.4375C25.2891 12.9219 25.4036 13.2839 25.6328 13.5234C25.8672 13.763 26.1797 13.8828 26.5703 13.8828ZM32.9609 6.23438C33.7109 6.23438 34.3542 6.39583 34.8906 6.71875C35.4271 7.03646 35.8385 7.48698 36.125 8.07031C36.4115 8.65365 36.5547 9.34115 36.5547 10.1328V11.0234H30.7109C30.7266 11.9453 30.9635 12.6536 31.4219 13.1484C31.8802 13.638 32.5234 13.8828 33.3516 13.8828C33.8984 13.8828 34.3854 13.8307 34.8125 13.7266C35.2396 13.6224 35.6823 13.4688 36.1406 13.2656V14.5859C35.7083 14.7839 35.2734 14.9271 34.8359 15.0156C34.4036 15.1094 33.8854 15.1562 33.2812 15.1562C32.4479 15.1562 31.7161 14.9896 31.0859 14.6562C30.4609 14.3229 29.974 13.8307 29.625 13.1797C29.276 12.5234 29.1016 11.7161 29.1016 10.7578C29.1016 9.8099 29.2604 9 29.5781 8.32812C29.8958 7.65104 30.3438 7.13281 30.9219 6.77344C31.5 6.41406 32.1797 6.23438 32.9609 6.23438ZM32.9531 7.45312C32.3177 7.45312 31.8073 7.66146 31.4219 8.07812C31.0365 8.48958 30.8099 9.08073 30.7422 9.85156H34.9766C34.9714 9.3776 34.8958 8.96094 34.75 8.60156C34.6042 8.24219 34.3828 7.96094 34.0859 7.75781C33.7943 7.55469 33.4167 7.45312 32.9531 7.45312ZM42.9297 6.23438C43.9766 6.23438 44.8125 6.60677 45.4375 7.35156C46.0677 8.09115 46.3828 9.19792 46.3828 10.6719C46.3828 11.651 46.237 12.474 45.9453 13.1406C45.6589 13.8021 45.2526 14.3047 44.7266 14.6484C44.2057 14.987 43.5938 15.1562 42.8906 15.1562C42.4479 15.1562 42.0599 15.099 41.7266 14.9844C41.3932 14.8646 41.1068 14.7083 40.8672 14.5156C40.6328 14.3177 40.4349 14.1068 40.2734 13.8828H40.1719C40.1927 14.0859 40.2135 14.3229 40.2344 14.5938C40.2604 14.8594 40.2734 15.099 40.2734 15.3125V18.8281H38.6953V6.39062H39.9844L40.1953 7.625H40.2734C40.4349 7.36979 40.6328 7.13802 40.8672 6.92969C41.1068 6.71615 41.3958 6.54688 41.7344 6.42188C42.0729 6.29688 42.4714 6.23438 42.9297 6.23438ZM42.5703 7.53125C42.0182 7.53125 41.5755 7.64062 41.2422 7.85938C40.9141 8.07292 40.6719 8.39323 40.5156 8.82031C40.3646 9.2474 40.2839 9.78385 40.2734 10.4297V10.6797C40.2734 11.3672 40.3464 11.9479 40.4922 12.4219C40.638 12.8906 40.8802 13.25 41.2188 13.5C41.5573 13.7448 42.013 13.8672 42.5859 13.8672C43.0755 13.8672 43.4818 13.7344 43.8047 13.4688C44.1328 13.2031 44.375 12.8281 44.5312 12.3438C44.6927 11.8594 44.7734 11.2969 44.7734 10.6562C44.7734 9.68229 44.5938 8.91927 44.2344 8.36719C43.875 7.8099 43.3203 7.53125 42.5703 7.53125ZM56.6562 15H55.0469V4.96094H51.5781V3.57812H60.1172V4.96094H56.6562V15ZM69.1875 10.6797C69.1875 11.388 69.0938 12.0208 68.9062 12.5781C68.724 13.1302 68.4557 13.599 68.1016 13.9844C67.7526 14.3646 67.3307 14.6562 66.8359 14.8594C66.3411 15.0573 65.7812 15.1562 65.1562 15.1562C64.5729 15.1562 64.0365 15.0573 63.5469 14.8594C63.0625 14.6562 62.6432 14.3646 62.2891 13.9844C61.9349 13.599 61.6615 13.1302 61.4688 12.5781C61.276 12.0208 61.1797 11.388 61.1797 10.6797C61.1797 9.73698 61.3411 8.9349 61.6641 8.27344C61.987 7.60677 62.4479 7.10156 63.0469 6.75781C63.651 6.40885 64.3698 6.23438 65.2031 6.23438C65.9948 6.23438 66.6901 6.40885 67.2891 6.75781C67.888 7.10677 68.3542 7.61198 68.6875 8.27344C69.0208 8.9349 69.1875 9.73698 69.1875 10.6797ZM62.7891 10.6797C62.7891 11.3411 62.8724 11.9115 63.0391 12.3906C63.2109 12.8646 63.4714 13.2292 63.8203 13.4844C64.1745 13.7396 64.6302 13.8672 65.1875 13.8672C65.7344 13.8672 66.1849 13.7396 66.5391 13.4844C66.8932 13.2292 67.1536 12.8646 67.3203 12.3906C67.487 11.9115 67.5703 11.3411 67.5703 10.6797C67.5703 10.0234 67.487 9.46094 67.3203 8.99219C67.1536 8.52344 66.8932 8.16406 66.5391 7.91406C66.1901 7.66406 65.7344 7.53906 65.1719 7.53906C64.349 7.53906 63.7448 7.8151 63.3594 8.36719C62.9792 8.91406 62.7891 9.6849 62.7891 10.6797ZM78.3906 14.9844L77.0781 10.4844C77.0208 10.2812 76.9583 10.0573 76.8906 9.8125C76.8281 9.56771 76.7656 9.32292 76.7031 9.07812C76.6406 8.83333 76.5833 8.60677 76.5312 8.39844C76.4844 8.1849 76.4479 8.01302 76.4219 7.88281H76.3594C76.3333 8.01302 76.2969 8.1849 76.25 8.39844C76.2031 8.60677 76.1484 8.83594 76.0859 9.08594C76.0286 9.33073 75.9661 9.57812 75.8984 9.82812C75.8359 10.0781 75.7734 10.3047 75.7109 10.5078L74.3359 14.9844H72.6016L70.2109 6.38281H71.8125L72.9922 10.8906C73.0703 11.1927 73.1458 11.5052 73.2188 11.8281C73.2917 12.151 73.3542 12.4557 73.4062 12.7422C73.4583 13.0286 73.4974 13.2734 73.5234 13.4766H73.5859C73.612 13.3411 73.6432 13.1745 73.6797 12.9766C73.7214 12.7734 73.7656 12.5625 73.8125 12.3438C73.8594 12.1198 73.9089 11.9036 73.9609 11.6953C74.0182 11.487 74.0703 11.3047 74.1172 11.1484L75.5703 6.38281H77.2734L78.6719 11.1406C78.7396 11.3698 78.8099 11.6276 78.8828 11.9141C78.9557 12.1953 79.0208 12.474 79.0781 12.75C79.1354 13.026 79.1745 13.263 79.1953 13.4609H79.2578C79.2786 13.2839 79.3177 13.0547 79.375 12.7734C79.4323 12.4922 79.4974 12.1875 79.5703 11.8594C79.6432 11.526 79.7214 11.2031 79.8047 10.8906L81 6.38281H82.5781L80.1719 14.9844H78.3906ZM87.3984 6.24219C88.4609 6.24219 89.2552 6.47917 89.7812 6.95312C90.3073 7.42188 90.5703 8.16406 90.5703 9.17969V15H89.4453L89.1406 13.75H89.0781C88.8385 14.0625 88.5885 14.3229 88.3281 14.5312C88.0677 14.7396 87.7656 14.8958 87.4219 15C87.0833 15.1042 86.6693 15.1562 86.1797 15.1562C85.6589 15.1562 85.1953 15.0625 84.7891 14.875C84.3828 14.6875 84.0625 14.4062 83.8281 14.0312C83.599 13.651 83.4844 13.1693 83.4844 12.5859C83.4844 11.7109 83.8203 11.0469 84.4922 10.5938C85.1641 10.1406 86.1823 9.89323 87.5469 9.85156L89.0312 9.78906V9.30469C89.0312 8.63281 88.8802 8.15885 88.5781 7.88281C88.2812 7.60677 87.8646 7.46875 87.3281 7.46875C86.8854 7.46875 86.4609 7.53385 86.0547 7.66406C85.6484 7.78906 85.2578 7.9401 84.8828 8.11719L84.3828 6.97656C84.7891 6.76823 85.25 6.59375 85.7656 6.45312C86.2865 6.3125 86.8307 6.24219 87.3984 6.24219ZM89.0156 10.8203L87.8125 10.875C86.8177 10.9115 86.1172 11.0781 85.7109 11.375C85.3099 11.6667 85.1094 12.0755 85.1094 12.6016C85.1094 13.0599 85.2474 13.3958 85.5234 13.6094C85.7995 13.8229 86.1641 13.9297 86.6172 13.9297C87.3151 13.9297 87.888 13.7344 88.3359 13.3438C88.7891 12.9479 89.0156 12.3646 89.0156 11.5938V10.8203ZM97.3359 6.23438C97.4922 6.23438 97.6615 6.24479 97.8438 6.26562C98.026 6.28125 98.1823 6.30208 98.3125 6.32812L98.1484 7.78906C98.0234 7.75781 97.8776 7.73177 97.7109 7.71094C97.5495 7.6901 97.3984 7.67969 97.2578 7.67969C96.9245 7.67969 96.6068 7.74219 96.3047 7.86719C96.0026 7.99219 95.737 8.17448 95.5078 8.41406C95.2786 8.64844 95.099 8.9375 94.9688 9.28125C94.8385 9.61979 94.7734 10.0078 94.7734 10.4453V15H93.1953V6.39062H94.4609L94.6484 7.94531H94.7188C94.8958 7.63281 95.1094 7.34635 95.3594 7.08594C95.6146 6.82552 95.9062 6.61979 96.2344 6.46875C96.5677 6.3125 96.9349 6.23438 97.3359 6.23438ZM102.891 15.1562C101.839 15.1562 100.997 14.7839 100.367 14.0391C99.7422 13.2943 99.4297 12.1901 99.4297 10.7266C99.4297 9.2474 99.7474 8.13021 100.383 7.375C101.023 6.61458 101.872 6.23438 102.93 6.23438C103.372 6.23438 103.76 6.29427 104.094 6.41406C104.427 6.53385 104.714 6.69271 104.953 6.89062C105.198 7.08854 105.401 7.3125 105.562 7.5625H105.656C105.63 7.40104 105.604 7.17448 105.578 6.88281C105.552 6.59115 105.539 6.33594 105.539 6.11719V2.84375H107.109V15H105.867L105.609 13.8047H105.539C105.383 14.0547 105.182 14.2839 104.938 14.4922C104.698 14.6953 104.409 14.8568 104.07 14.9766C103.737 15.0964 103.344 15.1562 102.891 15.1562ZM103.258 13.875C104.107 13.875 104.706 13.6302 105.055 13.1406C105.409 12.651 105.589 11.9245 105.594 10.9609V10.7188C105.594 9.69271 105.424 8.90625 105.086 8.35938C104.753 7.80729 104.138 7.53125 103.242 7.53125C102.513 7.53125 101.964 7.81771 101.594 8.39062C101.224 8.95833 101.039 9.7474 101.039 10.7578C101.039 11.7578 101.224 12.5286 101.594 13.0703C101.964 13.6068 102.518 13.875 103.258 13.875ZM115.469 12.5938C115.469 13.151 115.331 13.6224 115.055 14.0078C114.784 14.388 114.388 14.6745 113.867 14.8672C113.346 15.0599 112.721 15.1562 111.992 15.1562C111.388 15.1562 110.867 15.1094 110.43 15.0156C109.992 14.9271 109.596 14.7969 109.242 14.625V13.2344C109.622 13.4167 110.062 13.5781 110.562 13.7188C111.062 13.8594 111.552 13.9297 112.031 13.9297C112.703 13.9297 113.188 13.8229 113.484 13.6094C113.786 13.3958 113.938 13.1068 113.938 12.7422C113.938 12.5286 113.878 12.3411 113.758 12.1797C113.638 12.013 113.427 11.849 113.125 11.6875C112.828 11.5208 112.401 11.3307 111.844 11.1172C111.297 10.9036 110.828 10.6901 110.438 10.4766C110.052 10.263 109.758 10.0052 109.555 9.70312C109.352 9.40104 109.25 9.01042 109.25 8.53125C109.25 7.78646 109.547 7.21875 110.141 6.82812C110.74 6.43229 111.529 6.23438 112.508 6.23438C113.029 6.23438 113.518 6.28646 113.977 6.39062C114.44 6.49479 114.883 6.64062 115.305 6.82812L114.797 8.03906C114.422 7.8776 114.036 7.74479 113.641 7.64062C113.245 7.53125 112.841 7.47656 112.43 7.47656C111.893 7.47656 111.482 7.5625 111.195 7.73438C110.914 7.90625 110.773 8.14323 110.773 8.44531C110.773 8.67969 110.839 8.875 110.969 9.03125C111.104 9.1875 111.328 9.34115 111.641 9.49219C111.953 9.63802 112.375 9.8125 112.906 10.0156C113.432 10.2135 113.885 10.4193 114.266 10.6328C114.651 10.8464 114.948 11.1068 115.156 11.4141C115.365 11.7214 115.469 12.1146 115.469 12.5938ZM123.234 6.39062V15H121.664V6.39062H123.234ZM122.461 3.13281C122.711 3.13281 122.924 3.20573 123.102 3.35156C123.284 3.4974 123.375 3.73438 123.375 4.0625C123.375 4.39062 123.284 4.63021 123.102 4.78125C122.924 4.92708 122.711 5 122.461 5C122.206 5 121.99 4.92708 121.812 4.78125C121.641 4.63021 121.555 4.39062 121.555 4.0625C121.555 3.73438 121.641 3.4974 121.812 3.35156C121.99 3.20573 122.206 3.13281 122.461 3.13281ZM130.195 6.23438C131.19 6.23438 131.953 6.48438 132.484 6.98438C133.021 7.48438 133.289 8.28646 133.289 9.39062V15H131.734V9.60156C131.734 8.91406 131.583 8.39844 131.281 8.05469C130.979 7.70573 130.516 7.53125 129.891 7.53125C129 7.53125 128.375 7.79427 128.016 8.32031C127.661 8.84635 127.484 9.60938 127.484 10.6094V15H125.914V6.39062H127.156L127.383 7.60156H127.469C127.651 7.29948 127.883 7.04688 128.164 6.84375C128.445 6.64062 128.758 6.48958 129.102 6.39062C129.451 6.28646 129.815 6.23438 130.195 6.23438ZM140.195 6.23438C141.19 6.23438 141.953 6.48438 142.484 6.98438C143.021 7.48438 143.289 8.28646 143.289 9.39062V15H141.734V9.60156C141.734 8.91406 141.583 8.39844 141.281 8.05469C140.979 7.70573 140.516 7.53125 139.891 7.53125C139 7.53125 138.375 7.79427 138.016 8.32031C137.661 8.84635 137.484 9.60938 137.484 10.6094V15H135.914V6.39062H137.156L137.383 7.60156H137.469C137.651 7.29948 137.883 7.04688 138.164 6.84375C138.445 6.64062 138.758 6.48958 139.102 6.39062C139.451 6.28646 139.815 6.23438 140.195 6.23438ZM149.289 6.23438C150.039 6.23438 150.682 6.39583 151.219 6.71875C151.755 7.03646 152.167 7.48698 152.453 8.07031C152.74 8.65365 152.883 9.34115 152.883 10.1328V11.0234H147.039C147.055 11.9453 147.292 12.6536 147.75 13.1484C148.208 13.638 148.852 13.8828 149.68 13.8828C150.227 13.8828 150.714 13.8307 151.141 13.7266C151.568 13.6224 152.01 13.4688 152.469 13.2656V14.5859C152.036 14.7839 151.602 14.9271 151.164 15.0156C150.732 15.1094 150.214 15.1562 149.609 15.1562C148.776 15.1562 148.044 14.9896 147.414 14.6562C146.789 14.3229 146.302 13.8307 145.953 13.1797C145.604 12.5234 145.43 11.7161 145.43 10.7578C145.43 9.8099 145.589 9 145.906 8.32812C146.224 7.65104 146.672 7.13281 147.25 6.77344C147.828 6.41406 148.508 6.23438 149.289 6.23438ZM149.281 7.45312C148.646 7.45312 148.135 7.66146 147.75 8.07812C147.365 8.48958 147.138 9.08073 147.07 9.85156H151.305C151.299 9.3776 151.224 8.96094 151.078 8.60156C150.932 8.24219 150.711 7.96094 150.414 7.75781C150.122 7.55469 149.745 7.45312 149.281 7.45312ZM159.164 6.23438C159.32 6.23438 159.49 6.24479 159.672 6.26562C159.854 6.28125 160.01 6.30208 160.141 6.32812L159.977 7.78906C159.852 7.75781 159.706 7.73177 159.539 7.71094C159.378 7.6901 159.227 7.67969 159.086 7.67969C158.753 7.67969 158.435 7.74219 158.133 7.86719C157.831 7.99219 157.565 8.17448 157.336 8.41406C157.107 8.64844 156.927 8.9375 156.797 9.28125C156.667 9.61979 156.602 10.0078 156.602 10.4453V15H155.023V6.39062H156.289L156.477 7.94531H156.547C156.724 7.63281 156.938 7.34635 157.188 7.08594C157.443 6.82552 157.734 6.61979 158.062 6.46875C158.396 6.3125 158.763 6.23438 159.164 6.23438ZM168.898 13.8828C169.122 13.8828 169.349 13.8646 169.578 13.8281C169.807 13.7865 170.005 13.7344 170.172 13.6719V14.875C169.995 14.9531 169.758 15.0182 169.461 15.0703C169.169 15.1276 168.87 15.1562 168.562 15.1562C168.094 15.1562 167.669 15.0755 167.289 14.9141C166.909 14.7526 166.604 14.4766 166.375 14.0859C166.151 13.6953 166.039 13.1536 166.039 12.4609V7.60156H164.844V6.875L166.094 6.29688L166.648 4.4375H167.617V6.39062H170.109V7.60156H167.617V12.4375C167.617 12.9219 167.732 13.2839 167.961 13.5234C168.195 13.763 168.508 13.8828 168.898 13.8828ZM176.055 6.23438C176.211 6.23438 176.38 6.24479 176.562 6.26562C176.745 6.28125 176.901 6.30208 177.031 6.32812L176.867 7.78906C176.742 7.75781 176.596 7.73177 176.43 7.71094C176.268 7.6901 176.117 7.67969 175.977 7.67969C175.643 7.67969 175.326 7.74219 175.023 7.86719C174.721 7.99219 174.456 8.17448 174.227 8.41406C173.997 8.64844 173.818 8.9375 173.688 9.28125C173.557 9.61979 173.492 10.0078 173.492 10.4453V15H171.914V6.39062H173.18L173.367 7.94531H173.438C173.615 7.63281 173.828 7.34635 174.078 7.08594C174.333 6.82552 174.625 6.61979 174.953 6.46875C175.286 6.3125 175.654 6.23438 176.055 6.23438ZM181.93 6.24219C182.992 6.24219 183.786 6.47917 184.312 6.95312C184.839 7.42188 185.102 8.16406 185.102 9.17969V15H183.977L183.672 13.75H183.609C183.37 14.0625 183.12 14.3229 182.859 14.5312C182.599 14.7396 182.297 14.8958 181.953 15C181.615 15.1042 181.201 15.1562 180.711 15.1562C180.19 15.1562 179.727 15.0625 179.32 14.875C178.914 14.6875 178.594 14.4062 178.359 14.0312C178.13 13.651 178.016 13.1693 178.016 12.5859C178.016 11.7109 178.352 11.0469 179.023 10.5938C179.695 10.1406 180.714 9.89323 182.078 9.85156L183.562 9.78906V9.30469C183.562 8.63281 183.411 8.15885 183.109 7.88281C182.812 7.60677 182.396 7.46875 181.859 7.46875C181.417 7.46875 180.992 7.53385 180.586 7.66406C180.18 7.78906 179.789 7.9401 179.414 8.11719L178.914 6.97656C179.32 6.76823 179.781 6.59375 180.297 6.45312C180.818 6.3125 181.362 6.24219 181.93 6.24219ZM183.547 10.8203L182.344 10.875C181.349 10.9115 180.648 11.0781 180.242 11.375C179.841 11.6667 179.641 12.0755 179.641 12.6016C179.641 13.0599 179.779 13.3958 180.055 13.6094C180.331 13.8229 180.695 13.9297 181.148 13.9297C181.846 13.9297 182.419 13.7344 182.867 13.3438C183.32 12.9479 183.547 12.3646 183.547 11.5938V10.8203ZM192.008 6.23438C193.003 6.23438 193.766 6.48438 194.297 6.98438C194.833 7.48438 195.102 8.28646 195.102 9.39062V15H193.547V9.60156C193.547 8.91406 193.396 8.39844 193.094 8.05469C192.792 7.70573 192.328 7.53125 191.703 7.53125C190.812 7.53125 190.188 7.79427 189.828 8.32031C189.474 8.84635 189.297 9.60938 189.297 10.6094V15H187.727V6.39062H188.969L189.195 7.60156H189.281C189.464 7.29948 189.695 7.04688 189.977 6.84375C190.258 6.64062 190.57 6.48958 190.914 6.39062C191.263 6.28646 191.628 6.23438 192.008 6.23438ZM203.406 12.5938C203.406 13.151 203.268 13.6224 202.992 14.0078C202.721 14.388 202.326 14.6745 201.805 14.8672C201.284 15.0599 200.659 15.1562 199.93 15.1562C199.326 15.1562 198.805 15.1094 198.367 15.0156C197.93 14.9271 197.534 14.7969 197.18 14.625V13.2344C197.56 13.4167 198 13.5781 198.5 13.7188C199 13.8594 199.49 13.9297 199.969 13.9297C200.641 13.9297 201.125 13.8229 201.422 13.6094C201.724 13.3958 201.875 13.1068 201.875 12.7422C201.875 12.5286 201.815 12.3411 201.695 12.1797C201.576 12.013 201.365 11.849 201.062 11.6875C200.766 11.5208 200.339 11.3307 199.781 11.1172C199.234 10.9036 198.766 10.6901 198.375 10.4766C197.99 10.263 197.695 10.0052 197.492 9.70312C197.289 9.40104 197.188 9.01042 197.188 8.53125C197.188 7.78646 197.484 7.21875 198.078 6.82812C198.677 6.43229 199.466 6.23438 200.445 6.23438C200.966 6.23438 201.456 6.28646 201.914 6.39062C202.378 6.49479 202.82 6.64062 203.242 6.82812L202.734 8.03906C202.359 7.8776 201.974 7.74479 201.578 7.64062C201.182 7.53125 200.779 7.47656 200.367 7.47656C199.831 7.47656 199.419 7.5625 199.133 7.73438C198.852 7.90625 198.711 8.14323 198.711 8.44531C198.711 8.67969 198.776 8.875 198.906 9.03125C199.042 9.1875 199.266 9.34115 199.578 9.49219C199.891 9.63802 200.312 9.8125 200.844 10.0156C201.37 10.2135 201.823 10.4193 202.203 10.6328C202.589 10.8464 202.885 11.1068 203.094 11.4141C203.302 11.7214 203.406 12.1146 203.406 12.5938ZM209.516 7.60156H207.398V15H205.828V7.60156H204.367V6.84375L205.828 6.36719V5.77344C205.828 5.04948 205.94 4.46875 206.164 4.03125C206.388 3.58854 206.708 3.26562 207.125 3.0625C207.547 2.85938 208.057 2.75781 208.656 2.75781C209.016 2.75781 209.344 2.78906 209.641 2.85156C209.943 2.91406 210.203 2.98438 210.422 3.0625L210.016 4.26562C209.839 4.20833 209.641 4.15625 209.422 4.10938C209.203 4.05729 208.971 4.03125 208.727 4.03125C208.273 4.03125 207.938 4.17708 207.719 4.46875C207.505 4.76042 207.398 5.20052 207.398 5.78906V6.39062H209.516V7.60156ZM218.562 10.6797C218.562 11.388 218.469 12.0208 218.281 12.5781C218.099 13.1302 217.831 13.599 217.477 13.9844C217.128 14.3646 216.706 14.6562 216.211 14.8594C215.716 15.0573 215.156 15.1562 214.531 15.1562C213.948 15.1562 213.411 15.0573 212.922 14.8594C212.438 14.6562 212.018 14.3646 211.664 13.9844C211.31 13.599 211.036 13.1302 210.844 12.5781C210.651 12.0208 210.555 11.388 210.555 10.6797C210.555 9.73698 210.716 8.9349 211.039 8.27344C211.362 7.60677 211.823 7.10156 212.422 6.75781C213.026 6.40885 213.745 6.23438 214.578 6.23438C215.37 6.23438 216.065 6.40885 216.664 6.75781C217.263 7.10677 217.729 7.61198 218.062 8.27344C218.396 8.9349 218.562 9.73698 218.562 10.6797ZM212.164 10.6797C212.164 11.3411 212.247 11.9115 212.414 12.3906C212.586 12.8646 212.846 13.2292 213.195 13.4844C213.549 13.7396 214.005 13.8672 214.562 13.8672C215.109 13.8672 215.56 13.7396 215.914 13.4844C216.268 13.2292 216.529 12.8646 216.695 12.3906C216.862 11.9115 216.945 11.3411 216.945 10.6797C216.945 10.0234 216.862 9.46094 216.695 8.99219C216.529 8.52344 216.268 8.16406 215.914 7.91406C215.565 7.66406 215.109 7.53906 214.547 7.53906C213.724 7.53906 213.12 7.8151 212.734 8.36719C212.354 8.91406 212.164 9.6849 212.164 10.6797ZM224.883 6.23438C225.039 6.23438 225.208 6.24479 225.391 6.26562C225.573 6.28125 225.729 6.30208 225.859 6.32812L225.695 7.78906C225.57 7.75781 225.424 7.73177 225.258 7.71094C225.096 7.6901 224.945 7.67969 224.805 7.67969C224.471 7.67969 224.154 7.74219 223.852 7.86719C223.549 7.99219 223.284 8.17448 223.055 8.41406C222.826 8.64844 222.646 8.9375 222.516 9.28125C222.385 9.61979 222.32 10.0078 222.32 10.4453V15H220.742V6.39062H222.008L222.195 7.94531H222.266C222.443 7.63281 222.656 7.34635 222.906 7.08594C223.161 6.82552 223.453 6.61979 223.781 6.46875C224.115 6.3125 224.482 6.23438 224.883 6.23438ZM237 6.23438C237.953 6.23438 238.672 6.48438 239.156 6.98438C239.646 7.47917 239.891 8.27344 239.891 9.36719V15H238.336V9.5625C238.336 8.88542 238.195 8.3776 237.914 8.03906C237.638 7.70052 237.224 7.53125 236.672 7.53125C235.891 7.53125 235.326 7.76823 234.977 8.24219C234.633 8.71094 234.461 9.40104 234.461 10.3125V15H232.898V9.5625C232.898 9.10938 232.836 8.73438 232.711 8.4375C232.586 8.13542 232.401 7.90885 232.156 7.75781C231.911 7.60677 231.602 7.53125 231.227 7.53125C230.69 7.53125 230.26 7.64844 229.938 7.88281C229.62 8.11198 229.388 8.45312 229.242 8.90625C229.102 9.35938 229.031 9.91406 229.031 10.5703V15H227.461V6.39062H228.703L228.93 7.57812H229.016C229.188 7.28125 229.404 7.03385 229.664 6.83594C229.93 6.63802 230.224 6.48958 230.547 6.39062C230.87 6.28646 231.211 6.23438 231.57 6.23438C232.216 6.23438 232.76 6.35156 233.203 6.58594C233.646 6.82031 233.971 7.17708 234.18 7.65625H234.281C234.557 7.17188 234.938 6.8151 235.422 6.58594C235.911 6.35156 236.438 6.23438 237 6.23438ZM245.805 6.24219C246.867 6.24219 247.661 6.47917 248.188 6.95312C248.714 7.42188 248.977 8.16406 248.977 9.17969V15H247.852L247.547 13.75H247.484C247.245 14.0625 246.995 14.3229 246.734 14.5312C246.474 14.7396 246.172 14.8958 245.828 15C245.49 15.1042 245.076 15.1562 244.586 15.1562C244.065 15.1562 243.602 15.0625 243.195 14.875C242.789 14.6875 242.469 14.4062 242.234 14.0312C242.005 13.651 241.891 13.1693 241.891 12.5859C241.891 11.7109 242.227 11.0469 242.898 10.5938C243.57 10.1406 244.589 9.89323 245.953 9.85156L247.438 9.78906V9.30469C247.438 8.63281 247.286 8.15885 246.984 7.88281C246.688 7.60677 246.271 7.46875 245.734 7.46875C245.292 7.46875 244.867 7.53385 244.461 7.66406C244.055 7.78906 243.664 7.9401 243.289 8.11719L242.789 6.97656C243.195 6.76823 243.656 6.59375 244.172 6.45312C244.693 6.3125 245.237 6.24219 245.805 6.24219ZM247.422 10.8203L246.219 10.875C245.224 10.9115 244.523 11.0781 244.117 11.375C243.716 11.6667 243.516 12.0755 243.516 12.6016C243.516 13.0599 243.654 13.3958 243.93 13.6094C244.206 13.8229 244.57 13.9297 245.023 13.9297C245.721 13.9297 246.294 13.7344 246.742 13.3438C247.195 12.9479 247.422 12.3646 247.422 11.5938V10.8203ZM254.602 13.8828C254.826 13.8828 255.052 13.8646 255.281 13.8281C255.51 13.7865 255.708 13.7344 255.875 13.6719V14.875C255.698 14.9531 255.461 15.0182 255.164 15.0703C254.872 15.1276 254.573 15.1562 254.266 15.1562C253.797 15.1562 253.372 15.0755 252.992 14.9141C252.612 14.7526 252.307 14.4766 252.078 14.0859C251.854 13.6953 251.742 13.1536 251.742 12.4609V7.60156H250.547V6.875L251.797 6.29688L252.352 4.4375H253.32V6.39062H255.812V7.60156H253.32V12.4375C253.32 12.9219 253.435 13.2839 253.664 13.5234C253.898 13.763 254.211 13.8828 254.602 13.8828ZM259.188 6.39062V15H257.617V6.39062H259.188ZM258.414 3.13281C258.664 3.13281 258.878 3.20573 259.055 3.35156C259.237 3.4974 259.328 3.73438 259.328 4.0625C259.328 4.39062 259.237 4.63021 259.055 4.78125C258.878 4.92708 258.664 5 258.414 5C258.159 5 257.943 4.92708 257.766 4.78125C257.594 4.63021 257.508 4.39062 257.508 4.0625C257.508 3.73438 257.594 3.4974 257.766 3.35156C257.943 3.20573 258.159 3.13281 258.414 3.13281ZM269.391 10.6797C269.391 11.388 269.297 12.0208 269.109 12.5781C268.927 13.1302 268.659 13.599 268.305 13.9844C267.956 14.3646 267.534 14.6562 267.039 14.8594C266.544 15.0573 265.984 15.1562 265.359 15.1562C264.776 15.1562 264.24 15.0573 263.75 14.8594C263.266 14.6562 262.846 14.3646 262.492 13.9844C262.138 13.599 261.865 13.1302 261.672 12.5781C261.479 12.0208 261.383 11.388 261.383 10.6797C261.383 9.73698 261.544 8.9349 261.867 8.27344C262.19 7.60677 262.651 7.10156 263.25 6.75781C263.854 6.40885 264.573 6.23438 265.406 6.23438C266.198 6.23438 266.893 6.40885 267.492 6.75781C268.091 7.10677 268.557 7.61198 268.891 8.27344C269.224 8.9349 269.391 9.73698 269.391 10.6797ZM262.992 10.6797C262.992 11.3411 263.076 11.9115 263.242 12.3906C263.414 12.8646 263.674 13.2292 264.023 13.4844C264.378 13.7396 264.833 13.8672 265.391 13.8672C265.938 13.8672 266.388 13.7396 266.742 13.4844C267.096 13.2292 267.357 12.8646 267.523 12.3906C267.69 11.9115 267.773 11.3411 267.773 10.6797C267.773 10.0234 267.69 9.46094 267.523 8.99219C267.357 8.52344 267.096 8.16406 266.742 7.91406C266.393 7.66406 265.938 7.53906 265.375 7.53906C264.552 7.53906 263.948 7.8151 263.562 8.36719C263.182 8.91406 262.992 9.6849 262.992 10.6797ZM275.852 6.23438C276.846 6.23438 277.609 6.48438 278.141 6.98438C278.677 7.48438 278.945 8.28646 278.945 9.39062V15H277.391V9.60156C277.391 8.91406 277.24 8.39844 276.938 8.05469C276.635 7.70573 276.172 7.53125 275.547 7.53125C274.656 7.53125 274.031 7.79427 273.672 8.32031C273.318 8.84635 273.141 9.60938 273.141 10.6094V15H271.57V6.39062H272.812L273.039 7.60156H273.125C273.307 7.29948 273.539 7.04688 273.82 6.84375C274.102 6.64062 274.414 6.48958 274.758 6.39062C275.107 6.28646 275.471 6.23438 275.852 6.23438ZM280.234 16.12H296.234V0.12H280.234V16.12ZM296.234 16.12H312.234V0.12H296.234V16.12Z" fill="black"/>
</svg>
