<svg width="88" height="46" viewBox="0 0 88 46" fill="none" xmlns="http://www.w3.org/2000/svg">
<path d="M34.4536 0.550755C34.1947 1.14734 33.7106 2.54313 33.2829 3.90514C33.0465 4.65932 32.5512 7.07943 32.4162 8.14879C32.3711 8.47522 32.2923 8.77914 32.2361 8.81291C32.1798 8.84668 31.5157 8.52025 30.7502 8.08125C29.996 7.65351 29.1518 7.21451 28.8704 7.10195C28.589 7.00064 28.3189 6.87682 28.2513 6.83179C28.0037 6.6517 25.5836 5.81873 25.4823 5.875C25.426 5.92003 25.3809 5.89752 25.3809 5.84124C25.3809 5.70616 21.5988 4.69309 21.0698 4.69309C20.9122 4.69309 20.8221 4.90696 20.687 5.64988C19.8766 10.1862 19.7303 11.582 19.6852 15.0377C19.6627 17.0413 19.6177 17.8067 19.5164 17.8743C19.4376 17.9193 19.19 17.8855 18.9536 17.8067C18.5033 17.6379 16.8374 17.2889 15.5879 17.0863C13.5618 16.7711 9.98226 16.6698 7.70848 16.8837C7.49461 16.9062 7.17943 16.9287 7.01059 16.94L6.69541 16.9625V17.9981C6.69541 18.5722 6.75169 19.3714 6.80797 19.7766C6.86426 20.1818 6.94305 20.8347 6.97682 21.2399C7.16818 23.1535 8.0912 26.7443 9.04799 29.277C9.29563 29.9523 9.49824 30.5151 9.47573 30.5377C9.45322 30.5602 7.25823 31.4494 6.74044 31.6408C6.53782 31.7083 6.30144 31.8434 6.20013 31.9222C6.09882 32.001 6.02003 32.0348 6.02003 32.001C6.02003 31.8772 4.44414 32.7552 3.2172 33.5544C2.30544 34.1397 0.662009 35.3891 0.0654224 35.9407C-0.0696537 36.0645 -0.013372 36.1771 0.403113 36.6836C1.56252 38.1019 3.2172 39.7228 4.03891 40.2294C4.29781 40.387 4.52294 40.5558 4.5567 40.5896C4.61299 40.6796 5.27711 41.1524 5.58103 41.3325C6.72918 42.0304 7.26948 42.2893 7.38205 42.2217C7.46084 42.1767 7.48336 42.188 7.44959 42.2555C7.38205 42.3681 8.7103 43.0435 9.95975 43.5387C11.1979 44.0228 13.5505 44.7094 14.7437 44.9345C16.1395 45.1822 17.2426 45.3398 18.0643 45.396C18.5934 45.4186 19.3138 45.4748 19.674 45.4973C20.7546 45.5761 25.4935 45.2722 25.4935 45.1146C25.4935 45.0133 24.3341 44.3717 24.1765 44.383C24.0977 44.3942 24.0527 44.3605 24.0865 44.3154C24.109 44.2704 23.9289 44.1241 23.6925 43.989C23.0059 43.6063 21.0585 42.278 20.9685 42.1317C20.9234 42.0642 20.8784 42.0416 20.8784 42.0867C20.8784 42.1655 20.597 41.9629 20.2593 41.6364C20.1693 41.5689 20.0905 41.5013 20.0567 41.5013C19.9216 41.5013 16.5672 38.237 16.3984 37.9443C16.3534 37.8655 16.1057 37.5729 15.8468 37.2915C15.5767 37.0213 15.3628 36.7399 15.3628 36.6836C15.3628 36.6273 15.284 36.5148 15.1827 36.436C15.0926 36.3459 14.6536 35.7494 14.2146 35.0965C13.7757 34.4436 13.3704 33.9146 13.3141 33.9371C13.2579 33.9483 13.2353 33.9146 13.2691 33.8583C13.3029 33.802 13.134 33.3968 12.8751 32.9578C12.6162 32.5188 12.4361 32.091 12.4699 32.001C12.5487 31.8096 13.483 31.6408 15.3853 31.4719C17.1526 31.3144 19.3701 31.4607 21.2161 31.8321C21.8014 31.956 22.4093 32.0798 22.5669 32.1136C22.7244 32.1361 23.0059 32.1923 23.186 32.2374C23.3773 32.2824 23.5462 32.3162 23.5799 32.3274C23.6137 32.3274 24.0527 32.485 24.5705 32.6651C25.4372 32.969 25.561 33.0478 26.2589 33.8133C26.6754 34.2635 27.0694 34.6125 27.1482 34.5899C27.227 34.5562 27.2608 34.5899 27.2382 34.6687C27.2157 34.7475 27.5197 35.0852 27.9249 35.4229C28.3189 35.7606 28.7578 36.1433 28.9042 36.2671C29.0505 36.391 29.6358 36.8412 30.1987 37.269C30.7727 37.708 31.2342 38.1357 31.2342 38.2257C31.2342 38.3271 31.1104 38.8111 30.9528 39.3064C30.8065 39.7904 30.7052 40.2181 30.7277 40.2519C30.7615 40.2744 30.7277 40.3532 30.6714 40.432C30.6151 40.5108 30.5476 40.7247 30.5251 40.916C30.5026 41.1186 30.4463 41.31 30.4125 41.355C30.3675 41.3888 30.3337 41.5689 30.3337 41.7377C30.3337 41.9066 30.2887 42.1767 30.2324 42.3231C30.1086 42.6495 30.0186 43.1335 29.9285 44.1016L29.8497 44.8445L30.7952 44.7995C32.8664 44.7094 34.6449 44.3717 36.7499 43.6738C38.1231 43.2236 40.5207 41.9516 40.6671 41.5914C40.6896 41.5464 40.7684 41.5013 40.8359 41.5013C41.0048 41.4901 42.0178 40.6008 41.8715 40.5896C41.804 40.5896 41.8715 40.5446 42.0066 40.4883C42.2542 40.387 43.7288 38.5072 43.7288 38.2933C43.7288 38.2257 43.8301 38.1132 43.9539 38.0344C44.0777 37.9556 44.1678 37.9331 44.1565 37.9781C44.044 38.4058 45.8337 40.5783 47.0382 41.4788C48.7604 42.7733 51.4056 43.9102 53.7132 44.3605C55.1652 44.6531 55.2215 44.6531 56.5047 44.7207C57.1914 44.7544 57.8105 44.7995 57.8893 44.822C58.1819 44.9233 58.1707 44.6419 57.7317 42.1204C57.6979 41.9291 57.5628 41.3775 57.439 40.8822C57.3152 40.387 57.1689 39.7904 57.1126 39.5427C57.0563 39.3064 56.955 39.0137 56.8875 38.8899C56.5498 38.2708 56.606 38.1582 57.6416 37.3703C59.634 35.8619 60.6358 34.9839 60.5345 34.8263C60.5007 34.7588 60.512 34.7475 60.5795 34.7813C60.7259 34.8714 61.5476 34.0271 61.435 33.9033C61.3787 33.8583 61.4013 33.847 61.4688 33.8808C61.5363 33.9258 61.7952 33.7345 62.0429 33.4643C62.4368 33.0366 62.6395 32.924 63.5962 32.6088C66.5904 31.652 70.1587 31.2018 72.6013 31.4832C73.288 31.562 73.9183 31.6183 74.0084 31.6183C74.2898 31.607 75.4042 31.8547 75.5055 31.9334C75.5617 31.9785 75.5167 32.1811 75.4267 32.3724C75.3254 32.5638 75.2691 32.7214 75.3028 32.7214C75.3479 32.7214 75.2916 32.8002 75.2015 32.9015C75.1002 32.9915 74.8864 33.3067 74.7175 33.5994C74.0421 34.7813 72.5676 36.83 71.9597 37.4603C71.8697 37.5504 71.7233 37.7417 71.622 37.8881C71.3744 38.237 69.427 40.2069 68.8192 40.7134C68.5603 40.9273 68.2901 41.1637 68.2226 41.2312C68.1551 41.2987 67.8736 41.5126 67.6035 41.704C67.3334 41.9066 67.1532 42.0642 67.2095 42.0754C67.2658 42.0754 67.232 42.1092 67.142 42.1542C67.0519 42.1992 66.3203 42.6607 65.5098 43.1898C64.7106 43.7188 63.675 44.3717 63.2248 44.6419C62.7745 44.912 62.4256 45.1484 62.4368 45.1709C62.4594 45.1822 62.8983 45.2385 63.4274 45.2722C63.9564 45.3172 64.8119 45.3848 65.341 45.4298C66.7705 45.5536 69.5283 45.4748 71.1042 45.2722C72.9277 45.0358 75.5167 44.4618 76.4285 44.0903C76.5523 44.034 76.8562 43.9327 77.1039 43.8539C77.3515 43.7864 77.6217 43.6738 77.7004 43.6063C77.768 43.55 77.8355 43.5387 77.8355 43.595C77.8355 43.64 77.8918 43.6288 77.9706 43.55C78.0494 43.4712 78.1732 43.4149 78.2633 43.4149C78.4434 43.4149 80.9986 42.1992 81.0999 42.0754C81.1336 42.0416 81.3025 41.9403 81.4826 41.8615C81.9666 41.6477 83.3849 40.6796 84.533 39.7791C85.5123 39.0024 86.9194 37.5504 87.6398 36.5711L88 36.087L87.7411 35.8169C87.5948 35.6593 87.0995 35.2428 86.6267 34.8939C86.154 34.5337 85.7487 34.2185 85.715 34.1847C85.5911 34.0496 84.5443 33.3968 84.4543 33.3968C84.398 33.3968 84.2516 33.2955 84.1278 33.1829C83.7901 32.879 80.9986 31.4607 80.8635 31.5395C80.8072 31.5845 80.7622 31.562 80.7622 31.5057C80.7622 31.4494 80.6721 31.3706 80.5708 31.3369C80.4583 31.3031 80.0305 31.1455 79.614 30.9992C79.1975 30.8416 78.8373 30.7403 78.8148 30.7628C78.7923 30.7966 78.7023 30.7403 78.6235 30.639C78.4996 30.4926 78.5784 30.2112 79.0512 28.9167C79.5915 27.4759 80.1093 25.8213 80.2444 25.1796C80.2781 25.0221 80.3907 24.5718 80.4808 24.1666C80.841 22.647 81.1674 20.2606 81.2687 18.3583L81.3475 16.9963L80.9085 16.9175C80.6721 16.8725 79.3214 16.8162 77.8918 16.7937C75.3704 16.7486 73.5243 16.8725 71.8134 17.1876C71.4419 17.2552 70.9917 17.334 70.8003 17.3677C70.6202 17.4015 69.9898 17.5253 69.427 17.6604C68.853 17.7955 68.3577 17.8855 68.3239 17.8518C68.3014 17.818 68.2564 16.3547 68.2339 14.5874C68.2113 12.8314 68.1213 10.9291 68.0425 10.3775C67.7386 8.18256 67.232 5.19962 67.142 5.09832C67.0857 5.04203 67.0745 4.92947 67.1082 4.85068C67.1983 4.60304 66.8493 4.64806 64.9132 5.14334C62.4256 5.76244 59.589 6.753 59.1275 7.14697C59.0149 7.23702 58.9249 7.28205 58.9249 7.24828C58.9249 7.12446 56.8424 8.19381 56.6736 8.40768C56.6398 8.45271 56.5385 8.52025 56.4485 8.56527C56.3584 8.6103 56.1558 8.71161 55.9982 8.80165C55.8519 8.8917 55.7055 8.94799 55.6943 8.92548C55.6718 8.90296 55.6267 8.65532 55.3116 6.60667C55.244 6.14516 55.109 5.63862 55.0189 5.49229C54.9176 5.3347 54.9063 5.26716 54.9851 5.31219C55.0864 5.37973 55.0864 5.34596 54.9964 5.1546C54.9176 5.03078 54.8838 4.91822 54.9176 4.91822C55.0977 4.91822 53.5893 0.381908 53.2967 0.0442162C53.0378 -0.259705 46.678 2.98212 46.4641 3.53368C46.4303 3.61248 46.3403 3.68002 46.2615 3.68002C46.1151 3.68002 45.2709 4.28786 44.5955 4.88445C44.1115 5.31219 43.8864 5.34596 43.5599 5.03078C43.1772 4.64806 41.894 3.68002 41.7702 3.66876C41.7026 3.65751 41.6013 3.66876 41.5338 3.68002C41.4775 3.69127 41.455 3.66876 41.5 3.62374C41.5901 3.53368 41.1398 3.12846 40.577 2.80202C40.3631 2.6782 39.8228 2.37428 39.3726 2.11539C38.9336 1.86774 38.5058 1.64262 38.4158 1.63136C38.337 1.60885 38.2132 1.54131 38.1456 1.47377C37.9993 1.3387 35.4104 0.15678 34.9714 0.0217056C34.7462 -0.0458336 34.6899 0.0217056 34.4536 0.550755ZM52.4862 3.20725C53.9496 7.34959 54.4448 13.7207 53.7357 19.664C53.5443 21.2512 53.4655 21.5776 53.2517 21.5776C53.1841 21.5776 53.1166 21.4876 53.1053 21.375C53.0153 20.1481 50.9328 14.1147 50.674 14.3173C50.6289 14.351 50.6177 14.3398 50.6514 14.306C50.7415 14.1709 49.3232 11.5595 49.1093 11.4694C49.053 11.4469 49.0193 11.3794 49.0193 11.3231C49.0193 10.9966 46.1264 7.25954 45.6086 6.9331C45.3835 6.77551 45.6874 6.40405 46.6329 5.70616C48.4452 4.36665 51.8334 2.40805 52.126 2.52061C52.2048 2.54313 52.3624 2.8583 52.4862 3.20725ZM37.0088 3.01589C37.5153 3.27479 38.0218 3.5562 38.1344 3.65751C38.2357 3.74755 38.3257 3.79258 38.3257 3.74755C38.3257 3.71379 38.4383 3.74755 38.5846 3.84886C38.731 3.93892 38.8886 3.9952 38.9223 3.96143C38.9674 3.92766 38.9786 3.93892 38.9448 3.98394C38.9111 4.01771 39.1362 4.20906 39.4401 4.40042C40.2168 4.8957 40.5207 5.09832 41.4888 5.84124C41.9615 6.19018 42.378 6.46033 42.4005 6.42657C42.4343 6.40405 42.4568 6.47159 42.4456 6.58416C42.4456 6.69672 42.1079 7.16949 41.7026 7.631C40.5207 8.95924 40.093 9.51081 39.215 10.8278C38.3933 12.066 36.6373 15.3641 36.4684 16.0057C36.3446 16.456 36.3559 16.4109 36.1983 16.7937C36.1082 16.9738 36.0069 17.2327 35.9507 17.3565C35.7931 17.7617 35.309 19.4727 35.1177 20.3394C34.8813 21.3412 34.8138 21.5101 34.5774 21.5551C34.4536 21.5776 34.4085 21.4876 34.4085 21.1949C34.4085 20.981 34.3748 20.6096 34.341 20.3732C33.7782 16.8837 33.8007 11.2105 34.3973 7.78859C34.4536 7.41713 34.5324 6.95562 34.5661 6.77551C34.6674 6.15641 35.0614 4.5355 35.2302 4.05148C35.3203 3.79258 35.4216 3.40987 35.4554 3.20725C35.5342 2.79077 35.703 2.55438 35.9169 2.55438C36.0069 2.55438 36.491 2.757 37.0088 3.01589ZM24.2666 7.32708C24.3116 7.30456 24.3679 7.32708 24.3904 7.38335C24.4016 7.42838 24.9194 7.631 25.516 7.83361C26.1126 8.02497 27.2157 8.45271 27.9586 8.7904C28.7016 9.11683 29.3432 9.36447 29.3882 9.31945C29.4332 9.28568 29.4332 9.30819 29.3995 9.37573C29.3207 9.51081 29.9623 9.83724 30.1649 9.78096C30.2212 9.75845 30.2437 9.7697 30.1987 9.81473C30.1536 9.85975 30.4913 10.1412 30.9416 10.4451C31.3918 10.749 31.8308 11.0754 31.9209 11.1767C32.0447 11.3231 32.0672 11.8184 32.0447 13.5181C31.9997 16.2534 32.1798 19.0449 32.5287 21.2512C32.6863 22.208 32.8326 23.1085 32.8552 23.2661C32.8889 23.4237 33.0127 23.9865 33.1478 24.5043C33.4067 25.4948 33.463 25.7312 33.4743 25.8888C33.4855 25.9451 33.5305 25.9451 33.5981 25.9113C33.6544 25.8775 33.6769 25.9113 33.6431 26.0014C33.6093 26.0914 33.6881 26.4629 33.8119 26.8231C34.0596 27.4984 34.1159 27.9937 33.9583 27.9937C33.902 27.9937 33.4067 27.4534 32.8326 26.778C30.9979 24.6168 28.9267 22.7595 26.7317 21.2962C25.4485 20.4407 22.837 19.0562 22.6794 19.1575C22.6119 19.1913 22.5669 19.18 22.5669 19.135C22.5669 19.0787 22.3417 18.9436 22.0716 18.8311L21.565 18.6284L21.5763 15.3528C21.5876 13.5518 21.6326 11.8746 21.6776 11.627C21.7677 11.1542 22.2854 7.42838 22.2854 7.22577C22.2854 7.00064 22.6344 6.98938 23.3998 7.18074C23.8276 7.2933 24.2215 7.36084 24.2666 7.32708ZM65.8813 8.66658C66.354 11.8184 66.3991 12.3136 66.3991 15.3416C66.4103 18.1557 66.3991 18.4258 66.2077 18.6284C66.0952 18.7523 65.8588 18.8873 65.7012 18.9324C64.5755 19.2025 59.9379 21.9378 60.028 22.2755C60.0392 22.3318 60.0055 22.3543 59.9492 22.3205C59.6565 22.1404 54.6812 26.9469 54.805 27.2846C54.8388 27.3634 54.8275 27.4197 54.7825 27.3971C54.7375 27.3859 54.5461 27.521 54.3773 27.6898C53.837 28.2301 53.8032 27.9149 54.2535 26.5191C54.4786 25.81 54.67 25.0671 54.6812 24.8757C54.6925 24.6731 54.7375 24.5043 54.7713 24.5043C54.8501 24.5043 55.1315 23.2323 55.3228 22.0279C55.8294 18.9661 56.0207 16.2646 55.9644 13.3267L55.9194 11.1993L56.1783 11.0304C56.3246 10.9404 56.4147 10.8053 56.3697 10.7377C56.3359 10.6815 56.3584 10.659 56.4147 10.6927C56.4822 10.7377 56.7862 10.6027 57.0788 10.4001C57.6979 9.97232 59.679 8.86919 59.9379 8.80165C59.9717 8.7904 60.118 8.73412 60.2756 8.66658C61.435 8.1713 62.4931 7.78859 63.63 7.46215C65.1271 7.02315 65.3522 6.96687 65.5211 7.02315C65.5774 7.04567 65.7462 7.78859 65.8813 8.66658ZM45.5073 9.69091C45.8562 10.1299 46.2615 10.5914 46.3965 10.7377C46.5316 10.8841 46.6217 10.9966 46.5992 10.9966C46.5654 10.9966 46.8918 11.5144 47.3083 12.1448C48.1638 13.428 49.2219 15.4429 49.6496 16.6023C49.8072 17.0188 50.0098 17.5028 50.0886 17.6942C50.2462 18.0319 50.764 19.6753 50.8766 20.1368C50.8991 20.2831 51.0229 20.8009 51.1467 21.2962C51.3831 22.3093 51.6533 23.8739 51.8334 25.2922C51.9684 26.4291 51.9797 29.5584 51.8446 29.7722C51.7771 29.8848 51.6758 29.8623 51.4169 29.6372C51.2255 29.4796 51.0116 29.3445 50.9441 29.3445C50.8766 29.3445 50.8203 29.2995 50.8203 29.2432C50.8203 29.0068 48.918 27.9037 48.6478 27.9712C48.5915 27.9825 48.5803 27.9487 48.614 27.8924C48.6478 27.8361 48.5803 27.7686 48.4565 27.7348C48.1976 27.6673 48.1638 27.3634 48.3889 27.1045C48.4677 27.0032 48.6591 26.5642 48.8054 26.1364C49.1544 25.1008 49.1769 23.4349 48.8617 22.4218C48.5465 21.4425 47.736 20.2719 46.9594 19.7091C46.0026 18.9999 45.2146 18.7298 44.0665 18.7298C41.8265 18.7072 40.1042 19.9905 39.215 22.3093C38.7873 23.4236 38.8773 25.7875 39.3613 26.3841C39.4289 26.4629 39.4401 26.5304 39.3951 26.5304C39.3501 26.5304 39.4176 26.7105 39.5527 26.9356C39.6878 27.1495 39.7891 27.3971 39.7891 27.4759C39.7891 27.5435 39.4064 27.8024 38.9448 28.0388C38.4833 28.2751 37.9205 28.6128 37.6954 28.7929C37.4703 28.973 37.2451 29.1194 37.2114 29.1194C37.1776 29.1194 36.9412 29.2995 36.7048 29.5133C36.4572 29.7272 36.2208 29.8735 36.1758 29.8285C35.7931 29.412 36.0857 24.887 36.6936 21.859C36.8737 20.9473 37.3464 19.2025 37.5603 18.651C37.6841 18.3133 37.7967 17.8968 37.808 17.7279C37.8192 17.5703 37.853 17.4578 37.8867 17.4803C38.0106 17.5478 38.3483 16.5235 38.2582 16.3772C38.2132 16.2984 38.2132 16.2646 38.2582 16.3096C38.3145 16.3547 38.7422 15.6117 39.215 14.6775C40.048 13.0453 40.5432 12.2011 41.3424 11.1205C41.5338 10.8503 41.6689 10.5802 41.6239 10.5126C41.5901 10.4563 41.6126 10.4338 41.6689 10.4676C41.7364 10.5126 42.0178 10.2537 42.2992 9.89352C42.5806 9.54457 43.0647 8.98176 43.3911 8.64407L43.9652 8.03622L44.4154 8.47522C44.6631 8.71161 45.1583 9.26316 45.5073 9.69091ZM79.13 18.651C79.0962 18.7072 79.1187 18.7635 79.1975 18.7635C79.3439 18.7635 79.2651 20.3507 79.085 21.1499C79.0174 21.4538 79.0174 21.5776 79.1187 21.5889C79.1975 21.5889 79.1975 21.6114 79.1075 21.6564C79.0287 21.6789 78.9612 21.8252 78.9612 21.9603C78.9612 22.0954 78.8598 22.692 78.7248 23.2773C78.601 23.8626 78.4884 24.4367 78.4659 24.5605C78.4546 24.6956 78.4096 24.842 78.3758 24.9095C78.3308 24.9658 78.2295 25.326 78.1282 25.7199C77.9368 26.4291 77.374 28.1063 77.1039 28.7254C77.0251 28.9055 76.9012 29.2319 76.8224 29.4345C76.5748 30.0762 76.496 30.1099 75.618 29.9523C75.2015 29.8848 74.5262 29.761 74.1209 29.7047C73.1866 29.5584 67.6823 29.6372 67.2546 29.7947C67.2208 29.806 67.1645 29.8173 67.1195 29.806C67.0745 29.806 66.6917 29.8735 66.2753 29.9636C64.9583 30.2563 64.6656 30.2788 64.6656 30.0762C64.6656 29.9748 64.8344 29.6034 65.0371 29.2544C65.5098 28.444 66.0276 27.3183 65.9263 27.3183C65.8813 27.3183 65.9038 27.2733 65.9713 27.2283C66.1514 27.1045 66.4779 26.1927 66.3991 26.0464C66.354 25.9676 66.3653 25.9563 66.4103 26.0014C66.5116 26.0914 67.2208 24.1666 67.2996 23.6038C67.3221 23.4462 67.3671 23.2435 67.4009 23.1535C67.5472 22.782 67.7949 21.5326 67.7386 21.3975C67.7161 21.33 67.7386 21.2287 67.8061 21.1836C67.8736 21.1499 67.9299 20.9247 67.9299 20.6884C67.9299 20.452 67.9975 20.2043 68.0763 20.1368C68.2451 19.9905 69.4721 19.6303 70.3163 19.4727C70.4964 19.4389 70.5977 19.3601 70.5527 19.2926C70.5189 19.225 70.5414 19.2138 70.6202 19.2588C70.6877 19.3038 71.138 19.2701 71.622 19.1688C72.0948 19.0787 72.7477 18.9661 73.0516 18.9211C73.3668 18.8761 73.6932 18.8198 73.7832 18.7973C73.8733 18.7748 75.089 18.7298 76.4848 18.696C77.8805 18.651 79.0399 18.6059 79.0625 18.5834C79.1525 18.4934 79.1975 18.5384 79.13 18.651ZM14.5749 18.8648C14.9125 18.9324 15.4191 19.0112 15.7005 19.0337C16.2746 19.1012 19.3025 19.8441 19.6965 20.0242C19.8766 20.103 19.9779 20.2719 20.0229 20.5533C20.2255 21.7465 20.4844 22.9059 20.5407 22.8721C20.5745 22.8496 20.597 22.9959 20.6083 23.1873C20.6195 23.8739 21.5763 26.4854 22.4768 28.3089C22.9721 29.322 23.3548 30.1775 23.321 30.2112C23.2873 30.2337 22.837 30.1887 22.3192 30.0874C19.3701 29.5358 16.2633 29.412 13.6969 29.761C12.9089 29.8623 12.0647 29.9523 11.817 29.9523L11.3668 29.9636L11.0291 29.1194C10.849 28.6579 10.6464 28.2414 10.6014 28.2076C10.5451 28.1738 10.5113 28.095 10.5226 28.0388C10.5451 27.9262 10.3537 27.2508 10.1286 26.643C9.95975 26.1815 9.71211 25.3372 9.65583 25.0108C9.63332 24.887 9.54327 24.5043 9.45322 24.1666C9.13804 22.8946 8.90165 21.4988 8.67653 19.4276C8.64276 19.1012 8.66527 18.8536 8.75532 18.7635C8.85663 18.651 9.44196 18.6397 11.4231 18.6847C12.8189 18.7298 14.2372 18.8085 14.5749 18.8648ZM44.6743 20.6433C44.7644 20.7334 44.8094 20.7446 45.1246 20.7784C45.2146 20.7784 45.5298 21.0148 45.845 21.2962C46.1489 21.5664 46.4416 21.7577 46.4753 21.7127C46.5204 21.6677 46.5429 21.6789 46.5316 21.7465C46.5204 21.8027 46.6442 22.1629 46.8243 22.5344C47.4209 23.8064 47.2858 25.4273 46.4979 26.4741C46.3403 26.6767 46.2502 26.8793 46.2952 26.9244C46.3403 26.9807 46.3177 26.9807 46.2502 26.9469C46.1714 26.9019 46.0476 26.9469 45.9688 27.0482C45.89 27.1382 45.5973 27.3521 45.3272 27.521C44.922 27.7573 44.6631 27.8136 44.0665 27.8136C43.1547 27.8249 42.4906 27.5547 41.9278 26.9356C41.7139 26.688 41.4775 26.4404 41.4212 26.3728C41.3537 26.3053 41.2074 26.0239 41.0835 25.7425C40.7796 25.0783 40.7684 23.4349 41.0498 22.737C41.5563 21.4988 42.8395 20.5645 44.0215 20.5645C44.3366 20.5645 44.6293 20.5983 44.6743 20.6433ZM23.2985 21.5326C24.3228 22.0616 25.5273 22.8046 26.6079 23.57C26.9343 23.8064 27.272 23.9752 27.3396 23.964C27.4071 23.9414 27.4296 23.9527 27.3846 23.9977C27.3396 24.0427 27.4634 24.2116 27.666 24.3692C27.8686 24.5268 28.3301 24.9433 28.7016 25.2922C29.073 25.6412 29.4783 26.0014 29.6021 26.0914C29.7259 26.1815 30.1536 26.6317 30.5589 27.0932C30.9641 27.5547 31.3806 28.0275 31.4819 28.1513C31.5832 28.2639 31.8083 28.534 31.9884 28.7479C32.1573 28.9618 32.3937 29.2319 32.5062 29.3557C32.6075 29.4683 32.6976 29.5921 32.6976 29.6259C32.6976 29.6597 32.9677 30.0536 33.2942 30.5039C33.9921 31.4607 34.2735 31.8884 34.2735 32.0122C34.2735 32.0685 33.9583 32.6426 33.5756 33.2955C33.1816 33.9483 32.7201 34.8038 32.5287 35.209C32.2135 35.8844 32.0672 36.087 31.8871 36.0983C31.8533 36.0983 31.3581 35.7381 30.7952 35.3104C29.4332 34.2523 27.0356 31.8659 26.2139 30.7515C25.8425 30.2563 25.516 29.8285 25.471 29.8173C25.4147 29.7947 25.3809 29.7047 25.3809 29.6146C25.3809 29.5133 25.3359 29.4683 25.2909 29.5021C25.2346 29.5358 25.1896 29.5021 25.1896 29.4233C25.1896 29.2319 24.8181 28.6691 24.6943 28.6691C24.638 28.6691 24.6043 28.6353 24.6268 28.5791C24.6718 28.4215 24.2215 27.5435 24.1315 27.611C24.0752 27.6448 24.064 27.5885 24.0977 27.4984C24.1315 27.3971 24.109 27.3183 24.0414 27.3183C23.9739 27.3183 23.9176 27.2508 23.9176 27.172C23.9176 27.0369 23.1297 25.1684 23.0171 25.0671C22.9833 25.0333 22.9496 24.9095 22.9271 24.7857C22.9045 24.6618 22.7582 24.1328 22.6006 23.6038C22.1166 22.0279 21.9703 21.0148 22.2067 21.0148C22.2517 21.0148 22.7357 21.2512 23.2985 21.5326ZM65.8588 21.42C65.8588 21.6001 65.8025 21.9941 65.7237 22.298C65.6449 22.6019 65.5774 22.8833 65.5886 22.9171C65.5999 22.9509 65.5661 23.0634 65.5323 23.1535C65.4986 23.2435 65.3297 23.7276 65.1721 24.2229C64.8907 25.1008 64.418 26.3165 64.1365 26.8568C64.069 27.0144 64.024 27.172 64.0578 27.2283C64.0915 27.2733 64.069 27.3183 64.0127 27.3183C63.9564 27.3183 63.8214 27.4872 63.7313 27.6786C63.63 27.8812 63.2698 28.5003 62.9321 29.0518C62.5832 29.5921 62.3018 30.0874 62.3018 30.1324C62.3018 30.1887 62.2567 30.245 62.2005 30.2675C62.1442 30.2788 61.8065 30.684 61.435 31.1455C59.8479 33.1491 56.4034 36.2334 55.9532 36.0645C55.8856 36.0308 55.7506 35.8394 55.638 35.6368C55.5367 35.4229 55.2665 34.8714 55.0414 34.4098C54.805 33.9483 54.4336 33.2955 54.2085 32.9465C53.6119 32.0685 53.6006 32.0122 53.9833 31.4832C54.1634 31.2356 54.2872 30.9654 54.2422 30.8979C54.1972 30.8303 54.2085 30.8078 54.276 30.8416C54.3435 30.8866 54.6137 30.6052 54.8838 30.2112C55.154 29.8285 55.4241 29.4571 55.4917 29.3895C55.548 29.3107 55.7618 29.0631 55.9419 28.8267C57.2364 27.1945 58.8348 25.5849 60.3882 24.3242C61.4013 23.5024 63.3824 22.1404 63.5512 22.1404C63.6075 22.1404 63.63 22.0841 63.585 22.0054C63.54 21.9378 63.5512 21.9153 63.6188 21.9491C63.675 21.9828 64.1478 21.7915 64.6768 21.5213C65.1946 21.2512 65.6787 21.0373 65.7349 21.0598C65.8025 21.0711 65.8475 21.2399 65.8588 21.42ZM42.4343 29.4571C43.1885 29.7385 44.179 29.8623 44.483 29.7385C44.5955 29.6934 44.8544 29.6372 45.0683 29.6146C45.2709 29.5921 45.5186 29.5133 45.5973 29.4458C45.6874 29.3783 45.7549 29.3445 45.7549 29.3895C45.7549 29.4345 45.9125 29.3783 46.1151 29.277C46.4078 29.1194 46.5429 29.1194 46.9143 29.2319C48.2088 29.6146 49.6496 30.5602 50.8203 31.7646C51.8446 32.834 52.0585 33.0591 52.0585 33.1154C52.0585 33.1379 52.2836 33.5093 52.5425 33.9258C53.8708 35.9857 55.0302 38.8223 55.6155 41.4C55.7168 41.8615 55.8406 42.2668 55.8969 42.3005C55.9532 42.3343 55.9307 42.4469 55.8519 42.5707C55.7055 42.7621 55.6605 42.7621 54.5799 42.5707C53.2967 42.3456 51.4957 41.7828 50.325 41.2312C48.4677 40.3757 46.6554 38.7886 45.9238 37.3703C45.7437 37.0101 45.5411 36.6836 45.4735 36.6386C45.4172 36.5936 45.3947 36.5486 45.4398 36.5486C45.5073 36.5486 45.361 35.9857 45.1133 35.3104C45.0796 35.2203 45.0233 34.7138 45.0008 34.1847C44.967 33.6669 44.8994 33.1266 44.8432 32.9803C44.7193 32.6539 44.0327 32.3612 43.695 32.485C43.211 32.6764 43.0872 32.9578 42.9971 34.0609C42.9521 34.635 42.8621 35.2991 42.7833 35.5242C42.7045 35.7494 42.6482 36.0082 42.6594 36.0983C42.6594 36.1883 42.6369 36.2897 42.6032 36.3234C42.5694 36.3572 42.378 36.7174 42.1754 37.1226C41.6689 38.1582 40.7346 39.2388 39.699 40.0042C39.2262 40.3645 38.7985 40.7021 38.7535 40.7697C38.7085 40.826 38.6634 40.8485 38.6634 40.7922C38.6634 40.7472 38.3032 40.8935 37.8755 41.1074C36.5923 41.7602 35.174 42.2217 33.3955 42.5707C31.9659 42.8521 31.9659 42.8408 32.4274 41.0849C32.5963 40.477 32.7313 39.9255 32.7426 39.8692C32.7539 39.8016 32.7876 39.7003 32.8214 39.644C32.9002 39.5202 33.2716 38.4058 33.3054 38.2032C33.3167 38.1244 33.3955 37.9556 33.4743 37.8093C33.5531 37.6629 33.6318 37.4603 33.6544 37.359C33.6881 37.1451 34.8475 34.725 34.9488 34.635C34.9826 34.6012 35.1402 34.3761 35.2865 34.1284C35.7593 33.3405 36.6485 32.2374 37.414 31.4945C38.1907 30.7403 39.6427 29.7272 40.093 29.6146C40.2281 29.5809 40.3181 29.4908 40.2731 29.4233C40.2393 29.367 40.2618 29.3445 40.3181 29.3783C40.3857 29.4233 40.6108 29.3783 40.8134 29.2882C41.2524 29.0968 41.5 29.1194 42.4343 29.4571ZM10.9165 33.363C11.5131 34.4661 13.3929 37.3478 13.7982 37.7867C13.9445 37.9443 14.1584 38.2145 14.2709 38.3946C14.8337 39.2501 18.6046 42.9759 18.8072 42.8746C18.9085 42.8183 19.2913 43.3474 19.2237 43.4599C19.1562 43.55 16.5447 43.4037 16.5447 43.3024C16.5447 43.2798 16.162 43.2123 15.6442 43.1448C14.9688 43.0547 13.8319 42.7958 13.3817 42.627C13.2579 42.5707 12.999 42.5144 12.8189 42.4806C12.6388 42.4469 12.3686 42.3793 12.211 42.3118C12.0534 42.2443 11.5469 42.0529 11.0854 41.8841C10.6239 41.7265 9.67834 41.31 8.98045 40.9836C8.29381 40.6459 7.67471 40.3757 7.61843 40.3757C7.55089 40.3757 7.48336 40.3419 7.46084 40.2857C7.38205 40.1168 5.78365 39.1375 5.67108 39.1938C5.6148 39.2388 5.58103 39.2163 5.59229 39.16C5.6148 39.1037 5.32214 38.8111 4.95068 38.5297C3.94886 37.7417 2.74443 36.5373 2.7782 36.3459C2.82323 36.087 4.08394 35.2316 6.30144 33.9483C6.74044 33.7007 8.77783 32.834 9.22809 32.7214C9.29563 32.6989 9.52075 32.6201 9.73462 32.5413C9.94849 32.4625 10.1849 32.395 10.2637 32.395C10.3312 32.3837 10.6239 32.8227 10.9165 33.363ZM78.9386 32.7777C80.4808 33.318 82.732 34.4549 84.0715 35.3891C84.3529 35.5918 84.6569 35.7381 84.7357 35.7156C84.8032 35.7043 84.8257 35.7043 84.7694 35.7381C84.7244 35.7606 84.8145 35.8957 84.9833 36.0308C85.2422 36.2334 85.276 36.3234 85.1747 36.5035C85.0621 36.7061 84.1728 37.5841 83.3736 38.2708C82.0454 39.4077 79.0737 41.0736 76.9913 41.839C76.4397 42.0529 75.9557 42.2443 75.9219 42.278C75.8882 42.3231 75.7418 42.3681 75.5843 42.3793C75.1115 42.4469 73.333 42.9196 73.378 42.9759C73.4005 42.9984 73.3217 43.021 73.1866 43.0322C73.0516 43.0322 72.2073 43.156 71.3068 43.3024C69.7985 43.5275 68.8642 43.595 68.7404 43.4825C68.6841 43.4149 69.0893 42.8634 69.2019 42.8521C69.3482 42.8521 70.0461 42.2105 71.532 40.7134C72.9615 39.2951 73.0628 39.1713 74.0421 37.9556C75.3141 36.391 77.3515 33.0591 77.2052 32.8002C77.1601 32.7214 77.1601 32.6989 77.2164 32.7439C77.2727 32.8002 77.374 32.7326 77.4641 32.6088C77.5541 32.485 77.6667 32.3837 77.723 32.3837C77.768 32.3837 78.3195 32.5638 78.9386 32.7777Z" fill="white"/>
</svg>
