<svg width="180" height="66" viewBox="0 0 180 66" fill="none" xmlns="http://www.w3.org/2000/svg">
<path d="M83.0813 0.402172C82.8919 0.837727 82.5377 1.85676 82.2248 2.85114C82.0519 3.40175 81.6895 5.16862 81.5907 5.94934C81.5577 6.18766 81.5001 6.40954 81.4589 6.4342C81.4177 6.45885 80.9319 6.22053 80.3719 5.90003C79.8201 5.58774 79.2025 5.26724 78.9966 5.18506C78.7907 5.1111 78.5931 5.0207 78.5436 4.98783C78.3625 4.85634 76.5919 4.24821 76.5178 4.2893C76.4766 4.32217 76.4436 4.30573 76.4436 4.26464C76.4436 4.16603 73.6766 3.4264 73.2895 3.4264C73.1743 3.4264 73.1084 3.58255 73.0095 4.12494C72.4166 7.4368 72.3096 8.45583 72.2766 10.9788C72.2601 12.4416 72.2272 13.0004 72.1531 13.0497C72.0954 13.0826 71.9143 13.0579 71.7413 13.0004C71.4119 12.8771 70.1931 12.6224 69.279 12.4744C67.7966 12.2443 65.1778 12.1704 63.5143 12.3265C63.3578 12.343 63.1272 12.3594 63.0037 12.3676L62.7731 12.384V13.1401C62.7731 13.5592 62.8143 14.1427 62.8555 14.4385C62.8967 14.7344 62.9543 15.211 62.979 15.5069C63.119 16.904 63.7943 19.5255 64.4943 21.3746C64.6755 21.8676 64.8237 22.2785 64.8072 22.295C64.7908 22.3114 63.1849 22.9606 62.8061 23.1003C62.6578 23.1496 62.4849 23.2483 62.4108 23.3058C62.3367 23.3633 62.279 23.388 62.279 23.3633C62.279 23.2729 61.1261 23.9139 60.2284 24.4974C59.5614 24.9247 58.359 25.8369 57.9226 26.2396C57.8237 26.33 57.8649 26.4122 58.1696 26.782C59.0178 27.8175 60.2284 29.0009 60.8296 29.3707C61.019 29.4857 61.1837 29.609 61.2084 29.6337C61.2496 29.6994 61.7355 30.0446 61.9578 30.1761C62.7978 30.6856 63.1931 30.8746 63.2755 30.8253C63.3331 30.7924 63.3496 30.8006 63.3249 30.8499C63.2755 30.9321 64.2472 31.4252 65.1613 31.7868C66.0672 32.1402 67.7884 32.6415 68.6613 32.8058C69.6825 32.9866 70.4896 33.1017 71.0907 33.1428C71.4778 33.1592 72.0048 33.2003 72.2684 33.2167C73.059 33.2742 76.526 33.0524 76.526 32.9373C76.526 32.8633 75.6778 32.3949 75.5625 32.4031C75.5048 32.4114 75.4719 32.3867 75.4966 32.3538C75.5131 32.321 75.3813 32.2141 75.2084 32.1155C74.706 31.8361 73.2813 30.8664 73.2154 30.7595C73.1825 30.7102 73.1495 30.6938 73.1495 30.7267C73.1495 30.7842 72.9437 30.6363 72.6966 30.3979C72.6307 30.3486 72.5731 30.2993 72.5484 30.2993C72.4495 30.2993 69.9954 27.9161 69.8719 27.7024C69.839 27.6449 69.6578 27.4312 69.4684 27.2258C69.2707 27.0286 69.1143 26.8231 69.1143 26.782C69.1143 26.7409 69.0566 26.6587 68.9825 26.6012C68.9166 26.5355 68.5955 26.0999 68.2743 25.6233C67.9531 25.1466 67.6566 24.7604 67.6155 24.7768C67.5743 24.785 67.5578 24.7604 67.5825 24.7193C67.6072 24.6782 67.4837 24.3823 67.2943 24.0618C67.1049 23.7413 66.9731 23.4291 66.9978 23.3633C67.0555 23.2236 67.739 23.1003 69.1307 22.9771C70.4237 22.862 72.046 22.9689 73.3966 23.24C73.8248 23.3304 74.2695 23.4208 74.3848 23.4455C74.5001 23.4619 74.706 23.503 74.8378 23.5359C74.9778 23.5688 75.1013 23.5934 75.126 23.6016C75.1507 23.6016 75.4719 23.7167 75.8507 23.8482C76.4848 24.0701 76.5754 24.1276 77.086 24.6864C77.3907 25.0151 77.6789 25.2699 77.7366 25.2535C77.7942 25.2288 77.8189 25.2535 77.8025 25.311C77.786 25.3685 78.0083 25.6151 78.3048 25.8616C78.5931 26.1081 78.9142 26.3875 79.0213 26.4779C79.1283 26.5683 79.5566 26.8971 79.9683 27.2093C80.3883 27.5298 80.726 27.8421 80.726 27.9079C80.726 27.9818 80.6354 28.3352 80.5201 28.6968C80.413 29.0502 80.3389 29.3625 80.3554 29.3871C80.3801 29.4036 80.3554 29.4611 80.3142 29.5186C80.273 29.5761 80.2236 29.7323 80.2072 29.872C80.1907 30.0199 80.1495 30.1596 80.1248 30.1925C80.0919 30.2171 80.0672 30.3486 80.0672 30.4719C80.0672 30.5952 80.0342 30.7924 79.993 30.8992C79.9025 31.1376 79.8366 31.4909 79.7707 32.1977L79.713 32.7401L80.4048 32.7072C81.9201 32.6415 83.2213 32.3949 84.7613 31.8854C85.766 31.5567 87.5201 30.628 87.6271 30.3651C87.6436 30.3322 87.7012 30.2993 87.7507 30.2993C87.8742 30.2911 88.6154 29.6419 88.5083 29.6337C88.4589 29.6337 88.5083 29.6008 88.6071 29.5597C88.7883 29.4857 89.8671 28.1133 89.8671 27.9572C89.8671 27.9079 89.9412 27.8257 90.0318 27.7682C90.1224 27.7106 90.1883 27.6942 90.1801 27.7271C90.0977 28.0394 91.4071 29.6254 92.2883 30.2829C93.5483 31.228 95.4836 32.058 97.1718 32.3867C98.2341 32.6004 98.2753 32.6004 99.2141 32.6497C99.7165 32.6743 100.169 32.7072 100.227 32.7236C100.441 32.7976 100.433 32.5921 100.112 30.7513C100.087 30.6116 99.9882 30.2089 99.8977 29.8473C99.8071 29.4857 99.7 29.0502 99.6588 28.8694C99.6177 28.6968 99.5435 28.4831 99.4941 28.3927C99.2471 27.9408 99.2882 27.8586 100.046 27.2833C101.504 26.1821 102.236 25.5411 102.162 25.426C102.138 25.3767 102.146 25.3685 102.195 25.3932C102.302 25.4589 102.904 24.8426 102.821 24.7522C102.78 24.7193 102.796 24.7111 102.846 24.7357C102.895 24.7686 103.085 24.6289 103.266 24.4317C103.554 24.1194 103.702 24.0372 104.402 23.8071C106.593 23.1086 109.203 22.7798 110.991 22.9853C111.493 23.0428 111.954 23.0839 112.02 23.0839C112.226 23.0757 113.041 23.2565 113.115 23.314C113.156 23.3469 113.123 23.4948 113.058 23.6345C112.983 23.7742 112.942 23.8893 112.967 23.8893C113 23.8893 112.959 23.9468 112.893 24.0208C112.819 24.0865 112.662 24.3166 112.539 24.5303C112.045 25.3932 110.966 26.8888 110.521 27.3491C110.455 27.4148 110.348 27.5545 110.274 27.6613C110.093 27.9161 108.668 29.3542 108.224 29.7241C108.034 29.8802 107.836 30.0528 107.787 30.1021C107.738 30.1514 107.532 30.3075 107.334 30.4472C107.136 30.5952 107.005 30.7102 107.046 30.7184C107.087 30.7184 107.062 30.7431 106.996 30.776C106.931 30.8088 106.395 31.1458 105.802 31.532C105.218 31.9183 104.46 32.3949 104.131 32.5921C103.801 32.7894 103.546 32.962 103.554 32.9784C103.571 32.9866 103.892 33.0277 104.279 33.0524C104.666 33.0852 105.292 33.1345 105.679 33.1674C106.725 33.2578 108.742 33.2003 109.895 33.0524C111.229 32.8798 113.123 32.4607 113.791 32.1895C113.881 32.1484 114.103 32.0744 114.285 32.0169C114.466 31.9676 114.663 31.8854 114.721 31.8361C114.771 31.795 114.82 31.7868 114.82 31.8279C114.82 31.8607 114.861 31.8525 114.919 31.795C114.976 31.7375 115.067 31.6964 115.133 31.6964C115.265 31.6964 117.134 30.8088 117.208 30.7184C117.233 30.6938 117.356 30.6198 117.488 30.5623C117.842 30.4062 118.88 29.6994 119.72 29.042C120.436 28.4749 121.466 27.4148 121.993 26.6998L122.256 26.3465L122.067 26.1492C121.96 26.0342 121.598 25.7301 121.252 25.4753C120.906 25.2124 120.609 24.9823 120.585 24.9576C120.494 24.859 119.728 24.3823 119.662 24.3823C119.621 24.3823 119.514 24.3084 119.423 24.2262C119.176 24.0043 117.134 22.9689 117.035 23.0264C116.994 23.0592 116.961 23.0428 116.961 23.0017C116.961 22.9606 116.895 22.9031 116.821 22.8785C116.739 22.8538 116.426 22.7387 116.121 22.6319C115.816 22.5169 115.553 22.4429 115.536 22.4593C115.52 22.484 115.454 22.4429 115.396 22.3689C115.306 22.2621 115.363 22.0567 115.709 21.1116C116.105 20.0597 116.483 18.8516 116.582 18.3832C116.607 18.2681 116.689 17.9394 116.755 17.6436C117.019 16.5341 117.258 14.7919 117.332 13.4031L117.389 12.4087L117.068 12.3512C116.895 12.3183 115.907 12.2772 114.861 12.2608C113.016 12.2279 111.666 12.3183 110.414 12.5484C110.142 12.5977 109.813 12.6552 109.673 12.6799C109.541 12.7045 109.08 12.7949 108.668 12.8936C108.248 12.9922 107.886 13.0579 107.861 13.0333C107.845 13.0086 107.812 11.9403 107.795 10.65C107.779 9.36803 107.713 7.97919 107.655 7.5765C107.433 5.97399 107.062 3.79622 106.996 3.72225C106.955 3.68116 106.947 3.59898 106.972 3.54146C107.038 3.36066 106.782 3.39353 105.366 3.75513C103.546 4.20712 101.471 4.9303 101.133 5.21793C101.051 5.28368 100.985 5.31655 100.985 5.29189C100.985 5.2015 99.4612 5.98221 99.3377 6.13835C99.313 6.17122 99.2388 6.22053 99.173 6.2534C99.1071 6.28627 98.9588 6.36024 98.8435 6.42598C98.7365 6.49172 98.6294 6.53281 98.6212 6.51638C98.6047 6.49994 98.5718 6.31915 98.3412 4.82347C98.2918 4.48653 98.193 4.11672 98.1271 4.00988C98.053 3.89483 98.0447 3.84552 98.1024 3.8784C98.1765 3.9277 98.1765 3.90305 98.1106 3.76334C98.053 3.67294 98.0283 3.59076 98.053 3.59076C98.1847 3.59076 97.0812 0.278904 96.8671 0.0323639C96.6777 -0.189526 92.0248 2.17727 91.8683 2.57995C91.8436 2.63747 91.7777 2.68678 91.7201 2.68678C91.613 2.68678 90.9953 3.13055 90.5012 3.56611C90.1471 3.8784 89.9824 3.90305 89.7436 3.67294C89.4636 3.39353 88.5248 2.68678 88.4342 2.67856C88.3848 2.67035 88.3107 2.67856 88.2612 2.68678C88.2201 2.695 88.2036 2.67856 88.2365 2.64569C88.3024 2.57995 87.973 2.2841 87.5612 2.04578C87.4048 1.95538 87.0095 1.73349 86.6801 1.54448C86.3589 1.36368 86.046 1.19932 85.9801 1.1911C85.9224 1.17467 85.8318 1.12536 85.7824 1.07605C85.6754 0.977436 83.7813 0.114544 83.4601 0.0159264C83.2954 -0.0333824 83.2542 0.0159264 83.0813 0.402172ZM96.2741 2.34163C97.3447 5.36586 97.7071 10.0173 97.1883 14.3564C97.0483 15.5151 96.9906 15.7534 96.8341 15.7534C96.7847 15.7534 96.7353 15.6877 96.7271 15.6055C96.6612 14.7097 95.1377 10.3049 94.9483 10.4528C94.9153 10.4775 94.9071 10.4692 94.9318 10.4446C94.9977 10.346 93.96 8.43939 93.8036 8.37365C93.7624 8.35721 93.7377 8.30791 93.7377 8.26682C93.7377 8.02849 91.6212 5.30011 91.2424 5.06179C91.0777 4.94674 91.3001 4.67554 91.9918 4.16603C93.3177 3.18808 95.7965 1.75815 96.0106 1.84033C96.0683 1.85676 96.1836 2.08687 96.2741 2.34163ZM84.9507 2.20192C85.3213 2.39093 85.6918 2.59638 85.7742 2.67035C85.8483 2.73609 85.9142 2.76896 85.9142 2.73609C85.9142 2.71144 85.9965 2.73609 86.1036 2.81005C86.2107 2.8758 86.326 2.91689 86.3507 2.89223C86.3836 2.86758 86.3918 2.8758 86.3671 2.90867C86.3424 2.93332 86.5071 3.07303 86.7295 3.21273C87.2977 3.57433 87.5201 3.72225 88.2283 4.26464C88.5742 4.5194 88.8789 4.71663 88.8954 4.69198C88.9201 4.67554 88.9365 4.72485 88.9283 4.80703C88.9283 4.88921 88.6812 5.23437 88.3848 5.57131C87.5201 6.54103 87.2071 6.94371 86.5648 7.90522C85.9636 8.8092 84.6789 11.2171 84.5554 11.6855C84.4648 12.0142 84.473 11.9814 84.3577 12.2608C84.2918 12.3923 84.2177 12.5813 84.1766 12.6717C84.0613 12.9675 83.7071 14.2167 83.5671 14.8494C83.3942 15.5809 83.3448 15.7041 83.1719 15.737C83.0813 15.7534 83.0483 15.6877 83.0483 15.474C83.0483 15.3179 83.0236 15.0467 82.9989 14.8741C82.5872 12.3265 82.6036 8.18464 83.0401 5.68636C83.0813 5.41516 83.1389 5.07822 83.1636 4.94674C83.2377 4.49475 83.526 3.31135 83.6495 2.95798C83.7154 2.76896 83.7895 2.48955 83.8142 2.34163C83.8719 2.03756 83.9954 1.86498 84.1518 1.86498C84.2177 1.86498 84.5718 2.01291 84.9507 2.20192ZM75.6284 5.34942C75.6613 5.33298 75.7025 5.34942 75.7189 5.39051C75.7272 5.42338 76.106 5.57131 76.5425 5.71923C76.9789 5.85894 77.786 6.17122 78.3295 6.41776C78.8731 6.65608 79.3425 6.83688 79.3754 6.80401C79.4083 6.77935 79.4083 6.79579 79.3836 6.8451C79.326 6.94371 79.7954 7.18204 79.9436 7.14095C79.9848 7.12451 80.0013 7.13273 79.9683 7.1656C79.9354 7.19847 80.1825 7.40392 80.5119 7.62581C80.8413 7.8477 81.1625 8.08602 81.2283 8.15998C81.3189 8.26682 81.3354 8.62841 81.3189 9.86933C81.286 11.8663 81.4177 13.9044 81.673 15.5151C81.7883 16.2136 81.8954 16.8711 81.9119 16.9861C81.9366 17.1012 82.0272 17.5121 82.126 17.8901C82.3154 18.6133 82.3566 18.7859 82.3648 18.9009C82.373 18.942 82.406 18.942 82.4554 18.9174C82.4966 18.8927 82.513 18.9174 82.4883 18.9831C82.4636 19.0489 82.5213 19.3201 82.6119 19.583C82.793 20.0761 82.8342 20.4377 82.7189 20.4377C82.6777 20.4377 82.3154 20.0432 81.8954 19.5502C80.553 17.9723 79.0378 16.6163 77.4319 15.548C76.4931 14.9234 74.5825 13.9126 74.4672 13.9866C74.4178 14.0112 74.3848 14.003 74.3848 13.9701C74.3848 13.929 74.2201 13.8304 74.0225 13.7482L73.6519 13.6003L73.6601 11.2089C73.6684 9.89398 73.7013 8.6695 73.7343 8.4887C73.8001 8.14355 74.179 5.42338 74.179 5.27546C74.179 5.1111 74.4342 5.10288 74.9942 5.24259C75.3072 5.32477 75.5954 5.37407 75.6284 5.34942ZM106.074 6.32736C106.42 8.62841 106.453 8.99 106.453 11.2006C106.461 13.2552 106.453 13.4524 106.313 13.6003C106.231 13.6907 106.058 13.7893 105.942 13.8222C105.119 14.0194 101.726 16.0164 101.792 16.2629C101.8 16.304 101.775 16.3205 101.734 16.2958C101.52 16.1643 97.88 19.6734 97.9706 19.92C97.9953 19.9775 97.9871 20.0186 97.9541 20.0021C97.9212 19.9939 97.7812 20.0925 97.6577 20.2158C97.2624 20.6103 97.2377 20.3802 97.5671 19.3611C97.7318 18.8434 97.8718 18.301 97.88 18.1613C97.8883 18.0134 97.9212 17.8901 97.9459 17.8901C98.0036 17.8901 98.2094 16.9615 98.3494 16.0821C98.72 13.8468 98.86 11.8745 98.8188 9.72962L98.7859 8.17642L98.9753 8.05315C99.0824 7.9874 99.1483 7.88879 99.1153 7.83948C99.0906 7.79839 99.1071 7.78195 99.1483 7.80661C99.1977 7.83948 99.42 7.74086 99.6341 7.59294C100.087 7.28065 101.536 6.47529 101.726 6.42598C101.751 6.41776 101.858 6.37667 101.973 6.32736C102.821 5.96577 103.595 5.68636 104.427 5.44804C105.522 5.12753 105.687 5.08644 105.811 5.12753C105.852 5.14397 105.975 5.68636 106.074 6.32736ZM91.1683 7.0752C91.4236 7.39571 91.7201 7.73265 91.8189 7.83948C91.9177 7.94631 91.9836 8.02849 91.9671 8.02849C91.9424 8.02849 92.1812 8.40652 92.4859 8.86673C93.1118 9.80359 93.8859 11.2746 94.1989 12.1211C94.3142 12.4251 94.4624 12.7785 94.52 12.9182C94.6353 13.1648 95.0142 14.3646 95.0965 14.7015C95.113 14.8084 95.2036 15.1864 95.2942 15.548C95.4671 16.2876 95.6647 17.4299 95.7965 18.4654C95.8953 19.2954 95.9036 21.58 95.8047 21.7361C95.7553 21.8183 95.6812 21.8019 95.4918 21.6375C95.3518 21.5225 95.1953 21.4239 95.1459 21.4239C95.0965 21.4239 95.0553 21.391 95.0553 21.3499C95.0553 21.1773 93.6636 20.372 93.4659 20.4213C93.4247 20.4295 93.4165 20.4048 93.4412 20.3637C93.4659 20.3226 93.4165 20.2733 93.3259 20.2487C93.1365 20.1994 93.1118 19.9775 93.2765 19.7885C93.3342 19.7145 93.4742 19.394 93.5812 19.0817C93.8365 18.3257 93.853 17.1094 93.6224 16.3698C93.3918 15.6548 92.7989 14.8001 92.2306 14.3892C91.5306 13.8715 90.9542 13.6743 90.1142 13.6743C88.4754 13.6578 87.2154 14.5947 86.5648 16.2876C86.2518 17.1012 86.3177 18.827 86.6718 19.2625C86.7212 19.3201 86.7295 19.3694 86.6965 19.3694C86.6636 19.3694 86.713 19.5008 86.8118 19.6652C86.9107 19.8213 86.9848 20.0021 86.9848 20.0597C86.9848 20.109 86.7048 20.298 86.3671 20.4706C86.0295 20.6432 85.6177 20.8897 85.453 21.0212C85.2883 21.1527 85.1236 21.2595 85.0989 21.2595C85.0742 21.2595 84.9013 21.391 84.7283 21.5471C84.5471 21.7033 84.3742 21.8101 84.3413 21.7772C84.0613 21.4732 84.2754 18.1695 84.7201 15.9589C84.8518 15.2932 85.1977 14.0194 85.3542 13.6167C85.4448 13.3702 85.5271 13.0661 85.5354 12.9429C85.5436 12.8278 85.5683 12.7456 85.593 12.7621C85.6836 12.8114 85.9307 12.0635 85.8648 11.9567C85.8318 11.8992 85.8318 11.8745 85.8648 11.9074C85.906 11.9403 86.2189 11.3979 86.5648 10.7158C87.1742 9.52417 87.5365 8.90782 88.1212 8.11889C88.2612 7.92166 88.3601 7.72443 88.3271 7.67512C88.3024 7.63403 88.3189 7.61759 88.3601 7.64225C88.4095 7.67512 88.6154 7.4861 88.8212 7.22313C89.0271 6.96837 89.3812 6.55747 89.6201 6.31093L90.0401 5.86716L90.3695 6.18766C90.5506 6.36024 90.913 6.76292 91.1683 7.0752ZM115.767 13.6167C115.742 13.6578 115.759 13.6989 115.816 13.6989C115.923 13.6989 115.866 14.8577 115.734 15.4411C115.685 15.663 115.685 15.7534 115.759 15.7616C115.816 15.7616 115.816 15.7781 115.751 15.811C115.693 15.8274 115.643 15.9342 115.643 16.0328C115.643 16.1315 115.569 16.567 115.471 16.9944C115.38 17.4217 115.298 17.8408 115.281 17.9312C115.273 18.0298 115.24 18.1367 115.215 18.186C115.182 18.2271 115.108 18.49 115.034 18.7777C114.894 19.2954 114.482 20.5199 114.285 20.9719C114.227 21.1034 114.136 21.3417 114.079 21.4896C113.898 21.958 113.84 21.9827 113.198 21.8676C112.893 21.8183 112.399 21.7279 112.102 21.6868C111.419 21.58 107.392 21.6375 107.079 21.7526C107.054 21.7608 107.013 21.769 106.98 21.7608C106.947 21.7608 106.667 21.8101 106.362 21.8759C105.399 22.0895 105.185 22.106 105.185 21.958C105.185 21.8841 105.308 21.6129 105.456 21.3581C105.802 20.7664 106.181 19.9446 106.107 19.9446C106.074 19.9446 106.091 19.9117 106.14 19.8789C106.272 19.7885 106.511 19.1228 106.453 19.016C106.42 18.9585 106.428 18.9502 106.461 18.9831C106.535 19.0489 107.054 17.6436 107.112 17.2327C107.128 17.1176 107.161 16.9697 107.186 16.904C107.293 16.6328 107.474 15.7206 107.433 15.6219C107.416 15.5726 107.433 15.4987 107.482 15.4658C107.532 15.4411 107.573 15.2768 107.573 15.1042C107.573 14.9316 107.622 14.7508 107.68 14.7015C107.804 14.5947 108.701 14.3317 109.319 14.2167C109.451 14.192 109.525 14.1345 109.492 14.0852C109.467 14.0359 109.483 14.0276 109.541 14.0605C109.591 14.0934 109.92 14.0687 110.274 13.9948C110.62 13.929 111.098 13.8468 111.32 13.814C111.551 13.7811 111.789 13.74 111.855 13.7236C111.921 13.7071 112.811 13.6743 113.832 13.6496C114.853 13.6167 115.701 13.5839 115.718 13.5674C115.783 13.5017 115.816 13.5346 115.767 13.6167ZM68.5378 13.7729C68.7849 13.8222 69.1554 13.8797 69.3613 13.8962C69.7813 13.9455 71.9966 14.4879 72.2848 14.6193C72.4166 14.6769 72.4907 14.8001 72.5237 15.0056C72.6719 15.8767 72.8613 16.7232 72.9025 16.6985C72.9272 16.6821 72.9437 16.7889 72.9519 16.9286C72.9601 17.4299 73.6601 19.3365 74.319 20.6678C74.6813 21.4074 74.9613 22.032 74.9366 22.0567C74.9119 22.0731 74.5825 22.0402 74.2037 21.9663C72.046 21.5636 69.7731 21.4732 67.8955 21.7279C67.319 21.8019 66.7013 21.8676 66.5202 21.8676L66.1908 21.8759L65.9437 21.2595C65.8119 20.9226 65.6637 20.6185 65.6308 20.5938C65.5896 20.5692 65.5649 20.5117 65.5731 20.4706C65.5896 20.3884 65.4496 19.8953 65.2849 19.4515C65.1613 19.1146 64.9802 18.4982 64.939 18.2599C64.9225 18.1695 64.8566 17.8901 64.7908 17.6436C64.5602 16.7149 64.3872 15.6959 64.2225 14.1838C64.1978 13.9455 64.2143 13.7647 64.2802 13.6989C64.3543 13.6167 64.7825 13.6085 66.2319 13.6414C67.2531 13.6743 68.2907 13.7318 68.5378 13.7729ZM90.5589 15.0713C90.6248 15.1371 90.6577 15.1453 90.8883 15.17C90.9542 15.17 91.1848 15.3425 91.4153 15.548C91.6377 15.7452 91.8518 15.8849 91.8765 15.852C91.9095 15.8192 91.9259 15.8274 91.9177 15.8767C91.9095 15.9178 92 16.1808 92.1318 16.452C92.5683 17.3806 92.4695 18.564 91.893 19.3283C91.7777 19.4762 91.7118 19.6241 91.7448 19.657C91.7777 19.6981 91.7612 19.6981 91.7118 19.6734C91.6542 19.6406 91.5636 19.6734 91.5059 19.7474C91.4483 19.8131 91.2342 19.9693 91.0365 20.0925C90.7401 20.2651 90.5506 20.3062 90.1142 20.3062C89.4471 20.3144 88.9612 20.1172 88.5495 19.6652C88.393 19.4844 88.2201 19.3036 88.1789 19.2543C88.1295 19.205 88.0224 18.9995 87.9318 18.7941C87.7095 18.3092 87.7012 17.1094 87.9071 16.5999C88.2777 15.6959 89.2165 15.0138 90.0812 15.0138C90.3118 15.0138 90.5259 15.0385 90.5589 15.0713ZM74.9201 15.7206C75.6695 16.1068 76.5507 16.6492 77.3413 17.208C77.5801 17.3806 77.8272 17.5039 77.8766 17.4957C77.926 17.4792 77.9425 17.4874 77.9095 17.5203C77.8766 17.5532 77.9672 17.6764 78.1154 17.7915C78.2636 17.9066 78.6013 18.2106 78.8731 18.4654C79.1448 18.7201 79.4413 18.9831 79.5319 19.0489C79.6225 19.1146 79.9354 19.4433 80.2319 19.7803C80.5283 20.1172 80.833 20.4624 80.9072 20.5528C80.9813 20.6349 81.146 20.8322 81.2777 20.9883C81.4013 21.1445 81.5742 21.3417 81.6566 21.4321C81.7307 21.5143 81.7966 21.6047 81.7966 21.6293C81.7966 21.654 81.9942 21.9416 82.233 22.2703C82.7436 22.9689 82.9495 23.2811 82.9495 23.3715C82.9495 23.4126 82.7189 23.8317 82.4389 24.3084C82.1507 24.785 81.813 25.4096 81.673 25.7054C81.4424 26.1985 81.3354 26.3465 81.2036 26.3547C81.1789 26.3547 80.8166 26.0917 80.4048 25.7794C79.4083 25.0069 77.6542 23.2647 77.0531 22.4511C76.7813 22.0895 76.5425 21.7772 76.5095 21.769C76.4684 21.7526 76.4436 21.6868 76.4436 21.6211C76.4436 21.5471 76.4107 21.5143 76.3778 21.5389C76.3366 21.5636 76.3036 21.5389 76.3036 21.4814C76.3036 21.3417 76.0319 20.9308 75.9413 20.9308C75.9001 20.9308 75.8754 20.9061 75.8919 20.865C75.9248 20.75 75.5954 20.109 75.5295 20.1583C75.4884 20.1829 75.4801 20.1419 75.5048 20.0761C75.5295 20.0021 75.5131 19.9446 75.4637 19.9446C75.4142 19.9446 75.3731 19.8953 75.3731 19.8378C75.3731 19.7392 74.7966 18.375 74.7142 18.301C74.6895 18.2764 74.6648 18.186 74.6484 18.0956C74.6319 18.0052 74.5248 17.6189 74.4095 17.2327C74.0554 16.0822 73.9484 15.3425 74.1213 15.3425C74.1542 15.3425 74.5084 15.5151 74.9201 15.7206ZM106.058 15.6384C106.058 15.7699 106.016 16.0575 105.959 16.2794C105.901 16.5013 105.852 16.7067 105.86 16.7314C105.868 16.756 105.844 16.8382 105.819 16.904C105.794 16.9697 105.671 17.3231 105.555 17.6847C105.349 18.3257 105.004 19.2132 104.798 19.6077C104.748 19.7227 104.715 19.8378 104.74 19.8789C104.765 19.9117 104.748 19.9446 104.707 19.9446C104.666 19.9446 104.567 20.0679 104.501 20.2076C104.427 20.3555 104.164 20.8075 103.916 21.2102C103.661 21.6047 103.455 21.9663 103.455 21.9991C103.455 22.0402 103.422 22.0813 103.381 22.0977C103.34 22.106 103.093 22.4018 102.821 22.7387C101.66 24.2016 99.14 26.4533 98.8106 26.33C98.7612 26.3054 98.6624 26.1657 98.58 26.0177C98.5059 25.8616 98.3083 25.4589 98.1436 25.122C97.9706 24.785 97.6988 24.3084 97.5341 24.0536C97.0977 23.4126 97.0894 23.3715 97.3694 22.9853C97.5012 22.8045 97.5918 22.6073 97.5588 22.5579C97.5259 22.5086 97.5341 22.4922 97.5836 22.5169C97.633 22.5497 97.8306 22.3443 98.0283 22.0567C98.2259 21.7772 98.4235 21.506 98.473 21.4567C98.5141 21.3992 98.6706 21.2184 98.8024 21.0458C99.7494 19.8542 100.919 18.679 102.055 17.7586C102.796 17.1587 104.246 16.1643 104.369 16.1643C104.411 16.1643 104.427 16.1232 104.394 16.0657C104.361 16.0164 104.369 16 104.419 16.0246C104.46 16.0493 104.806 15.9096 105.193 15.7123C105.572 15.5151 105.926 15.359 105.967 15.3754C106.016 15.3836 106.049 15.5069 106.058 15.6384ZM88.9201 21.506C89.4718 21.7115 90.1965 21.8019 90.4189 21.7115C90.5012 21.6786 90.6906 21.6375 90.8471 21.6211C90.9953 21.6047 91.1765 21.5471 91.2342 21.4978C91.3001 21.4485 91.3495 21.4239 91.3495 21.4567C91.3495 21.4896 91.4648 21.4485 91.613 21.3746C91.8271 21.2595 91.9259 21.2595 92.1977 21.3417C93.1447 21.6211 94.1989 22.3114 95.0553 23.1907C95.8047 23.9714 95.9612 24.1358 95.9612 24.1769C95.9612 24.1933 96.1259 24.4645 96.3153 24.7686C97.2871 26.2725 98.1353 28.3434 98.5635 30.2254C98.6377 30.5623 98.7283 30.8581 98.7694 30.8828C98.8106 30.9075 98.7941 30.9896 98.7365 31.08C98.6294 31.2197 98.5965 31.2197 97.8059 31.08C96.8671 30.9157 95.5494 30.5048 94.693 30.1021C93.3342 29.4775 92.0083 28.3188 91.473 27.2833C91.3412 27.0203 91.193 26.782 91.1436 26.7491C91.1024 26.7163 91.0859 26.6834 91.1189 26.6834C91.1683 26.6834 91.0612 26.2725 90.8801 25.7794C90.8553 25.7137 90.8142 25.3439 90.7977 24.9576C90.773 24.5796 90.7236 24.1851 90.6824 24.0783C90.5918 23.84 90.0895 23.6263 89.8424 23.7167C89.4883 23.8564 89.3977 24.0618 89.3318 24.8672C89.2989 25.2863 89.233 25.7712 89.1754 25.9356C89.1177 26.0999 89.0765 26.2889 89.0848 26.3547C89.0848 26.4204 89.0683 26.4944 89.0436 26.519C89.0189 26.5437 88.8789 26.8067 88.7307 27.1025C88.3601 27.8586 87.6765 28.6475 86.9189 29.2063C86.573 29.4693 86.2601 29.7158 86.2271 29.7652C86.1942 29.8062 86.1613 29.8227 86.1613 29.7816C86.1613 29.7487 85.8977 29.8555 85.5848 30.0117C84.646 30.4883 83.6083 30.8253 82.3072 31.08C81.2613 31.2855 81.2613 31.2773 81.5989 29.9953C81.7224 29.5515 81.8213 29.1488 81.8295 29.1077C81.8377 29.0584 81.8624 28.9844 81.8872 28.9433C81.9448 28.853 82.2166 28.0394 82.2413 27.8914C82.2495 27.8339 82.3072 27.7106 82.3648 27.6038C82.4224 27.497 82.4801 27.3491 82.4966 27.2751C82.5213 27.1189 83.3695 25.3521 83.4436 25.2863C83.4683 25.2617 83.5836 25.0973 83.6907 24.9165C84.0366 24.3413 84.6871 23.5359 85.2471 22.9935C85.8154 22.4429 86.8777 21.7033 87.2071 21.6211C87.306 21.5964 87.3718 21.5307 87.3389 21.4814C87.3142 21.4403 87.3307 21.4239 87.3718 21.4485C87.4212 21.4814 87.586 21.4485 87.7342 21.3828C88.0554 21.2431 88.2365 21.2595 88.9201 21.506ZM65.8613 24.3577C66.2978 25.1631 67.6731 27.2669 67.9696 27.5874C68.0766 27.7024 68.2331 27.8997 68.3155 28.0311C68.7272 28.6557 71.486 31.3759 71.6343 31.3019C71.7084 31.2608 71.9884 31.6471 71.939 31.7293C71.8896 31.795 69.979 31.6882 69.979 31.6142C69.979 31.5978 69.699 31.5485 69.3202 31.4992C68.826 31.4334 67.9943 31.2444 67.6649 31.1211C67.5743 31.08 67.3849 31.0389 67.2531 31.0143C67.1213 30.9896 66.9237 30.9403 66.8084 30.891C66.6931 30.8417 66.3225 30.702 65.9849 30.5787C65.6472 30.4637 64.9555 30.1596 64.4449 29.9213C63.9425 29.6748 63.4896 29.4775 63.4484 29.4775C63.399 29.4775 63.3496 29.4529 63.3331 29.4118C63.2755 29.2885 62.1061 28.5735 62.0237 28.6146C61.9825 28.6475 61.9578 28.6311 61.9661 28.59C61.9825 28.5489 61.7684 28.3352 61.4967 28.1298C60.7637 27.5545 59.8825 26.6752 59.9073 26.5355C59.9402 26.3465 60.8625 25.7219 62.4849 24.785C62.8061 24.6042 64.2966 23.9714 64.6261 23.8893C64.6755 23.8728 64.8402 23.8153 64.9966 23.7578C65.1531 23.7003 65.3261 23.6509 65.3837 23.6509C65.4331 23.6427 65.6472 23.9632 65.8613 24.3577ZM115.627 23.9304C116.755 24.3248 118.402 25.1548 119.382 25.8369C119.588 25.9849 119.811 26.0917 119.868 26.0753C119.918 26.067 119.934 26.067 119.893 26.0917C119.86 26.1081 119.926 26.2067 120.049 26.3054C120.239 26.4533 120.263 26.519 120.189 26.6505C120.107 26.7984 119.456 27.4395 118.872 27.9408C117.9 28.7708 115.726 29.987 114.202 30.5459C113.799 30.702 113.445 30.8417 113.42 30.8664C113.395 30.8992 113.288 30.9321 113.173 30.9403C112.827 30.9896 111.526 31.3348 111.559 31.3759C111.575 31.3923 111.518 31.4088 111.419 31.417C111.32 31.417 110.702 31.5074 110.043 31.6142C108.94 31.7786 108.256 31.8279 108.166 31.7457C108.125 31.6964 108.421 31.2937 108.504 31.2855C108.611 31.2855 109.121 30.8171 110.208 29.7241C111.254 28.6886 111.328 28.5982 112.045 27.7106C112.975 26.5683 114.466 24.1358 114.359 23.9468C114.326 23.8893 114.326 23.8728 114.367 23.9057C114.408 23.9468 114.482 23.8975 114.548 23.8071C114.614 23.7167 114.696 23.6427 114.738 23.6427C114.771 23.6427 115.174 23.7742 115.627 23.9304Z" fill="#CA4625"/>
<path d="M35.5638 26.7738C35.0533 26.8806 34.5015 27.2587 34.3533 27.6038C34.2215 27.9325 34.205 28.7543 34.3368 28.7954C34.3944 28.8201 34.4191 28.8776 34.3944 28.9351C34.3533 29.0502 34.6991 29.4529 35.0697 29.6994C35.2015 29.798 35.6709 29.9706 36.0991 30.0939C36.9062 30.3158 37.4909 30.628 37.4909 30.8335C37.4909 31.5731 36.2474 31.8443 35.0203 31.3759C34.7733 31.2773 34.5427 31.2033 34.5097 31.2033C34.4521 31.2033 34.1144 31.9101 34.1144 32.0333C34.1144 32.1484 34.6086 32.3703 34.7403 32.321C34.8144 32.2963 34.8391 32.3127 34.8144 32.3538C34.7897 32.4031 34.8309 32.4442 34.9133 32.4524C35.1274 32.4689 35.2097 32.4853 35.3744 32.5593C35.6544 32.6743 37.3427 32.5593 37.6556 32.4031C38.018 32.2141 38.3144 31.9511 38.3144 31.8032C38.3144 31.7457 38.3474 31.6964 38.3885 31.6964C38.4956 31.6964 38.5862 30.8664 38.4874 30.7678C38.4462 30.7267 38.4297 30.6363 38.4544 30.5787C38.5285 30.3733 38.0921 29.8309 37.6391 29.5679C37.3921 29.4364 36.9885 29.2639 36.7415 29.2063C35.4238 28.8612 34.9709 28.3927 35.4815 27.9079C35.6709 27.7271 35.7615 27.7106 36.445 27.7106C37.0791 27.7024 37.2603 27.7353 37.565 27.8914C37.7627 27.9983 37.9685 28.0805 38.0262 28.0805C38.1497 28.0805 38.4297 27.3819 38.3721 27.2258C38.2485 26.9053 36.3956 26.6012 35.5638 26.7738Z" fill="#CA4625"/>
<path d="M133.629 26.8314C133.184 26.9875 132.946 27.1765 132.764 27.5053C132.616 27.7847 132.592 27.8833 132.55 28.4421C132.468 29.4365 132.839 30.0035 133.736 30.2665C134.173 30.398 134.288 30.398 135.284 30.2747C135.424 30.2583 135.449 30.3076 135.441 30.5541C135.433 30.9733 135.26 31.3102 134.955 31.5157C134.601 31.7375 133.744 31.7129 133.283 31.4663C133.184 31.4088 133.053 31.3842 133.003 31.417C132.954 31.4499 132.937 31.4417 132.97 31.3842C132.995 31.3349 132.987 31.2773 132.937 31.2445C132.855 31.1952 132.575 31.7951 132.567 32.0252C132.567 32.0909 132.756 32.2388 132.979 32.3539C133.514 32.6251 134.659 32.6908 135.194 32.4854C135.902 32.2142 136.306 31.6307 136.487 30.5952C136.668 29.5433 136.462 27.8833 136.1 27.5299C136.042 27.4642 135.96 27.3656 135.927 27.3162C135.729 26.9957 134.914 26.6835 134.321 26.6835C134.173 26.6917 133.86 26.7574 133.629 26.8314ZM134.856 27.7436C135.169 27.8669 135.416 28.2778 135.466 28.7791L135.515 29.231L135.219 29.3543C134.832 29.5105 134.099 29.5105 133.876 29.3543C133.777 29.2886 133.687 29.2557 133.662 29.2721C133.621 29.3132 133.588 29.0502 133.572 28.5489C133.555 28.1956 133.588 28.1216 133.827 27.9079C134.107 27.6532 134.469 27.5957 134.856 27.7436Z" fill="#CA4625"/>
<path d="M145.29 26.7904C144.475 27.0041 143.973 27.5793 143.973 28.2778C143.973 28.7134 144.129 29.075 144.401 29.264L144.582 29.3955L144.286 29.6996C143.882 30.1269 143.783 30.3406 143.775 30.8337C143.767 31.9349 144.615 32.6334 145.941 32.6087C146.904 32.5923 147.497 32.28 147.86 31.5897C147.967 31.3678 148.016 31.1377 148 30.8501C147.975 30.283 147.884 30.0365 147.596 29.7653C147.456 29.6338 147.349 29.4941 147.349 29.453C147.349 29.4202 147.448 29.2558 147.571 29.0914C147.744 28.8695 147.802 28.6887 147.81 28.3847C147.827 27.9573 147.711 27.5054 147.588 27.5054C147.547 27.5054 147.514 27.456 147.514 27.3985C147.514 27.2999 146.904 26.8808 146.789 26.9054C146.756 26.9137 146.699 26.889 146.649 26.8479C146.501 26.7246 145.669 26.6918 145.29 26.7904ZM146.723 28.0395C146.789 28.2203 146.781 28.6723 146.707 28.7874C146.509 29.0832 145.702 29.19 145.356 28.9682C144.714 28.549 144.953 27.8176 145.784 27.6697C146.114 27.6122 146.633 27.8176 146.723 28.0395ZM146.386 30.0036C147.143 30.3159 147.193 31.2281 146.484 31.5733C146.04 31.7787 145.315 31.7048 145.076 31.4171C144.977 31.3021 144.879 31.2281 144.87 31.2446C144.771 31.335 144.813 30.5871 144.911 30.3981C145.134 29.9625 145.842 29.7735 146.386 30.0036Z" fill="#CA4625"/>
<path d="M27.3615 29.6829V32.5181H29.4203H31.4791V32.025C31.4791 31.7538 31.4544 31.5319 31.4215 31.5319C31.3803 31.5237 30.7133 31.5155 29.9309 31.5073C28.9674 31.499 28.4897 31.4579 28.4486 31.4004C28.4156 31.3429 28.4074 31.0142 28.4321 30.6608L28.4733 30.0116L29.8156 29.9869L31.1497 29.9705V29.5185V29.0665L29.8156 29.0501L28.4733 29.0254L28.4486 28.4337C28.4156 27.7023 28.3333 27.7352 30.145 27.7681L31.4791 27.7927V27.3161V26.8476H29.4203H27.3615V29.6829Z" fill="#CA4625"/>
<path d="M40.9661 27.3079L40.9908 27.7764L41.7485 27.7599C42.9343 27.7353 42.8438 27.5216 42.8438 30.2253V32.5264L43.3461 32.5017L43.8485 32.4771L43.8402 30.25C43.8237 28.3681 43.8402 27.9982 43.9473 27.8914C44.0132 27.8257 44.0543 27.7599 44.0379 27.7435C44.0214 27.727 44.359 27.7188 44.7955 27.7353C45.2237 27.7517 45.619 27.7435 45.6684 27.727C45.7343 27.7024 45.759 27.538 45.7426 27.2668L45.7096 26.8477H43.3296H40.9414L40.9661 27.3079Z" fill="#CA4625"/>
<path d="M48.4603 29.6585L48.485 32.4773L49.3497 32.502C50.412 32.5348 51.2685 32.4609 51.1944 32.3376C51.1614 32.2801 51.1779 32.2719 51.2273 32.3047C51.3508 32.3787 51.8038 32.165 52.1167 31.8774C52.2485 31.7541 52.4544 31.45 52.5614 31.2035C52.7426 30.8008 52.7591 30.6282 52.7673 29.7243C52.7673 28.2039 52.4708 27.5547 51.5897 27.1192C51.145 26.8973 51.0461 26.8891 49.7779 26.8644L48.4438 26.8315L48.4603 29.6585ZM51.0708 27.9903C51.4744 28.1957 51.6802 28.6313 51.7214 29.3955C51.7873 30.4803 51.5155 31.1542 50.9391 31.3761C50.6179 31.4911 49.8932 31.5487 49.6708 31.4665L49.4732 31.3843L49.4979 29.6174C49.5144 28.0231 49.5391 27.8423 49.6626 27.8013C49.9179 27.7273 50.7908 27.8423 51.0708 27.9903Z" fill="#CA4625"/>
<path d="M127.338 27.2997V27.7517L127.708 27.7599C127.914 27.7681 128.12 27.7846 128.161 27.7928C128.21 27.801 128.301 27.8174 128.367 27.8257C128.474 27.8339 128.49 28.1544 128.49 30.176V32.5264L129.009 32.5017L129.52 32.4771L129.545 29.6583L129.561 26.8477H128.449H127.338V27.2997Z" fill="#CA4625"/>
<path d="M138.784 27.2092C138.784 27.7598 138.817 27.7927 139.27 27.7681C139.493 27.7516 139.748 27.7763 139.847 27.8256C140.02 27.916 140.02 27.9653 140.02 30.217V32.5181L140.514 32.5098L141.008 32.5016V29.6746V26.8476H139.896H138.784V27.2092Z" fill="#CA4625"/>
<path d="M16.8204 41.977C16.4333 42.0674 15.9886 42.166 15.8321 42.1989C15.5439 42.2564 15.5439 42.2646 15.5027 42.7495L15.4616 43.2426H8.66747H1.87338L1.27221 43.0453C0.91809 42.9303 0.638091 42.881 0.596915 42.9221C0.563974 42.9632 0.44868 43.7192 0.349857 44.5985C0.251034 45.4779 0.11927 46.4805 0.0616234 46.8174C0.00397658 47.1543 -0.0207292 47.4666 0.0204471 47.5077C0.127505 47.6145 0.951031 47.8118 1.01691 47.7378C1.04985 47.7049 1.11574 47.5324 1.17338 47.3516C1.44515 46.4969 1.9475 45.3135 2.13691 45.0834C2.5322 44.615 2.63102 44.5985 4.73925 44.5985C6.12277 44.5985 6.68277 44.6232 6.75689 44.6972C6.87218 44.8122 6.88865 52.6933 6.78159 55.6107C6.69924 57.9939 6.6663 58.0432 4.93689 58.3555L3.93219 58.5281L3.90749 59.0047L3.88278 59.4731H8.00041H12.118L12.1674 59.1937C12.2663 58.676 12.2004 58.5363 11.838 58.4705C10.0592 58.15 9.89452 58.0925 9.62276 57.7227C9.45805 57.5008 9.44981 57.3447 9.39217 55.2162C9.30982 51.4524 9.31805 44.9355 9.40864 44.7547C9.49099 44.6068 9.61452 44.5985 12.4063 44.5985C15.0168 44.5985 15.3298 44.615 15.4286 44.7382C15.5933 44.9273 15.6016 57.5008 15.4451 57.8542C15.3216 58.1254 15.0004 58.2733 14.2427 58.413L13.691 58.5116V58.9965V59.4731H16.6557H19.6204V58.9883V58.5116L19.0439 58.413C18.7309 58.3637 18.3851 58.2815 18.278 58.2322C17.8498 58.0432 17.8498 58.0268 17.8251 54.5259C17.7921 50.7703 17.751 51.0004 18.5909 50.5977C20.0486 49.8992 21.7039 50.1457 22.3462 51.1565C22.7745 51.8304 22.7909 51.9783 22.7909 55.0108C22.7909 58.3719 22.8403 58.2076 21.8192 58.4048L21.1851 58.5281V58.9965V59.4649L23.9274 59.4567C25.8709 59.4567 26.678 59.4238 26.7191 59.3581C26.7521 59.3088 26.785 59.0951 26.785 58.8897V58.5116L26.1097 58.3801C25.6239 58.2815 25.385 58.1911 25.2368 58.0514L25.0392 57.846L24.9733 54.6574C24.9156 51.7071 24.8992 51.4195 24.7344 50.9182C24.5121 50.2279 24.0015 49.4472 23.5486 49.1184C22.6098 48.4281 21.3662 48.3049 20.098 48.7815C19.7027 48.9294 19.0274 49.2664 18.5992 49.5376C18.1709 49.8005 17.8004 50.0224 17.7674 50.0224C17.7345 50.0224 17.7345 48.1734 17.7674 45.9134C17.8333 41.9195 17.8251 41.8044 17.6768 41.8126C17.5862 41.8208 17.2074 41.8948 16.8204 41.977Z" fill="#656565"/>
<path d="M40.3237 43.4069C40.299 43.5055 40.2908 43.711 40.3073 43.8671L40.332 44.1465L41.032 44.2534C42.0696 44.4013 42.7037 44.7465 43.1567 45.3957C43.9555 46.5544 46.9284 52.1591 47.1178 52.8823C47.1755 53.096 47.2167 54.0082 47.2167 55.282C47.2167 57.057 47.1919 57.3776 47.0767 57.6405C46.879 58.0432 46.4508 58.2158 45.2484 58.3884C44.7214 58.4623 44.2602 58.5609 44.2273 58.6103C44.1531 58.7089 44.1449 59.1609 44.2108 59.3417C44.252 59.4567 44.7049 59.4731 48.3696 59.4731H52.4707L52.5202 59.1937C52.6355 58.5856 52.5943 58.5363 51.8202 58.4295C50.1649 58.1994 49.9755 58.0925 49.8437 57.2872C49.7943 57.0242 49.7613 55.9065 49.7613 54.8053V52.8083L50.2802 51.8057C50.9472 50.5319 52.6519 47.631 53.426 46.4476C54.4801 44.8369 54.8013 44.5821 56.086 44.3027C56.8354 44.1465 56.9178 44.0561 56.8107 43.5055L56.7613 43.2426L53.6813 43.2343C50.6096 43.2261 50.6013 43.2261 50.5519 43.3987C50.4861 43.6535 50.4943 44.089 50.5684 44.1383C50.6013 44.1548 50.9637 44.2369 51.359 44.3027C52.6272 44.5246 52.7096 44.7136 52.1002 45.9381C50.9719 48.1816 49.2837 51.0908 49.1108 51.0908C48.9461 51.0908 48.4849 50.2607 46.9037 47.1708C46.2614 45.9052 45.7261 44.7875 45.7261 44.6889C45.7261 44.4753 45.8825 44.3931 46.5331 44.2698C47.1014 44.1548 47.1919 44.0315 47.0931 43.5055L47.0437 43.2343H43.7084L40.3732 43.2261L40.3237 43.4069Z" fill="#656565"/>
<path d="M92.7824 43.4152C92.7577 43.5056 92.7494 43.7111 92.7659 43.8672L92.7906 44.1466L93.6471 44.2945C94.6271 44.4589 94.8494 44.5493 95.0883 44.8698C95.2612 45.0999 95.2612 45.141 95.2612 51.2388C95.2612 57.2461 95.2612 57.3858 95.0965 57.6653C94.8741 58.0515 94.3471 58.2898 93.4906 58.4049C93.1036 58.4542 92.7577 58.5281 92.7247 58.561C92.6836 58.6021 92.6671 58.8076 92.6836 59.0294L92.7083 59.4321H96.6612H100.606L100.672 59.1445C100.804 58.5692 100.754 58.5281 99.7741 58.372C99.28 58.2898 98.7282 58.1583 98.5388 58.0762C97.9377 57.8132 97.9129 57.731 97.8306 54.8711C97.7318 51.3209 97.7977 45.4779 97.9459 45.0588C98.1188 44.5822 98.3741 44.4425 99.3459 44.2781L100.202 44.1384L100.227 43.6864L100.252 43.2262L96.5377 43.2344H92.8236L92.7824 43.4152Z" fill="#656565"/>
<path d="M136.339 43.7849C136.1 43.8753 135.828 44.0479 135.737 44.1629C135.375 44.6231 135.622 45.6915 136.174 46.1106C136.47 46.3325 137.483 46.3243 137.739 46.1024C138.406 45.4942 138.406 43.941 137.747 43.6945C137.417 43.563 136.8 43.6041 136.339 43.7849Z" fill="#656565"/>
<path d="M128.161 45.4289C127.914 45.6014 127.494 45.8562 127.239 45.9959L126.761 46.2507V47.5245V48.7982L126.498 48.9051C126.349 48.9708 126.012 49.0612 125.756 49.1187C125.254 49.2338 125.221 49.2749 125.073 49.9899L125.023 50.2446L125.822 50.3021C126.259 50.335 126.654 50.3761 126.687 50.4008C126.728 50.4254 126.761 51.9129 126.761 53.7126C126.761 57.1149 126.802 57.649 127.115 58.3147C127.774 59.72 129.709 60.1884 131.414 59.3502C132.196 58.9722 132.427 58.7174 132.526 58.1175C132.567 57.8545 132.592 57.6162 132.567 57.5997C132.55 57.5751 132.345 57.6408 132.114 57.7394C131.529 57.986 130.772 58.0435 130.212 57.8874C129.627 57.7148 129.248 57.3285 129.092 56.7451C128.943 56.2027 128.853 53.0881 128.943 51.4773L129.001 50.3515H130.681H132.361V50.0803C132.369 49.9406 132.419 49.579 132.485 49.2831C132.542 48.9873 132.592 48.7407 132.583 48.7325C132.575 48.7325 131.809 48.7572 130.887 48.79C129.965 48.8311 129.158 48.8393 129.083 48.8147C128.976 48.7654 128.968 48.5517 129.018 47.0478C129.05 46.1027 129.1 45.2727 129.125 45.207C129.215 44.9604 128.63 45.0919 128.161 45.4289Z" fill="#656565"/>
<path d="M143.396 45.4449C143.1 45.6421 142.663 45.9133 142.433 46.0448L141.996 46.2831V47.5733V48.8636L141.692 48.9458C141.527 48.9951 141.197 49.0772 140.95 49.1266C140.547 49.217 140.506 49.2498 140.432 49.521C140.39 49.6854 140.349 49.9155 140.349 50.0305C140.349 50.2442 140.357 50.2442 141.099 50.2935C141.51 50.3264 141.881 50.3675 141.922 50.4003C141.963 50.425 141.996 51.7645 141.996 53.5396C142.004 56.794 142.054 57.6158 142.317 58.191C142.812 59.3087 144.088 59.9332 145.447 59.7278C146.847 59.5059 147.687 58.9224 147.802 58.076C147.835 57.8459 147.843 57.6404 147.819 57.6158C147.802 57.5993 147.604 57.6569 147.382 57.7555C147.069 57.8952 146.806 57.9363 146.237 57.9445C145.587 57.9527 145.447 57.9281 145.126 57.7473C144.286 57.2706 144.203 56.8433 144.236 53.1452L144.261 50.3921L145.908 50.3675L147.555 50.351L147.703 49.5539C147.786 49.1266 147.835 48.7567 147.827 48.7485C147.81 48.7321 147.044 48.7567 146.114 48.7978C144.887 48.8471 144.401 48.8389 144.319 48.7732C144.203 48.6746 144.212 47.9596 144.352 45.8065L144.401 45.0915H144.162C144.022 45.0915 143.709 45.2394 143.396 45.4449Z" fill="#656565"/>
<path d="M165.154 45.1986C165.104 45.2562 164.684 45.5274 164.231 45.7986L163.408 46.2834V47.5243C163.408 48.4201 163.383 48.7899 163.309 48.8557C163.251 48.8967 162.914 49.0036 162.56 49.0858C161.942 49.2255 161.926 49.2419 161.843 49.5213C161.802 49.6857 161.761 49.9158 161.761 50.0308C161.761 50.2445 161.769 50.2445 162.51 50.2938C162.922 50.3267 163.293 50.3678 163.334 50.4006C163.375 50.4253 163.408 51.7813 163.408 53.581C163.408 56.8764 163.466 57.5832 163.745 58.2489C163.976 58.783 164.643 59.3829 165.228 59.5966C166.381 60.0075 168.184 59.6048 168.942 58.7584C169.082 58.6022 169.321 57.6982 169.238 57.6243C169.222 57.6078 169 57.6654 168.753 57.764C168.077 58.0352 167.04 58.027 166.537 57.7476C166.093 57.4928 165.829 57.1312 165.714 56.5724C165.664 56.3012 165.64 55.0849 165.648 53.2687L165.673 50.3924L167.32 50.3678L168.975 50.3513L169.107 49.546C169.181 49.1104 169.238 48.7488 169.23 48.7406C169.222 48.7324 168.456 48.757 167.525 48.7981C166.274 48.8474 165.813 48.8392 165.73 48.7653C165.631 48.6913 165.623 48.4283 165.664 47.3107C165.697 46.5628 165.738 45.7575 165.771 45.5191L165.813 45.0918H165.524C165.368 45.0918 165.203 45.1411 165.154 45.1986Z" fill="#656565"/>
<path d="M31.6438 48.5841C30.4579 48.8142 29.5521 49.3237 28.7285 50.1866C27.7321 51.2467 27.3286 52.3972 27.3286 54.2134C27.3286 55.5119 27.4521 56.12 27.9462 57.1473C28.7862 58.9059 30.3262 59.7852 32.385 59.6948C33.8179 59.6291 35.3168 59.0045 36.2556 58.0677C36.6344 57.6896 36.6673 57.6321 36.6673 57.2541C36.6673 57.0322 36.6262 56.8268 36.585 56.8021C36.5356 56.7774 36.3873 56.8268 36.2556 56.9254C35.9015 57.1801 35.045 57.5417 34.5262 57.6732C33.8591 57.8294 32.6979 57.7965 32.0391 57.591C30.6885 57.1637 29.6015 55.7995 29.5603 54.4764L29.5438 54.0902L30.2027 54.0326C30.565 54.008 31.6027 53.9422 32.5085 53.8847C34.1144 53.8025 36.305 53.5889 36.4367 53.5067C36.5438 53.4409 36.5109 52.2411 36.3791 51.6412C36.1156 50.4085 35.325 49.3319 34.345 48.8717C33.4638 48.4608 32.6815 48.3786 31.6438 48.5841ZM32.4921 49.825C33.0191 50.0058 33.5709 50.5564 33.8838 51.2303C34.1968 51.8959 34.2873 52.5205 34.0732 52.6027C33.9991 52.6273 32.9862 52.6931 31.8332 52.7506C29.3297 52.8575 29.4203 52.8903 29.5768 52.0603C29.7827 50.992 30.2932 50.2277 31.0262 49.8907C31.5121 49.6606 31.9568 49.6442 32.4921 49.825Z" fill="#656565"/>
<path d="M58.9684 48.5433C56.4896 48.9625 54.7272 50.4335 54.1508 52.5702C53.9449 53.3427 53.9696 54.9452 54.2002 55.8081C54.7355 57.8379 56.1025 59.2021 57.9719 59.5966C59.7178 59.9664 61.8096 59.4651 63.1519 58.3392C63.7284 57.8626 64.4037 56.9175 64.659 56.2272C65.0872 55.0849 65.1778 53.4577 64.8731 52.2825C64.5107 50.8773 63.4566 49.5459 62.2707 49.0036C61.2496 48.5351 60.039 48.3625 58.9684 48.5433ZM59.5449 49.776C60.5907 49.9733 61.4307 50.6472 61.9496 51.6991C62.4519 52.7263 62.559 53.2358 62.5672 54.6658C62.5672 55.9889 62.4766 56.523 62.1472 57.1805C61.7107 58.0516 61.0437 58.4461 60.0143 58.4461C59.4296 58.4461 59.2813 58.4132 58.8119 58.1831C57.7908 57.6818 57.066 56.7121 56.6625 55.3232C56.5061 54.7562 56.4731 54.4768 56.4731 53.3509C56.4813 52.2004 56.4978 51.9785 56.6625 51.5511C57.0084 50.6061 57.4696 50.1212 58.2684 49.85C58.7625 49.6774 58.9684 49.661 59.5449 49.776Z" fill="#656565"/>
<path d="M70.1436 48.6583C68.4554 49.102 67.3931 49.8499 66.8331 50.9922C66.5448 51.5674 66.5201 51.6743 66.4954 52.4961C66.4542 53.4658 66.5778 54.0329 66.9566 54.7314C67.2366 55.2491 67.8542 55.7997 68.4636 56.0791C68.7354 56.2024 68.9413 56.3421 68.9248 56.3914C68.9083 56.4325 68.5295 56.7037 68.0766 56.9913C67.0636 57.6323 66.9319 57.8542 67.2201 58.4459C67.4178 58.8486 68.0683 59.4321 68.4225 59.5225C68.5295 59.5471 68.6201 59.5965 68.6201 59.6293C68.6201 59.6622 68.1672 60.032 67.6072 60.4429C66.2731 61.4373 66.1742 61.5523 66.0589 62.144C65.7625 63.763 66.9731 65.308 68.9495 65.8504C69.7483 66.064 71.486 66.0476 72.3671 65.8093C73.6848 65.4559 74.8213 64.7902 75.7024 63.8616C77.1765 62.3002 77.4154 60.3196 76.2871 59.0376C75.9495 58.6678 75.1671 58.2734 74.4918 58.1583C74.2201 58.109 73.1742 58.0022 72.186 57.92C70.2672 57.7556 69.9295 57.6734 69.7566 57.2954C69.633 57.016 69.7401 56.7037 70.0036 56.564C70.1272 56.5065 70.5554 56.4079 70.9507 56.3586C73.133 56.0709 74.7636 54.7643 75.126 53.0303C75.1836 52.7591 75.2083 52.1756 75.2001 51.7154L75.1671 50.8854L75.8177 50.836C76.4601 50.795 76.4765 50.7867 76.7812 50.4416C77.0695 50.1211 77.4318 49.2828 77.4318 48.9541C77.4318 48.8802 77.3412 48.7733 77.2342 48.724C77.0695 48.6501 77.0118 48.6583 76.9295 48.7569C76.8718 48.8309 76.6742 48.9623 76.493 49.061C76.213 49.2089 76.0236 49.2418 75.3318 49.2418C74.5824 49.2418 74.4095 49.2089 73.4542 48.8884C72.0542 48.4199 71.2307 48.3624 70.1436 48.6583ZM71.7248 49.8745C72.2024 50.1211 72.573 50.5895 72.8201 51.2305C73.0671 51.8633 73.0918 53.1289 72.8777 53.8274C72.5401 54.9286 71.5683 55.4299 70.4154 55.1176C69.7072 54.9204 69.073 54.1561 68.8177 53.2111C68.686 52.7098 68.6695 51.5099 68.7848 51.0908C68.9413 50.5238 69.3283 50.0307 69.7977 49.8088C70.3577 49.5376 71.1236 49.5705 71.7248 49.8745ZM72.2436 60.0484C73.6683 60.221 74.5001 60.6237 74.8295 61.314C75.0107 61.7003 75.0024 62.5467 74.8048 62.9823C74.4671 63.7137 73.6271 64.2889 72.5895 64.4862C71.8895 64.6259 70.613 64.5437 69.9954 64.33C68.5048 63.8041 67.7554 62.5138 68.2989 61.388C68.4966 60.9771 69.1801 60.3361 69.6495 60.1224C70.0366 59.9416 71.1236 59.917 72.2436 60.0484Z" fill="#656565"/>
<path d="M81.5083 48.7652C80.3307 49.1761 79.2601 49.7514 79.0295 50.0801C78.9389 50.2198 78.7577 50.6389 78.6342 51.0087C78.453 51.5511 78.4365 51.7073 78.5107 51.8059C78.6177 51.9292 79.186 52.2414 79.3012 52.2414C79.3424 52.2414 79.4989 51.9949 79.6471 51.6908C80.0671 50.8362 80.413 50.3677 80.7095 50.2198C80.8824 50.1376 81.2201 50.0883 81.6154 50.0883C82.4059 50.0801 82.9742 50.302 83.4353 50.8033C83.8224 51.2224 83.9542 51.6415 83.9706 52.4715C83.9789 53.0386 83.9624 53.0879 83.7483 53.2769C83.6083 53.392 83.0401 53.6221 82.3071 53.844C81.6401 54.0576 80.5612 54.3946 79.9024 54.6082L78.7083 54.9945L78.486 55.4054C78.1565 56.0135 78.0577 56.5806 78.173 57.238C78.3542 58.2735 78.9307 59.1035 79.7542 59.5226C80.5118 59.9089 81.4012 59.7281 82.8918 58.898C83.3859 58.6268 83.8059 58.405 83.8389 58.405C83.8718 58.405 83.9953 58.6268 84.1189 58.8898C84.3165 59.3007 84.4071 59.4076 84.7283 59.5555C85.0577 59.7198 85.1977 59.7363 85.8071 59.6952C86.3589 59.6623 86.6059 59.6048 87.0094 59.3993C87.7012 59.0624 87.8824 58.8569 87.9483 58.331L87.9977 57.9119L87.4212 57.9612C87.0424 57.9941 86.7377 57.9776 86.54 57.9119C85.9965 57.7393 85.9883 57.6489 86.0459 54.4767C86.0953 52.0442 86.0871 51.6415 85.9636 51.1731C85.7494 50.3431 85.4612 49.8336 84.9259 49.3405C84.3577 48.8145 83.7483 48.5516 82.9495 48.494C82.4801 48.4529 82.2989 48.494 81.5083 48.7652ZM83.8965 55.7588C83.8965 57.3777 83.8636 57.4763 83.1553 57.8297C82.2824 58.2653 81.2201 58.0269 80.6848 57.2709C80.4707 56.9668 80.4377 56.8353 80.4377 56.3998C80.4377 55.7916 80.6024 55.4876 81.0389 55.3068C81.6565 55.0438 83.7318 54.3124 83.8142 54.337C83.8636 54.3453 83.8965 54.8876 83.8965 55.7588Z" fill="#656565"/>
<path d="M105.572 48.6829C105.02 48.913 103.348 49.365 103.044 49.365C102.731 49.365 102.624 49.4718 102.582 49.8252C102.541 50.1457 102.541 50.1457 103.027 50.4087C103.299 50.5566 103.636 50.7949 103.776 50.9346L104.032 51.1894V54.3204C104.032 57.4515 103.991 57.9528 103.744 58.1583C103.669 58.2158 103.348 58.3226 103.019 58.3966L102.426 58.5363L102.401 59.0047L102.376 59.4731H105.135H107.894L107.943 59.1937C108.059 58.6103 108.009 58.5445 107.326 58.4212C106.881 58.3473 106.651 58.2569 106.502 58.109L106.296 57.9117L106.272 54.682C106.247 50.8771 106.189 51.1319 107.211 50.6223C107.828 50.3265 107.886 50.3101 108.676 50.3101C109.376 50.3101 109.566 50.3429 109.838 50.4909C110.282 50.7292 110.653 51.1319 110.883 51.6249C111.065 52.0194 111.073 52.118 111.098 54.7807C111.114 56.2928 111.106 57.6487 111.073 57.8049C111.007 58.15 110.793 58.2897 110.118 58.4295L109.591 58.5363V58.9801V59.4321H112.308H115.018L115.075 59.1444C115.191 58.6267 115.108 58.5199 114.565 58.413C113.931 58.2815 113.535 58.1172 113.453 57.9364C113.412 57.8542 113.362 56.416 113.329 54.7478C113.272 51.4359 113.231 51.1154 112.769 50.2032C112.506 49.6855 111.888 49.0609 111.386 48.7979C110.851 48.5267 110.052 48.4117 109.451 48.5267C108.792 48.65 107.787 49.1349 106.972 49.7266C106.618 49.9813 106.313 50.1868 106.296 50.1868C106.28 50.1868 106.247 49.8088 106.239 49.3485C106.222 48.8801 106.181 48.5103 106.132 48.5021C106.091 48.4857 105.835 48.5678 105.572 48.6829Z" fill="#656565"/>
<path d="M119.811 48.5433C118.781 48.7241 118.048 49.1022 117.455 49.7432C116.903 50.3349 116.763 50.7458 116.755 51.7073C116.755 52.4222 116.78 52.5784 116.953 52.8989C117.447 53.8193 117.966 54.2302 119.843 55.167C121.672 56.0792 122.092 56.5477 121.96 57.5174C121.861 58.2652 121.309 58.6104 120.255 58.6022C119.432 58.6022 118.913 58.4132 118.419 57.9283C118.056 57.5831 117.603 56.8107 117.447 56.2765C117.348 55.9395 117.323 55.9231 117.093 55.9642C116.533 56.0546 116.385 56.1614 116.385 56.4655C116.385 56.8107 116.681 58.594 116.805 58.9638C116.912 59.2843 117.043 59.35 118.073 59.5637C119.078 59.7691 120.436 59.7691 121.26 59.5637C122.849 59.1528 123.78 58.331 124.101 57.049C124.216 56.5723 124.225 56.408 124.134 55.9067C123.953 54.8219 123.343 54.1562 121.902 53.4659C119.638 52.3729 119.522 52.3072 119.152 51.9127C118.872 51.6169 118.773 51.4361 118.732 51.1484C118.583 50.1787 119.275 49.4555 120.346 49.4473C121.548 49.4473 122.223 50.039 122.487 51.321L122.594 51.8305H122.981C123.195 51.8305 123.401 51.7812 123.442 51.7237C123.483 51.6744 123.566 51.1238 123.615 50.5156C123.673 49.9075 123.739 49.2747 123.763 49.1186L123.813 48.831L122.833 48.6748C121.688 48.494 120.379 48.4365 119.811 48.5433Z" fill="#656565"/>
<path d="M137.599 48.5925C137.187 48.7404 135.515 49.0938 134.856 49.1678C134.362 49.2171 134.337 49.2335 134.255 49.4965C134.197 49.6526 134.173 49.817 134.189 49.8581C134.206 49.8992 134.527 50.0964 134.914 50.2854C135.984 50.8196 135.927 50.573 135.877 54.4191C135.853 56.3256 135.795 57.7145 135.746 57.846C135.639 58.1172 135.474 58.2076 134.725 58.3966L134.132 58.5363L134.107 59.0047L134.082 59.4731H136.956H139.839L139.888 59.2841C139.913 59.1855 139.937 58.9718 139.937 58.8075V58.5116L139.262 58.3801C138.488 58.224 138.299 58.0843 138.2 57.5748C138.167 57.3776 138.134 55.2409 138.126 52.833C138.126 49.3896 138.101 48.461 138.027 48.4692C137.969 48.4692 137.78 48.5267 137.599 48.5925Z" fill="#656565"/>
<path d="M174.863 48.5515C172.047 49.1021 170.408 51.1895 170.408 54.2137C170.408 58.7089 173.974 60.9771 177.96 59.0212C178.388 58.8076 178.907 58.4706 179.17 58.2405C179.541 57.8954 179.631 57.7557 179.705 57.4187C179.788 57.0489 179.763 56.7613 179.656 56.7613C179.631 56.7613 179.417 56.8763 179.187 57.016C177.441 58.0926 175.168 58.0269 173.858 56.8599C173.644 56.6709 173.364 56.3422 173.224 56.1285C172.895 55.619 172.615 54.7643 172.648 54.3863L172.673 54.0904L173.331 54.0329C173.694 54.0082 174.731 53.9343 175.637 53.885C177.169 53.7946 179.055 53.6138 179.565 53.5069C179.738 53.4741 179.812 53.3837 179.911 53.0796C180.027 52.7509 180.027 52.6934 179.928 52.6358C179.672 52.4879 179.565 52.3153 179.508 51.9373C179.434 51.4114 179.096 50.5731 178.75 50.0389C177.935 48.8062 176.453 48.2392 174.863 48.5515ZM175.72 49.891C176.485 50.2444 177.136 51.1812 177.293 52.1428C177.325 52.3646 177.309 52.4797 177.218 52.5537C177.087 52.6605 172.985 52.8742 172.747 52.7838C172.631 52.7427 172.615 52.6523 172.656 52.2496C172.738 51.4935 173.002 50.8936 173.48 50.3841C174.147 49.6773 174.913 49.513 175.72 49.891Z" fill="#656565"/>
<path d="M153.106 48.6665C153.048 48.7158 151.162 48.9377 150.174 48.9952C149.252 49.061 149.243 49.061 149.243 49.702V49.9896L149.869 50.0964C150.717 50.2361 150.857 50.3841 150.94 51.2387C150.973 51.5839 150.973 52.8659 150.94 54.0904C150.857 57.3201 151.006 58.1254 151.837 58.9472C152.43 59.5389 153.114 59.7526 154.226 59.7033C154.942 59.6704 155.049 59.6458 155.766 59.2924C156.186 59.0787 156.779 58.7254 157.083 58.4953C157.388 58.2651 157.668 58.0761 157.709 58.0761C157.75 58.0761 157.816 58.4213 157.849 58.8404C157.923 59.8677 157.923 59.8594 158.557 59.728C159.183 59.6047 160.171 59.3006 161.028 58.9719C161.711 58.7089 161.761 58.6514 161.761 58.0515V57.731L161.291 57.7474C160.369 57.7803 160.295 57.7638 160.155 57.5009C160.015 57.2379 160.007 55.4381 160.106 50.9922C160.147 48.987 160.139 48.7158 160.031 48.7487C159.842 48.798 158.129 48.9459 156.919 49.0034C156.317 49.0363 155.807 49.0856 155.79 49.1185C155.766 49.1596 155.724 49.3568 155.7 49.5623C155.642 49.9814 155.527 49.9156 156.737 50.1457C157.882 50.3594 157.808 50.1047 157.808 53.7206V56.7448L157.602 56.9914C157.108 57.5748 156.07 57.9529 155.14 57.8953C154.456 57.846 153.995 57.6488 153.633 57.2215C153.172 56.7037 153.155 56.5887 153.155 53.3097C153.155 51.6579 153.18 49.9321 153.221 49.4636C153.27 48.7322 153.246 48.5268 153.106 48.6665Z" fill="#656565"/>
</svg>
