<svg width="24" height="18" viewBox="0 0 24 18" fill="none" xmlns="http://www.w3.org/2000/svg">
<path d="M2.875 16.125C1.625 14.75 0.875 13.25 0.875 10.75C0.875 6.375 4 2.5 8.375 0.5L9.5 2.125C5.375 4.375 4.5 7.25 4.25 9.125C4.875 8.75 5.75 8.625 6.625 8.75C8.875 9 10.625 10.75 10.625 13.125C10.625 14.25 10.125 15.375 9.375 16.25C8.5 17.125 7.5 17.5 6.25 17.5C4.875 17.5 3.625 16.875 2.875 16.125ZM15.375 16.125C14.125 14.75 13.375 13.25 13.375 10.75C13.375 6.375 16.5 2.5 20.875 0.5L22 2.125C17.875 4.375 17 7.25 16.75 9.125C17.375 8.75 18.25 8.625 19.125 8.75C21.375 9 23.125 10.75 23.125 13.125C23.125 14.25 22.625 15.375 21.875 16.25C21.125 17.125 20 17.5 18.75 17.5C17.375 17.5 16.125 16.875 15.375 16.125Z" fill="#CA4625"/>
</svg>
