<svg width="29" height="28" viewBox="0 0 29 28" fill="none" xmlns="http://www.w3.org/2000/svg">
<path d="M28.2346 26.4767L21.0054 19.3631C22.8985 17.3063 24.0617 14.5862 24.0617 11.593C24.0608 5.18994 18.7868 0 12.2805 0C5.77422 0 0.500244 5.18994 0.500244 11.593C0.500244 17.996 5.77422 23.1859 12.2805 23.1859C15.0917 23.1859 17.67 22.2136 19.6953 20.597L26.9524 27.7387C27.3061 28.0871 27.8801 28.0871 28.2337 27.7387C28.3179 27.6566 28.3847 27.5585 28.4304 27.4501C28.476 27.3418 28.4996 27.2254 28.4997 27.1079C28.4998 26.9903 28.4763 26.8739 28.4308 26.7655C28.3853 26.6571 28.3186 26.5589 28.2346 26.4767ZM12.2805 21.4023C6.77548 21.4023 2.3128 17.0105 2.3128 11.593C2.3128 6.17541 6.77548 1.78364 12.2805 1.78364C17.7856 1.78364 22.2482 6.17541 22.2482 11.593C22.2482 17.0105 17.7856 21.4023 12.2805 21.4023Z" fill="#CA4625"/>
</svg>
