<svg width="72" height="29" viewBox="0 0 72 29" fill="none" xmlns="http://www.w3.org/2000/svg">
<g clip-path="url(#clip0_280_20328)">
<path d="M27.7346 27.2318L20.5054 20.1181C22.3985 18.0614 23.5617 15.3412 23.5617 12.348C23.5608 5.94502 18.2868 0.755081 11.7805 0.755081C5.27422 0.755081 0.000244141 5.94502 0.000244141 12.348C0.000244141 18.7511 5.27422 23.941 11.7805 23.941C14.5917 23.941 17.17 22.9686 19.1953 21.3521L26.4524 28.4938C26.8061 28.8421 27.3801 28.8421 27.7337 28.4938C27.8179 28.4117 27.8847 28.3135 27.9304 28.2052C27.976 28.0969 27.9996 27.9805 27.9997 27.863C27.9998 27.7454 27.9763 27.629 27.9308 27.5206C27.8853 27.4122 27.8186 27.314 27.7346 27.2318ZM11.7805 22.1573C6.27548 22.1573 1.8128 17.7656 1.8128 12.348C1.8128 6.93049 6.27548 2.53873 11.7805 2.53873C17.2856 2.53873 21.7482 6.93049 21.7482 12.348C21.7482 17.7656 17.2856 22.1573 11.7805 22.1573Z" fill="white"/>
</g>
<g clip-path="url(#clip1_280_20328)">
<path d="M67.8995 4.85555C65.2553 2.21141 61.7395 0.755081 58 0.755081C54.2605 0.755081 50.7447 2.21135 48.1005 4.85555C45.4563 7.4998 44 11.0156 44 14.7551C44 18.4946 45.4563 22.0104 48.1005 24.6546C50.7447 27.2988 54.2605 28.7551 58 28.7551C61.7395 28.7551 65.2553 27.2988 67.8995 24.6546C70.5437 22.0104 72 18.4946 72 14.7551C72 11.0156 70.5437 7.4998 67.8995 4.85555ZM50.0761 24.2323C50.5384 20.2546 53.9583 17.1836 58 17.1836C60.1306 17.1836 62.1343 18.0137 63.6413 19.5206C64.9145 20.794 65.7176 22.4566 65.9241 24.232C63.7772 26.0301 61.013 27.1145 58 27.1145C54.987 27.1145 52.223 26.0303 50.0761 24.2323ZM58 15.4937C55.6555 15.4937 53.7478 13.5861 53.7478 11.2416C53.7478 8.8969 55.6555 6.98946 58 6.98946C60.3445 6.98946 62.2522 8.8969 62.2522 11.2416C62.2522 13.5861 60.3445 15.4938 58 15.4938V15.4937ZM67.3362 22.8452C66.9147 21.1477 66.0383 19.5972 64.8013 18.3606C63.793 17.3523 62.6001 16.5959 61.2992 16.1218C62.8631 15.0612 63.8928 13.2693 63.8928 11.2416C63.8928 7.99242 61.2492 5.34883 58 5.34883C54.7508 5.34883 52.1072 7.99242 52.1072 11.2416C52.1072 13.2704 53.1377 15.0629 54.7029 16.1234C53.506 16.5595 52.3984 17.234 51.4454 18.1218C50.0654 19.4069 49.1071 21.0456 48.6628 22.8439C46.781 20.6746 45.6406 17.8456 45.6406 14.7551C45.6406 7.94009 51.185 2.39571 58 2.39571C64.815 2.39571 70.3594 7.94009 70.3594 14.7551C70.3594 17.8462 69.2186 20.6759 67.3362 22.8452Z" fill="white"/>
</g>
<defs>
<clipPath id="clip0_280_20328">
<rect width="28" height="28" fill="white" transform="translate(0 0.755081)"/>
</clipPath>
<clipPath id="clip1_280_20328">
<rect width="28" height="28" fill="white" transform="translate(44 0.755081)"/>
</clipPath>
</defs>
</svg>
