<svg width="30" height="30" viewBox="0 0 30 30" fill="none" xmlns="http://www.w3.org/2000/svg">
<circle cx="15" cy="15" r="15" fill="#CA4625" fill-opacity="0.1"/>
<g clip-path="url(#clip0_4081_3406)">
<path d="M24.1514 21.2301C24.1294 21.1055 24.0415 20.7465 23.9609 20.4241C23.8803 20.1016 23.785 19.7133 23.7484 19.5521C23.7381 19.5096 23.7257 19.4641 23.7125 19.4187C23.6171 19.2628 23.5467 19.0929 23.5036 18.9153C23.4951 18.8916 23.4893 18.867 23.4861 18.842C23.4518 18.6926 23.4072 18.5457 23.3527 18.4024C23.1893 18.036 23.0288 17.6572 22.9585 17.2585C22.8925 17.1825 22.8354 17.0992 22.7885 17.0101C22.7225 16.8709 22.5467 16.5119 22.4001 16.2114C22.2536 15.911 22.0044 15.486 21.8579 15.2588C21.6197 14.9078 21.5259 14.7584 21.5457 14.6162C21.4255 14.4697 21.3164 14.3099 21.2064 14.1546L21.1845 14.1231C20.8558 13.8542 20.5623 13.545 20.311 13.2027C20.2671 13.2621 20.1996 13.2423 20.0406 13.1045C19.9161 13.0019 19.7768 12.914 19.7329 12.914C19.7232 12.915 19.7135 12.9141 19.7042 12.9113C19.6949 12.9086 19.6863 12.904 19.6788 12.8978C19.6713 12.8917 19.6651 12.8842 19.6606 12.8756C19.656 12.8671 19.6532 12.8577 19.6523 12.8481C19.6523 12.6942 18.4139 11.9761 18.238 12.02C18.2014 12.0274 18.1941 12.0054 18.2161 11.9687C18.238 11.9321 18.1941 11.8881 18.1135 11.8662C17.9449 11.8222 17.923 11.6244 18.0695 11.4558C18.1808 11.2554 18.2716 11.0443 18.3406 10.8256C18.5678 10.1515 18.5824 9.06703 18.3773 8.40754C18.1721 7.77004 17.6445 7.00797 17.1389 6.64159C16.5161 6.17995 16.0031 6.0041 15.2557 6.0041C13.7975 5.98944 12.6764 6.82478 12.0975 8.33427C11.8191 9.0597 11.8777 10.5985 12.1928 10.9869C12.2367 11.0381 12.2441 11.0821 12.2148 11.0821C12.1855 11.0821 12.2294 11.1994 12.3173 11.3459C12.3901 11.4526 12.4422 11.5718 12.4712 11.6976C12.4712 11.7416 12.2221 11.9101 11.9217 12.064C11.6383 12.2065 11.3664 12.3706 11.1083 12.555C11.0123 12.6384 10.9065 12.7097 10.7932 12.7675C10.6736 12.8397 10.563 12.9258 10.4635 13.0239C10.3023 13.1631 10.1484 13.2584 10.1191 13.2291C10.1101 13.2186 10.1025 13.207 10.0964 13.1947C9.93794 13.4742 9.72309 13.7178 9.46546 13.9098C9.37264 14.0239 9.27069 14.1303 9.16063 14.2278C9.14597 14.2579 9.13132 14.2879 9.11593 14.3172C9.04218 14.4562 8.95558 14.5879 8.85726 14.7107C8.79718 14.8382 8.62571 15.1453 8.4264 15.486C8.16994 15.911 7.8695 16.4679 7.74493 16.7317C7.67605 16.8782 7.61891 16.9925 7.56981 17.0775C7.52804 17.2241 7.47822 17.3706 7.42326 17.5223C7.348 17.7948 7.24995 18.0606 7.13016 18.3166C7.05688 18.48 6.97628 18.6398 6.9008 18.8025L6.87296 18.8677C6.83998 19.0047 6.78502 19.2003 6.722 19.3989C6.62675 19.714 6.5608 19.9925 6.57545 20.0144C6.59011 20.0364 6.57545 20.0804 6.53881 20.1317C6.48671 20.2294 6.45435 20.3365 6.44356 20.4468C6.43613 20.5456 6.41133 20.6423 6.37029 20.7325C6.34098 20.7545 6.31899 20.8718 6.31899 20.9817C6.31615 21.1113 6.29392 21.2397 6.25304 21.3627C6.17243 21.5752 6.11382 21.8903 6.0552 22.5205L6.00391 23.0041L6.61942 22.9748C7.96769 22.9162 9.12545 22.6963 10.4957 22.242C11.3897 21.9489 12.9505 21.1209 13.0457 20.8864C13.0581 20.8687 13.0745 20.8541 13.0936 20.8439C13.1127 20.8337 13.134 20.8282 13.1556 20.8278C13.2655 20.8205 13.925 20.2416 13.8298 20.2343C13.7858 20.2343 13.8298 20.205 13.9177 20.1683C14.0789 20.1024 15.0388 18.8787 15.0388 18.7394C15.0388 18.6955 15.1048 18.6222 15.1854 18.5709C15.266 18.5196 15.3246 18.505 15.3173 18.5343C15.244 18.8127 16.4091 20.2269 17.1931 20.8131C18.3142 21.6558 20.0362 22.3959 21.5384 22.689C22.4836 22.8795 22.5203 22.8795 23.3556 22.9235C23.8026 22.9455 24.2056 22.9748 24.2569 22.9894C24.4445 23.0517 24.4372 22.8685 24.1514 21.2301ZM13.2919 8.61198C13.6217 7.80595 14.457 7.19776 15.2264 7.19776C15.4316 7.19776 15.6221 7.21974 15.6514 7.24905C15.71 7.30767 15.7393 7.315 15.9445 7.33698C16.0031 7.33698 16.2083 7.49086 16.4135 7.67405C16.6186 7.85724 16.8018 7.97448 16.8238 7.94517C16.8458 7.91586 16.8678 7.92319 16.8605 7.96715C16.8531 8.01112 16.9337 8.23828 17.051 8.48009C17.4393 9.3081 17.3514 10.3633 16.8385 11.0447C16.7359 11.1766 16.6773 11.3085 16.7066 11.3378C16.7359 11.3672 16.7212 11.3745 16.6773 11.3525C16.6438 11.3411 16.6074 11.3414 16.5741 11.3534C16.5408 11.3654 16.5126 11.3883 16.4941 11.4184C16.3652 11.5344 16.2253 11.6375 16.0764 11.7262C15.8126 11.8801 15.6441 11.9167 15.2557 11.9167C14.6622 11.9241 14.2298 11.7482 13.8635 11.3452C13.7242 11.184 13.5704 11.0228 13.5337 10.9788C13.4452 10.8508 13.3714 10.7131 13.3139 10.5684C13.1168 10.1332 13.1087 9.06629 13.2919 8.60905V8.61198ZM22.9277 21.5232C22.8324 21.6478 22.8031 21.6478 22.0997 21.5232C21.1458 21.3407 20.2163 21.048 19.3299 20.6512C18.1208 20.0943 16.9411 19.0611 16.4648 18.1378C16.3475 17.9034 16.2156 17.6909 16.1717 17.6616C16.1277 17.6322 16.1204 17.6029 16.1497 17.6029C16.1936 17.6029 16.0984 17.2366 15.9372 16.7969C15.8934 16.555 15.8689 16.3099 15.8639 16.0641C15.8419 15.7271 15.798 15.3753 15.7613 15.2801C15.6807 15.0676 15.2337 14.8771 15.0139 14.9577C14.6988 15.0822 14.6182 15.2654 14.5596 15.9835C14.5303 16.3572 14.4717 16.7896 14.4204 16.9361C14.374 17.0557 14.3468 17.1818 14.3398 17.3098C14.3428 17.3613 14.33 17.4124 14.3031 17.4564C14.2811 17.4784 14.1566 17.7128 14.0247 17.9766C13.6949 18.6508 13.0867 19.3542 12.4126 19.8525C12.1049 20.087 11.8264 20.3068 11.7971 20.3508C11.7678 20.3947 11.7385 20.4021 11.7385 20.3654C11.7385 20.3288 11.504 20.4314 11.2255 20.5706C10.3902 20.9956 9.46692 21.296 8.30916 21.5232C7.37856 21.7064 7.37856 21.6991 7.67899 20.556C7.78891 20.1603 7.87683 19.8012 7.88416 19.7646C7.89348 19.7133 7.9108 19.6639 7.93546 19.618C8.06129 19.3128 8.16655 18.9994 8.25054 18.6801C8.27613 18.5903 8.31307 18.5041 8.36045 18.4236C8.41025 18.3306 8.44957 18.2323 8.47769 18.1305C8.49967 17.9913 9.25442 16.4159 9.32036 16.3572C9.40097 16.2524 9.47441 16.1422 9.54019 16.0275C9.93546 15.4054 10.4001 14.8301 10.9251 14.3128C11.4307 13.8219 12.376 13.1624 12.6691 13.0891C12.757 13.0672 12.8156 13.0085 12.7863 12.9646C12.757 12.9206 12.779 12.9133 12.8156 12.9353C12.8523 12.9572 13.0061 12.9353 13.138 12.8766C13.4238 12.7521 13.585 12.7667 14.1932 12.9866C14.6842 13.1697 15.329 13.2503 15.5268 13.1697C15.6505 13.1291 15.7783 13.102 15.9079 13.0891C16.0294 13.0784 16.147 13.0409 16.2523 12.9792C16.3109 12.9353 16.3548 12.9133 16.3548 12.9426C16.3548 12.9719 16.4574 12.9353 16.5893 12.8693C16.7799 12.7667 16.8678 12.7667 17.1096 12.84C17.9523 13.0891 18.8902 13.7047 19.6523 14.4887C20.3191 15.1848 20.4583 15.3314 20.4583 15.368C20.4583 15.3827 20.6048 15.6245 20.7734 15.8956C21.638 17.2365 22.3928 19.0831 22.7738 20.7611C22.8398 21.0615 22.9204 21.3253 22.957 21.3473C22.9936 21.3693 22.979 21.4397 22.9277 21.5232Z" fill="#CA4625"/>
</g>
<defs>
<clipPath id="clip0_4081_3406">
<rect width="18.3827" height="17" fill="white" transform="translate(6 6)"/>
</clipPath>
</defs>
</svg>
