<svg width="118" height="61" viewBox="0 0 118 61" fill="none" xmlns="http://www.w3.org/2000/svg">
<path d="M46.3919 0.981823C46.0463 1.77823 45.4002 3.64153 44.8292 5.45974C44.5136 6.46652 43.8524 9.69723 43.6721 11.1248C43.612 11.5605 43.5068 11.9662 43.4317 12.0113C43.3566 12.0564 42.47 11.6206 41.4482 11.0346C40.4414 10.4636 39.3144 9.87755 38.9387 9.72728C38.5631 9.59204 38.2024 9.42675 38.1123 9.36665C37.7817 9.12622 34.551 8.01426 34.4157 8.08939C34.3406 8.14949 34.2805 8.11944 34.2805 8.04431C34.2805 7.86399 29.2316 6.5116 28.5253 6.5116C28.315 6.5116 28.1947 6.7971 28.0144 7.78886C26.9325 13.8446 26.7372 15.7079 26.6771 20.321C26.647 22.9957 26.5869 24.0175 26.4517 24.1077C26.3465 24.1678 26.0159 24.1227 25.7003 24.0175C25.0993 23.7921 22.8753 23.3263 21.2074 23.0558C18.5026 22.6351 13.7242 22.4999 10.6888 22.7854C10.4033 22.8154 9.98256 22.8455 9.75716 22.8605L9.33642 22.8906V24.273C9.33642 25.0394 9.41155 26.1062 9.48668 26.6472C9.56182 27.1881 9.667 28.0597 9.71208 28.6006C9.96753 31.1552 11.1997 35.9486 12.477 39.3296C12.8076 40.2312 13.078 40.9825 13.048 41.0126C13.0179 41.0426 10.0877 42.2297 9.39652 42.4852C9.12605 42.5754 8.81049 42.7557 8.67525 42.8609C8.54001 42.966 8.43482 43.0111 8.43482 42.966C8.43482 42.8008 6.3311 43.9728 4.69321 45.0397C3.47606 45.8211 1.28218 47.489 0.485773 48.2253C0.305454 48.3906 0.380587 48.5409 0.936569 49.2171C2.48431 51.1104 4.69321 53.2743 5.79015 53.9505C6.13576 54.1608 6.43629 54.3862 6.48137 54.4313C6.5565 54.5515 7.44307 55.1826 7.84879 55.4231C9.3815 56.3547 10.1028 56.7003 10.253 56.6102C10.3582 56.5501 10.3883 56.5651 10.3432 56.6552C10.253 56.8055 12.0262 57.7071 13.6941 58.3683C15.347 59.0144 18.4876 59.931 20.0804 60.2316C21.9437 60.5621 23.4163 60.7725 24.5132 60.8477C25.2195 60.8777 26.1812 60.9528 26.662 60.9829C28.1046 61.0881 34.4308 60.6824 34.4308 60.472C34.4308 60.3367 32.883 59.4802 32.6727 59.4953C32.5675 59.5103 32.5074 59.4652 32.5525 59.4051C32.5825 59.345 32.3421 59.1497 32.0265 58.9693C31.1099 58.4584 28.5103 56.6853 28.3901 56.4899C28.33 56.3998 28.2699 56.3697 28.2699 56.4298C28.2699 56.535 27.8942 56.2646 27.4434 55.8288C27.3232 55.7386 27.218 55.6485 27.1729 55.6485C26.9926 55.6485 22.5147 51.2908 22.2893 50.9001C22.2292 50.7949 21.8986 50.4042 21.553 50.0285C21.1924 49.6679 20.9069 49.2922 20.9069 49.2171C20.9069 49.142 20.8017 48.9917 20.6664 48.8865C20.5462 48.7663 19.9602 47.9699 19.3742 47.0983C18.7881 46.2268 18.2472 45.5206 18.172 45.5506C18.0969 45.5656 18.0668 45.5206 18.1119 45.4454C18.157 45.3703 17.9316 44.8293 17.586 44.2433C17.2404 43.6573 17 43.0863 17.045 42.966C17.1502 42.7106 18.3974 42.4852 20.9369 42.2598C23.2961 42.0494 26.2563 42.2448 28.7207 42.7406C29.5021 42.9059 30.3135 43.0712 30.5239 43.1163C30.7342 43.1464 31.1099 43.2215 31.3503 43.2816C31.6058 43.3417 31.8312 43.3868 31.8763 43.4018C31.9213 43.4018 32.5074 43.6122 33.1986 43.8526C34.3556 44.2583 34.5209 44.3635 35.4526 45.3853C36.0086 45.9864 36.5345 46.4522 36.6397 46.4222C36.7449 46.3771 36.7899 46.4222 36.7599 46.5273C36.7298 46.6325 37.1356 47.0833 37.6765 47.5341C38.2024 47.9849 38.7885 48.4958 38.9838 48.6611C39.1792 48.8264 39.9605 49.4275 40.7119 49.9985C41.4782 50.5845 42.0943 51.1555 42.0943 51.2757C42.0943 51.411 41.929 52.0571 41.7187 52.7183C41.5233 53.3644 41.3881 53.9354 41.4181 53.9805C41.4632 54.0106 41.4181 54.1158 41.343 54.2209C41.2679 54.3261 41.1777 54.6116 41.1476 54.8671C41.1176 55.1376 41.0425 55.393 40.9974 55.4531C40.9373 55.4982 40.8922 55.7386 40.8922 55.964C40.8922 56.1894 40.8321 56.5501 40.757 56.7454C40.5917 57.1812 40.4715 57.8273 40.3512 59.1196L40.2461 60.1114L41.5083 60.0512C44.2732 59.931 46.6474 59.4802 49.4573 58.5486C51.2906 57.9475 54.4912 56.2495 54.6866 55.7687C54.7166 55.7086 54.8218 55.6485 54.912 55.6485C55.1374 55.6334 56.4898 54.4463 56.2944 54.4313C56.2043 54.4313 56.2944 54.3712 56.4747 54.2961C56.8053 54.1608 58.7738 51.6514 58.7738 51.3659C58.7738 51.2757 58.909 51.1255 59.0743 51.0203C59.2396 50.9151 59.3598 50.885 59.3448 50.9451C59.1945 51.5162 61.5838 54.4163 63.1916 55.6184C65.4907 57.3465 69.0219 58.8641 72.1024 59.4652C74.0408 59.8559 74.1159 59.8559 75.8289 59.9461C76.7456 59.9911 77.572 60.0512 77.6772 60.0813C78.0679 60.2165 78.0529 59.8409 77.4668 56.4749C77.4218 56.2195 77.2414 55.4832 77.0762 54.822C76.9109 54.1608 76.7155 53.3644 76.6404 53.0338C76.5652 52.7183 76.43 52.3276 76.3399 52.1623C75.8891 51.3358 75.9642 51.1856 77.3466 50.1337C80.0063 48.1202 81.3437 46.9481 81.2085 46.7377C81.1634 46.6476 81.1784 46.6325 81.2686 46.6776C81.4639 46.7978 82.5608 45.6708 82.4106 45.5055C82.3354 45.4454 82.3655 45.4304 82.4557 45.4755C82.5458 45.5356 82.8914 45.2801 83.222 44.9195C83.7479 44.3485 84.0184 44.1982 85.2957 43.7775C89.2927 42.5002 94.0562 41.8992 97.3169 42.2748C98.2336 42.38 99.075 42.4551 99.1953 42.4551C99.5709 42.4401 101.059 42.7707 101.194 42.8759C101.269 42.936 101.209 43.2065 101.089 43.4619C100.953 43.7174 100.878 43.9277 100.923 43.9277C100.983 43.9277 100.908 44.0329 100.788 44.1682C100.653 44.2884 100.367 44.7091 100.142 45.0998C99.2403 46.6776 97.2719 49.4124 96.4604 50.2539C96.3402 50.3741 96.1449 50.6296 96.0096 50.8249C95.679 51.2908 93.0794 53.9204 92.268 54.5966C91.9224 54.8821 91.5618 55.1977 91.4716 55.2878C91.3814 55.378 91.0058 55.6635 90.6451 55.9189C90.2845 56.1894 90.0441 56.3998 90.1192 56.4148C90.1943 56.4148 90.1493 56.4599 90.0291 56.52C89.9088 56.5801 88.9321 57.1962 87.8502 57.9024C86.7833 58.6087 85.4009 59.4802 84.7998 59.8409C84.1987 60.2015 83.7329 60.5171 83.7479 60.5471C83.778 60.5621 84.364 60.6373 85.0703 60.6824C85.7765 60.7425 86.9185 60.8326 87.6248 60.8927C89.5332 61.058 93.2147 60.9528 95.3184 60.6824C97.7527 60.3668 101.209 59.6004 102.426 59.1046C102.591 59.0294 102.997 58.8942 103.328 58.789C103.658 58.6989 104.019 58.5486 104.124 58.4584C104.214 58.3833 104.304 58.3683 104.304 58.4434C104.304 58.5035 104.379 58.4885 104.485 58.3833C104.59 58.2781 104.755 58.203 104.875 58.203C105.116 58.203 108.527 56.5801 108.662 56.4148C108.707 56.3697 108.932 56.2345 109.173 56.1293C109.819 55.8438 111.712 54.5515 113.245 53.3494C114.552 52.3126 116.431 50.3741 117.392 49.0668L117.873 48.4207L117.528 48.06C117.332 47.8497 116.671 47.2937 116.04 46.8279C115.409 46.347 114.868 45.9263 114.823 45.8812C114.658 45.7009 113.26 44.8293 113.14 44.8293C113.065 44.8293 112.869 44.6941 112.704 44.5438C112.253 44.1381 108.527 42.2448 108.346 42.35C108.271 42.4101 108.211 42.38 108.211 42.3049C108.211 42.2297 108.091 42.1246 107.956 42.0795C107.805 42.0344 107.234 41.824 106.678 41.6287C106.122 41.4183 105.642 41.2831 105.612 41.3131C105.582 41.3582 105.461 41.2831 105.356 41.1478C105.191 40.9525 105.296 40.5768 105.927 38.8488C106.648 36.9254 107.34 34.7165 107.52 33.8599C107.565 33.6496 107.715 33.0485 107.836 32.5076C108.316 30.479 108.752 27.2933 108.887 24.7538L108.993 22.9356L108.407 22.8304C108.091 22.7703 106.288 22.6952 104.379 22.6652C101.013 22.605 98.5491 22.7703 96.2651 23.1911C95.7692 23.2812 95.1681 23.3864 94.9127 23.4315C94.6723 23.4766 93.8308 23.6419 93.0794 23.8222C92.3131 24.0025 91.6519 24.1227 91.6068 24.0777C91.5768 24.0326 91.5167 22.0791 91.4866 19.7199C91.4566 17.3758 91.3364 14.8363 91.2312 14.1C90.8255 11.1698 90.1493 7.18779 90.0291 7.05256C89.9539 6.97742 89.9389 6.82716 89.984 6.72197C90.1042 6.39139 89.6384 6.45149 87.0538 7.11266C83.7329 7.93912 79.9462 9.26146 79.3301 9.78739C79.1799 9.9076 79.0597 9.96771 79.0597 9.92263C79.0597 9.75734 76.2797 11.1849 76.0543 11.4704C76.0093 11.5305 75.874 11.6206 75.7538 11.6807C75.6336 11.7408 75.3631 11.8761 75.1528 11.9963C74.9574 12.1165 74.7621 12.1916 74.747 12.1616C74.717 12.1315 74.6569 11.8009 74.2361 9.06612C74.146 8.45003 73.9657 7.77383 73.8454 7.57848C73.7102 7.36811 73.6952 7.27795 73.8004 7.33806C73.9356 7.42822 73.9356 7.38314 73.8154 7.12769C73.7102 6.96239 73.6651 6.81213 73.7102 6.81213C73.9506 6.81213 71.9371 0.756424 71.5464 0.30563C71.2008 -0.10009 62.7108 4.22756 62.4253 4.96386C62.3802 5.06905 62.26 5.15921 62.1548 5.15921C61.9594 5.15921 60.8324 5.97064 59.9308 6.76705C59.2847 7.33806 58.9842 7.38314 58.5484 6.96239C58.0375 6.45149 56.3245 5.15921 56.1592 5.14418C56.069 5.12915 55.9338 5.14418 55.8436 5.15921C55.7685 5.17424 55.7384 5.14418 55.7985 5.08408C55.9188 4.96386 55.3177 4.42291 54.5664 3.98714C54.2809 3.82185 53.5596 3.41613 52.9585 3.07051C52.3725 2.73993 51.8015 2.4394 51.6813 2.42437C51.5761 2.39432 51.4108 2.30416 51.3206 2.214C51.1253 2.03368 47.6692 0.455894 47.0831 0.275578C46.7826 0.185417 46.7075 0.275578 46.3919 0.981823ZM70.4645 4.52809C72.4179 10.0579 73.0791 18.5629 72.1324 26.4969C71.877 28.6157 71.7718 29.0514 71.4863 29.0514C71.3961 29.0514 71.306 28.9312 71.2909 28.781C71.1707 27.1431 68.3908 19.0888 68.0452 19.3593C67.9851 19.4044 67.9701 19.3894 68.0151 19.3443C68.1354 19.164 66.242 15.6778 65.9565 15.5576C65.8814 15.5275 65.8363 15.4374 65.8363 15.3622C65.8363 14.9265 61.9745 9.93766 61.2832 9.50188C60.9827 9.29152 61.3884 8.79564 62.6507 7.86399C65.0699 6.07583 69.5929 3.46121 69.9836 3.61147C70.0888 3.64153 70.2992 4.06227 70.4645 4.52809ZM49.8029 4.27264C50.4791 4.61825 51.1553 4.99392 51.3056 5.12915C51.4408 5.24937 51.5611 5.30947 51.5611 5.24937C51.5611 5.20429 51.7113 5.24937 51.9067 5.38461C52.102 5.50482 52.3124 5.57995 52.3575 5.53487C52.4176 5.48979 52.4326 5.50482 52.3875 5.56493C52.3424 5.61 52.643 5.86546 53.0487 6.12091C54.0855 6.78208 54.4912 7.05256 55.7835 8.04431C56.4146 8.51013 56.9706 8.87077 57.0007 8.82569C57.0457 8.79564 57.0758 8.8858 57.0608 9.03606C57.0608 9.18633 56.61 9.81744 56.069 10.4335C54.4912 12.2067 53.9202 12.943 52.7481 14.7011C51.6512 16.354 49.3071 20.7568 49.0817 21.6133C48.9164 22.2144 48.9314 22.1543 48.721 22.6652C48.6008 22.9056 48.4656 23.2512 48.3904 23.4165C48.1801 23.9574 47.5339 26.2415 47.2785 27.3985C46.9629 28.7359 46.8728 28.9613 46.5572 29.0214C46.3919 29.0514 46.3318 28.9312 46.3318 28.5405C46.3318 28.255 46.2867 27.7592 46.2416 27.4436C45.4903 22.7854 45.5204 15.212 46.3168 10.6439C46.3919 10.148 46.4971 9.53194 46.5422 9.29152C46.6774 8.46505 47.2034 6.30123 47.4287 5.65509C47.549 5.30947 47.6842 4.79857 47.7293 4.52809C47.8345 3.97211 48.0599 3.65655 48.3454 3.65655C48.4656 3.65655 49.1117 3.92703 49.8029 4.27264ZM32.7929 10.0278C32.853 9.99776 32.9281 10.0278 32.9582 10.1029C32.9732 10.1631 33.6644 10.4335 34.4608 10.704C35.2572 10.9595 36.7298 11.5305 37.7216 11.9813C38.7133 12.417 39.5699 12.7476 39.63 12.6875C39.6901 12.6424 39.6901 12.6725 39.645 12.7626C39.5398 12.943 40.3963 13.3787 40.6668 13.3036C40.7419 13.2736 40.772 13.2886 40.7119 13.3487C40.6518 13.4088 41.1026 13.7845 41.7036 14.1902C42.3047 14.5959 42.8907 15.0317 43.0109 15.1669C43.1762 15.3622 43.2063 16.0234 43.1762 18.2924C43.1161 21.9439 43.3566 25.6705 43.8224 28.6157C44.0327 29.8929 44.2281 31.0951 44.2581 31.3054C44.3032 31.5158 44.4685 32.2671 44.6488 32.9584C44.9944 34.2807 45.0696 34.5962 45.0846 34.8066C45.0996 34.8818 45.1597 34.8818 45.2499 34.8367C45.325 34.7916 45.3551 34.8367 45.31 34.9569C45.2649 35.0771 45.3701 35.573 45.5354 36.0538C45.866 36.9554 45.9411 37.6166 45.7307 37.6166C45.6556 37.6166 44.9944 36.8953 44.2281 35.9937C41.7788 33.1086 39.0139 30.6292 36.0837 28.6758C34.3707 27.5338 30.8845 25.6855 30.6741 25.8207C30.584 25.8658 30.5239 25.8508 30.5239 25.7907C30.5239 25.7155 30.2233 25.5352 29.8627 25.385L29.1865 25.1145L29.2015 20.7418C29.2166 18.3375 29.2767 16.0985 29.3368 15.768C29.457 15.1368 30.1482 10.1631 30.1482 9.89257C30.1482 9.59204 30.614 9.57702 31.6358 9.83247C32.2068 9.98273 32.7328 10.0729 32.7929 10.0278ZM88.3461 11.816C88.9772 16.0234 89.0373 16.6846 89.0373 20.7267C89.0523 24.4834 89.0373 24.844 88.7818 25.1145C88.6316 25.2798 88.316 25.4601 88.1057 25.5202C86.603 25.8808 80.412 29.5323 80.5323 29.9831C80.5473 30.0582 80.5022 30.0883 80.4271 30.0432C80.0364 29.8028 73.3946 36.2191 73.5599 36.6699C73.605 36.7751 73.59 36.8502 73.5299 36.8202C73.4698 36.8052 73.2143 36.9855 72.9889 37.2109C72.2677 37.9321 72.2226 37.5114 72.8236 35.6481C73.1242 34.7014 73.3796 33.7097 73.3946 33.4542C73.4097 33.1838 73.4698 32.9584 73.5149 32.9584C73.62 32.9584 73.9957 31.2603 74.2512 29.6525C74.9274 25.5653 75.1828 21.9589 75.1077 18.037L75.0476 15.197L75.3932 14.9716C75.5885 14.8513 75.7087 14.671 75.6486 14.5809C75.6036 14.5057 75.6336 14.4757 75.7087 14.5208C75.7989 14.5809 76.2046 14.4005 76.5953 14.1301C77.4218 13.5591 80.0664 12.0865 80.412 11.9963C80.4571 11.9813 80.6525 11.9061 80.8628 11.816C82.4106 11.1548 83.8231 10.6439 85.3408 10.2081C87.3393 9.6221 87.6398 9.54697 87.8652 9.6221C87.9404 9.65215 88.1658 10.6439 88.3461 11.816ZM61.148 13.1834C61.6138 13.7694 62.1548 14.3855 62.3351 14.5809C62.5154 14.7762 62.6356 14.9265 62.6056 14.9265C62.5605 14.9265 62.9963 15.6177 63.5522 16.4592C64.6943 18.1722 66.1068 20.862 66.6778 22.4097C66.8881 22.9657 67.1586 23.6118 67.2638 23.8673C67.4742 24.3181 68.1654 26.512 68.3157 27.128C68.3457 27.3234 68.511 28.0146 68.6763 28.6758C68.9919 30.0282 69.3525 32.1169 69.5929 34.0102C69.7732 35.5279 69.7883 39.7053 69.608 39.9908C69.5178 40.141 69.3826 40.111 69.0369 39.8105C68.7815 39.6001 68.496 39.4198 68.4058 39.4198C68.3157 39.4198 68.2405 39.3597 68.2405 39.2845C68.2405 38.969 65.701 37.4964 65.3404 37.5865C65.2653 37.6016 65.2503 37.5565 65.2953 37.4813C65.3404 37.4062 65.2503 37.3161 65.085 37.271C64.7393 37.1808 64.6943 36.7751 64.9948 36.4295C65.1 36.2942 65.3554 35.7082 65.5508 35.1372C66.0166 33.7548 66.0467 31.5308 65.6259 30.1784C65.2052 28.8711 64.1233 27.3084 63.0864 26.557C61.8092 25.6104 60.7573 25.2497 59.2246 25.2497C56.2343 25.2197 53.9352 26.9327 52.7481 30.0282C52.1771 31.5158 52.2974 34.6714 52.9435 35.4678C53.0337 35.573 53.0487 35.6631 52.9886 35.6631C52.9285 35.6631 53.0186 35.9036 53.1989 36.2041C53.3793 36.4896 53.5145 36.8202 53.5145 36.9254C53.5145 37.0155 53.0036 37.3611 52.3875 37.6767C51.7714 37.9923 51.0201 38.443 50.7196 38.6835C50.419 38.9239 50.1185 39.1192 50.0734 39.1192C50.0283 39.1192 49.7128 39.3597 49.3972 39.6452C49.0666 39.9307 48.7511 40.126 48.691 40.0659C48.1801 39.5099 48.5708 33.4693 49.3822 29.4271C49.6226 28.21 50.2537 25.8808 50.5392 25.1445C50.7045 24.6937 50.8548 24.1378 50.8698 23.9124C50.8849 23.702 50.9299 23.5517 50.975 23.5818C51.1403 23.6719 51.5911 22.3045 51.4709 22.1092C51.4108 22.004 51.4108 21.9589 51.4709 22.019C51.546 22.0791 52.117 21.0874 52.7481 19.8402C53.8601 17.6613 54.5213 16.5343 55.5882 15.0918C55.8436 14.7311 56.0239 14.3705 55.9638 14.2803C55.9188 14.2052 55.9488 14.1751 56.0239 14.2202C56.1141 14.2803 56.4898 13.9347 56.8654 13.4539C57.2411 12.988 57.8872 12.2367 58.323 11.7859L59.0894 10.9745L59.6904 11.5605C60.021 11.8761 60.6822 12.6124 61.148 13.1834ZM106.032 25.1445C105.987 25.2197 106.017 25.2948 106.122 25.2948C106.318 25.2948 106.213 27.4135 105.972 28.4804C105.882 28.8862 105.882 29.0514 106.017 29.0665C106.122 29.0665 106.122 29.0965 106.002 29.1566C105.897 29.1867 105.807 29.382 105.807 29.5623C105.807 29.7427 105.672 30.5391 105.491 31.3205C105.326 32.1018 105.176 32.8682 105.146 33.0335C105.131 33.2138 105.071 33.4091 105.026 33.4993C104.965 33.5744 104.83 34.0553 104.695 34.5812C104.44 35.5279 103.688 37.7669 103.328 38.5933C103.222 38.8337 103.057 39.2695 102.952 39.54C102.621 40.3965 102.516 40.4416 101.344 40.2312C100.788 40.141 99.8865 39.9758 99.3455 39.9006C98.0983 39.7053 90.7503 39.8105 90.1793 40.0208C90.1342 40.0359 90.0591 40.0509 89.999 40.0359C89.9389 40.0359 89.428 40.126 88.872 40.2462C87.1139 40.6369 86.7232 40.667 86.7232 40.3965C86.7232 40.2613 86.9486 39.7654 87.2191 39.2996C87.8502 38.2176 88.5414 36.715 88.4062 36.715C88.3461 36.715 88.3761 36.6549 88.4663 36.5948C88.7067 36.4295 89.1425 35.2123 89.0373 35.017C88.9772 34.9118 88.9922 34.8968 89.0523 34.9569C89.1876 35.0771 90.1342 32.5076 90.2394 31.7562C90.2695 31.5459 90.3296 31.2754 90.3747 31.1552C90.57 30.6593 90.9006 28.9913 90.8255 28.811C90.7954 28.7209 90.8255 28.5856 90.9156 28.5255C91.0058 28.4804 91.0809 28.1799 91.0809 27.8643C91.0809 27.5488 91.1711 27.2182 91.2763 27.128C91.5017 26.9327 93.1395 26.4518 94.2665 26.2415C94.507 26.1964 94.6422 26.0912 94.5821 26.0011C94.537 25.9109 94.5671 25.8959 94.6723 25.956C94.7624 26.0161 95.3635 25.971 96.0096 25.8358C96.6407 25.7155 97.5123 25.5653 97.918 25.5052C98.3387 25.4451 98.7745 25.3699 98.8947 25.3399C99.0149 25.3098 100.638 25.2497 102.501 25.2046C104.364 25.1445 105.912 25.0844 105.942 25.0544C106.062 24.9342 106.122 24.9943 106.032 25.1445ZM19.855 25.43C20.3058 25.5202 20.982 25.6254 21.3577 25.6554C22.124 25.7456 26.1662 26.7374 26.6921 26.9778C26.9325 27.083 27.0678 27.3084 27.1279 27.684C27.3983 29.2768 27.744 30.8246 27.8191 30.7795C27.8642 30.7494 27.8942 30.9448 27.9092 31.2002C27.9243 32.1169 29.2015 35.603 30.4037 38.0373C31.0648 39.3897 31.5757 40.5317 31.5306 40.5768C31.4856 40.6069 30.8845 40.5468 30.1933 40.4115C26.2563 39.6752 22.109 39.5099 18.6829 39.9758C17.6311 40.111 16.5041 40.2312 16.1735 40.2312L15.5724 40.2462L15.1216 39.1192C14.8812 38.5032 14.6107 37.9472 14.5506 37.9021C14.4755 37.857 14.4304 37.7518 14.4454 37.6767C14.4755 37.5264 14.22 36.6248 13.9195 35.8134C13.6941 35.1973 13.3635 34.0703 13.2884 33.6345C13.2583 33.4693 13.1381 32.9584 13.0179 32.5076C12.5972 30.8096 12.2816 28.9463 11.9811 26.1814C11.936 25.7456 11.9661 25.415 12.0863 25.2948C12.2215 25.1445 13.0029 25.1295 15.6476 25.1896C17.5109 25.2497 19.4042 25.3549 19.855 25.43ZM60.036 27.8042C60.1562 27.9244 60.2164 27.9395 60.6371 27.9846C60.7573 27.9846 61.1781 28.3001 61.5988 28.6758C62.0045 29.0364 62.3952 29.2919 62.4403 29.2318C62.5004 29.1717 62.5304 29.1867 62.5154 29.2768C62.5004 29.352 62.6657 29.8328 62.9061 30.3287C63.7025 32.0267 63.5222 34.1905 62.4703 35.588C62.26 35.8585 62.1398 36.129 62.1999 36.1891C62.26 36.2642 62.2299 36.2642 62.1398 36.2191C62.0346 36.159 61.8693 36.2191 61.7641 36.3544C61.6589 36.4746 61.2682 36.7601 60.9076 36.9855C60.3666 37.301 60.021 37.3762 59.2246 37.3762C58.0074 37.3912 57.1209 37.0306 56.3696 36.2041C56.084 35.8735 55.7685 35.5429 55.6934 35.4528C55.6032 35.3626 55.4079 34.9869 55.2426 34.6113C54.8368 33.7247 54.8218 31.5308 55.1975 30.5992C55.8737 28.9463 57.5867 27.6991 59.1645 27.6991C59.5852 27.6991 59.9759 27.7441 60.036 27.8042ZM31.5006 28.9913C32.868 29.6976 34.4759 30.6893 35.9184 31.7111C36.3542 32.0267 36.805 32.2521 36.8951 32.2371C36.9853 32.207 37.0153 32.222 36.9552 32.2822C36.8951 32.3423 37.0604 32.5677 37.3309 32.778C37.6014 32.9884 38.2175 33.5444 38.7133 34.0102C39.2092 34.476 39.7502 34.9569 39.9155 35.0771C40.0808 35.1973 40.6518 35.7984 41.1927 36.4145C41.7337 37.0306 42.2897 37.6617 42.4249 37.827C42.5601 37.9772 42.8607 38.3379 43.1011 38.6234C43.3265 38.9089 43.6421 39.2695 43.7923 39.4348C43.9276 39.5851 44.0478 39.7504 44.0478 39.7954C44.0478 39.8405 44.4084 40.3664 44.8442 40.9675C45.7758 42.2448 46.1515 42.8158 46.1515 42.9811C46.1515 43.0562 45.7307 43.8226 45.2198 44.6941C44.6939 45.5656 44.0778 46.7077 43.8224 47.2486C43.4016 48.1502 43.2063 48.4207 42.9659 48.4357C42.9208 48.4357 42.2596 47.9549 41.5083 47.3839C39.6901 45.9714 36.4894 42.7857 35.3925 41.2981C34.8966 40.6369 34.4608 40.0659 34.4007 40.0509C34.3256 40.0208 34.2805 39.9006 34.2805 39.7804C34.2805 39.6452 34.2204 39.5851 34.1603 39.6301C34.0852 39.6752 34.0251 39.6301 34.0251 39.525C34.0251 39.2695 33.5292 38.5182 33.3639 38.5182C33.2888 38.5182 33.2437 38.4731 33.2737 38.398C33.3338 38.1876 32.7328 37.0155 32.6126 37.1057C32.5374 37.1508 32.5224 37.0756 32.5675 36.9554C32.6126 36.8202 32.5825 36.715 32.4923 36.715C32.4022 36.715 32.3271 36.6248 32.3271 36.5196C32.3271 36.3393 31.2752 33.8449 31.1249 33.7097C31.0799 33.6646 31.0348 33.4993 31.0047 33.334C30.9747 33.1687 30.7793 32.4625 30.5689 31.7562C29.9228 29.6525 29.7275 28.3001 30.043 28.3001C30.1031 28.3001 30.7493 28.6157 31.5006 28.9913ZM88.316 28.8411C88.316 29.0815 88.2409 29.6074 88.1357 30.0131C88.0305 30.4189 87.9404 30.7945 87.9554 30.8396C87.9704 30.8847 87.9253 31.035 87.8802 31.1552C87.8352 31.2754 87.6098 31.9215 87.3994 32.5827C87.0237 33.7548 86.3926 35.3776 86.017 36.0989C85.9268 36.3093 85.8667 36.5196 85.9118 36.5948C85.9568 36.6549 85.9268 36.715 85.8517 36.715C85.7765 36.715 85.5962 36.9404 85.476 37.1958C85.3408 37.4663 84.8599 38.2928 84.4091 39.0291C83.9433 39.7504 83.5676 40.4115 83.5676 40.4716C83.5676 40.5468 83.5075 40.6219 83.4324 40.652C83.3573 40.667 82.9065 41.2079 82.4106 41.824C80.2918 44.4988 75.6937 48.616 75.0926 48.3906C75.0025 48.3456 74.8222 48.0901 74.6719 47.8196C74.5367 47.5341 74.176 46.7978 73.8755 46.1817C73.5599 45.5656 73.0641 44.6941 72.7635 44.2283C71.9671 43.0562 71.9521 42.9811 72.463 42.2748C72.7034 41.9442 72.8687 41.5836 72.8086 41.4934C72.7485 41.4033 72.7635 41.3732 72.8537 41.4183C72.9438 41.4784 73.3045 41.1027 73.6651 40.5768C74.0258 40.0659 74.3864 39.57 74.4766 39.4799C74.5517 39.3747 74.8372 39.0441 75.0776 38.7286C76.8057 36.5497 78.9394 34.4009 81.0131 32.7179C82.3655 31.621 85.0102 29.8028 85.2356 29.8028C85.3107 29.8028 85.3408 29.7276 85.2807 29.6225C85.2206 29.5323 85.2356 29.5022 85.3257 29.5473C85.4009 29.5924 86.032 29.3369 86.7382 28.9763C87.4295 28.6157 88.0756 28.3302 88.1507 28.3602C88.2409 28.3752 88.301 28.6006 88.316 28.8411ZM57.0457 39.57C58.0525 39.9457 59.3749 40.111 59.7806 39.9457C59.9308 39.8856 60.2765 39.8105 60.562 39.7804C60.8324 39.7504 61.163 39.6452 61.2682 39.555C61.3884 39.4649 61.4786 39.4198 61.4786 39.4799C61.4786 39.54 61.689 39.4649 61.9594 39.3296C62.3501 39.1192 62.5304 39.1192 63.0263 39.2695C64.7544 39.7804 66.6778 41.0426 68.2405 42.6505C69.608 44.078 69.8935 44.3785 69.8935 44.4537C69.8935 44.4837 70.194 44.9796 70.5396 45.5356C72.3127 48.2854 73.8605 52.0721 74.6419 55.5132C74.7771 56.1293 74.9424 56.6703 75.0175 56.7153C75.0926 56.7604 75.0626 56.9107 74.9574 57.076C74.7621 57.3314 74.702 57.3314 73.2594 57.076C71.5464 56.7755 69.1421 56.0241 67.5794 55.2878C65.1 54.1458 62.6807 52.0271 61.704 50.1337C61.4636 49.6529 61.1931 49.2171 61.1029 49.157C61.0278 49.0969 60.9977 49.0368 61.0578 49.0368C61.148 49.0368 60.9527 48.2854 60.6221 47.3839C60.577 47.2636 60.5019 46.5874 60.4718 45.8812C60.4267 45.19 60.3366 44.4687 60.2614 44.2734C60.0961 43.8376 59.1795 43.4469 58.7287 43.6122C58.0826 43.8676 57.9173 44.2433 57.7971 45.7159C57.737 46.4823 57.6168 47.3688 57.5116 47.6694C57.4064 47.9699 57.3313 48.3155 57.3463 48.4357C57.3463 48.5559 57.3162 48.6912 57.2711 48.7362C57.2261 48.7813 56.9706 49.2622 56.7001 49.8031C56.0239 51.1856 54.7767 52.6281 53.3943 53.6499C52.7632 54.1308 52.1922 54.5816 52.1321 54.6717C52.072 54.7469 52.0118 54.7769 52.0118 54.7018C52.0118 54.6417 51.531 54.837 50.96 55.1225C49.247 55.9941 47.3536 56.6102 44.9794 57.076C43.071 57.4516 43.071 57.4366 43.6871 55.0925C43.9125 54.281 44.0929 53.5447 44.1079 53.4696C44.1229 53.3795 44.168 53.2442 44.2131 53.1691C44.3182 53.0038 44.8141 51.5162 44.8592 51.2457C44.8742 51.1405 44.9794 50.9151 45.0846 50.7197C45.1898 50.5244 45.295 50.2539 45.325 50.1187C45.3701 49.8332 46.9178 46.6025 47.0531 46.4823C47.0982 46.4372 47.3085 46.1366 47.5039 45.8061C48.135 44.7542 49.3221 43.2816 50.3439 42.2898C51.3807 41.2831 53.3192 39.9307 53.9202 39.7804C54.1005 39.7353 54.2208 39.6151 54.1606 39.525C54.1156 39.4498 54.1456 39.4198 54.2208 39.4649C54.3109 39.525 54.6114 39.4649 54.8819 39.3446C55.468 39.0892 55.7985 39.1192 57.0457 39.57ZM14.9714 44.7843C15.7678 46.2569 18.2772 50.1037 18.8182 50.6897C19.0135 50.9001 19.299 51.2607 19.4493 51.5011C20.2006 52.6431 25.2345 57.6169 25.505 57.4817C25.6402 57.4066 26.1511 58.1128 26.061 58.2631C25.9708 58.3833 22.4847 58.188 22.4847 58.0527C22.4847 58.0227 21.9738 57.9325 21.2825 57.8423C20.3809 57.7221 18.8633 57.3765 18.2622 57.1511C18.0969 57.076 17.7513 57.0009 17.5109 56.9558C17.2704 56.9107 16.9098 56.8205 16.6994 56.7304C16.4891 56.6402 15.8129 56.3848 15.1968 56.1594C14.5807 55.949 13.3185 55.393 12.3868 54.9572C11.4702 54.5064 10.6437 54.1458 10.5686 54.1458C10.4784 54.1458 10.3883 54.1007 10.3582 54.0256C10.253 53.8002 8.11927 52.4929 7.969 52.568C7.89387 52.6281 7.84879 52.5981 7.86381 52.5229C7.89387 52.4478 7.50318 52.0571 7.0073 51.6814C5.66994 50.6296 4.06209 49.0217 4.10717 48.7663C4.16728 48.4207 5.85026 47.2787 8.81049 45.5656C9.39652 45.2351 12.1163 44.078 12.7174 43.9277C12.8076 43.8977 13.1081 43.7925 13.3936 43.6873C13.6791 43.5821 13.9947 43.492 14.0998 43.492C14.19 43.4769 14.5807 44.063 14.9714 44.7843ZM105.777 44.0029C107.836 44.7241 110.841 46.2418 112.629 47.489C113.005 47.7595 113.41 47.9549 113.516 47.9248C113.606 47.9098 113.636 47.9098 113.561 47.9549C113.501 47.9849 113.621 48.1652 113.846 48.3456C114.192 48.616 114.237 48.7362 114.102 48.9767C113.951 49.2471 112.764 50.4192 111.697 51.3358C109.924 52.8535 105.957 55.0775 103.177 56.0993C102.441 56.3848 101.795 56.6402 101.75 56.6853C101.705 56.7454 101.509 56.8055 101.299 56.8205C100.668 56.9107 98.2937 57.5418 98.3538 57.6169C98.3838 57.647 98.2786 57.677 98.0983 57.6921C97.918 57.6921 96.791 57.8574 95.5889 58.0527C93.5753 58.3532 92.3281 58.4434 92.1628 58.2931C92.0877 58.203 92.6286 57.4667 92.7789 57.4516C92.9743 57.4516 93.9059 56.5951 95.8894 54.5966C97.7978 52.7033 97.933 52.538 99.2403 50.9151C100.938 48.8264 103.658 44.3785 103.463 44.0329C103.403 43.9277 103.403 43.8977 103.478 43.9578C103.553 44.0329 103.688 43.9428 103.808 43.7775C103.929 43.6122 104.079 43.4769 104.154 43.4769C104.214 43.4769 104.95 43.7174 105.777 44.0029Z" fill="#426AB0"/>
</svg>
