<svg width="20" height="21" viewBox="0 0 20 21" fill="none" xmlns="http://www.w3.org/2000/svg">
<path fill-rule="evenodd" clip-rule="evenodd" d="M10.0369 18.6621L17.5369 11.1621C17.624 11.0752 17.6931 10.9719 17.7402 10.8582C17.7873 10.7445 17.8116 10.6227 17.8116 10.4996C17.8116 10.3765 17.7873 10.2547 17.7402 10.141C17.6931 10.0273 17.624 9.92406 17.5369 9.83711L10.0369 2.33711C9.86121 2.1614 9.6229 2.06269 9.37442 2.06269C9.12593 2.06269 8.88762 2.1614 8.71192 2.33711C8.53621 2.51281 8.4375 2.75112 8.4375 2.99961C8.4375 3.24809 8.53621 3.4864 8.71192 3.66211L15.5482 10.4996L8.71192 17.3371C8.53621 17.5128 8.4375 17.7511 8.4375 17.9996C8.4375 18.2481 8.53621 18.4864 8.71192 18.6621C8.88762 18.8378 9.12593 18.9365 9.37442 18.9365C9.6229 18.9365 9.86121 18.8378 10.0369 18.6621Z" fill="#CA4625"/>
<path fill-rule="evenodd" clip-rule="evenodd" d="M3.78692 18.6621L11.2869 11.1621C11.374 11.0752 11.4431 10.9719 11.4902 10.8582C11.5373 10.7445 11.5616 10.6227 11.5616 10.4996C11.5616 10.3765 11.5373 10.2547 11.4902 10.141C11.4431 10.0273 11.374 9.92406 11.2869 9.83711L3.78692 2.33711C3.69992 2.25011 3.59663 2.1811 3.48296 2.13401C3.36929 2.08693 3.24745 2.06269 3.12442 2.06269C3.00138 2.06269 2.87955 2.08693 2.76587 2.13401C2.6522 2.1811 2.54892 2.25011 2.46192 2.33711C2.37492 2.42411 2.3059 2.52739 2.25882 2.64107C2.21173 2.75474 2.1875 2.87657 2.1875 2.99961C2.1875 3.12265 2.21173 3.24448 2.25882 3.35815C2.3059 3.47182 2.37492 3.57511 2.46192 3.66211L9.29817 10.4996L2.46192 17.3371C2.37492 17.4241 2.3059 17.5274 2.25882 17.6411C2.21173 17.7547 2.1875 17.8766 2.1875 17.9996C2.1875 18.1226 2.21173 18.2445 2.25882 18.3581C2.3059 18.4718 2.37492 18.5751 2.46192 18.6621C2.54892 18.7491 2.6522 18.8181 2.76587 18.8652C2.87955 18.9123 3.00138 18.9365 3.12442 18.9365C3.24745 18.9365 3.36929 18.9123 3.48296 18.8652C3.59663 18.8181 3.69992 18.7491 3.78692 18.6621Z" fill="#CA4625"/>
</svg>
