<svg width="24" height="24" viewBox="0 0 24 24" fill="none" xmlns="http://www.w3.org/2000/svg">
<path fill-rule="evenodd" clip-rule="evenodd" d="M2.20528 12.0453L11.2053 21.0453C11.3096 21.1498 11.4335 21.2327 11.57 21.2892C11.7064 21.3458 11.8526 21.3749 12.0003 21.3749C12.148 21.3749 12.2942 21.3458 12.4306 21.2892C12.567 21.2327 12.6909 21.1498 12.7953 21.0453L21.7953 12.0453C22.0061 11.8344 22.1246 11.5485 22.1246 11.2503C22.1246 10.9521 22.0061 10.6661 21.7953 10.4553C21.5844 10.2444 21.2985 10.126 21.0003 10.126C20.7021 10.126 20.4161 10.2444 20.2053 10.4553L12.0003 18.6588L3.79528 10.4553C3.58443 10.2444 3.29846 10.126 3.00028 10.126C2.70209 10.126 2.41612 10.2444 2.20528 10.4553C1.99443 10.6661 1.87598 10.9521 1.87598 11.2503C1.87598 11.5485 1.99443 11.8344 2.20528 12.0453Z" fill="#CA4625"/>
<path fill-rule="evenodd" clip-rule="evenodd" d="M2.20528 4.54528L11.2053 13.5453C11.3096 13.6498 11.4335 13.7327 11.57 13.7892C11.7064 13.8458 11.8526 13.8749 12.0003 13.8749C12.148 13.8749 12.2942 13.8458 12.4306 13.7892C12.567 13.7327 12.6909 13.6498 12.7953 13.5453L21.7953 4.54528C21.8997 4.44088 21.9825 4.31693 22.039 4.18053C22.0955 4.04412 22.1246 3.89792 22.1246 3.75028C22.1246 3.60263 22.0955 3.45643 22.039 3.32003C21.9825 3.18362 21.8997 3.05968 21.7953 2.95528C21.6909 2.85088 21.5669 2.76806 21.4305 2.71156C21.2941 2.65506 21.1479 2.62598 21.0003 2.62598C20.8526 2.62598 20.7064 2.65506 20.57 2.71156C20.4336 2.76806 20.3097 2.85088 20.2053 2.95528L12.0003 11.1588L3.79528 2.95528C3.69088 2.85088 3.56693 2.76806 3.43053 2.71156C3.29412 2.65506 3.14792 2.62598 3.00028 2.62598C2.85263 2.62598 2.70643 2.65506 2.57003 2.71156C2.43362 2.76806 2.30968 2.85088 2.20528 2.95528C2.10088 3.05968 2.01806 3.18362 1.96156 3.32003C1.90506 3.45643 1.87598 3.60263 1.87598 3.75028C1.87598 3.89792 1.90506 4.04412 1.96156 4.18053C2.01806 4.31693 2.10088 4.44088 2.20528 4.54528Z" fill="#CA4625"/>
</svg>
