<svg width="42" height="42" viewBox="0 0 42 42" fill="none" xmlns="http://www.w3.org/2000/svg">
<circle cx="21" cy="21" r="21" fill="black"/>
<g clip-path="url(#clip0_164_120)">
<path d="M21 12.8008C23.6719 12.8008 23.9883 12.8125 25.0391 12.8594C26.0156 12.9023 26.543 13.0664 26.8945 13.2031C27.3594 13.3828 27.6953 13.6016 28.043 13.9492C28.3945 14.3008 28.6094 14.6328 28.7891 15.0977C28.9258 15.4492 29.0898 15.9805 29.1328 16.9531C29.1797 18.0078 29.1914 18.3242 29.1914 20.9922C29.1914 23.6641 29.1797 23.9805 29.1328 25.0313C29.0898 26.0078 28.9258 26.5352 28.7891 26.8867C28.6094 27.3516 28.3906 27.6875 28.043 28.0352C27.6914 28.3867 27.3594 28.6016 26.8945 28.7813C26.543 28.918 26.0117 29.082 25.0391 29.125C23.9844 29.1719 23.668 29.1836 21 29.1836C18.3281 29.1836 18.0117 29.1719 16.9609 29.125C15.9844 29.082 15.457 28.918 15.1055 28.7813C14.6406 28.6016 14.3047 28.3828 13.957 28.0352C13.6055 27.6836 13.3906 27.3516 13.2109 26.8867C13.0742 26.5352 12.9102 26.0039 12.8672 25.0313C12.8203 23.9766 12.8086 23.6602 12.8086 20.9922C12.8086 18.3203 12.8203 18.0039 12.8672 16.9531C12.9102 15.9766 13.0742 15.4492 13.2109 15.0977C13.3906 14.6328 13.6094 14.2969 13.957 13.9492C14.3086 13.5977 14.6406 13.3828 15.1055 13.2031C15.457 13.0664 15.9883 12.9023 16.9609 12.8594C18.0117 12.8125 18.3281 12.8008 21 12.8008ZM21 11C18.2852 11 17.9453 11.0117 16.8789 11.0586C15.8164 11.1055 15.0859 11.2773 14.4531 11.5234C13.793 11.7812 13.2344 12.1211 12.6797 12.6797C12.1211 13.2344 11.7813 13.793 11.5234 14.4492C11.2773 15.0859 11.1055 15.8125 11.0586 16.875C11.0117 17.9453 11 18.2852 11 21C11 23.7148 11.0117 24.0547 11.0586 25.1211C11.1055 26.1836 11.2773 26.9141 11.5234 27.5469C11.7813 28.207 12.1211 28.7656 12.6797 29.3203C13.2344 29.875 13.793 30.2188 14.4492 30.4727C15.0859 30.7188 15.8125 30.8906 16.875 30.9375C17.9414 30.9844 18.2813 30.9961 20.9961 30.9961C23.7109 30.9961 24.0508 30.9844 25.1172 30.9375C26.1797 30.8906 26.9102 30.7188 27.543 30.4727C28.1992 30.2188 28.7578 29.875 29.3125 29.3203C29.8672 28.7656 30.2109 28.207 30.4648 27.5508C30.7109 26.9141 30.8828 26.1875 30.9297 25.125C30.9766 24.0586 30.9883 23.7188 30.9883 21.0039C30.9883 18.2891 30.9766 17.9492 30.9297 16.8828C30.8828 15.8203 30.7109 15.0898 30.4648 14.457C30.2188 13.793 29.8789 13.2344 29.3203 12.6797C28.7656 12.125 28.207 11.7813 27.5508 11.5273C26.9141 11.2812 26.1875 11.1094 25.125 11.0625C24.0547 11.0117 23.7148 11 21 11Z" fill="white"/>
<path d="M21 15.8633C18.1641 15.8633 15.8633 18.1641 15.8633 21C15.8633 23.8359 18.1641 26.1367 21 26.1367C23.8359 26.1367 26.1367 23.8359 26.1367 21C26.1367 18.1641 23.8359 15.8633 21 15.8633ZM21 24.332C19.1602 24.332 17.668 22.8398 17.668 21C17.668 19.1602 19.1602 17.668 21 17.668C22.8398 17.668 24.332 19.1602 24.332 21C24.332 22.8398 22.8398 24.332 21 24.332Z" fill="white"/>
<path d="M27.5391 15.6602C27.5391 16.3242 27 16.8594 26.3398 16.8594C25.6758 16.8594 25.1406 16.3203 25.1406 15.6602C25.1406 14.9961 25.6797 14.4609 26.3398 14.4609C27 14.4609 27.5391 15 27.5391 15.6602Z" fill="white"/>
</g>
<defs>
<clipPath id="clip0_164_120">
<rect width="20" height="20" fill="white" transform="translate(11 11)"/>
</clipPath>
</defs>
</svg>
