<svg width="24" height="24" viewBox="0 0 24 24" fill="none" xmlns="http://www.w3.org/2000/svg">
<path d="M12.0001 19.6C11.8885 19.6001 11.7779 19.5782 11.6747 19.5354C11.5716 19.4927 11.4779 19.43 11.3991 19.3509L12.0001 19.6ZM12.0001 19.6L12 19.5L12.0001 19.6ZM3.89909 11.8509L11.399 19.3508H12.6011L20.101 11.851C20.101 11.851 20.101 11.851 20.101 11.8509C20.4332 11.519 20.4329 10.9811 20.101 10.649C19.7691 10.3169 19.2312 10.3169 18.8991 10.649L12 17.5481L5.10103 10.649C4.76906 10.3169 4.23118 10.3171 3.89911 10.649C3.56695 10.9809 3.56698 11.5188 3.89909 11.8509ZM12.601 13.3509L20.101 5.85095C20.4331 5.51884 20.4331 4.98095 20.101 4.649C19.7689 4.31715 19.2311 4.31686 18.8991 4.64903C18.8991 4.64903 18.8991 4.64904 18.8991 4.64905L12 11.5481L5.10101 4.64903C4.7689 4.31692 4.23101 4.31689 3.89906 4.64905C3.56722 4.98111 3.56692 5.51897 3.89909 5.85095C3.89909 5.85095 3.8991 5.85096 3.89911 5.85097L11.3991 13.3509C11.565 13.5169 11.7828 13.6 12 13.6C12.2173 13.6 12.4351 13.5169 12.601 13.3509Z" fill="black" stroke="black" stroke-width="0.2"/>
</svg>
