<svg width="21" height="12" viewBox="0 0 21 12" fill="none" xmlns="http://www.w3.org/2000/svg">
<mask id="mask0_280_33428" style="mask-type:luminance" maskUnits="userSpaceOnUse" x="0" y="6" width="10" height="6">
<path d="M0 6.69385H9.39608V11.9922H0V6.69385Z" fill="white"/>
</mask>
<g mask="url(#mask0_280_33428)">
<path d="M6.55256 11.4038C6.30274 11.4038 6.05479 11.3921 5.80917 11.3665C5.39902 11.3231 4.99726 11.2411 4.61135 11.1213C4.22544 10.9992 3.85678 10.8361 3.51281 10.6319C3.16838 10.4287 2.83654 10.1826 2.52613 9.92071C2.21805 9.65412 1.92396 9.36981 1.65736 9.05987C1.52174 8.90746 1.39357 8.74853 1.27052 8.5868L1.1321 8.39431C1.15121 8.37893 1.16985 8.36355 1.18942 8.34864C1.30921 8.25636 1.43411 8.16967 1.56322 8.08903C1.82189 7.9287 2.09501 7.79075 2.37838 7.68075C2.86031 7.49572 3.37392 7.39318 3.89453 7.39318C3.92948 7.39318 3.96444 7.39551 3.99893 7.39645C3.89872 7.20116 3.80551 6.99422 3.72441 6.77563C3.71742 6.75699 3.71136 6.73975 3.70483 6.72203C3.63865 6.71877 3.57247 6.71411 3.50629 6.71411C3.03695 6.71411 2.56528 6.78729 2.11738 6.93037C1.77435 7.03803 1.44344 7.18252 1.13163 7.35963C0.97503 7.44771 0.823089 7.54326 0.675344 7.64673C0.601238 7.69893 0.528996 7.75346 0.45722 7.81079C0.421332 7.83968 0.385911 7.86858 0.350489 7.89934L0.296424 7.94642C0.277315 7.96366 0.262867 7.97624 0.2363 8.00188L0 8.23072L0.161728 8.52668C0.196684 8.59146 0.224182 8.63667 0.255409 8.68934L0.348625 8.83755C0.411079 8.93543 0.477261 9.02911 0.544376 9.12232C0.680471 9.30642 0.822157 9.48633 0.972234 9.65831C1.27378 10.0013 1.60144 10.322 1.96031 10.6063C2.31873 10.8943 2.70277 11.1395 3.11385 11.3576C3.52819 11.5692 3.96537 11.7375 4.41653 11.8377C4.8663 11.9425 5.32491 11.9896 5.77841 11.992C6.23283 11.9896 6.68213 11.9421 7.12024 11.854C7.33929 11.8111 7.55462 11.7543 7.76762 11.6941C7.98015 11.6293 8.18988 11.5594 8.39495 11.4783C8.73985 11.3418 9.07496 11.1838 9.39189 10.9959L9.29541 10.9754C8.55715 11.1992 7.80583 11.3399 7.05778 11.3879C6.88906 11.3986 6.72034 11.4038 6.55256 11.4038Z" fill="#961163"/>
</g>
<path d="M9.56862 10.8894C9.52295 10.9048 9.47681 10.9183 9.43066 10.9327L9.46655 10.9509C9.50058 10.9304 9.53507 10.9108 9.56862 10.8894Z" fill="#040606"/>
<path d="M6.52898 9.27737C6.21392 8.99866 5.92122 8.6999 5.66162 8.37971C5.45235 8.12197 5.26638 7.84932 5.10326 7.56641C5.06364 7.4979 5.02449 7.42938 4.98767 7.35994C4.90984 7.20939 4.84039 7.05512 4.777 6.89945C4.68938 6.6832 4.61434 6.46274 4.55748 6.23809C4.45774 5.85078 4.39715 5.44204 4.36313 5.03795C4.33377 4.63153 4.32724 4.22278 4.358 3.81543C4.36965 3.61176 4.39156 3.40855 4.41906 3.2072L4.45728 2.97323C4.48151 2.9765 4.50575 2.97836 4.53045 2.98162C4.68006 3.0012 4.83014 3.02823 4.97835 3.06225C5.27477 3.1317 5.56514 3.22724 5.84339 3.34936C6.39848 3.59591 6.90324 3.95386 7.30733 4.41853C7.34135 4.45629 7.37258 4.49683 7.40474 4.53645C7.42991 4.45815 7.45694 4.37845 7.4891 4.29363C7.5441 4.14961 7.60748 4.00419 7.67413 3.85831C7.2775 3.35309 6.76482 2.93035 6.19015 2.6344C5.87135 2.46801 5.53531 2.33657 5.18901 2.2415C5.0161 2.19349 4.84086 2.15341 4.66328 2.12218C4.57426 2.10633 4.48431 2.09422 4.39296 2.08396C4.34728 2.0793 4.30161 2.07464 4.255 2.07091L4.18369 2.06625C4.15759 2.06485 4.13848 2.06345 4.10166 2.06299L3.77261 2.05786L3.67753 2.38132C3.65656 2.45216 3.64351 2.50343 3.62859 2.56262L3.58944 2.7332C3.56474 2.84646 3.5447 2.95972 3.52652 3.07297C3.4925 3.29949 3.46547 3.52647 3.44962 3.75438C3.42026 4.20973 3.42492 4.66788 3.47805 5.12277C3.52746 5.57953 3.62533 6.02416 3.76143 6.4688C3.77448 6.50935 3.78986 6.54897 3.80384 6.58905C3.81176 6.61235 3.81968 6.63566 3.82807 6.65849C3.83646 6.6818 3.84392 6.7051 3.85231 6.72794C3.89519 6.84353 3.9418 6.95771 3.99167 7.0705C4.042 7.18283 4.0956 7.29375 4.15339 7.40188C4.16598 7.42612 4.18136 7.44896 4.19488 7.47319C4.20793 7.49743 4.22237 7.52073 4.23589 7.5445C4.27131 7.60649 4.30487 7.66895 4.34309 7.72907C4.58685 8.12104 4.87768 8.47805 5.19694 8.80011C5.51993 9.11937 5.87135 9.40321 6.24281 9.6507C6.42878 9.77514 6.6208 9.88747 6.81469 9.99513C7.01044 10.0995 7.20805 10.1979 7.41033 10.2855C7.81489 10.4607 8.23062 10.6071 8.65755 10.6989C7.87967 10.3093 7.16145 9.83247 6.52898 9.27737Z" fill="#D61362"/>
<path d="M9.46741 10.951L9.43153 10.9329C9.38632 10.9473 9.34157 10.9622 9.2959 10.9757L9.39238 10.9962C9.41754 10.9813 9.44271 10.9664 9.46741 10.951Z" fill="#040606"/>
<mask id="mask1_280_33428" style="mask-type:luminance" maskUnits="userSpaceOnUse" x="11" y="6" width="10" height="6">
<path d="M11.5654 6.69409H20.9997V11.9924H11.5654V6.69409Z" fill="white"/>
</mask>
<g mask="url(#mask1_280_33428)">
<path d="M16.9849 7.39669C17.0198 7.39576 17.0548 7.39343 17.0897 7.39343C17.6127 7.39343 18.1282 7.49596 18.6124 7.681C18.8967 7.79099 19.1708 7.92895 19.4304 8.08928C19.5599 8.16991 19.6858 8.2566 19.8056 8.34842C19.8256 8.3638 19.8438 8.37918 19.8634 8.39456L19.724 8.58658C19.6005 8.74878 19.4719 8.90771 19.3358 9.06011C19.0682 9.36959 18.7727 9.65436 18.4637 9.92096C18.1524 10.1829 17.8187 10.429 17.4733 10.6322C17.128 10.8363 16.7574 10.9995 16.3706 11.1211C15.9828 11.2413 15.5797 11.3234 15.1677 11.3663C14.9216 11.3919 14.6727 11.404 14.4219 11.404C14.2532 11.404 14.084 11.3984 13.9144 11.3882C13.1635 11.3402 12.4089 11.1989 11.6679 10.9757L11.5714 10.9962C11.8893 11.1836 12.2258 11.342 12.5721 11.4781C12.7781 11.5592 12.9883 11.6296 13.2017 11.6939C13.4157 11.7545 13.6319 11.8109 13.8519 11.8542C14.2914 11.9419 14.7426 11.9899 15.1989 11.9922C15.6542 11.9899 16.1147 11.9428 16.5659 11.8379C17.0189 11.7373 17.4579 11.569 17.8737 11.3579C18.2866 11.1397 18.6721 10.8941 19.0314 10.6066C19.3922 10.3222 19.7212 10.0011 20.0242 9.65856C20.1742 9.48611 20.3164 9.30667 20.4534 9.12257C20.521 9.02935 20.5872 8.93521 20.6501 8.8378L20.7433 8.68958C20.7745 8.63692 20.802 8.59171 20.8375 8.52692L20.9997 8.23097L20.7624 8.00166C20.7359 7.97649 20.7214 7.9639 20.7023 7.94619L20.6482 7.89959C20.6123 7.86882 20.5765 7.83946 20.5406 7.81103C20.4688 7.7537 20.3961 7.69917 20.322 7.64697C20.1733 7.5435 20.0209 7.44796 19.8638 7.35987C19.5506 7.18276 19.2188 7.03828 18.8739 6.93061C18.4246 6.78753 17.9511 6.71436 17.4799 6.71436C17.4132 6.71436 17.3466 6.71902 17.2799 6.72228C17.2734 6.73999 17.2673 6.75677 17.2603 6.77588C17.1788 6.99447 17.0851 7.2014 16.9849 7.39669Z" fill="#961163"/>
</g>
<path d="M11.3937 10.8896C11.4272 10.9111 11.4622 10.9302 11.4962 10.9512L11.5321 10.933C11.486 10.9185 11.4398 10.905 11.3937 10.8896Z" fill="#040606"/>
<path d="M17.5366 3.75391C17.5207 3.52647 17.4937 3.29949 17.4597 3.07297C17.441 2.95925 17.4214 2.84646 17.3963 2.7332L17.3567 2.56262C17.3417 2.50343 17.3292 2.45216 17.3082 2.38132L17.2122 2.05786L16.8817 2.06299C16.8454 2.06345 16.8258 2.06485 16.8002 2.06625L16.7284 2.07091C16.6813 2.07417 16.6352 2.07883 16.5895 2.08396C16.4981 2.09422 16.4077 2.10633 16.3187 2.12218C16.1397 2.15341 15.964 2.19302 15.7906 2.2415C15.443 2.33657 15.1055 2.46801 14.7858 2.6344C14.2046 2.93269 13.6868 3.35868 13.2869 3.86903C13.292 3.87928 13.2971 3.88954 13.3018 3.90026C13.3689 4.04894 13.4216 4.17431 13.4673 4.29409C13.499 4.37659 13.5274 4.46281 13.5549 4.5495C13.5903 4.50522 13.6262 4.46095 13.6639 4.41853C14.0694 3.95339 14.5765 3.59591 15.1335 3.34936C15.4127 3.22678 15.7044 3.1317 16.0022 3.06225C16.1509 3.02776 16.3015 3.00073 16.452 2.98116C16.4762 2.97836 16.5005 2.97603 16.5252 2.97323L16.5634 3.2072C16.5909 3.40855 16.6128 3.61129 16.6249 3.81497C16.6557 4.22232 16.6492 4.63153 16.6198 5.03795C16.5858 5.44204 16.5247 5.85078 16.4245 6.23763C16.3672 6.46274 16.2921 6.6832 16.2041 6.89899C16.1407 7.05512 16.0712 7.20939 15.9925 7.35994C15.9556 7.42938 15.9165 7.4979 15.8769 7.56641C15.7128 7.84932 15.5259 8.12151 15.3162 8.37971C15.0552 8.6999 14.7615 8.99866 14.4456 9.27737C13.8103 9.83247 13.0893 10.3093 12.3086 10.6989C12.7369 10.6071 13.1545 10.4603 13.5605 10.2855C13.7632 10.1979 13.9622 10.0995 14.1589 9.99513C14.3528 9.88747 14.5462 9.77514 14.7322 9.6507C15.1055 9.40321 15.4583 9.11937 15.7823 8.80011C16.1029 8.47805 16.3951 8.12057 16.6398 7.7286C16.6781 7.66895 16.7116 7.60603 16.747 7.5445C16.761 7.52073 16.7755 7.49743 16.789 7.47319C16.802 7.44896 16.8174 7.42612 16.8305 7.40188C16.946 7.18469 17.0463 6.95911 17.1325 6.72794C17.1409 6.7051 17.1483 6.68133 17.1567 6.65849C17.1651 6.63519 17.173 6.61235 17.1814 6.58905C17.1954 6.54897 17.2103 6.50935 17.2234 6.4688C17.3604 6.02416 17.4587 5.57906 17.5086 5.12277C17.5617 4.66788 17.5659 4.20973 17.5366 3.75391Z" fill="#D61362"/>
<path d="M11.5321 10.9329L11.4962 10.951C11.5209 10.9664 11.5461 10.9813 11.5717 10.9962L11.6682 10.9757C11.6225 10.9622 11.5773 10.9473 11.5321 10.9329Z" fill="#040606"/>
<mask id="mask2_280_33428" style="mask-type:luminance" maskUnits="userSpaceOnUse" x="7" y="0" width="7" height="10">
<path d="M7.2959 0.00756836H13.6196V9.50153H7.2959V0.00756836Z" fill="white"/>
</mask>
<g mask="url(#mask2_280_33428)">
<path d="M13.5684 5.39496L13.5577 5.21925C13.5549 5.1801 13.5488 5.13629 13.5428 5.09341L13.5344 5.03235C13.5236 4.97083 13.5111 4.90791 13.4957 4.84359C13.4794 4.77508 13.4603 4.7047 13.4379 4.63106C13.4081 4.53272 13.375 4.43578 13.3395 4.34303C13.2948 4.22557 13.2431 4.103 13.1769 3.95665C13.1606 3.92076 13.1438 3.88581 13.127 3.84992C13.106 3.80378 13.0851 3.75717 13.0627 3.71196C12.8889 3.36147 12.6819 3.00119 12.3929 2.54444C12.1753 2.20747 11.9273 1.84906 11.6351 1.45056C11.3429 1.06092 11.0805 0.728144 10.8097 0.403755L10.4797 0.00805664L10.1483 0.403755C9.88453 0.718822 9.62213 1.0516 9.32244 1.45056C9.04606 1.82575 8.79764 2.1837 8.56367 2.54444C8.27797 2.99607 8.07103 3.35588 7.89392 3.71149C7.87295 3.75437 7.85477 3.79679 7.83426 3.8392C7.82354 3.86297 7.81236 3.88627 7.80164 3.90958C7.73499 4.05453 7.67207 4.19947 7.61754 4.34256C7.56161 4.48891 7.5192 4.61987 7.48564 4.74572C7.47818 4.77415 7.47119 4.80211 7.4642 4.83008C7.44789 4.89859 7.43344 4.96664 7.42225 5.03468L7.41386 5.09341C7.4078 5.13629 7.40128 5.1801 7.39895 5.21925L7.38823 5.39636C7.38497 5.43597 7.38497 5.47419 7.3845 5.51241L7.38403 5.60656C7.38357 5.65177 7.38264 5.69651 7.3859 5.74172C7.39196 5.95239 7.41619 6.17191 7.46187 6.43571C7.54809 6.8864 7.6963 7.32078 7.90184 7.7258C8.10132 8.12243 8.35021 8.49669 8.6429 8.83926C8.78413 9.00332 8.93746 9.16458 9.09873 9.31838C9.12856 9.34588 9.16118 9.37525 9.1952 9.40554C8.78319 8.81875 8.47139 8.20679 8.26585 7.58039C8.202 7.3893 8.1484 7.18469 8.10645 6.97449C8.06171 6.74891 8.03468 6.54803 8.02396 6.36113C8.00858 6.1225 8.00811 5.92862 8.02256 5.75057L8.02862 5.69045C8.03514 5.61029 8.04213 5.53012 8.05239 5.44996L8.07476 5.30174C8.07942 5.27005 8.08548 5.24302 8.09154 5.21599C8.09527 5.20014 8.09853 5.18476 8.10179 5.16798C8.12836 5.06498 8.16285 4.95871 8.20852 4.8394C8.29708 4.60682 8.41919 4.35375 8.58138 4.06618C8.779 3.71709 9.00644 3.35728 9.25766 2.997C9.48697 2.66236 9.74098 2.3142 10.0118 1.96278C10.1469 1.7852 10.2858 1.6067 10.4261 1.43099L10.4797 1.36434L10.5328 1.43099C10.5631 1.46827 10.5925 1.50649 10.6223 1.54471L10.7398 1.69432C10.8097 1.7838 10.8801 1.87329 10.9486 1.96324C11.2399 2.3431 11.4864 2.68147 11.7022 2.9984C11.9567 3.36334 12.1841 3.72315 12.3776 4.06664C12.619 4.49403 12.7756 4.85338 12.8558 5.16425C12.86 5.18476 12.8637 5.20061 12.8669 5.21599C12.8735 5.24302 12.8795 5.27005 12.8842 5.30174L12.9061 5.44902C12.9196 5.5497 12.9289 5.65037 12.9364 5.75151C12.9508 5.92862 12.9504 6.1225 12.935 6.36113C12.907 6.76755 12.8255 7.17723 12.6931 7.58039C12.4885 8.204 12.1786 8.81456 11.7684 9.40041C11.8006 9.37105 11.8313 9.34309 11.8602 9.31699C12.0192 9.16504 12.1725 9.00332 12.3146 8.83833C12.6059 8.49716 12.8553 8.1229 13.0548 7.7258C13.2603 7.32032 13.4085 6.88593 13.4948 6.43431C13.5404 6.17144 13.5647 5.95239 13.5703 5.74498C13.5745 5.64291 13.574 5.53525 13.5684 5.39496Z" fill="#ED1583"/>
</g>
</svg>
