<svg width="7" height="10" viewBox="0 0 7 10" fill="none" xmlns="http://www.w3.org/2000/svg">
<mask id="mask0_280_33446" style="mask-type:luminance" maskUnits="userSpaceOnUse" x="0" y="0" width="7" height="10">
<path d="M0.295898 0.00756836H6.61961V9.50153H0.295898V0.00756836Z" fill="white"/>
</mask>
<g mask="url(#mask0_280_33446)">
<path d="M6.56839 5.39496L6.55767 5.21925C6.55488 5.1801 6.54882 5.13629 6.54276 5.09341L6.53437 5.03235C6.52365 4.97083 6.51106 4.90791 6.49568 4.84359C6.47937 4.77508 6.46026 4.7047 6.43789 4.63106C6.40806 4.53272 6.37497 4.43578 6.33955 4.34303C6.29481 4.22557 6.24307 4.103 6.17689 3.95665C6.16058 3.92076 6.1438 3.88581 6.12702 3.84992C6.10604 3.80378 6.08507 3.75717 6.0627 3.71196C5.88885 3.36147 5.68192 3.00119 5.39295 2.54444C5.17529 2.20747 4.92734 1.84906 4.63511 1.45056C4.34288 1.06092 4.08048 0.728144 3.80969 0.403755L3.47971 0.00805664L3.14833 0.403755C2.88453 0.718822 2.62213 1.0516 2.32244 1.45056C2.04606 1.82575 1.79764 2.1837 1.56367 2.54444C1.27797 2.99607 1.07103 3.35588 0.893921 3.71149C0.872948 3.75437 0.854771 3.79679 0.834263 3.8392C0.823543 3.86297 0.812358 3.88627 0.801638 3.90958C0.734989 4.05453 0.672069 4.19947 0.617538 4.34256C0.561609 4.48891 0.519196 4.61987 0.485639 4.74572C0.478181 4.77415 0.47119 4.80211 0.464199 4.83008C0.447887 4.89859 0.433438 4.96664 0.422252 5.03468L0.413863 5.09341C0.407804 5.13629 0.401279 5.1801 0.398949 5.21925L0.388229 5.39636C0.384966 5.43597 0.384966 5.47419 0.3845 5.51241L0.384034 5.60656C0.383568 5.65177 0.382636 5.69651 0.385898 5.74172C0.391958 5.95239 0.416193 6.17191 0.461869 6.43571C0.548093 6.8864 0.696305 7.32078 0.901844 7.7258C1.10132 8.12243 1.35021 8.49669 1.6429 8.83926C1.78413 9.00332 1.93746 9.16458 2.09873 9.31838C2.12856 9.34588 2.16118 9.37525 2.1952 9.40554C1.78319 8.81875 1.47139 8.20679 1.26585 7.58039C1.202 7.3893 1.1484 7.18469 1.10645 6.97449C1.06171 6.74891 1.03468 6.54803 1.02396 6.36113C1.00858 6.1225 1.00811 5.92862 1.02256 5.75057L1.02862 5.69045C1.03514 5.61029 1.04213 5.53012 1.05239 5.44996L1.07476 5.30174C1.07942 5.27005 1.08548 5.24302 1.09154 5.21599C1.09527 5.20014 1.09853 5.18476 1.10179 5.16798C1.12836 5.06498 1.16285 4.95871 1.20852 4.8394C1.29708 4.60682 1.41919 4.35375 1.58138 4.06618C1.779 3.71709 2.00644 3.35728 2.25766 2.997C2.48697 2.66236 2.74098 2.3142 3.01177 1.96278C3.14693 1.7852 3.28582 1.6067 3.42611 1.43099L3.47971 1.36434L3.53284 1.43099C3.56314 1.46827 3.5925 1.50649 3.62233 1.54471L3.73978 1.69432C3.80969 1.7838 3.88007 1.87329 3.94858 1.96324C4.23988 2.3431 4.48643 2.68147 4.70223 2.9984C4.9567 3.36334 5.18415 3.72315 5.37757 4.06664C5.619 4.49403 5.7756 4.85338 5.85576 5.16425C5.85996 5.18476 5.86369 5.20061 5.86695 5.21599C5.87347 5.24302 5.87953 5.27005 5.88419 5.30174L5.9061 5.44902C5.91961 5.5497 5.92894 5.65037 5.93639 5.75151C5.95084 5.92862 5.95038 6.1225 5.935 6.36113C5.90703 6.76755 5.82547 7.17723 5.6931 7.58039C5.48849 8.204 5.17855 8.81456 4.76841 9.40041C4.80057 9.37105 4.83133 9.34309 4.86022 9.31699C5.01916 9.16504 5.1725 9.00332 5.31465 8.83833C5.60595 8.49716 5.8553 8.1229 6.05478 7.7258C6.26032 7.32032 6.40853 6.88593 6.49475 6.43431C6.54043 6.17144 6.56466 5.95239 6.57026 5.74498C6.57445 5.64291 6.57399 5.53525 6.56839 5.39496Z" fill="#ED1583"/>
</g>
</svg>
