<svg width="147" height="3129" viewBox="0 0 147 3129" fill="none" xmlns="http://www.w3.org/2000/svg">
<path d="M29.0002 33.5C29.0002 33.5 107.046 118.561 118.5 187C134.499 282.595 41.6571 323.462 33.0002 420C21.4977 548.271 110.893 609.939 118.5 738.5C128.374 905.368 -2.26359 993.684 31.0002 1157.5C48.0767 1241.6 118.356 1273.69 117.5 1359.5C116.634 1446.26 28.4831 1474.81 25.0002 1561.5C21.1793 1656.61 102.061 1693.08 117.5 1787C142.99 1942.07 6.40741 2024.79 31.0002 2180C45.6911 2272.72 126.791 2309.91 119.5 2403.5C113.39 2481.94 39.0247 2506.23 31.0002 2584.5C20.7936 2684.06 107.409 2725.65 119.5 2825C133.975 2943.93 71.5002 3128 71.5002 3128" stroke="#ACDE2B" stroke-dasharray="2 2"/>
<circle cx="28" cy="28" r="28" fill="#CBEA7B"/>
<path d="M26.964 36V21.696H24.96L25.644 19.2H29.46V36H26.964Z" fill="#262626"/>
<circle cx="28" cy="418" r="28" fill="#CBEA7B"/>
<path d="M28.048 426.312C27.032 426.312 26.12 426.076 25.312 425.604C24.512 425.132 23.88 424.5 23.416 423.708C22.952 422.916 22.72 422.036 22.72 421.068H25.216C25.216 421.572 25.336 422.032 25.576 422.448C25.816 422.864 26.148 423.196 26.572 423.444C26.996 423.692 27.488 423.816 28.048 423.816C28.552 423.816 29.02 423.692 29.452 423.444C29.884 423.196 30.232 422.864 30.496 422.448C30.76 422.032 30.892 421.572 30.892 421.068C30.892 420.428 30.724 419.892 30.388 419.46C30.052 419.028 29.584 418.708 28.984 418.5C28.392 418.284 27.708 418.176 26.932 418.176V416.208C27.988 416.208 28.832 416 29.464 415.584C30.096 415.168 30.412 414.548 30.412 413.724C30.412 413.292 30.296 412.9 30.064 412.548C29.84 412.188 29.54 411.904 29.164 411.696C28.796 411.48 28.4 411.372 27.976 411.372C27.536 411.372 27.112 411.48 26.704 411.696C26.304 411.904 25.976 412.188 25.72 412.548C25.464 412.9 25.336 413.292 25.336 413.724H22.84C22.84 413.06 22.976 412.436 23.248 411.852C23.528 411.26 23.904 410.744 24.376 410.304C24.856 409.856 25.4 409.508 26.008 409.26C26.624 409.004 27.268 408.876 27.94 408.876C28.82 408.876 29.636 409.096 30.388 409.536C31.148 409.968 31.756 410.552 32.212 411.288C32.676 412.016 32.908 412.828 32.908 413.724C32.908 414.436 32.732 415.112 32.38 415.752C32.036 416.384 31.556 416.832 30.94 417.096C31.476 417.288 31.924 417.592 32.284 418.008C32.652 418.416 32.928 418.888 33.112 419.424C33.296 419.952 33.388 420.5 33.388 421.068C33.388 422.028 33.144 422.908 32.656 423.708C32.168 424.5 31.516 425.132 30.7 425.604C29.892 426.076 29.008 426.312 28.048 426.312Z" fill="#262626"/>
<circle cx="28" cy="1158" r="28" fill="#CBEA7B"/>
<path d="M27.516 1166.31C26.452 1166.31 25.488 1166.06 24.624 1165.54C23.768 1165.02 23.088 1164.34 22.584 1163.48C22.088 1162.62 21.84 1161.67 21.84 1160.65H24.336C24.336 1161.23 24.48 1161.76 24.768 1162.24C25.056 1162.72 25.44 1163.11 25.92 1163.4C26.4 1163.68 26.932 1163.82 27.516 1163.82C28.092 1163.82 28.62 1163.68 29.1 1163.4C29.58 1163.11 29.964 1162.72 30.252 1162.24C30.54 1161.76 30.684 1161.23 30.684 1160.65C30.684 1160.06 30.552 1159.53 30.288 1159.05C30.024 1158.56 29.628 1158.18 29.1 1157.89C28.572 1157.59 27.9 1157.44 27.084 1157.44H22.848L24.552 1149.2H32.676V1151.7H26.58L25.92 1154.95L27.372 1154.97C28.516 1155 29.52 1155.26 30.384 1155.76C31.256 1156.26 31.94 1156.93 32.436 1157.78C32.932 1158.62 33.18 1159.58 33.18 1160.65C33.18 1161.42 33.032 1162.16 32.736 1162.84C32.44 1163.52 32.032 1164.12 31.512 1164.64C31 1165.16 30.4 1165.57 29.712 1165.87C29.032 1166.16 28.3 1166.31 27.516 1166.31Z" fill="#262626"/>
<circle cx="28" cy="1562" r="28" fill="#CBEA7B"/>
<path d="M22.452 1570L30.696 1555.7H21.48V1553.2H33.588V1555.7L25.32 1570H22.452Z" fill="#262626"/>
<circle cx="28" cy="2182" r="28" fill="#CBEA7B"/>
<path d="M24.732 2190L28.128 2184.12C27.32 2184.27 26.532 2184.24 25.764 2184.02C25.004 2183.8 24.32 2183.44 23.712 2182.93C23.104 2182.42 22.62 2181.8 22.26 2181.07C21.9 2180.34 21.72 2179.54 21.72 2178.67C21.72 2177.88 21.868 2177.14 22.164 2176.44C22.468 2175.74 22.884 2175.12 23.412 2174.59C23.94 2174.06 24.552 2173.64 25.248 2173.34C25.952 2173.04 26.704 2172.89 27.504 2172.89C28.552 2172.89 29.512 2173.15 30.384 2173.67C31.256 2174.19 31.952 2174.89 32.472 2175.77C32.992 2176.64 33.252 2177.61 33.252 2178.67C33.252 2179.22 33.184 2179.73 33.048 2180.18C32.92 2180.64 32.716 2181.12 32.436 2181.62L27.624 2190H24.732ZM27.48 2181.95C28.12 2181.95 28.688 2181.8 29.184 2181.49C29.68 2181.18 30.068 2180.78 30.348 2180.28C30.636 2179.78 30.78 2179.24 30.78 2178.66C30.78 2178.04 30.628 2177.48 30.324 2176.98C30.02 2176.48 29.616 2176.09 29.112 2175.8C28.616 2175.52 28.08 2175.37 27.504 2175.37C26.864 2175.37 26.296 2175.53 25.8 2175.84C25.304 2176.15 24.912 2176.56 24.624 2177.06C24.336 2177.56 24.192 2178.09 24.192 2178.66C24.192 2179.26 24.336 2179.81 24.624 2180.32C24.92 2180.81 25.316 2181.21 25.812 2181.5C26.308 2181.8 26.864 2181.95 27.48 2181.95Z" fill="#262626"/>
<circle cx="28" cy="2586" r="28" fill="#CBEA7B"/>
<path d="M22.964 2594V2579.7H20.96L21.644 2577.2H25.46V2594H22.964ZM30.3468 2594V2579.7H28.3428L29.0268 2577.2H32.8428V2594H30.3468Z" fill="#262626"/>
<circle cx="119" cy="182" r="28" fill="#CBEA7B"/>
<path d="M112.96 190V187.78C113.528 187.308 114.18 186.76 114.916 186.136C115.652 185.504 116.4 184.836 117.16 184.132C117.92 183.42 118.62 182.712 119.26 182.008C119.9 181.296 120.416 180.624 120.808 179.992C121.208 179.352 121.408 178.796 121.408 178.324C121.408 177.788 121.276 177.3 121.012 176.86C120.756 176.412 120.408 176.056 119.968 175.792C119.528 175.52 119.04 175.384 118.504 175.384C117.968 175.384 117.476 175.52 117.028 175.792C116.588 176.056 116.232 176.412 115.96 176.86C115.696 177.3 115.564 177.788 115.564 178.324H113.068C113.068 177.308 113.316 176.392 113.812 175.576C114.316 174.752 114.976 174.1 115.792 173.62C116.616 173.132 117.52 172.888 118.504 172.888C119.496 172.888 120.4 173.132 121.216 173.62C122.032 174.108 122.684 174.764 123.172 175.588C123.66 176.404 123.904 177.316 123.904 178.324C123.904 178.884 123.788 179.46 123.556 180.052C123.324 180.644 123 181.248 122.584 181.864C122.176 182.48 121.7 183.104 121.156 183.736C120.612 184.368 120.028 185 119.404 185.632C118.78 186.264 118.144 186.888 117.496 187.504H124.048V190H112.96Z" fill="#262626"/>
<circle cx="119" cy="1360" r="28" fill="#CBEA7B"/>
<path d="M118.468 1368.31C117.396 1368.31 116.416 1368.05 115.528 1367.52C114.64 1366.98 113.928 1366.27 113.392 1365.38C112.864 1364.49 112.6 1363.5 112.6 1362.42C112.6 1361.84 112.668 1361.32 112.804 1360.86C112.94 1360.4 113.148 1359.91 113.428 1359.4L118.156 1351.2H121.06L117.784 1356.86C118.448 1356.74 119.096 1356.73 119.728 1356.85C120.368 1356.96 120.968 1357.18 121.528 1357.51C122.088 1357.83 122.58 1358.24 123.004 1358.74C123.436 1359.22 123.772 1359.78 124.012 1360.4C124.252 1361.03 124.372 1361.7 124.372 1362.42C124.372 1363.23 124.216 1363.99 123.904 1364.7C123.6 1365.41 123.176 1366.04 122.632 1366.58C122.096 1367.12 121.468 1367.54 120.748 1367.86C120.036 1368.16 119.276 1368.31 118.468 1368.31ZM118.468 1365.82C119.124 1365.82 119.708 1365.66 120.22 1365.34C120.732 1365.02 121.136 1364.6 121.432 1364.08C121.728 1363.56 121.876 1363 121.876 1362.42C121.876 1361.8 121.724 1361.24 121.42 1360.73C121.124 1360.22 120.72 1359.81 120.208 1359.5C119.696 1359.19 119.124 1359.04 118.492 1359.04C117.836 1359.04 117.252 1359.2 116.74 1359.52C116.228 1359.84 115.824 1360.25 115.528 1360.76C115.24 1361.28 115.096 1361.83 115.096 1362.42C115.096 1363.07 115.252 1363.65 115.564 1364.16C115.884 1364.67 116.3 1365.08 116.812 1365.37C117.324 1365.67 117.876 1365.82 118.468 1365.82Z" fill="#262626"/>
<circle cx="119" cy="1788" r="28" fill="#CBEA7B"/>
<path d="M118.456 1796.31C117.44 1796.31 116.516 1796.08 115.684 1795.62C114.852 1795.15 114.188 1794.53 113.692 1793.76C113.204 1792.97 112.96 1792.1 112.96 1791.14C112.96 1790.33 113.16 1789.58 113.56 1788.88C113.96 1788.19 114.492 1787.61 115.156 1787.16C114.62 1786.76 114.184 1786.25 113.848 1785.64C113.512 1785.04 113.344 1784.38 113.344 1783.68C113.344 1782.8 113.572 1782 114.028 1781.28C114.492 1780.55 115.112 1779.97 115.888 1779.54C116.664 1779.1 117.52 1778.89 118.456 1778.89C119.392 1778.89 120.248 1779.1 121.024 1779.54C121.8 1779.97 122.416 1780.55 122.872 1781.28C123.336 1782 123.568 1782.8 123.568 1783.68C123.568 1784.38 123.4 1785.04 123.064 1785.64C122.736 1786.25 122.3 1786.76 121.756 1787.16C122.436 1787.61 122.972 1788.19 123.364 1788.88C123.764 1789.58 123.964 1790.33 123.964 1791.14C123.964 1792.09 123.716 1792.96 123.22 1793.74C122.724 1794.53 122.06 1795.15 121.228 1795.62C120.396 1796.08 119.472 1796.31 118.456 1796.31ZM118.456 1793.82C118.984 1793.82 119.464 1793.7 119.896 1793.46C120.328 1793.22 120.672 1792.9 120.928 1792.5C121.192 1792.09 121.324 1791.64 121.324 1791.14C121.324 1790.65 121.192 1790.21 120.928 1789.81C120.672 1789.4 120.328 1789.08 119.896 1788.84C119.464 1788.6 118.984 1788.48 118.456 1788.48C117.936 1788.48 117.456 1788.6 117.016 1788.84C116.584 1789.08 116.236 1789.4 115.972 1789.81C115.716 1790.21 115.588 1790.65 115.588 1791.14C115.588 1791.64 115.716 1792.09 115.972 1792.5C116.236 1792.9 116.584 1793.22 117.016 1793.46C117.456 1793.7 117.936 1793.82 118.456 1793.82ZM118.456 1785.98C118.912 1785.98 119.324 1785.88 119.692 1785.67C120.068 1785.46 120.368 1785.18 120.592 1784.84C120.816 1784.49 120.928 1784.1 120.928 1783.68C120.928 1783.25 120.816 1782.87 120.592 1782.52C120.368 1782.18 120.068 1781.9 119.692 1781.7C119.324 1781.49 118.912 1781.38 118.456 1781.38C118 1781.38 117.584 1781.49 117.208 1781.7C116.84 1781.9 116.544 1782.18 116.32 1782.52C116.096 1782.87 115.984 1783.25 115.984 1783.68C115.984 1784.1 116.096 1784.49 116.32 1784.84C116.544 1785.18 116.84 1785.46 117.208 1785.67C117.584 1785.88 118 1785.98 118.456 1785.98Z" fill="#262626"/>
<circle cx="119" cy="2408" r="28" fill="#CBEA7B"/>
<path d="M110.964 2416V2401.7H108.96L109.644 2399.2H113.46V2416H110.964ZM122.619 2416.31C121.627 2416.31 120.731 2416.09 119.931 2415.64C119.139 2415.18 118.455 2414.56 117.879 2413.76C117.303 2412.96 116.863 2412.03 116.559 2410.98C116.255 2409.93 116.103 2408.8 116.103 2407.6C116.103 2406.4 116.255 2405.27 116.559 2404.22C116.863 2403.16 117.303 2402.24 117.879 2401.44C118.455 2400.64 119.139 2400.02 119.931 2399.57C120.731 2399.12 121.627 2398.89 122.619 2398.89C123.595 2398.89 124.483 2399.12 125.283 2399.57C126.083 2400.02 126.763 2400.64 127.323 2401.44C127.891 2402.24 128.327 2403.16 128.631 2404.22C128.935 2405.27 129.087 2406.4 129.087 2407.6C129.087 2408.8 128.935 2409.93 128.631 2410.98C128.327 2412.03 127.891 2412.96 127.323 2413.76C126.763 2414.56 126.083 2415.18 125.283 2415.64C124.483 2416.09 123.595 2416.31 122.619 2416.31ZM122.619 2413.82C123.539 2413.82 124.303 2413.53 124.911 2412.95C125.527 2412.37 125.987 2411.6 126.291 2410.66C126.595 2409.72 126.747 2408.7 126.747 2407.6C126.747 2406.45 126.587 2405.4 126.267 2404.47C125.955 2403.52 125.491 2402.78 124.875 2402.22C124.267 2401.66 123.515 2401.38 122.619 2401.38C121.907 2401.38 121.287 2401.55 120.759 2401.89C120.239 2402.22 119.807 2402.68 119.463 2403.27C119.127 2403.85 118.871 2404.52 118.695 2405.26C118.527 2406 118.443 2406.78 118.443 2407.6C118.443 2408.7 118.599 2409.72 118.911 2410.66C119.223 2411.6 119.687 2412.37 120.303 2412.95C120.927 2413.53 121.699 2413.82 122.619 2413.82Z" fill="#262626"/>
<circle cx="119" cy="2824" r="28" fill="#CBEA7B"/>
<path d="M111.964 2832V2817.7H109.96L110.644 2815.2H114.46V2832H111.964ZM117.343 2832V2829.78C117.911 2829.31 118.563 2828.76 119.299 2828.14C120.035 2827.5 120.783 2826.84 121.543 2826.13C122.303 2825.42 123.003 2824.71 123.643 2824.01C124.283 2823.3 124.799 2822.62 125.191 2821.99C125.591 2821.35 125.791 2820.8 125.791 2820.32C125.791 2819.79 125.659 2819.3 125.395 2818.86C125.139 2818.41 124.791 2818.06 124.351 2817.79C123.911 2817.52 123.423 2817.38 122.887 2817.38C122.351 2817.38 121.859 2817.52 121.411 2817.79C120.971 2818.06 120.615 2818.41 120.343 2818.86C120.079 2819.3 119.947 2819.79 119.947 2820.32H117.451C117.451 2819.31 117.699 2818.39 118.195 2817.58C118.699 2816.75 119.359 2816.1 120.175 2815.62C120.999 2815.13 121.903 2814.89 122.887 2814.89C123.879 2814.89 124.783 2815.13 125.599 2815.62C126.415 2816.11 127.067 2816.76 127.555 2817.59C128.043 2818.4 128.287 2819.32 128.287 2820.32C128.287 2820.88 128.171 2821.46 127.939 2822.05C127.707 2822.64 127.383 2823.25 126.967 2823.86C126.559 2824.48 126.083 2825.1 125.539 2825.74C124.995 2826.37 124.411 2827 123.787 2827.63C123.163 2828.26 122.527 2828.89 121.879 2829.5H128.431V2832H117.343Z" fill="#262626"/>
</svg>
