<svg width="19" height="18" viewBox="0 0 19 18" fill="none" xmlns="http://www.w3.org/2000/svg">
<path d="M18.4323 8.11972L1.71844 0.405617C1.45231 0.284763 1.13474 0.356761 0.949603 0.585613C0.85901 0.696464 0.808248 0.834517 0.805451 0.977651C0.802653 1.12078 0.847982 1.26072 0.934175 1.37502L6.43047 8.70342L0.934175 16.0318C0.756751 16.2671 0.763179 16.5937 0.948317 16.8212C1.07303 16.9768 1.25945 17.0604 1.44845 17.0604C1.53973 17.0604 1.63102 17.0411 1.71716 17.0012L18.431 9.28712C18.6599 9.18169 18.8052 8.95413 18.8052 8.70342C18.8052 8.45271 18.6599 8.22514 18.4323 8.11972Z" fill="#808080" fill-opacity="0.55"/>
</svg>
