<svg width="18" height="20" viewBox="0 0 18 20" fill="none" xmlns="http://www.w3.org/2000/svg">
<path d="M17.7468 9.42238C17.7492 9.36394 17.7351 9.30601 17.7061 9.25518C17.6772 9.20436 17.6345 9.16267 17.5831 9.13488C17.5381 9.1105 16.5684 8.60394 15.0228 8.7505C15.6306 7.22769 15.7196 5.78207 15.2771 4.44738C15.2583 4.3904 15.2234 4.34006 15.1767 4.30238C15.13 4.26469 15.0734 4.24126 15.0137 4.23488C14.9187 4.22425 12.9043 4.03394 11.3325 5.53269C11.1012 2.74675 9.32558 1.10394 9.22839 1.01613C9.16978 0.9632 9.09331 0.934421 9.01435 0.935581C8.93538 0.93674 8.85979 0.967752 8.80276 1.02238C7.08339 2.67082 6.52808 4.28675 6.44464 5.58144C4.91558 4.09832 3.08526 4.22707 2.99839 4.23394C2.93736 4.23904 2.87917 4.26196 2.83106 4.29985C2.78295 4.33774 2.74703 4.38893 2.72776 4.44707C2.28526 5.78238 2.37464 7.22832 2.98214 8.75019C1.4362 8.60394 0.466514 9.1105 0.421826 9.13457C0.370312 9.16238 0.327648 9.20411 0.298697 9.255C0.269745 9.30589 0.25567 9.36388 0.258077 9.42238C0.428077 13.6621 3.83558 14.7183 4.80433 14.9333V15.8705C3.98714 15.9611 3.3887 16.7008 3.45276 17.5302C3.45276 18.3739 4.13933 19.0608 4.98339 19.0608H13.0371C14.9718 19.0346 15.1178 16.1139 13.2162 15.8702V14.9296C14.2056 14.7071 17.5774 13.6393 17.7468 9.42238ZM17.1109 9.60988C16.8678 13.1021 14.1943 14.0589 13.2162 14.2933C13.1962 13.7761 13.2803 12.2943 13.1278 11.8152C13.4075 11.5027 14.1396 10.6246 14.7275 9.41988C15.9015 9.23332 16.7603 9.47644 17.1109 9.60988ZM11.4359 12.5436C11.353 12.5436 11.2735 12.5766 11.2149 12.6352C11.1563 12.6938 11.1234 12.7732 11.1234 12.8561V15.8524H6.91495V12.8561C6.90901 12.4458 6.2962 12.4452 6.28995 12.8561V15.8524H5.42933V12.5139C5.42933 11.2561 6.45276 10.2327 7.71058 10.2327C8.46495 10.2374 9.55558 10.2358 10.3099 10.2327C11.5678 10.2327 12.5912 11.2561 12.5912 12.5139V15.8521H11.7484V12.8558C11.7484 12.7729 11.7155 12.6935 11.6569 12.6348C11.5983 12.5762 11.5188 12.5436 11.4359 12.5436ZM9.16495 9.60769C8.33995 9.69519 7.57401 9.04707 7.58089 8.19738C7.64089 6.31332 10.3806 6.31363 10.4403 8.19738C10.4403 8.93082 9.87995 9.52988 9.16495 9.60769ZM14.7462 4.84582C15.4253 6.85675 14.1799 9.64832 12.8743 11.1483C12.6405 10.7109 12.2987 10.3406 11.8813 10.0725C11.464 9.80453 10.985 9.64773 10.49 9.61707C10.8465 9.24828 11.0511 8.75867 11.0628 8.24582C11.2387 7.60769 11.3271 7.00582 11.3509 6.44144C12.5068 4.95144 14.1703 4.83519 14.7462 4.84582ZM9.01683 1.68957C9.5762 2.298 11.0265 4.183 10.6743 6.99894C10.4843 6.73534 10.2343 6.52064 9.94508 6.37248C9.65584 6.22433 9.33555 6.14697 9.01058 6.14675C8.64441 6.14694 8.28493 6.24492 7.96931 6.43055C7.65368 6.61619 7.39337 6.88276 7.21526 7.20269C6.91526 6.07769 6.79808 3.95238 9.01683 1.68957ZM3.25745 4.853C3.80745 4.8655 5.32714 5.04613 6.46589 6.54332C6.56401 7.4455 6.85433 8.07769 6.96026 8.28363C6.98075 8.7829 7.1838 9.25728 7.53089 9.61675C7.03367 9.64776 6.55277 9.80602 6.13431 10.0763C5.71585 10.3467 5.37388 10.72 5.1412 11.1605C3.83183 9.6555 2.58183 6.87832 3.25714 4.853H3.25745ZM0.894327 9.60925C1.24589 9.47488 2.1037 9.233 3.27776 9.41957C3.87558 10.6443 4.62089 11.5296 4.88964 11.8289C4.74308 12.2924 4.82401 13.7993 4.80464 14.2977C3.84026 14.0733 1.13901 13.1324 0.894327 9.60925ZM4.07745 17.5302C4.01401 16.9118 4.49495 16.4171 5.11651 16.4774H9.72901C9.66359 16.6714 9.53904 16.8401 9.37286 16.9597C9.20668 17.0793 9.0072 17.1438 8.80245 17.1443C7.95651 17.063 7.16058 17.6108 7.00589 18.4358H4.9837C4.74359 18.4356 4.51339 18.3401 4.3436 18.1703C4.17382 18.0005 4.07832 17.7703 4.07808 17.5302H4.07745ZM13.9424 17.3833C14.0024 17.9296 13.6025 18.4396 13.0371 18.4358H7.65558C7.72102 18.242 7.84549 18.0734 8.01155 17.9539C8.1776 17.8344 8.37691 17.7698 8.58151 17.7693C9.42776 17.8505 10.2237 17.3027 10.3784 16.4774H12.9037C13.4462 16.4211 13.9468 16.8255 13.9428 17.383L13.9424 17.3833Z" fill="#CA4625"/>
</svg>
