<svg width="20" height="20" viewBox="0 0 20 20" fill="none" xmlns="http://www.w3.org/2000/svg">
<circle cx="10" cy="10" r="10" fill="#CA4625" fill-opacity="0.1"/>
<g clip-path="url(#clip0_1_10)">
<path d="M14.4877 15.4043H5.51235C5.3991 15.4043 5.30729 15.3125 5.30729 15.1993C5.30729 15.086 5.3991 14.9942 5.51235 14.9942H7.72319C7.55169 14.8899 7.39544 14.749 7.30636 14.5601C7.23507 14.6096 7.16252 14.6572 7.08878 14.7029C6.96892 14.777 6.8235 14.7807 6.6997 14.7129C6.63952 14.6799 6.58915 14.6315 6.55371 14.5728C6.51827 14.514 6.49901 14.4469 6.4979 14.3783C6.48805 13.7169 6.56811 13.5101 6.62919 13.4121C6.76715 13.1907 7.01584 13.1446 7.19456 13.1555C7.42573 12.9601 7.63519 12.7388 7.71434 12.6243C7.76049 12.5575 7.82747 12.4327 7.91064 12.2597C7.52254 12.3327 7.05119 12.3695 6.50304 12.3695H3.20589C3.09265 12.3695 3.00084 12.2777 3.00084 12.1645C3.00084 12.0512 3.09265 11.9594 3.20589 11.9594H4.22488C4.00588 11.8264 3.87945 11.6736 3.80963 11.5251C3.73825 11.5746 3.6656 11.6223 3.59175 11.6681C3.47197 11.7421 3.32649 11.7459 3.20269 11.678C3.14252 11.645 3.09215 11.5967 3.0567 11.5379C3.02125 11.4791 3.00199 11.412 3.00086 11.3434C2.99105 10.682 3.0711 10.4752 3.13215 10.3772C3.27011 10.1559 3.51875 10.1097 3.69753 10.1207C3.92872 9.92531 4.13815 9.70396 4.2173 9.58946C4.30594 9.46123 4.44005 9.09497 4.5478 8.80068C4.56756 8.74668 4.58711 8.69326 4.60633 8.64136C4.61568 8.61611 4.6299 8.59294 4.6482 8.57318C4.6665 8.55342 4.68851 8.53746 4.71298 8.52622C4.73745 8.51497 4.76389 8.50865 4.7908 8.50763C4.81771 8.5066 4.84456 8.51089 4.86982 8.52024C4.92082 8.53912 4.96223 8.57749 4.98494 8.6269C5.00766 8.67631 5.00981 8.73273 4.99093 8.78373C4.97188 8.83518 4.95249 8.88814 4.93289 8.94167C4.91862 8.98069 4.9044 9.01948 4.89029 9.05784L5.23304 9.22572C5.25071 9.1827 5.2681 9.13956 5.2852 9.09631C5.31724 9.01511 5.39716 8.96262 5.48449 8.96674C5.52705 8.96852 5.568 8.9835 5.60165 9.00961C5.63531 9.03572 5.66 9.07166 5.67229 9.11244C5.70606 9.22449 5.87445 9.79528 5.87445 10.0303C5.87445 10.2702 5.81121 10.5157 5.75699 10.682C6.00347 10.7781 6.25656 10.8898 6.50298 11.0067C6.77166 10.8792 7.02049 10.7708 7.24892 10.6818C7.19456 10.5151 7.1316 10.2703 7.1316 10.0303C7.1316 9.79525 7.29999 9.22446 7.33375 9.11244C7.34604 9.07166 7.37073 9.03571 7.40439 9.0096C7.43804 8.98349 7.479 8.96851 7.52156 8.96674C7.56413 8.96487 7.60623 8.97636 7.64196 8.99959C7.67768 9.02282 7.70526 9.05664 7.72082 9.09631C7.73791 9.13957 7.7553 9.18272 7.77298 9.22574L8.11572 9.05784C8.10145 9.01905 8.08724 8.9802 8.0731 8.94165C8.01087 8.7717 7.95212 8.61121 7.9002 8.48681C7.87946 8.43736 7.84743 8.39345 7.80666 8.35862C7.76589 8.32379 7.71753 8.299 7.66545 8.28624L7.36186 8.21253C7.18827 8.5594 6.69735 8.78657 6.58394 8.83529C6.55836 8.84628 6.53082 8.85194 6.50298 8.85194C6.47515 8.85194 6.4476 8.84628 6.42203 8.83529C6.30862 8.78657 5.81769 8.55937 5.6441 8.21253L5.34054 8.28624C5.31437 8.29261 5.2872 8.29376 5.26059 8.28963C5.23398 8.28549 5.20844 8.27615 5.18544 8.26214C5.16244 8.24813 5.14243 8.22972 5.12654 8.20797C5.11066 8.18622 5.09923 8.16155 5.09289 8.13537C5.08653 8.1092 5.08539 8.08204 5.08953 8.05543C5.09367 8.02882 5.10301 8.00328 5.11702 7.98028C5.13103 7.95728 5.14943 7.93727 5.17118 7.92138C5.19292 7.90549 5.21758 7.89405 5.24375 7.88769L5.73969 7.76726C5.77446 7.75878 5.80815 7.74191 5.83532 7.7237C5.81921 7.71231 5.80326 7.70069 5.78748 7.68884C5.54095 7.50399 5.39377 7.2077 5.39377 6.89626V6.16925C5.39377 5.86724 5.51806 5.5721 5.73476 5.3595C5.94901 5.14933 6.22966 5.03699 6.52458 5.04232C7.0589 5.05255 7.48591 5.27742 7.50381 5.28697C7.53658 5.30447 7.56397 5.33054 7.58307 5.3624C7.60218 5.39426 7.61227 5.43071 7.61227 5.46785V6.89624C7.61227 7.2077 7.4651 7.50399 7.21857 7.68884C7.20278 7.70067 7.18683 7.71229 7.17072 7.72367C7.1979 7.74188 7.23156 7.75875 7.26633 7.76723L7.76226 7.88766C7.99389 7.94393 8.18695 8.10885 8.27873 8.32886C8.33412 8.4616 8.39441 8.62627 8.45822 8.8006C8.49327 8.89629 8.52895 8.99378 8.56449 9.08762C8.58259 9.13538 8.5822 9.18817 8.56342 9.23566C8.54464 9.28316 8.50881 9.32193 8.46295 9.3444L7.93519 9.60291C8.04048 9.83656 8.15015 10.0569 8.21951 10.1437C8.28081 10.2203 8.59998 10.5408 9.01507 10.8758L9.38291 10.7864C9.0771 10.56 8.8908 10.1969 8.8908 9.79724V9.18613C8.8908 8.57449 9.3884 8.07689 10 8.07689C10.6117 8.07689 11.1093 8.57449 11.1093 9.18613V9.71612C11.1525 9.66718 11.1876 9.62377 11.2113 9.58935C11.3173 9.43599 11.5331 8.97653 11.8033 8.32883C11.8951 8.10882 12.0882 7.9439 12.3198 7.88764L12.8799 7.75159C12.5741 7.52521 12.3878 7.16202 12.3878 6.7624V6.15129C12.3878 6.12159 12.389 6.0922 12.3913 6.06309C12.088 5.96622 11.8678 5.68168 11.8678 5.34668C11.8678 4.93211 12.2051 4.59481 12.6196 4.59481C12.7681 4.59452 12.9134 4.63829 13.037 4.72059C13.1606 4.80288 13.257 4.92 13.314 5.05711C13.4352 5.03729 13.5589 5.03729 13.6801 5.05711C13.7371 4.92 13.8335 4.80288 13.9571 4.72059C14.0807 4.63829 14.226 4.59452 14.3745 4.59481C14.789 4.59481 15.1263 4.93211 15.1263 5.34668C15.1263 5.68168 14.9061 5.96622 14.6028 6.06311C14.6051 6.0922 14.6063 6.12159 14.6063 6.15129V6.7624C14.6063 7.16204 14.42 7.52518 14.1142 7.75159L14.6743 7.88764C14.9059 7.9439 15.0989 8.10882 15.1907 8.32883C15.2459 8.46108 15.302 8.5929 15.3592 8.72429C15.37 8.74899 15.3759 8.7756 15.3765 8.80257C15.377 8.82955 15.3722 8.85638 15.3624 8.88151C15.3526 8.90664 15.3379 8.92958 15.3191 8.94901C15.3004 8.96845 15.2781 8.98401 15.2533 8.99478C15.2286 9.00556 15.202 9.01134 15.175 9.01181C15.148 9.01228 15.1212 9.00741 15.0961 8.9975C15.071 8.98758 15.0481 8.97281 15.0287 8.95403C15.0094 8.93525 14.9939 8.91283 14.9832 8.88806C14.9251 8.75473 14.8682 8.62095 14.8122 8.48672C14.7915 8.43727 14.7595 8.39337 14.7187 8.35853C14.6779 8.3237 14.6296 8.29891 14.5775 8.28615L14.4903 8.26499C14.3554 8.4838 14.0466 8.85189 13.497 8.85189C12.9477 8.85189 12.6385 8.48282 12.5039 8.26496L12.4166 8.28615C12.3645 8.29891 12.3162 8.3237 12.2754 8.35853C12.2346 8.39337 12.2026 8.43727 12.1819 8.48672C11.9803 8.96986 11.7068 9.59378 11.5487 9.82253C11.5172 9.86811 11.478 9.91675 11.4381 9.96301L11.6675 10.2648C11.724 10.2079 11.763 10.1656 11.7806 10.1436C11.8146 10.1012 11.864 10.0739 11.918 10.0679C11.9721 10.0619 12.0263 10.0776 12.0688 10.1116C12.1113 10.1455 12.1385 10.195 12.1445 10.249C12.1505 10.3031 12.1348 10.3573 12.1009 10.3998C12.0859 10.4182 12.0703 10.4363 12.0542 10.4538C12.1522 10.4782 12.2539 10.5077 12.3584 10.5413C12.4219 10.3314 12.4765 10.0885 12.4765 9.91052C12.4765 9.86718 12.472 9.81515 12.4648 9.75905C12.4336 9.78491 12.3955 9.80097 12.3553 9.80522C12.315 9.80947 12.2744 9.80171 12.2386 9.78292C12.2147 9.77043 12.1936 9.75336 12.1763 9.73269C12.1591 9.71202 12.146 9.68815 12.138 9.66245C12.13 9.63675 12.1271 9.60972 12.1295 9.5829C12.1319 9.55608 12.1396 9.53 12.1521 9.50615C12.2709 9.27919 12.3669 9.0833 12.3679 9.08136C12.3862 9.04394 12.4155 9.01299 12.4518 8.99264C12.4882 8.97229 12.5299 8.96349 12.5714 8.96742C12.6128 8.97135 12.6521 8.98782 12.684 9.01464C12.7159 9.04146 12.7389 9.07736 12.7499 9.11756C12.7639 9.16893 12.8866 9.6274 12.8866 9.91052C12.8866 10.1688 12.8084 10.4744 12.745 10.6796C12.8926 10.737 13.3989 10.9601 13.497 11.0066C13.768 10.878 14.0189 10.7688 14.249 10.6793C14.1858 10.4746 14.1075 10.1686 14.1075 9.91052C14.1075 9.62743 14.2302 9.16893 14.2442 9.11758C14.2552 9.07738 14.2782 9.04146 14.31 9.01463C14.3419 8.9878 14.3812 8.97131 14.4227 8.96738C14.4642 8.96345 14.5059 8.97225 14.5423 8.99261C14.5786 9.01297 14.6079 9.04393 14.6262 9.08136C14.7413 9.31651 15.0712 9.96572 15.2135 10.1437C15.2346 10.17 15.2733 10.2119 15.3262 10.2653L15.556 9.96296C15.5118 9.91175 15.4742 9.86415 15.4454 9.82253C15.4118 9.77395 15.3737 9.70934 15.3288 9.62508C15.3162 9.60131 15.3083 9.57527 15.3057 9.54847C15.3032 9.52167 15.3059 9.49461 15.3137 9.46886C15.3216 9.44311 15.3345 9.41915 15.3516 9.39837C15.3687 9.37759 15.3898 9.36038 15.4135 9.34774C15.4373 9.33508 15.4634 9.32723 15.4902 9.32464C15.517 9.32205 15.544 9.32477 15.5698 9.33264C15.5955 9.34051 15.6195 9.35337 15.6403 9.3705C15.661 9.38763 15.6782 9.40869 15.6909 9.43247C15.7277 9.50158 15.7586 9.55435 15.7827 9.58929C15.8619 9.70379 16.0713 9.92512 16.3025 10.1205C16.4814 10.1096 16.7299 10.1557 16.8679 10.3771C16.929 10.4751 17.009 10.6819 16.9992 11.3433C16.9981 11.4119 16.9788 11.479 16.9434 11.5378C16.9079 11.5966 16.8575 11.6449 16.7973 11.6779C16.6736 11.7457 16.5281 11.742 16.4083 11.668C16.3345 11.6222 16.2618 11.5745 16.1904 11.525C16.1206 11.6735 15.9941 11.8263 15.7752 11.9593H16.7941C16.9074 11.9593 16.9992 12.051 16.9992 12.1643C16.9992 12.2776 16.9074 12.3694 16.7941 12.3694H13.497C13.1233 12.3694 12.782 12.3521 12.4825 12.3181C12.4287 12.3118 12.3795 12.2843 12.3459 12.2418C12.3122 12.1993 12.2967 12.1452 12.3028 12.0914C12.309 12.0375 12.3362 11.9882 12.3785 11.9543C12.4209 11.9205 12.4749 11.9048 12.5288 11.9106L12.5579 11.9139L12.85 11.1652C12.3798 10.9661 11.9883 10.8413 11.7004 10.8009C11.6123 10.8815 11.5227 10.9606 11.4317 11.038C11.548 11.1197 11.6389 11.2326 11.6937 11.3637C11.9639 12.0113 12.1797 12.4708 12.2858 12.6242C12.3649 12.7387 12.5744 12.96 12.8055 13.1554C12.9844 13.1447 13.233 13.1907 13.3709 13.412C13.432 13.5099 13.5121 13.7167 13.5022 14.3781C13.5011 14.4468 13.4819 14.5139 13.4464 14.5727C13.411 14.6314 13.3606 14.6798 13.3004 14.7128C13.1766 14.7806 13.0311 14.7769 12.9114 14.7028C12.8376 14.6571 12.7651 14.6095 12.6938 14.56C12.6047 14.749 12.4484 14.8899 12.277 14.9941H14.4877C14.5416 14.995 14.5929 15.017 14.6306 15.0553C14.6684 15.0937 14.6895 15.1454 14.6895 15.1992C14.6895 15.253 14.6684 15.3047 14.6306 15.3431C14.5929 15.3814 14.5416 15.4034 14.4877 15.4043ZM10 14.9942C10.3217 14.9942 10.6141 14.981 10.8751 14.9553C10.7864 14.906 10.6973 14.8574 10.6079 14.8094C10.2963 14.6421 10.0018 14.4942 9.72803 14.367L9.4882 14.9819C9.64943 14.9901 9.8202 14.9942 10 14.9942ZM7.65022 14.3059C7.7282 14.635 8.2261 14.858 9.06097 14.9486L9.35292 14.2001C8.88318 14.0012 8.4919 13.8765 8.20412 13.836C8.04486 13.9818 7.8532 14.1468 7.65022 14.3059ZM10.4731 14.2754C10.5832 14.3319 10.6928 14.3895 10.8018 14.448C11.1393 14.6291 11.4004 14.7808 11.5202 14.8517C12.0043 14.735 12.2919 14.5495 12.3498 14.3058C12.1593 14.1562 11.9746 13.9994 11.7959 13.8359C11.4741 13.8812 11.0226 14.0314 10.4731 14.2754ZM7.14303 13.5652C7.08616 13.5652 7.01023 13.576 6.97726 13.629C6.94891 13.6744 6.9033 13.8735 6.90751 14.3326C7.4996 13.9581 8.16636 13.3251 8.28362 13.1786C8.42391 13.0032 8.74658 12.3695 8.8659 12.1264C8.86716 12.1191 8.86882 12.1118 8.87087 12.1046L9.02978 11.5481C9.03057 11.5451 9.03145 11.542 9.03237 11.539L9.10764 11.2754L8.91965 11.3211C8.86757 11.3338 8.8192 11.3586 8.77843 11.3935C8.73766 11.4283 8.70562 11.4722 8.68487 11.5216C8.48337 12.0047 8.20994 12.6286 8.05172 12.8575C7.93003 13.0335 7.64989 13.3162 7.38565 13.5296C7.36178 13.5489 7.3339 13.5626 7.30405 13.5696C7.2742 13.5767 7.24315 13.577 7.21318 13.5704C7.2131 13.5705 7.1827 13.5652 7.14303 13.5652ZM11.1342 12.1264C11.2536 12.3696 11.5762 13.0032 11.7165 13.1786C11.8337 13.3251 12.5005 13.9581 13.0926 14.3326C13.0968 13.8735 13.0512 13.6744 13.0228 13.629C12.9671 13.5395 12.7887 13.5701 12.7869 13.5705C12.7569 13.577 12.7259 13.5767 12.696 13.5696C12.6662 13.5626 12.6383 13.5489 12.6144 13.5297C12.3502 13.3162 12.0701 13.0335 11.9484 12.8575C11.7902 12.6286 11.5167 12.0048 11.3152 11.5217C11.2945 11.4722 11.2624 11.4283 11.2217 11.3935C11.1809 11.3586 11.1325 11.3339 11.0804 11.3211L10.8925 11.2754L10.9678 11.5391C10.9687 11.5421 10.9695 11.5451 10.9703 11.5481L11.1292 12.1046C11.1313 12.1119 11.133 12.1192 11.1342 12.1264ZM9.24793 13.7145C9.49643 13.8111 9.75157 13.9237 10 14.0416C10.271 13.9129 10.522 13.8037 10.7521 13.7142C10.6894 13.5107 10.6105 13.2033 10.6105 12.9455C10.6105 12.7091 10.6961 12.3505 10.7325 12.2086L10.6437 11.8978C10.4219 11.9976 10.2063 12.0481 10 12.0481C9.79384 12.0481 9.57815 11.9976 9.35639 11.8978L9.26761 12.2087C9.30403 12.3505 9.38955 12.7092 9.38955 12.9455C9.38955 13.2036 9.31035 13.5118 9.24793 13.7145ZM8.55736 13.4888C8.65521 13.5131 8.75686 13.5426 8.86128 13.5762C8.91311 13.4051 8.97947 13.1466 8.97947 12.9455C8.97947 12.9093 8.97638 12.867 8.97113 12.8214C8.84411 13.0601 8.70008 13.3144 8.60386 13.4348C8.58888 13.4532 8.57337 13.4712 8.55736 13.4888ZM11.029 12.8214C11.0237 12.867 11.0206 12.9093 11.0206 12.9455C11.0206 13.1465 11.0867 13.4041 11.1387 13.576C11.2458 13.5415 11.3472 13.5123 11.4426 13.4886C11.4266 13.4711 11.4111 13.4532 11.3962 13.4348C11.3 13.3144 11.156 13.0601 11.029 12.8214ZM12.9852 11.9472C13.1469 11.9553 13.3179 11.9594 13.4971 11.9594C13.8188 11.9594 14.1113 11.9462 14.3723 11.9205C14.2902 11.8749 14.2006 11.8258 14.105 11.7745C13.7933 11.6073 13.4987 11.4594 13.2251 11.3321L12.9852 11.9472ZM6.50301 11.9594C6.82484 11.9594 7.11713 11.9464 7.37848 11.9207C7.28964 11.8713 7.20044 11.8226 7.1109 11.7746C6.79914 11.6073 6.50459 11.4593 6.231 11.3321L5.99114 11.9471C6.15234 11.9552 6.32311 11.9594 6.50301 11.9594ZM4.15349 11.2708C4.23278 11.6004 4.72923 11.8233 5.56394 11.9139L5.85591 11.1652C5.38614 10.9663 4.99512 10.8417 4.70714 10.8011C4.54793 10.9469 4.35638 11.1119 4.15349 11.2708ZM13.9702 11.2406C14.0802 11.2971 14.1898 11.3547 14.2988 11.4132C14.6364 11.5943 14.8974 11.746 15.0172 11.8168C15.5008 11.7002 15.7879 11.5147 15.8466 11.2708C15.6437 11.1118 15.4521 10.9468 15.2929 10.8011C14.971 10.8464 14.5197 10.9966 13.9702 11.2406ZM6.97608 11.2406C7.08619 11.2971 7.19577 11.3547 7.30483 11.4132C7.64188 11.594 7.90277 11.7456 8.02279 11.8166C8.05768 11.8081 8.09161 11.7993 8.12458 11.79C8.18637 11.6485 8.24697 11.5064 8.30637 11.3638C8.36127 11.2327 8.4521 11.1198 8.56838 11.0381C8.47738 10.9607 8.38779 10.8816 8.29965 10.801C7.9776 10.8462 7.52626 10.9963 6.97608 11.2406ZM9.47048 11.4983C9.65875 11.5911 9.83638 11.638 10.0001 11.638C10.1638 11.638 10.3414 11.5911 10.5297 11.4983L10.4342 11.1641L10.3553 11.145C10.3169 11.1357 10.2821 11.1155 10.255 11.0869C10.2278 11.0583 10.2095 11.0225 10.2021 10.9838C10.064 11.0175 9.93612 11.0175 9.79797 10.9838C9.79063 11.0225 9.77229 11.0583 9.74513 11.0869C9.71798 11.1155 9.68317 11.1357 9.64486 11.145L9.5659 11.1641L9.47048 11.4983ZM3.64599 10.5304C3.58912 10.5304 3.5132 10.5412 3.48023 10.5942C3.45187 10.6396 3.4063 10.8387 3.41045 11.2978C4.0026 10.9233 4.66933 10.2903 4.78654 10.1438C4.85593 10.057 4.96559 9.83662 5.07085 9.60296L4.74315 9.44244C4.67829 9.60108 4.61544 9.73474 4.55466 9.82267C4.43297 9.99869 4.15286 10.2814 3.88859 10.4948C3.86472 10.5141 3.83684 10.5278 3.80699 10.5348C3.77714 10.5419 3.74609 10.5422 3.71612 10.5357C3.71607 10.5357 3.68566 10.5304 3.64599 10.5304ZM15.626 10.5488C15.8957 10.7913 16.2546 11.0859 16.5897 11.2978C16.5938 10.8387 16.5482 10.6397 16.5199 10.5942C16.4641 10.5047 16.2857 10.5353 16.2839 10.5357C16.254 10.5422 16.2229 10.5419 16.1931 10.5348C16.1632 10.5278 16.1353 10.5141 16.1115 10.4949C16.0196 10.4203 15.9306 10.3424 15.8445 10.2612L15.626 10.5488ZM10.6172 10.7865L10.985 10.8759C11.1259 10.7622 11.2557 10.6502 11.3681 10.5488L11.0608 10.1444C10.9868 10.4026 10.8313 10.6281 10.6172 10.7865ZM9.41555 8.80306C9.34061 8.91681 9.30075 9.05007 9.30091 9.18629V9.79741C9.30091 10.1342 9.49738 10.4314 9.80144 10.5548C9.87395 10.5842 9.94077 10.5991 10 10.5991C10.0593 10.5991 10.1261 10.5842 10.1987 10.5547C10.5027 10.4314 10.6992 10.1342 10.6992 9.79741V9.49051C10.0437 9.42432 9.62578 9.05197 9.41555 8.80306ZM5.0603 10.454C5.16015 10.4788 5.26407 10.509 5.3707 10.5435C5.41406 10.4084 5.46434 10.2125 5.46434 10.0303C5.46434 9.98477 5.45075 9.903 5.42981 9.80509C5.32367 10.0383 5.20173 10.2813 5.10683 10.3999C5.09187 10.4184 5.07635 10.4364 5.0603 10.454ZM7.57627 9.80512C7.5553 9.90303 7.54174 9.9848 7.54174 10.0304C7.54174 10.2126 7.59177 10.408 7.63521 10.5433C7.74477 10.5078 7.84831 10.478 7.94572 10.4538C7.92968 10.4363 7.91417 10.4184 7.89921 10.3999C7.80434 10.2813 7.6824 10.0383 7.57627 9.80512ZM14.526 9.78664C14.5208 9.83224 14.5176 9.87448 14.5176 9.91065C14.5176 10.0883 14.5722 10.3313 14.6357 10.5412C14.7428 10.5067 14.8441 10.4775 14.9396 10.4539C14.9236 10.4363 14.9082 10.4184 14.8933 10.3999C14.797 10.2796 14.653 10.0253 14.526 9.78664ZM9.73172 8.54067C9.88939 8.72489 10.205 9.00923 10.6905 9.07613C10.6375 8.74277 10.3481 8.48713 10 8.48713C9.90503 8.48713 9.81437 8.50619 9.73172 8.54067ZM12.9316 8.16123C13.0418 8.29509 13.2248 8.44191 13.4971 8.44191C13.7698 8.44191 13.9526 8.29531 14.0628 8.16129L13.8523 8.11016C13.8139 8.10086 13.7791 8.08071 13.752 8.05212C13.7248 8.02354 13.7065 7.98773 13.6992 7.94899C13.5609 7.98267 13.4331 7.98267 13.295 7.94899C13.2876 7.98773 13.2693 8.02353 13.2421 8.05212C13.215 8.0807 13.1802 8.10085 13.1419 8.11016L12.9316 8.16123ZM6.04073 8.07992C6.1297 8.1997 6.32806 8.33345 6.50304 8.42078C6.67793 8.33354 6.87635 8.19973 6.96534 8.07992C6.89786 8.03842 6.83684 7.98571 6.79052 7.92435C6.69182 7.9576 6.5958 7.97433 6.50304 7.97433C6.41027 7.97433 6.31428 7.9576 6.21555 7.92435C6.16921 7.98571 6.10818 8.03845 6.04073 8.07992ZM12.7979 6.45403V6.76257C12.7979 7.09932 12.9944 7.3966 13.2985 7.51993C13.371 7.54932 13.4378 7.56422 13.4971 7.56422C13.5564 7.56422 13.6232 7.54932 13.6957 7.5199C13.9997 7.3966 14.1962 7.09932 14.1962 6.76257V6.45403C13.8812 6.41758 13.6351 6.30494 13.4971 6.22727C13.359 6.30491 13.1129 6.41761 12.7979 6.45403ZM6.02198 5.65232C5.88339 5.78828 5.80388 5.97672 5.80388 6.1693V6.89632C5.80388 7.07934 5.88973 7.25298 6.03352 7.36078C6.21096 7.49388 6.37328 7.5642 6.50301 7.5642C6.63274 7.5642 6.79509 7.49388 6.9725 7.36081C7.11631 7.25298 7.20216 7.07934 7.20216 6.89632V6.42046C7.11509 6.38464 7.02643 6.35283 6.93644 6.32515C6.80828 6.28555 6.67799 6.25323 6.54618 6.22833C6.4349 6.20728 6.36177 6.10002 6.38282 5.98875C6.40387 5.87747 6.5111 5.80428 6.62241 5.82536C6.76985 5.85325 6.91632 5.88961 7.05775 5.93338C7.11005 5.94957 7.15828 5.96573 7.20216 5.98131V5.60007C7.06368 5.54372 6.80695 5.45801 6.51673 5.45246C6.29771 5.44841 6.14971 5.52702 6.02198 5.65232ZM13.497 5.45232C13.1498 5.45232 12.8609 5.70675 12.807 6.03892C13.1471 5.98547 13.3723 5.82268 13.3749 5.82077C13.4476 5.76734 13.5477 5.76712 13.62 5.82134C13.6219 5.82276 13.847 5.98538 14.1871 6.03889C14.1332 5.70675 13.8443 5.45232 13.497 5.45232ZM14.0658 5.19939C14.2509 5.31047 14.3999 5.47282 14.4947 5.66681C14.624 5.61806 14.7163 5.49303 14.7163 5.34687C14.7163 5.15841 14.563 5.00511 14.3745 5.00511C14.3099 5.00496 14.2466 5.02314 14.192 5.05753C14.1373 5.09192 14.0936 5.14112 14.0658 5.19939ZM12.6197 5.00508C12.4312 5.00508 12.2779 5.15838 12.2779 5.34684C12.2779 5.49301 12.3701 5.61801 12.4994 5.66676C12.5942 5.47278 12.7432 5.31043 12.9283 5.19937C12.9005 5.1411 12.8568 5.09191 12.8021 5.05752C12.7475 5.02313 12.6842 5.00494 12.6197 5.00508Z" fill="#CA4625"/>
</g>
<defs>
<clipPath id="clip0_1_10">
<rect width="14" height="14" fill="white" transform="translate(3 3)"/>
</clipPath>
</defs>
</svg>
