<svg width="32" height="32" viewBox="0 0 32 32" fill="none" xmlns="http://www.w3.org/2000/svg">
<circle cx="15.8571" cy="15.8571" r="15.8571" fill="#FFF0ED"/>
<path d="M24.7449 14.4224C24.7472 14.3639 24.7331 14.306 24.7042 14.2552C24.6752 14.2044 24.6326 14.1627 24.5811 14.1349C24.5361 14.1105 23.5664 13.6039 22.0208 13.7505C22.6286 12.2277 22.7177 10.7821 22.2752 9.44738C22.2563 9.3904 22.2214 9.34006 22.1747 9.30238C22.128 9.26469 22.0714 9.24126 22.0117 9.23488C21.9167 9.22425 19.9024 9.03394 18.3305 10.5327C18.0992 7.74675 16.3236 6.10394 16.2264 6.01613C16.1678 5.9632 16.0914 5.93442 16.0124 5.93558C15.9334 5.93674 15.8578 5.96775 15.8008 6.02238C14.0814 7.67082 13.5261 9.28675 13.4427 10.5814C11.9136 9.09832 10.0833 9.22707 9.99644 9.23394C9.93541 9.23904 9.87722 9.26196 9.82911 9.29985C9.78099 9.33774 9.74507 9.38893 9.72581 9.44707C9.28331 10.7824 9.37269 12.2283 9.98019 13.7502C8.43425 13.6039 7.46456 14.1105 7.41987 14.1346C7.36836 14.1624 7.3257 14.2041 7.29674 14.255C7.26779 14.3059 7.25372 14.3639 7.25612 14.4224C7.42612 18.6621 10.8336 19.7183 11.8024 19.9333V20.8705C10.9852 20.9611 10.3867 21.7008 10.4508 22.5302C10.4508 23.3739 11.1374 24.0608 11.9814 24.0608H20.0352C21.9699 24.0346 22.1158 21.1139 20.2142 20.8702V19.9296C21.2036 19.7071 24.5755 18.6393 24.7449 14.4224ZM24.1089 14.6099C23.8658 18.1021 21.1924 19.0589 20.2142 19.2933C20.1942 18.7761 20.2783 17.2943 20.1258 16.8152C20.4055 16.5027 21.1377 15.6246 21.7255 14.4199C22.8996 14.2333 23.7583 14.4764 24.1089 14.6099ZM18.4339 17.5436C18.3511 17.5436 18.2716 17.5766 18.213 17.6352C18.1544 17.6938 18.1214 17.7732 18.1214 17.8561V20.8524H13.913V17.8561C13.9071 17.4458 13.2942 17.4452 13.288 17.8561V20.8524H12.4274V17.5139C12.4274 16.2561 13.4508 15.2327 14.7086 15.2327C15.463 15.2374 16.5536 15.2358 17.308 15.2327C18.5658 15.2327 19.5892 16.2561 19.5892 17.5139V20.8521H18.7464V17.8558C18.7464 17.7729 18.7135 17.6935 18.6549 17.6348C18.5963 17.5762 18.5168 17.5436 18.4339 17.5436ZM16.163 14.6077C15.338 14.6952 14.5721 14.0471 14.5789 13.1974C14.6389 11.3133 17.3786 11.3136 17.4383 13.1974C17.4383 13.9308 16.878 14.5299 16.163 14.6077ZM21.7442 9.84582C22.4233 11.8568 21.178 14.6483 19.8724 16.1483C19.6385 15.7109 19.2967 15.3406 18.8794 15.0725C18.462 14.8045 17.983 14.6477 17.488 14.6171C17.8446 14.2483 18.0491 13.7587 18.0608 13.2458C18.2367 12.6077 18.3252 12.0058 18.3489 11.4414C19.5049 9.95144 21.1683 9.83519 21.7442 9.84582ZM16.0149 6.68957C16.5742 7.298 18.0246 9.183 17.6724 11.9989C17.4823 11.7353 17.2324 11.5206 16.9431 11.3725C16.6539 11.2243 16.3336 11.147 16.0086 11.1468C15.6425 11.1469 15.283 11.2449 14.9674 11.4306C14.6517 11.6162 14.3914 11.8828 14.2133 12.2027C13.9133 11.0777 13.7961 8.95238 16.0149 6.68957ZM10.2555 9.853C10.8055 9.8655 12.3252 10.0461 13.4639 11.5433C13.5621 12.4455 13.8524 13.0777 13.9583 13.2836C13.9788 13.7829 14.1819 14.2573 14.5289 14.6168C14.0317 14.6478 13.5508 14.806 13.1324 15.0763C12.7139 15.3467 12.3719 15.72 12.1392 16.1605C10.8299 14.6555 9.57987 11.8783 10.2552 9.853H10.2555ZM7.89237 14.6093C8.24394 14.4749 9.10175 14.233 10.2758 14.4196C10.8736 15.6443 11.6189 16.5296 11.8877 16.8289C11.7411 17.2924 11.8221 18.7993 11.8027 19.2977C10.8383 19.0733 8.13706 18.1324 7.89237 14.6093ZM11.0755 22.5302C11.0121 21.9118 11.493 21.4171 12.1146 21.4774H16.7271C16.6616 21.6714 16.5371 21.8401 16.3709 21.9597C16.2047 22.0793 16.0052 22.1438 15.8005 22.1443C14.9546 22.063 14.1586 22.6108 14.0039 23.4358H11.9817C11.7416 23.4356 11.5114 23.3401 11.3416 23.1703C11.1719 23.0005 11.0764 22.7703 11.0761 22.5302H11.0755ZM20.9405 22.3833C21.0005 22.9296 20.6005 23.4396 20.0352 23.4358H14.6536C14.7191 23.242 14.8435 23.0734 15.0096 22.9539C15.1756 22.8344 15.375 22.7698 15.5796 22.7693C16.4258 22.8505 17.2217 22.3027 17.3764 21.4774H19.9017C20.4442 21.4211 20.9449 21.8255 20.9408 22.383L20.9405 22.3833Z" fill="#CA4625"/>
</svg>
