<svg width="24" height="24" viewBox="0 0 24 24" fill="none" xmlns="http://www.w3.org/2000/svg">
<path d="M3.46118 16.7051C3.43737 16.662 3.4053 16.624 3.3668 16.5933C3.3283 16.5626 3.28413 16.5397 3.23681 16.5261C3.18949 16.5124 3.13994 16.5082 3.09099 16.5137C3.04205 16.5192 2.99467 16.5343 2.95155 16.5581C2.90844 16.5819 2.87043 16.614 2.83971 16.6525C2.80899 16.691 2.78616 16.7352 2.77251 16.7825C2.74494 16.8781 2.75646 16.9807 2.80455 17.0678C6.7083 24.2678 17.2961 24.2659 21.1983 17.0678C21.2435 16.981 21.253 16.8799 21.2248 16.7862C21.1965 16.6925 21.1327 16.6136 21.0471 16.5663C20.9614 16.5189 20.8607 16.507 20.7663 16.5329C20.672 16.5589 20.5915 16.6207 20.5421 16.7051C19.7 18.2332 18.4634 19.5074 16.9612 20.3948C15.459 21.2822 13.7462 21.7503 12.0014 21.7503C10.2567 21.7503 8.5439 21.2822 7.04169 20.3948C5.53947 19.5074 4.30323 18.2332 3.46118 16.7051ZM19.3964 5.655C19.4611 5.73059 19.5531 5.7774 19.6523 5.78514C19.7514 5.79287 19.8496 5.7609 19.9252 5.69625C20.0008 5.63161 20.0476 5.53958 20.0553 5.44042C20.063 5.34126 20.0311 5.24309 19.9664 5.1675C15.9543 0.310878 8.04818 0.311253 4.03643 5.16825C3.97456 5.24417 3.94486 5.34128 3.95366 5.43882C3.96245 5.53636 4.00906 5.62658 4.08351 5.69021C4.15796 5.75383 4.25435 5.78581 4.35206 5.7793C4.44978 5.77279 4.54107 5.72832 4.60643 5.65538C8.33168 1.146 15.6716 1.14675 19.3964 5.65538V5.655Z" fill="#181818"/>
<path d="M7.09734 5.36838C7.01748 5.42766 6.96443 5.51623 6.94987 5.61462C6.93532 5.71301 6.96044 5.81314 7.01971 5.89301C7.07899 5.97287 7.16756 6.02592 7.26595 6.04047C7.36434 6.05503 7.46447 6.02991 7.54434 5.97063C8.83524 5.0188 10.397 4.50529 12.0008 4.50529C13.6047 4.50529 15.1664 5.0188 16.4573 5.97063C16.5372 6.02991 16.6373 6.05503 16.7357 6.04047C16.8341 6.02592 16.9227 5.97287 16.982 5.89301C17.0412 5.81314 17.0664 5.71301 17.0518 5.61462C17.0372 5.51623 16.9842 5.42766 16.9043 5.36838C15.484 4.32088 13.7656 3.75574 12.0008 3.75574C10.236 3.75574 8.51763 4.32088 7.09734 5.36838ZM12.0008 20.2495C13.245 20.252 14.4734 19.9715 15.5931 19.429C16.7128 18.8866 17.6944 18.0965 18.4636 17.1186C18.5254 17.0407 18.5536 16.9413 18.5421 16.8425C18.5307 16.7437 18.4804 16.6535 18.4025 16.5918C18.3245 16.53 18.2252 16.5017 18.1264 16.5132C18.0276 16.5247 17.9374 16.5749 17.8756 16.6529C14.9993 20.4243 9.00196 20.4239 6.12609 16.6529C6.06433 16.5749 5.97412 16.5247 5.87531 16.5132C5.7765 16.5017 5.67719 16.53 5.59921 16.5918C5.52124 16.6535 5.47099 16.7437 5.45953 16.8425C5.44807 16.9413 5.47633 17.0407 5.53809 17.1186C6.30728 18.0965 7.28888 18.8866 8.40857 19.429C9.52825 19.9715 10.7567 20.252 12.0008 20.2495Z" fill="#181818"/>
<path d="M1.6982 12.9636C1.56628 13.2142 1.50092 13.4945 1.50839 13.7776C1.51585 14.0607 1.59589 14.3371 1.74083 14.5804C1.88578 14.8237 2.09077 15.0257 2.33617 15.167C2.58157 15.3084 2.85915 15.3843 3.14232 15.3876H7.31532C7.31389 15.6351 7.36124 15.8805 7.45467 16.1097C7.5481 16.3389 7.68578 16.5475 7.85983 16.7234C8.03389 16.8994 8.24091 17.0393 8.46908 17.1353C8.69724 17.2312 8.94207 17.2812 9.18957 17.2825H14.8108C15.0586 17.2823 15.304 17.233 15.5326 17.1375C15.7613 17.0419 15.9687 16.902 16.143 16.7258C16.3173 16.5497 16.4549 16.3407 16.548 16.111C16.641 15.8813 16.6876 15.6354 16.6851 15.3876H20.8581C21.1412 15.3843 21.4188 15.3084 21.6642 15.167C21.9096 15.0257 22.1146 14.8237 22.2596 14.5804C22.4045 14.3371 22.4845 14.0607 22.492 13.7776C22.4995 13.4945 22.4341 13.2142 22.3022 12.9636C21.7896 12.0139 20.9407 11.2899 19.9221 10.9334C20.2068 10.714 20.4374 10.4323 20.5962 10.1098C20.7549 9.78739 20.8376 9.43281 20.8378 9.07339C20.7261 5.95714 16.2403 5.95714 16.1289 9.07339C16.1293 9.43288 16.212 9.78749 16.3709 10.11C16.5298 10.4324 16.7606 10.7141 17.0454 10.9334C16.1262 11.2572 15.3435 11.8823 14.8243 12.7071C14.4352 12.4458 14.0117 12.2398 13.5658 12.0951C13.9218 11.8448 14.2123 11.5125 14.413 11.1263C14.6137 10.7402 14.7186 10.3115 14.7189 9.87627C14.5914 6.27927 9.40895 6.27814 9.28145 9.87627C9.28178 10.3115 9.38671 10.7402 9.58739 11.1263C9.78807 11.5125 10.0786 11.8448 10.4346 12.0951C9.98859 12.2398 9.5649 12.4457 9.1757 12.7071C8.65562 11.8834 7.87335 11.2587 6.95495 10.9338C7.23982 10.7145 7.47057 10.4328 7.62946 10.1103C7.78835 9.78787 7.87114 9.43325 7.87145 9.07377C7.76345 5.96052 3.27245 5.95564 3.16257 9.07377C3.16285 9.43313 3.24555 9.78763 3.40431 10.11C3.56306 10.4324 3.79365 10.7141 4.07832 10.9334C3.05968 11.2899 2.21087 12.014 1.6982 12.9636ZM16.8789 9.07339C16.8854 8.65212 17.0573 8.25028 17.3575 7.95464C17.6576 7.65901 18.0621 7.4933 18.4834 7.4933C18.9047 7.4933 19.3091 7.65901 19.6093 7.95464C19.9095 8.25028 20.0814 8.65212 20.0878 9.07339C20.0814 9.49467 19.9095 9.89651 19.6093 10.1921C19.3091 10.4878 18.9047 10.6535 18.4834 10.6535C18.0621 10.6535 17.6576 10.4878 17.3575 10.1921C17.0573 9.89651 16.8854 9.49467 16.8789 9.07339ZM18.4806 11.428C19.1294 11.4275 19.7661 11.6031 20.3229 11.9362C20.8796 12.2692 21.3355 12.7472 21.6418 13.3191C21.7136 13.4553 21.7492 13.6076 21.7453 13.7615C21.7413 13.9154 21.698 14.0656 21.6193 14.198C21.5407 14.3303 21.4294 14.4402 21.2961 14.5172C21.1628 14.5942 21.012 14.6356 20.8581 14.6376H16.5186C16.2488 14.0825 15.8748 13.5845 15.4168 13.1706C15.7343 12.6411 16.1832 12.2024 16.7199 11.8971C17.2566 11.5918 17.8631 11.4302 18.4806 11.428ZM10.0318 9.87627C10.1143 7.27452 13.8864 7.27527 13.9686 9.87627C13.8861 12.478 10.1139 12.4776 10.0318 9.87627ZM15.8004 14.8675C15.8913 15.0394 15.9365 15.2318 15.9316 15.4262C15.9268 15.6206 15.8721 15.8105 15.7727 15.9776C15.6734 16.1448 15.5327 16.2836 15.3643 16.3808C15.1958 16.4779 15.0053 16.5302 14.8108 16.5325H9.18957C8.99436 16.5322 8.80257 16.4812 8.63297 16.3845C8.46337 16.2878 8.32176 16.1488 8.22199 15.981C8.12222 15.8132 8.06771 15.6224 8.06378 15.4272C8.05985 15.232 8.10664 15.0392 8.19957 14.8675C9.77157 11.8593 14.2292 11.8596 15.8004 14.8675ZM3.91257 9.07377C3.91901 8.65249 4.09089 8.25065 4.39108 7.95502C4.69127 7.65938 5.09569 7.49367 5.51701 7.49367C5.93834 7.49367 6.34276 7.65938 6.64295 7.95502C6.94314 8.25065 7.11501 8.65249 7.12145 9.07377C7.11501 9.49504 6.94314 9.89688 6.64295 10.1925C6.34276 10.4882 5.93834 10.6539 5.51701 10.6539C5.09569 10.6539 4.69127 10.4882 4.39108 10.1925C4.09089 9.89688 3.91901 9.49504 3.91257 9.07377ZM5.51382 11.428C6.13225 11.4298 6.73976 11.5911 7.27755 11.8965C7.81534 12.2018 8.26519 12.6408 8.58357 13.171C8.12569 13.5847 7.75164 14.0827 7.48182 14.6376H3.1427C2.98879 14.6356 2.83797 14.5942 2.70468 14.5172C2.5714 14.4402 2.4601 14.3303 2.38145 14.198C2.3028 14.0656 2.25943 13.9154 2.25549 13.7615C2.25155 13.6076 2.28717 13.4553 2.35895 13.3191C2.66477 12.7482 3.11964 12.2708 3.67517 11.9378C4.23071 11.6048 4.86613 11.4286 5.51382 11.428Z" fill="#181818"/>
</svg>
