<svg width="20" height="20" viewBox="0 0 20 20" fill="none" xmlns="http://www.w3.org/2000/svg">
<path d="M4.03312 6.76172C4.63355 6.98926 5.13383 7.42016 5.45047 7.97051C4.97363 8.79914 4.08008 9.35746 3.05531 9.35746C2.03055 9.35746 1.13699 8.79914 0.660156 7.97051C0.976758 7.42016 1.47707 6.98926 2.0775 6.76172" stroke="#181818" stroke-width="0.6" stroke-miterlimit="10" stroke-linecap="round" stroke-linejoin="round"/>
<path d="M3.05512 9.35633C4.58061 9.35633 5.81727 8.11967 5.81727 6.59418C5.81727 5.06869 4.58061 3.83203 3.05512 3.83203C1.52962 3.83203 0.292969 5.06869 0.292969 6.59418C0.292969 8.11967 1.52962 9.35633 3.05512 9.35633Z" stroke="#181818" stroke-width="0.6" stroke-miterlimit="10" stroke-linecap="round" stroke-linejoin="round"/>
<path d="M3.05391 7.28555C3.6748 7.28555 4.17812 6.78222 4.17812 6.16133C4.17812 5.54044 3.6748 5.03711 3.05391 5.03711C2.43302 5.03711 1.92969 5.54044 1.92969 6.16133C1.92969 6.78222 2.43302 7.28555 3.05391 7.28555Z" stroke="#181818" stroke-width="0.6" stroke-miterlimit="10" stroke-linecap="round" stroke-linejoin="round"/>
<path d="M10.9784 3.22266C11.5789 3.4502 12.0791 3.88109 12.3958 4.43145C11.9189 5.26008 11.0254 5.8184 10.0006 5.8184C8.97586 5.8184 8.0823 5.26008 7.60547 4.43145C7.92207 3.88109 8.42238 3.4502 9.02281 3.22266" stroke="#181818" stroke-width="0.6" stroke-miterlimit="10" stroke-linecap="round" stroke-linejoin="round"/>
<path d="M10.0004 5.81727C11.5259 5.81727 12.7626 4.58061 12.7626 3.05512C12.7626 1.52962 11.5259 0.292969 10.0004 0.292969C8.47494 0.292969 7.23828 1.52962 7.23828 3.05512C7.23828 4.58061 8.47494 5.81727 10.0004 5.81727Z" stroke="#181818" stroke-width="0.6" stroke-miterlimit="10" stroke-linecap="round" stroke-linejoin="round"/>
<path d="M9.99922 3.74453C10.6201 3.74453 11.1234 3.2412 11.1234 2.62031C11.1234 1.99942 10.6201 1.49609 9.99922 1.49609C9.37833 1.49609 8.875 1.99942 8.875 2.62031C8.875 3.2412 9.37833 3.74453 9.99922 3.74453Z" stroke="#181818" stroke-width="0.6" stroke-miterlimit="10" stroke-linecap="round" stroke-linejoin="round"/>
<path d="M17.9198 8.5C18.5203 8.72754 19.0205 9.15844 19.3372 9.70879C18.8604 10.5374 17.9668 11.0957 16.942 11.0957C15.9173 11.0957 15.0237 10.5374 14.5469 9.70879C14.8635 9.15844 15.3638 8.72754 15.9642 8.5" stroke="#181818" stroke-width="0.6" stroke-miterlimit="10" stroke-linecap="round" stroke-linejoin="round"/>
<path d="M16.9457 11.0946C18.4712 11.0946 19.7079 9.85795 19.7079 8.33246C19.7079 6.80697 18.4712 5.57031 16.9457 5.57031C15.4202 5.57031 14.1836 6.80697 14.1836 8.33246C14.1836 9.85795 15.4202 11.0946 16.9457 11.0946Z" stroke="#181818" stroke-width="0.6" stroke-miterlimit="10" stroke-linecap="round" stroke-linejoin="round"/>
<path d="M16.9445 9.02188C17.5654 9.02188 18.0687 8.51855 18.0687 7.89766C18.0687 7.27677 17.5654 6.77344 16.9445 6.77344C16.3236 6.77344 15.8203 7.27677 15.8203 7.89766C15.8203 8.51855 16.3236 9.02188 16.9445 9.02188Z" stroke="#181818" stroke-width="0.6" stroke-miterlimit="10" stroke-linecap="round" stroke-linejoin="round"/>
<path d="M11.973 18.4441V11.075M8.02695 18.4441V7.63242C8.02695 7.32734 8.27422 7.08008 8.5793 7.08008H11.4207C11.7258 7.08008 11.973 7.32734 11.973 7.63242V9.70781M5.02813 18.4441V15.5094M1.08203 18.4441V11.1836C1.08203 10.8785 1.3293 10.6313 1.63477 10.6313H4.47578C4.78086 10.6313 5.02813 10.8785 5.02813 11.1836V14.1422M14.9719 14.6727V12.9098C14.9719 12.6047 15.2191 12.3574 15.5242 12.3574H18.3652C18.6707 12.3574 18.918 12.6047 18.918 12.9098V18.4441M14.9719 18.4441V16.0398M19.3914 19.707H0.608633C0.524914 19.707 0.444623 19.6738 0.385425 19.6146C0.326226 19.5554 0.292969 19.4751 0.292969 19.3914V18.76C0.292969 18.7185 0.301134 18.6775 0.316997 18.6392C0.332861 18.6009 0.356112 18.5661 0.385425 18.5368C0.414737 18.5075 0.449535 18.4842 0.487833 18.4684C0.526132 18.4525 0.567179 18.4443 0.608633 18.4443H19.3913C19.4328 18.4443 19.4738 18.4525 19.5121 18.4684C19.5504 18.4842 19.5852 18.5075 19.6145 18.5368C19.6438 18.5661 19.6671 18.6009 19.683 18.6392C19.6988 18.6775 19.707 18.7185 19.707 18.76V19.3914C19.707 19.4328 19.6988 19.4739 19.683 19.5122C19.6671 19.5505 19.6439 19.5853 19.6146 19.6146C19.5853 19.6439 19.5505 19.6671 19.5122 19.683C19.4739 19.6989 19.4328 19.707 19.3914 19.707Z" stroke="#181818" stroke-width="0.6" stroke-miterlimit="10" stroke-linecap="round" stroke-linejoin="round"/>
</svg>
