<svg width="20" height="20" viewBox="0 0 20 20" fill="none" xmlns="http://www.w3.org/2000/svg">
<path d="M18.8237 6.12937C18.8562 6.03045 18.8727 5.927 18.8727 5.82289V0.99C18.8727 0.444102 18.427 0 17.8791 0H11.807C11.2592 0 10.8134 0.444102 10.8134 0.99V1.33773C9.50356 1.31148 8.14207 1.58332 6.93836 2.11121C5.83633 2.59219 4.85094 3.27258 4.00688 4.13328H2.96875C2.89105 4.13328 2.81653 4.16415 2.76159 4.21909C2.70665 4.27403 2.67578 4.34855 2.67578 4.42625C2.67578 4.50395 2.70665 4.57847 2.76159 4.63341C2.81653 4.68835 2.89105 4.71922 2.96875 4.71922H7.0657C7.29047 4.71922 7.47336 4.90051 7.47336 5.12328V9.95613C7.47336 10.1789 7.29047 10.3602 7.0657 10.3602H6.5052C6.08609 10.3602 5.74512 10.7001 5.74512 11.1179V11.8003L3.94613 10.5039C3.8166 10.4102 3.66073 10.3599 3.50086 10.3603H0.993594C0.768828 10.3603 0.585938 10.179 0.585938 9.95617V5.12332C0.585938 4.90051 0.768828 4.71926 0.993594 4.71926H1.60156C1.67926 4.71926 1.75378 4.68839 1.80872 4.63345C1.86367 4.57851 1.89453 4.50399 1.89453 4.42629C1.89453 4.34859 1.86367 4.27407 1.80872 4.21913C1.75378 4.16419 1.67926 4.13332 1.60156 4.13332H0.993594C0.445742 4.13332 0 4.57742 0 5.12332V9.95617C0 10.5021 0.445742 10.9462 0.993594 10.9462H1.34051C1.40996 13.3346 2.37246 15.5699 4.0693 17.2668C5.83188 19.0293 8.17535 20 10.668 20C11.964 20 13.2185 19.7393 14.3968 19.2252C15.5349 18.7286 16.549 18.02 17.4111 17.1191C17.4649 17.063 17.4941 16.9878 17.4924 16.9101C17.4907 16.8324 17.4582 16.7586 17.402 16.7049C17.3459 16.6512 17.2707 16.6219 17.193 16.6236C17.1154 16.6254 17.0415 16.6578 16.9878 16.714C16.3441 17.3866 15.6138 17.942 14.8213 18.371C14.449 17.8754 13.9026 17.2792 13.5373 16.7077L13.6072 16.6573C13.6371 16.6358 13.673 16.6242 13.7098 16.6243H16.2171C16.765 16.6243 17.2107 16.1802 17.2107 15.6343V10.8014C17.2107 10.736 17.2041 10.6721 17.1919 10.6102C17.6954 10.0075 17.9713 9.23926 17.9713 8.42852C17.9678 7.85734 17.8065 7.29823 17.5054 6.81289H17.8791C18.0771 6.81314 18.2706 6.75407 18.4347 6.64328C19.0764 7.88051 19.4141 9.26356 19.4141 10.668C19.4141 12.4765 18.867 14.2119 17.8319 15.6866C17.8098 15.7181 17.7941 15.7536 17.7857 15.7912C17.7773 15.8287 17.7764 15.8676 17.7831 15.9055C17.7897 15.9434 17.8038 15.9796 17.8244 16.012C17.845 16.0445 17.8719 16.0726 17.9034 16.0947C17.9908 16.1575 18.1788 16.1827 18.3114 16.0232C19.4161 14.4494 20 12.5976 20 10.668C20 9.07668 19.5937 7.5107 18.8237 6.12937ZM7.0657 4.13332H4.8543C5.5423 3.51867 6.31113 3.02441 7.13656 2.66016L7.33242 2.88613C7.66121 3.31777 7.86645 3.93742 7.79914 4.45621C7.61734 4.25793 7.35586 4.13332 7.0657 4.13332ZM13.889 18.1417C14.0291 18.3123 14.1637 18.4766 14.2874 18.637C13.1675 19.1462 11.9408 19.4141 10.668 19.4141C7.38988 19.4141 4.52777 17.6009 3.03039 14.9251C3.44344 14.5845 3.97551 14.1704 4.40059 14.2197C4.57406 14.2399 4.72766 14.3413 4.87012 14.5298C5.2266 15.001 5.82816 15.0929 6.24961 15.1209C6.87891 15.082 7.43969 14.7606 7.7898 14.2423C7.81191 14.2106 7.82752 14.1748 7.83574 14.137C7.84396 14.0993 7.84461 14.0602 7.83768 14.0222C7.83074 13.9842 7.81635 13.9479 7.79533 13.9155C7.7743 13.883 7.74707 13.8551 7.71519 13.8332C7.68331 13.8113 7.64742 13.796 7.60959 13.788C7.57175 13.7801 7.53272 13.7797 7.49474 13.787C7.45677 13.7942 7.42059 13.8088 7.38831 13.8301C7.35603 13.8514 7.32827 13.8788 7.30664 13.9109C7.05488 14.2779 6.72238 14.4765 6.26188 14.5344C5.78359 14.4993 5.49785 14.3884 5.33746 14.1763C5.0968 13.858 4.80434 13.6767 4.46816 13.6377C3.84766 13.5657 3.23738 14.0017 2.75586 14.3926C2.25883 13.341 1.96543 12.1752 1.9268 10.9462H3.50082C3.53801 10.9462 3.57352 10.9576 3.60352 10.9792L5.49621 12.3432C5.5858 12.4081 5.69355 12.443 5.80414 12.4431C5.88617 12.4431 5.96859 12.4238 6.04488 12.3848C6.13114 12.341 6.20356 12.2741 6.25407 12.1916C6.30459 12.109 6.33122 12.0141 6.33102 11.9174V11.1179C6.33102 11.0232 6.40914 10.9462 6.50516 10.9462H7.06566C7.61352 10.9462 8.05926 10.502 8.05926 9.95613V8.70586C8.40797 8.9209 8.96027 9.1118 9.40988 9.09957C9.90501 9.09951 10.3885 8.94922 10.7964 8.66855C11.3399 8.29527 11.7141 7.71262 11.8231 7.07C11.8373 6.98656 11.8496 6.90062 11.8603 6.81285H12.3675C12.4635 6.81285 12.5416 6.88988 12.5416 6.98457V7.78406C12.5416 7.98199 12.6513 8.16109 12.8277 8.25145C12.9766 8.32113 13.1581 8.34477 13.3764 8.20992L14.5824 7.34082C14.5358 7.79453 14.4137 8.27191 13.858 8.82648C13.5971 9.09215 13.4473 9.44703 13.4393 9.81137H10.145C9.59711 9.81137 9.15137 10.2555 9.15137 10.8014V10.928C8.60746 11.1354 8.17199 11.593 7.97684 12.1695C7.9343 12.2952 7.8677 12.5093 7.80582 12.7138C7.7831 12.7881 7.79083 12.8684 7.82731 12.937C7.86378 13.0056 7.92601 13.0569 8.00031 13.0796C8.11828 13.1128 8.28531 13.0719 8.36613 12.8852C8.40766 12.7493 8.46461 12.5598 8.53187 12.3574C8.64469 12.0241 8.86781 11.7476 9.15141 11.5771V15.6342C9.15141 16.1801 9.59715 16.6242 10.145 16.6242H10.7055C10.8015 16.6242 10.8796 16.7013 10.8796 16.7959V17.5954C10.8796 17.7933 10.9893 17.9724 11.1657 18.0628C11.242 18.1018 11.3245 18.1211 11.4065 18.1211C11.5149 18.1211 11.6226 18.0874 11.7145 18.0212L13.0616 17.0504C13.3087 17.4339 13.6026 17.793 13.889 18.1417ZM16.6248 15.6343C16.6248 15.8571 16.442 16.0383 16.2172 16.0383H13.7099C13.549 16.0383 13.395 16.088 13.2646 16.182L11.4656 17.4784V16.796C11.4656 16.3782 11.1246 16.0383 10.7056 16.0383H10.1451C9.92031 16.0383 9.73742 15.857 9.73742 15.6343V10.8014C9.73742 10.5786 9.92031 10.3973 10.1451 10.3973H13.7636L13.7645 10.3974L13.7658 10.3973H16.2172C16.442 10.3973 16.6249 10.5786 16.6249 10.8014L16.6248 15.6343ZM17.3854 8.43051C17.3854 9.02566 17.2058 9.59289 16.8754 10.0607C16.6939 9.89988 16.4597 9.8112 16.2172 9.81141H14.0255C14.0334 9.5998 14.1224 9.39355 14.2741 9.23922C15.0992 8.41582 15.1493 7.68613 15.1896 7.09984C15.1945 7.02781 15.1995 6.95863 15.2056 6.89176L15.2691 6.84598C15.299 6.82438 15.335 6.8128 15.3718 6.81289H16.7817C17.1675 7.26461 17.3813 7.83559 17.3854 8.43051ZM17.8791 6.22695H15.3719C15.212 6.22661 15.0561 6.27689 14.9266 6.37059L14.7516 6.49672L14.7496 6.49813L13.1276 7.66703V6.98457C13.1276 6.5668 12.7866 6.22691 12.3675 6.22691H11.807C11.5823 6.22691 11.3994 6.04563 11.3994 5.82285V4.72656C11.3994 4.64886 11.3685 4.57434 11.3136 4.5194C11.2586 4.46446 11.1841 4.43359 11.1064 4.43359C11.0287 4.43359 10.9542 4.46446 10.8992 4.5194C10.8443 4.57434 10.8134 4.64886 10.8134 4.72656V5.82285C10.8134 6.17891 11.0031 6.49152 11.287 6.66598C11.2763 6.76841 11.2625 6.87049 11.2455 6.97207C11.1629 7.45926 10.8782 7.90156 10.4647 8.18559C9.73512 8.6991 8.75211 8.56945 8.0593 7.99605V5.34703C8.68789 4.51801 8.3734 3.19934 7.71273 2.43023C8.65586 2.09195 9.75144 1.90129 10.8134 1.92363V3.35938C10.8134 3.43708 10.8443 3.51159 10.8992 3.56653C10.9542 3.62148 11.0287 3.65234 11.1064 3.65234C11.1841 3.65234 11.2586 3.62148 11.3135 3.56653C11.3685 3.51159 11.3993 3.43708 11.3993 3.35938V0.99C11.3993 0.767187 11.5822 0.585938 11.807 0.585938H17.8791C18.1039 0.585938 18.2868 0.767227 18.2868 0.99V5.82285C18.2868 6.04566 18.1039 6.22695 17.8791 6.22695Z" fill="#181818"/>
<path d="M16.6554 1.94348H15.1387V1.44531C15.1387 1.36761 15.1079 1.29309 15.0529 1.23815C14.998 1.18321 14.9235 1.15234 14.8458 1.15234C14.7681 1.15234 14.6936 1.18321 14.6386 1.23815C14.5837 1.29309 14.5528 1.36761 14.5528 1.44531V1.94348H13.0362C12.9585 1.94348 12.884 1.97434 12.829 2.02929C12.7741 2.08423 12.7432 2.15875 12.7432 2.23645C12.7432 2.31415 12.7741 2.38866 12.829 2.44361C12.884 2.49855 12.9585 2.52941 13.0362 2.52941H13.6437C13.7822 3.14448 14.0578 3.72031 14.4501 4.21391C14.1488 4.50135 13.8003 4.73481 13.4198 4.9041L13.0162 5.08398C12.9548 5.11129 12.9047 5.15884 12.8742 5.21867C12.8438 5.27851 12.8348 5.347 12.8488 5.41267C12.8627 5.47835 12.8989 5.53723 12.9511 5.57945C13.0033 5.62167 13.0684 5.64468 13.1356 5.64461C13.1754 5.64461 13.2159 5.63645 13.2546 5.61918L13.6583 5.4393C14.0963 5.24447 14.4979 4.97639 14.8458 4.6466C15.1937 4.97639 15.5953 5.24447 16.0333 5.4393L16.4369 5.61918C16.5399 5.66184 16.733 5.64988 16.8237 5.47082C16.8554 5.39985 16.8575 5.31922 16.8297 5.24668C16.8019 5.17413 16.7464 5.11561 16.6754 5.08398L16.2718 4.9041C15.8913 4.73484 15.5428 4.50137 15.2415 4.21391C15.6337 3.7203 15.9094 3.14447 16.0479 2.52941H16.6553C16.733 2.52942 16.8075 2.49856 16.8625 2.44362C16.9174 2.38868 16.9483 2.31417 16.9483 2.23646C16.9483 2.15876 16.9174 2.08424 16.8625 2.0293C16.8076 1.97435 16.7331 1.94348 16.6554 1.94348ZM14.8458 3.76742C14.5684 3.39707 14.365 2.97674 14.2468 2.52941H15.4448C15.3265 2.97674 15.1231 3.39707 14.8458 3.76742ZM2.54109 9.57098C2.57709 9.58456 2.61541 9.59092 2.65386 9.5897C2.69231 9.58847 2.73015 9.57968 2.76521 9.56384C2.80026 9.54799 2.83186 9.52539 2.85818 9.49733C2.88451 9.46928 2.90505 9.43631 2.91863 9.40031L3.17289 8.7266H4.88949L5.1464 9.40117C5.16754 9.45668 5.20504 9.50446 5.25394 9.53817C5.30285 9.57189 5.36084 9.58995 5.42023 9.58996C5.4677 9.58995 5.51445 9.57841 5.55647 9.55633C5.59849 9.53425 5.63451 9.50229 5.66144 9.4632C5.68837 9.42411 5.7054 9.37906 5.71106 9.33194C5.71672 9.28481 5.71085 9.23701 5.69394 9.19266L4.37386 5.72656L4.37125 5.71988C4.3434 5.65137 4.29573 5.59274 4.23435 5.55149C4.17297 5.51024 4.10067 5.48826 4.02672 5.48836H4.02633C3.95096 5.4882 3.87733 5.51097 3.81521 5.55364C3.75308 5.59631 3.70541 5.65686 3.67851 5.72727L2.37043 9.19352C2.35684 9.22951 2.35049 9.26782 2.35171 9.30627C2.35294 9.34472 2.36173 9.38255 2.37757 9.4176C2.39342 9.45265 2.41602 9.48423 2.44408 9.51055C2.47213 9.53687 2.5051 9.5574 2.54109 9.57098ZM4.02722 6.46266L4.66633 8.14066H3.39398L4.02722 6.46266ZM15.4279 11.4453H14.065C13.9873 11.4453 13.9128 11.4762 13.8578 11.5311C13.8029 11.5861 13.772 11.6606 13.772 11.7383C13.772 11.816 13.8029 11.8905 13.8578 11.9454C13.9128 12.0004 13.9873 12.0312 14.065 12.0312H14.4535V12.9492H13.2881C13.3583 12.8064 13.3947 12.6494 13.3945 12.4902C13.3945 11.9141 12.9258 11.4453 12.3496 11.4453H11.5037C11.426 11.4453 11.3515 11.4762 11.2965 11.5311C11.2416 11.5861 11.2107 11.6606 11.2107 11.7383C11.2107 11.816 11.2416 11.8905 11.2965 11.9454C11.3515 12.0004 11.426 12.0312 11.5037 12.0312H12.3496C12.6027 12.0312 12.8086 12.2371 12.8086 12.4902C12.8086 12.7433 12.6027 12.9492 12.3496 12.9492H11.4096C11.3319 12.9492 11.2574 12.9801 11.2025 13.035C11.1475 13.09 11.1167 13.1645 11.1167 13.2422C11.1167 13.3199 11.1475 13.3944 11.2025 13.4493C11.2574 13.5043 11.3319 13.5352 11.4096 13.5352H12.3496C12.6027 13.5352 12.8086 13.7411 12.8086 13.9941C12.8086 14.2515 12.607 14.4531 12.3496 14.4531C11.9448 14.4531 11.4853 14.4075 11.1468 14.069C11.0919 14.014 11.0174 13.9832 10.9397 13.9832C10.862 13.9832 10.7875 14.014 10.7325 14.069C10.6776 14.1239 10.6467 14.1984 10.6467 14.2761C10.6467 14.3538 10.6776 14.4283 10.7325 14.4833C11.2252 14.9759 11.8555 15.0391 12.3496 15.0391C12.9258 15.0391 13.3945 14.5703 13.3945 13.9941C13.3945 13.8296 13.3562 13.6738 13.2881 13.5352H14.4535V14.7461C14.4535 14.8238 14.4843 14.8983 14.5393 14.9533C14.5942 15.0082 14.6687 15.0391 14.7464 15.0391C14.8241 15.0391 14.8987 15.0082 14.9536 14.9533C15.0085 14.8983 15.0394 14.8238 15.0394 14.7461V12.0312H15.4279C15.5056 12.0313 15.5801 12.0004 15.6351 11.9455C15.69 11.8905 15.7209 11.816 15.7209 11.7383C15.7209 11.6606 15.69 11.5861 15.6351 11.5311C15.5801 11.4762 15.5056 11.4453 15.4279 11.4453Z" fill="#181818"/>
</svg>
