<svg width="24" height="25" viewBox="0 0 24 25" fill="none" xmlns="http://www.w3.org/2000/svg">
<path d="M19.3009 8.41949V13.5695C19.3009 16.6495 17.5409 17.9695 14.9009 17.9695H6.11093C5.66093 17.9695 5.23093 17.9295 4.83093 17.8395C4.58093 17.7995 4.34094 17.7295 4.12094 17.6495C2.62094 17.0895 1.71094 15.7895 1.71094 13.5695V8.41949C1.71094 5.33949 3.47093 4.01953 6.11093 4.01953H14.9009C17.1409 4.01953 18.7509 4.96953 19.1809 7.13953C19.2509 7.53953 19.3009 7.94949 19.3009 8.41949Z" stroke="#181818" stroke-width="1.5" stroke-miterlimit="10" stroke-linecap="round" stroke-linejoin="round"/>
<path d="M22.302 11.4206V16.5706C22.302 19.6506 20.542 20.9706 17.902 20.9706H9.11203C8.37203 20.9706 7.70204 20.8706 7.12204 20.6506C5.93204 20.2106 5.12203 19.3006 4.83203 17.8406C5.23203 17.9306 5.66203 17.9706 6.11203 17.9706H14.902C17.542 17.9706 19.302 16.6506 19.302 13.5706V8.42059C19.302 7.95059 19.262 7.53062 19.182 7.14062C21.082 7.54063 22.302 8.88059 22.302 11.4206Z" stroke="#181818" stroke-width="1.5" stroke-miterlimit="10" stroke-linecap="round" stroke-linejoin="round"/>
<path d="M10.4994 13.6394C11.9574 13.6394 13.1394 12.4574 13.1394 10.9994C13.1394 9.54136 11.9574 8.35938 10.4994 8.35938C9.04136 8.35938 7.85938 9.54136 7.85938 10.9994C7.85938 12.4574 9.04136 13.6394 10.4994 13.6394Z" stroke="#181818" stroke-width="1.5" stroke-miterlimit="10" stroke-linecap="round" stroke-linejoin="round"/>
<path d="M4.78125 8.79883V13.1989" stroke="#181818" stroke-width="1.5" stroke-miterlimit="10" stroke-linecap="round" stroke-linejoin="round"/>
<path d="M16.2227 8.80078V13.2008" stroke="#181818" stroke-width="1.5" stroke-miterlimit="10" stroke-linecap="round" stroke-linejoin="round"/>
</svg>
