<svg width="24" height="24" viewBox="0 0 24 24" fill="none" xmlns="http://www.w3.org/2000/svg">
<path d="M19.478 8.37722C19.1238 7.74479 18.1545 7.11376 17.1597 6.52622C16.1343 5.92051 14.5116 5.58038 13.3845 5.73404L9.57826 6.25454L9.57836 6.25547C9.55818 6.2579 9.53854 6.26363 9.52023 6.27244L7.26658 7.39126C6.65293 7.69516 6.10518 8.11701 5.65464 8.63269C4.82814 9.57966 3.18311 11.799 2.24392 13.5035C2.10958 13.7472 1.97917 13.9823 1.85355 14.2087C1.26095 15.2765 0.792952 16.1199 0.51067 16.7997C0.260993 17.3981 0.200342 18.0585 0.336858 18.6923C0.370999 18.8537 0.445519 19.0037 0.55344 19.1284C0.661361 19.2531 0.799154 19.3483 0.95392 19.4052C1.54593 19.6237 2.18182 19.6966 2.80792 19.6178L3.32045 19.5524L9.87883 18.9889L13.8009 19.4011C13.9741 19.5706 14.2069 19.6597 14.4528 19.6497C15.1485 19.6154 15.2823 19.6098 15.2987 19.6095C15.3353 19.6095 15.3767 19.6095 16.2356 19.3041L19.1835 19.6781C19.3638 19.7009 19.5458 19.7081 19.7274 19.6996C19.7605 19.6979 23.0575 19.5378 23.161 19.5033L23.1644 19.5021C23.2779 19.4632 23.3795 19.396 23.4596 19.3067C23.5398 19.2175 23.5957 19.1092 23.622 18.9922C23.7463 18.4347 23.7699 17.8596 23.6915 17.2939C23.5242 16.0808 21.4894 13.5488 20.4639 12.3383C20.4145 11.9256 20.1007 9.48919 19.478 8.37722ZM13.4353 6.10557C14.4717 5.96372 16.0233 6.29054 16.969 6.8491C17.873 7.3831 18.8391 8.0041 19.1507 8.5606C19.5967 9.35691 19.884 10.9528 20.0152 11.8283C19.9009 11.7204 19.7686 11.6333 19.6243 11.5709L19.3375 11.4478C18.9053 11.2623 18.3995 11.3181 18.0181 11.5941C17.8554 11.7112 17.7211 11.8634 17.625 12.0394C17.529 12.2153 17.4736 12.4106 17.463 12.6108L17.4448 12.9441C17.4248 13.2945 17.5433 13.6388 17.7747 13.9028L18.2674 14.4668C17.8891 14.4099 17.431 14.3084 17.2262 14.1492C17.0929 14.0455 16.9395 13.7541 16.7621 13.4167C16.448 12.8194 16.0179 12.0012 15.2281 11.2116C14.063 10.0464 11.8211 9.80147 11.2836 9.75872L9.87639 6.59241L13.4353 6.10557ZM20.9286 17.7326L20.7247 17.7122C20.7154 17.7111 20.706 17.7109 20.6966 17.7115L20.0848 17.7422C20.2387 17.534 20.3459 17.2925 20.4156 17.0988L20.9286 17.7326ZM19.5114 17.7709L18.9805 17.7975C18.7185 17.5392 17.5785 16.3206 17.5836 14.7079C17.989 14.8226 18.4397 14.8715 18.6311 14.8883C18.9255 15.2555 19.5645 16.0464 20.1333 16.7498C20.0566 17.0365 19.8475 17.5897 19.5114 17.7709ZM5.20445 16.1751L6.0138 16.1293C6.3256 16.1116 6.6384 16.1298 6.94605 16.1836L10.3948 16.7867C10.5346 16.8112 10.6783 16.8011 10.8133 16.7575C10.9483 16.7138 11.0706 16.6378 11.1696 16.5361L11.5328 16.1631C11.5891 16.1052 11.6587 16.0619 11.7356 16.037C11.8125 16.0121 11.8943 16.0064 11.9739 16.0203C12.0618 16.0357 12.144 16.0743 12.2119 16.1322L13.8415 17.4801C13.8205 17.5844 13.8352 17.6928 13.8831 17.7878L12.0078 16.8192C11.6111 16.6143 11.122 16.6778 10.791 16.9775C10.7142 17.0473 10.6227 17.0991 10.5234 17.1292C10.424 17.1592 10.3192 17.1668 10.2165 17.1513L6.21667 16.556C5.7345 16.485 5.24299 16.5119 4.77142 16.6349L5.20445 16.1751ZM14.0585 17.1729L12.4525 15.8448C12.2841 15.702 12.0677 15.6285 11.8471 15.6391C11.6266 15.6496 11.4182 15.7434 11.2641 15.9015L10.9008 16.2745C10.8444 16.3325 10.7747 16.3757 10.6978 16.4006C10.6208 16.4255 10.539 16.4313 10.4593 16.4174L7.01064 15.8143C6.67467 15.7555 6.33305 15.7355 5.99251 15.7549L5.57814 15.7783L7.30398 13.9458C7.30787 13.9416 7.31156 13.9373 7.31505 13.9328C7.69057 13.4517 8.20782 13.1008 8.79367 12.9296C9.75911 12.6458 10.5326 11.9492 10.9158 11.0186L11.2795 10.135C11.8227 10.1831 13.9191 10.4327 14.9629 11.4765C15.7123 12.2259 16.1273 13.0149 16.4302 13.591L16.4503 13.6293C16.3547 13.669 16.2601 13.7111 16.1665 13.7555C15.9922 13.8405 15.8262 13.955 15.6722 14.0907C15.3704 13.833 14.9285 13.7237 14.4714 13.8038C14.1071 13.8677 13.7897 14.0695 13.5773 14.3723C13.3648 14.675 13.283 15.0422 13.3469 15.4064C13.4585 16.043 14.0296 16.5035 14.6882 16.5203C14.7301 16.8168 14.8273 17.1157 14.9759 17.4007L14.5217 17.1593C14.45 17.121 14.3695 17.1021 14.2883 17.1045C14.207 17.1069 14.1278 17.1305 14.0585 17.1729ZM14.6681 16.145C14.1972 16.1206 13.7954 15.792 13.7165 15.3418C13.6933 15.2113 13.6961 15.0774 13.725 14.948C13.7538 14.8186 13.808 14.6961 13.8845 14.5878C13.9603 14.479 14.057 14.3864 14.1689 14.3153C14.2808 14.2441 14.4057 14.1959 14.5363 14.1733C14.8721 14.1145 15.1901 14.1862 15.4069 14.3593C14.9766 14.8572 14.6907 15.5246 14.6681 16.145ZM15.601 17.6749C15.2853 17.2765 15.0881 16.8182 15.0467 16.3753C14.9676 15.5316 15.5679 14.4649 16.3311 14.0926C16.4107 14.0539 16.5226 14.0057 16.6297 13.9608C16.7528 14.1783 16.8652 14.3432 16.9961 14.4451C17.0569 14.4923 17.1302 14.5347 17.2114 14.573C17.1513 16.0962 18.013 17.2873 18.4867 17.8223L18.2785 17.8327H17.0746L15.601 17.6749ZM3.28089 19.1796L2.76076 19.2457C2.1946 19.3172 1.61955 19.2513 1.08423 19.0536C0.988755 19.0185 0.903744 18.9597 0.837157 18.8828C0.770571 18.8059 0.724588 18.7134 0.703514 18.6139C0.583033 18.0545 0.636553 17.4716 0.856889 16.9435C1.13111 16.2833 1.59451 15.4481 2.18139 14.3907C2.3073 14.164 2.43789 13.9285 2.57242 13.6845C3.49886 12.0031 5.12176 9.81357 5.93701 8.87963C6.35521 8.40083 6.86372 8.0092 7.43345 7.72716L9.51189 6.69535L10.9543 9.9406L10.5692 10.8759C10.2295 11.7008 9.54386 12.3183 8.68811 12.5699C8.03004 12.7622 7.44864 13.1555 7.02545 13.6949L4.04308 16.8615L2.23923 17.4366L2.35314 17.7938L3.37361 17.4685L3.77064 19.1377L3.28089 19.1796ZM9.86467 18.6138L4.14808 19.105L3.73155 17.3542L4.70345 17.0443C5.17425 16.8949 5.6729 16.8547 6.16155 16.9268L10.1614 17.5222C10.3188 17.5458 10.4796 17.5341 10.6319 17.488C10.7843 17.4419 10.9245 17.3625 11.0425 17.2555C11.1487 17.16 11.2814 17.099 11.423 17.0806C11.5647 17.0622 11.7086 17.0872 11.8357 17.1524L13.9352 18.2369L13.6732 18.3118C13.5992 18.3326 13.5319 18.3723 13.4777 18.4268C13.4236 18.4814 13.3845 18.549 13.3643 18.6232C13.3473 18.6837 13.3435 18.7472 13.3529 18.8093C13.3624 18.8715 13.385 18.9309 13.4191 18.9837L9.9003 18.6139C9.88845 18.6128 9.87652 18.6127 9.86467 18.6138ZM23.2561 18.9109C23.2444 18.9628 23.2201 19.0111 23.1853 19.0515C23.1506 19.0919 23.1064 19.1231 23.0568 19.1424C22.8315 19.1648 20.632 19.2813 19.7096 19.3251C19.5498 19.3327 19.3897 19.3264 19.231 19.3062L16.2386 18.9265C16.2095 18.9228 16.1798 18.926 16.1521 18.9359C15.7819 19.0677 15.3652 19.2115 15.2777 19.2351C15.2299 19.2368 15.0654 19.2441 14.4344 19.2752C14.3623 19.279 14.2901 19.2669 14.2232 19.2397C14.1562 19.2126 14.096 19.171 14.0469 19.1181L13.7429 18.793C13.7341 18.784 13.7279 18.7728 13.7249 18.7605C13.7219 18.7483 13.7222 18.7355 13.7258 18.7234C13.7289 18.7112 13.7353 18.7 13.7442 18.6911C13.753 18.6821 13.7641 18.6757 13.7763 18.6724L14.6223 18.4304C14.6536 18.4215 14.6821 18.4046 14.7049 18.3813C14.7277 18.358 14.744 18.3292 14.7523 18.2977C14.7605 18.2662 14.7604 18.2331 14.752 18.2016C14.7435 18.1702 14.727 18.1414 14.704 18.1183L14.2331 17.642C14.2179 17.6264 14.2083 17.6062 14.2061 17.5845C14.2039 17.5628 14.2091 17.541 14.221 17.5227C14.2482 17.481 14.3016 17.4673 14.3458 17.4905L15.3202 18.0083C15.3414 18.0195 15.3644 18.0266 15.3882 18.0292L17.0448 18.2065C17.0514 18.2073 17.0581 18.2077 17.0648 18.2077L18.2879 18.2074L20.7014 18.0867L21.9012 18.2067L21.9385 17.8336L21.4536 17.785C21.1329 17.3889 19.344 15.1792 18.8681 14.5844L18.0575 13.6559C17.8905 13.4656 17.805 13.2172 17.8195 12.9644L17.8377 12.6311C17.8454 12.4867 17.8853 12.3459 17.9546 12.219C18.0239 12.0921 18.1208 11.9823 18.2381 11.8978C18.3743 11.7998 18.5334 11.7387 18.7002 11.7202C18.8669 11.7017 19.0356 11.7266 19.1899 11.7923L19.4767 11.9154C19.6107 11.9727 19.7301 12.0596 19.8256 12.1697C21.4235 14.0071 23.1805 16.3316 23.3202 17.3452C23.3924 17.8667 23.3706 18.397 23.2561 18.9109Z" fill="#181818" stroke="#181818" stroke-width="0.3"/>
</svg>
