<svg width="42" height="42" viewBox="0 0 42 42" fill="none" xmlns="http://www.w3.org/2000/svg">
<circle cx="21" cy="21" r="20" stroke="white" stroke-width="0.941176"/>
<path d="M25.6993 28.2934H16.3011C15.0024 28.2934 13.9414 27.2324 13.9414 25.9337V16.5355C13.9414 15.2368 15.0024 14.1758 16.3011 14.1758H25.6993C26.9981 14.1758 28.0591 15.2368 28.0591 16.5355V25.9337C28.0591 27.2382 27.0039 28.2934 25.6993 28.2934Z" stroke="white"/>
<path d="M18.4399 23.7995C19.124 24.4837 20.0343 24.8605 21.0025 24.8605C21.9708 24.8605 22.8752 24.4837 23.5652 23.7995C24.2493 23.1154 24.6262 22.2051 24.6262 21.2369C24.6262 20.2687 24.2493 19.3584 23.5652 18.6743C22.881 17.9901 21.9708 17.6133 21.0025 17.6133C20.0343 17.6133 19.124 17.9901 18.4399 18.6743C17.7558 19.3584 17.3789 20.2687 17.3789 21.2369C17.3789 22.2051 17.7558 23.1154 18.4399 23.7995Z" stroke="white"/>
<path d="M25.3325 17.495C25.7167 17.495 26.0282 17.1835 26.0282 16.7993C26.0282 16.415 25.7167 16.1035 25.3325 16.1035C24.9482 16.1035 24.6367 16.415 24.6367 16.7993C24.6367 17.1835 24.9482 17.495 25.3325 17.495Z" stroke="white"/>
</svg>
