<svg width="42" height="42" viewBox="0 0 42 42" fill="none" xmlns="http://www.w3.org/2000/svg">
<circle cx="21" cy="21" r="20" stroke="white" stroke-width="0.941176"/>
<path d="M16.4846 18.416H13.043V29.3911H16.4846V18.416Z" stroke="white"/>
<path d="M25.7947 18.1782C25.6678 18.1624 25.533 18.1544 25.3982 18.1465C23.4712 18.0672 22.3848 19.2091 22.0041 19.7008C21.901 19.8356 21.8534 19.9149 21.8534 19.9149V18.4478H18.5625V29.423H21.8534H22.0041C22.0041 28.3048 22.0041 27.1946 22.0041 26.0765C22.0041 25.4738 22.0041 24.8711 22.0041 24.2685C22.0041 23.523 21.9486 22.73 22.3213 22.0481C22.6385 21.4771 23.2095 21.1916 23.8518 21.1916C25.755 21.1916 25.7947 22.9124 25.7947 23.071C25.7947 23.079 25.7947 23.0869 25.7947 23.0869V29.4705H29.2363V22.3098C29.2363 19.8594 27.9913 18.4161 25.7947 18.1782Z" stroke="white"/>
<path d="M14.764 16.9967C15.8676 16.9967 16.7623 16.102 16.7623 14.9984C16.7623 13.8947 15.8676 13 14.764 13C13.6603 13 12.7656 13.8947 12.7656 14.9984C12.7656 16.102 13.6603 16.9967 14.764 16.9967Z" stroke="white"/>
</svg>
