<svg width="59" height="59" viewBox="0 0 59 59" fill="none" xmlns="http://www.w3.org/2000/svg">
<circle cx="29.5" cy="29.5" r="29.5" fill="#FFF0ED"/>
<path d="M46.6119 28.9062C46.6164 28.7952 46.5896 28.6851 46.5346 28.5886C46.4796 28.492 46.3986 28.4128 46.3008 28.36C46.2153 28.3137 44.3729 27.3512 41.4362 27.6297C42.5911 24.7363 42.7603 21.9896 41.9195 19.4537C41.8837 19.3455 41.8174 19.2498 41.7287 19.1782C41.6399 19.1066 41.5324 19.0621 41.419 19.05C41.2385 19.0298 37.4112 18.6682 34.4246 21.5158C33.9853 16.2225 30.6116 13.1012 30.4269 12.9344C30.3156 12.8338 30.1703 12.7791 30.0202 12.7813C29.8702 12.7835 29.7266 12.8424 29.6182 12.9462C26.3514 16.0783 25.2963 19.1485 25.1378 21.6084C22.2326 18.7905 18.755 19.0351 18.5899 19.0482C18.474 19.0579 18.3634 19.1014 18.272 19.1734C18.1806 19.2454 18.1123 19.3427 18.0757 19.4531C17.235 21.9902 17.4048 24.7375 18.559 27.6291C15.6218 27.3512 13.7793 28.3137 13.6944 28.3594C13.5966 28.4122 13.5155 28.4915 13.4605 28.5882C13.4055 28.6849 13.3787 28.7951 13.3833 28.9062C13.7063 36.9616 20.1806 38.9685 22.0212 39.377V41.1577C20.4685 41.3299 19.3315 42.7353 19.4532 44.3111C19.4532 45.9142 20.7577 47.2193 22.3614 47.2193H37.6635C41.3394 47.1694 41.6167 41.6202 38.0038 41.1571V39.3699C39.8836 38.9471 46.2901 36.9183 46.6119 28.9062ZM45.4037 29.2625C44.9417 35.8976 39.8622 37.7157 38.0038 38.161C37.9658 37.1784 38.1255 34.3628 37.8357 33.4526C38.3671 32.8588 39.7583 31.1904 40.8751 28.9015C43.1058 28.547 44.7375 29.009 45.4037 29.2625ZM34.6212 34.8366C34.4637 34.8366 34.3127 34.8992 34.2013 35.0105C34.09 35.1219 34.0274 35.2729 34.0274 35.4304V41.1232H26.0314V35.4304C26.0201 34.6508 24.8558 34.6496 24.8439 35.4304V41.1232H23.2087V34.7802C23.2087 32.3904 25.1532 30.4458 27.5431 30.4458C28.9764 30.4547 31.0486 30.4518 32.4819 30.4458C34.8717 30.4458 36.8163 32.3904 36.8163 34.7802V41.1226H35.2149V35.4298C35.2149 35.2723 35.1524 35.1213 35.041 35.0099C34.9297 34.8986 34.7786 34.8366 34.6212 34.8366ZM30.3064 29.2583C28.7389 29.4246 27.2836 28.1931 27.2967 26.5787C27.4107 22.999 32.6161 22.9996 32.7295 26.5787C32.7295 27.9723 31.6649 29.1105 30.3064 29.2583ZM40.9108 20.2108C42.201 24.0315 39.8349 29.3355 37.3542 32.1855C36.9099 31.3544 36.2604 30.6508 35.4675 30.1416C34.6745 29.6323 33.7645 29.3344 32.8239 29.2761C33.5014 28.5754 33.89 27.6452 33.9122 26.6708C34.2465 25.4583 34.4145 24.3148 34.4597 23.2425C36.6559 20.4115 39.8165 20.1906 40.9108 20.2108ZM30.0249 14.2139C31.0878 15.3699 33.8433 18.9514 33.1742 24.3017C32.8131 23.8009 32.3382 23.3929 31.7886 23.1114C31.2391 22.8299 30.6305 22.6829 30.0131 22.6825C29.3173 22.6829 28.6343 22.869 28.0347 23.2218C27.435 23.5745 26.9404 24.0809 26.602 24.6888C26.032 22.5513 25.8093 18.5132 30.0249 14.2139ZM19.0821 20.2244C20.1271 20.2482 23.0145 20.5914 25.1782 23.436C25.3646 25.1502 25.9162 26.3513 26.1175 26.7426C26.1564 27.6912 26.5422 28.5925 27.2017 29.2755C26.2569 29.3345 25.3432 29.6351 24.5482 30.1488C23.7531 30.6624 23.1033 31.3717 22.6613 32.2087C20.1734 29.3492 17.7984 24.0725 19.0815 20.2244H19.0821ZM14.5922 29.2613C15.2602 29.006 16.89 28.5464 19.1207 28.9009C20.2566 31.2278 21.6727 32.9099 22.1833 33.4787C21.9048 34.3592 22.0586 37.2223 22.0218 38.1693C20.1895 37.743 15.0571 35.9552 14.5922 29.2613ZM20.6401 44.3111C20.5196 43.136 21.4334 42.1961 22.6143 42.3107H31.3781C31.2538 42.6794 31.0172 42.9998 30.7014 43.2271C30.3857 43.4543 30.0067 43.577 29.6176 43.5778C28.0103 43.4234 26.4981 44.4643 26.2042 46.0318H22.362C21.9058 46.0313 21.4684 45.8499 21.1458 45.5273C20.8232 45.2047 20.6418 44.7673 20.6413 44.3111H20.6401ZM39.3836 44.032C39.4976 45.0699 38.7376 46.0389 37.6635 46.0318H27.4386C27.5629 45.6634 27.7994 45.3432 28.1149 45.1161C28.4304 44.889 28.8091 44.7663 29.1978 44.7653C30.8057 44.9197 32.318 43.8788 32.6119 42.3107H37.41C38.4408 42.2039 39.3919 42.9722 39.3842 44.0314L39.3836 44.032Z" fill="#CA4625"/>
</svg>
