<svg width="20" height="20" viewBox="0 0 20 20" fill="none" xmlns="http://www.w3.org/2000/svg">
<path fill-rule="evenodd" clip-rule="evenodd" d="M17.001 20H2.99981C2.44913 20 2.00391 19.5548 2.00391 19.0041V0.995899C2.00391 0.445226 2.44913 0 2.99981 0H13.8024C13.9547 0 14.0719 0.117165 14.0719 0.269479V3.92501H17.7274C17.868 3.92501 17.9969 4.04218 17.9969 4.19449V19.0041C17.9969 19.5548 17.5517 20 17.001 20ZM2.99981 0.550674C2.87092 0.550674 2.76548 0.59754 2.68346 0.679555C2.58973 0.76157 2.54286 0.878735 2.54286 0.995899V19.0041C2.54286 19.2501 2.75376 19.4493 2.99981 19.4493H17.001C17.247 19.4493 17.4462 19.2501 17.4462 19.0041V4.46397H13.8024C13.6501 4.46397 13.5212 4.34681 13.5212 4.19449V0.550674H2.99981Z" fill="#181818"/>
<path fill-rule="evenodd" clip-rule="evenodd" d="M17.7291 4.46442H13.8041C13.6518 4.46442 13.5229 4.34726 13.5229 4.19495V0.269932C13.5229 0.164484 13.5932 0.0590354 13.6986 0.023886C13.8041 -0.0229798 13.9212 0.000453099 13.9915 0.0824683L17.9165 4.00748C17.9986 4.07778 18.022 4.19495 17.9751 4.30039C17.9283 4.40584 17.8345 4.46442 17.7291 4.46442ZM14.0735 3.92547H17.0612L14.0735 0.93777V3.92547ZM11.3085 9.05728C11.2382 9.05728 11.1679 9.03384 11.1093 8.97526C11.0038 8.86981 11.0038 8.70578 11.1093 8.58862L12.7613 6.9366C12.8785 6.83115 13.0425 6.83115 13.1479 6.9366C13.2651 7.04205 13.2651 7.21779 13.1479 7.32324L11.4959 8.97526C11.4373 9.03384 11.3788 9.05728 11.3085 9.05728ZM10.2657 9.05728C10.1954 9.05728 10.1251 9.03384 10.0665 8.97526L8.4145 7.32324C8.30905 7.21779 8.30905 7.04205 8.4145 6.9366C8.51995 6.83115 8.69569 6.83115 8.80114 6.9366L10.4532 8.58862C10.5586 8.70578 10.5586 8.86981 10.4532 8.97526C10.4063 9.03384 10.336 9.05728 10.2657 9.05728ZM5.90717 9.05728C5.83688 9.05728 5.76658 9.03384 5.71971 8.97526C5.61426 8.86981 5.61426 8.70578 5.71971 8.58862L7.37173 6.9366C7.47718 6.83115 7.65293 6.83115 7.75838 6.9366C7.86382 7.04205 7.86382 7.21779 7.75838 7.32324L6.10635 8.97526C6.04777 9.03384 5.97747 9.05728 5.90717 9.05728Z" fill="#181818"/>
<path fill-rule="evenodd" clip-rule="evenodd" d="M5.39043 10.3116C4.82804 10.3116 4.38281 9.86635 4.38281 9.30396C4.38281 8.75329 4.82804 8.29635 5.39043 8.29635C5.9411 8.29635 6.39804 8.75329 6.39804 9.30396C6.39804 9.86635 5.9411 10.3116 5.39043 10.3116ZM5.39043 8.84702C5.13267 8.84702 4.92177 9.05792 4.92177 9.30396C4.92177 9.56173 5.13267 9.77262 5.39043 9.77262C5.64819 9.77262 5.84737 9.56173 5.84737 9.30396C5.84737 9.05792 5.64819 8.84702 5.39043 8.84702ZM8.08521 7.61679C7.53454 7.61679 7.0776 7.17157 7.0776 6.60918C7.0776 6.0585 7.53454 5.60156 8.08521 5.60156C8.63589 5.60156 9.09283 6.0585 9.09283 6.60918C9.09283 7.17157 8.63589 7.61679 8.08521 7.61679ZM8.08521 6.15224C7.82745 6.15224 7.62827 6.35142 7.62827 6.60918C7.62827 6.86694 7.82745 7.07784 8.08521 7.07784C8.34298 7.07784 8.54216 6.86694 8.54216 6.60918C8.54216 6.35142 8.34298 6.15224 8.08521 6.15224ZM10.78 10.3116C10.2293 10.3116 9.77239 9.86635 9.77239 9.30396C9.77239 8.75329 10.2293 8.29635 10.78 8.29635C11.3424 8.29635 11.7876 8.75329 11.7876 9.30396C11.7876 9.86635 11.3424 10.3116 10.78 10.3116ZM10.78 8.84702C10.5222 8.84702 10.3231 9.05792 10.3231 9.30396C10.3231 9.56173 10.5222 9.77262 10.78 9.77262C11.0378 9.77262 11.2487 9.56173 11.2487 9.30396C11.2487 9.05792 11.0378 8.84702 10.78 8.84702ZM13.4748 7.61679C12.9241 7.61679 12.4672 7.17157 12.4672 6.60918C12.4672 6.0585 12.9241 5.60156 13.4748 5.60156C14.0372 5.60156 14.4824 6.0585 14.4824 6.60918C14.4824 7.17157 14.0372 7.61679 13.4748 7.61679ZM13.4748 6.15224C13.2287 6.15224 13.0178 6.35142 13.0178 6.60918C13.0178 6.86694 13.2287 7.07784 13.4748 7.07784C13.7325 7.07784 13.9434 6.86694 13.9434 6.60918C13.9434 6.35142 13.7325 6.15224 13.4748 6.15224ZM7.35879 17.318H5.37871C5.2264 17.318 5.10923 17.2009 5.10923 17.0485V13.3813C5.10923 13.229 5.2264 13.1118 5.37871 13.1118H7.35879C7.51111 13.1118 7.62827 13.229 7.62827 13.3813V17.0485C7.62827 17.2009 7.51111 17.318 7.35879 17.318ZM5.64819 16.7791H7.0776V13.6508H5.64819V16.7791Z" fill="#181818"/>
<path fill-rule="evenodd" clip-rule="evenodd" d="M9.3394 17.3169H7.35932C7.20701 17.3169 7.07812 17.1998 7.07812 17.0474V10.2636C7.07812 10.1113 7.20701 9.98242 7.35932 9.98242H9.3394C9.49172 9.98242 9.60888 10.1113 9.60888 10.2636V17.0474C9.60888 17.1998 9.49172 17.3169 9.3394 17.3169ZM7.6288 16.778H9.05821V10.5331H7.6288V16.778Z" fill="#181818"/>
<path fill-rule="evenodd" clip-rule="evenodd" d="M11.3042 17.3175H9.33588C9.18357 17.3175 9.05469 17.2004 9.05469 17.0481V13.3808C9.05469 13.2285 9.18357 13.1113 9.33588 13.1113H11.3042C11.4566 13.1113 11.5854 13.2285 11.5854 13.3808V17.0481C11.5854 17.2004 11.4566 17.3175 11.3042 17.3175ZM9.60536 16.7786H11.0348V13.6503H9.60536V16.7786Z" fill="#181818"/>
<path fill-rule="evenodd" clip-rule="evenodd" d="M13.2886 17.317H11.3085C11.1679 17.317 11.0391 17.1999 11.0391 17.0476V10.873C11.0391 10.7207 11.1679 10.6035 11.3085 10.6035H13.2886C13.4409 10.6035 13.5698 10.7207 13.5698 10.873V17.0476C13.5698 17.1999 13.4409 17.317 13.2886 17.317ZM11.5897 16.7781H13.0191V11.1425H11.5897V16.7781Z" fill="#181818"/>
<path fill-rule="evenodd" clip-rule="evenodd" d="M15.0914 18.3132H3.57417C3.42185 18.3132 3.30469 18.196 3.30469 18.0437V17.0478C3.30469 16.8955 3.42185 16.7783 3.57417 16.7783H15.0914C15.2438 16.7783 15.3609 16.8955 15.3609 17.0478V18.0437C15.3609 18.196 15.2438 18.3132 15.0914 18.3132ZM3.85536 17.7742H14.822V17.3173H3.85536V17.7742ZM11.9163 2.35536H4.7341C4.58178 2.35536 4.46462 2.22648 4.46462 2.08588C4.46462 1.93357 4.58178 1.80469 4.7341 1.80469H11.9163C12.0686 1.80469 12.1858 1.93357 12.1858 2.08588C12.1858 2.22648 12.0686 2.35536 11.9163 2.35536ZM11.9163 3.42156H4.7341C4.58178 3.42156 4.46462 3.30439 4.46462 3.15208C4.46462 2.99977 4.58178 2.8826 4.7341 2.8826H11.9163C12.0686 2.8826 12.1858 2.99977 12.1858 3.15208C12.1858 3.30439 12.0686 3.42156 11.9163 3.42156Z" fill="#181818"/>
</svg>
