<svg width="1440" height="50" viewBox="0 0 1440 50" fill="none" xmlns="http://www.w3.org/2000/svg">
<g filter="url(#filter0_d_89_209)">
<path fill-rule="evenodd" clip-rule="evenodd" d="M0 12V42C9 42 16.721 38.781 26 39C51.314 39.597 43.973 36.45 47 35C58 37 66.38 34.088 65.666 33.6C64.951 33.112 65.4 32.712 66.662 32.712C67.926 32.712 68.959 33.232 68.959 33.865C68.959 34.499 71.837 34.913 75.356 34.787C78.876 34.659 84.254 35.018 87.309 35.584C90.364 36.15 114.105 32.579 123.5 32.712C132.895 32.844 145.684 33.428 151.922 34.008C165.254 35.25 149.703 32.785 194 33.215C205.037 33.322 195.965 29.442 207.5 29.497C226.813 29.59 267.5 38 278 31.011C308.5 26.159 347.408 32.5 353 28.5C353.451 27.575 389.85 27.5 391.5 27.5C393.502 27.5 394.1 26.718 379.754 21.959C378.754 19.997 389.534 19.784 392 21.959C393.626 23.394 447.027 23.238 447.027 23.763C447.027 24.288 450.118 24.52 453.893 24.281C457.671 24.041 461.225 24.359 461.794 24.988C462.363 25.616 465.491 25.609 468.745 24.972C472.371 24.261 474.221 24.3 473.522 25.07C472.859 25.803 486.116 20.121 494.5 20.2C502.624 20.275 502 21.208 504.336 21.208C508 21.208 510.178 25.031 536.5 25.038C562.82 25.045 591.099 19.742 616 20C640.901 20.26 667.376 22.128 669 21.714C673.833 20.484 699.839 19.828 699.835 20.971C699.833 21.551 701.708 21.341 704.006 20.5C706.301 19.661 707.639 19.571 706.98 20.301C706.224 21.136 713.57 21.705 726.84 21.838C738.422 21.953 748.296 22.318 748.782 22.65C749.266 22.982 750.853 22.578 752.305 21.756C754.248 20.655 754.947 20.657 754.947 21.768C754.947 23.643 822.107 32.203 824.925 30.338C825.955 29.657 830.339 28.994 834.669 28.864C845.606 28.534 846.915 28.736 843.527 30.231C841.754 31.013 841.51 31.541 842.919 31.555C844.208 31.565 845.811 30.97 846.48 30.231C847.149 29.491 848.582 28.886 849.665 28.886C850.747 28.886 851.086 29.491 850.417 30.231C849.748 30.971 850.139 31.575 851.285 31.575C852.43 31.575 853.37 30.934 853.37 30.151C853.37 29.368 854.269 29.108 855.369 29.572C856.47 30.037 856.777 31.074 856.051 31.876C855.324 32.679 855.619 32.958 856.708 32.5C860.556 30.876 974.669 37.607 1005.68 39.523C1012.57 39.949 1017.75 39.788 1017.18 39.166C1016.62 38.543 1024.71 38.054 1035.16 38.079C1045.62 38.103 1056.31 34.632 1059.47 34.068C1062.98 33.441 1066.24 33.618 1067.84 34.523C1069.79 35.633 1070.46 35.541 1070.48 34.159C1070.5 32.699 1070.9 32.73 1072.36 34.309C1073.91 35.981 1087.18 32.995 1136 36.369C1167.72 36.595 1191.32 40.121 1192.94 40.082C1216 39.526 1326.44 41.002 1328.12 41.889C1328.72 42.21 1359.6 37.209 1372.17 36.795C1378.94 36.572 1384.47 35.935 1384.47 35.378C1384.47 34.822 1386.91 33.76 1389.89 33.016L1395.3 31.666L1381.52 31.316L1389 29.033C1394.29 27.419 1427.12 30.643 1426.51 29.033C1425.85 27.304 1427.13 26.656 1431.83 26.344C1435.23 26.119 1437.57 25.329 1437.03 24.59C1436.49 23.851 1435.41 23.39 1434.64 23.566C1433.87 23.742 1433.76 22.951 1434.4 21.809C1435.04 20.666 1436.71 20.03 1438.1 20.394C1438.7 20.55 1439.36 20.464 1440 20.212V12H0ZM1076.89 33.4C1078.8 33.058 1081.46 33.081 1082.79 33.45C1084.12 33.818 1082.56 34.096 1079.31 34.069C1076.06 34.042 1074.97 33.742 1076.89 33.4ZM1178.74 36.37C1184.46 36.096 1193.31 36.099 1198.42 36.375C1203.53 36.652 1198.85 36.873 1188.02 36.871C1177.19 36.867 1173.02 36.641 1178.74 36.369V36.37ZM354.942 24.512C354.942 23.407 370.778 23.922 372.475 25.082C372.937 25.397 369.179 25.655 364.128 25.655C359.075 25.655 354.942 25.14 354.942 24.512ZM470.156 19.502C472.593 19.56 474.585 20.112 474.585 20.729C474.585 21.348 469.28 21.984 462.796 22.144C452.85 22.388 451.192 22.109 452.181 20.348C453.482 18.033 456.869 17.496 456.869 19.606C456.869 20.345 457.808 20.95 458.954 20.95C460.1 20.95 460.538 20.399 459.928 19.724C459.318 19.049 460.373 18.701 462.273 18.948C464.172 19.197 467.719 19.446 470.156 19.502ZM341.589 23.917C344.233 23.917 346.851 24.421 347.408 25.037C347.965 25.654 345.804 26.157 342.603 26.157C339.402 26.157 336.784 25.654 336.784 25.037C336.784 24.421 338.946 23.917 341.589 23.917ZM368.447 18.582C369.644 17.765 371.042 17.38 371.551 17.73C373.691 19.191 365.349 21.342 362.64 20.027C360.379 18.93 360.457 18.807 363.067 19.374C364.831 19.754 367.252 19.398 368.447 18.582ZM1066.93 25.276C1068.99 24.405 1080.74 25.086 1080.74 26.076C1080.74 26.356 1077.16 26.49 1072.79 26.373C1068.41 26.256 1065.77 25.763 1066.93 25.276ZM1160.77 24.926C1162.03 23.532 1166.89 23.659 1168.21 25.119C1168.81 25.779 1167.17 26.233 1164.58 26.127C1161.98 26.021 1160.27 25.48 1160.77 24.926ZM1251.99 24.023C1251.99 22.841 1307.25 23.91 1314 25.223C1318.01 26.001 1312.74 26.299 1297.61 26.151C1285.34 26.031 1275.13 25.819 1274.92 25.679C1274.72 25.539 1269.47 25.284 1263.27 25.112C1257.07 24.942 1251.99 24.451 1251.99 24.023ZM981.334 22.573C982.958 22.573 984.287 22.81 984.287 23.101C984.287 23.392 982.958 23.977 981.334 24.404C979.71 24.828 978.382 24.59 978.382 23.875C978.382 23.159 979.71 22.573 981.334 22.573ZM1145.33 24.343C1146.75 23.955 1148.45 24.003 1149.1 24.449C1149.76 24.896 1148.6 25.213 1146.52 25.155C1144.23 25.09 1143.76 24.772 1145.33 24.343ZM1153.21 24.343C1154.62 23.955 1156.32 24.003 1156.98 24.449C1157.63 24.896 1156.47 25.213 1154.39 25.155C1152.1 25.09 1151.63 24.772 1153.21 24.343ZM788.954 14.623C789.47 14.271 790.417 14.916 791.058 16.057C792.389 18.427 791.255 18.843 789.314 16.697C788.6 15.909 788.438 14.975 788.954 14.623ZM943.395 21.229C947.841 21.229 951.079 21.503 950.587 21.839C948.949 22.959 936.156 23.299 927.202 22.462L918.344 21.632L926.218 21.411C932.092 21.244 933.342 20.857 931.139 19.885C929.365 19.102 929.121 18.575 930.531 18.561C931.82 18.55 933.422 19.146 934.092 19.885C934.761 20.625 938.946 21.229 943.395 21.229ZM954.268 23.028C955.622 22.654 957.837 22.654 959.189 23.028C960.544 23.4 959.435 23.705 956.729 23.705C954.022 23.705 952.916 23.4 954.268 23.028ZM309.681 20.019C312.053 19.945 314.541 20.489 315.21 21.229C315.88 21.969 316.153 22.513 315.819 22.439L310.289 21.229C305.709 20.228 305.665 20.143 309.681 20.019ZM326.037 19.885C327.119 19.885 328.005 20.49 328.005 21.229C328.005 21.968 327.119 22.574 326.037 22.574C324.954 22.574 324.068 21.969 324.068 21.229C324.068 20.489 324.954 19.885 326.037 19.885ZM1040.55 21.405C1039.14 19.85 1059.6 19.773 1063.17 21.321C1065.02 22.117 1061.79 22.54 1053.79 22.553C1047.09 22.564 1041.13 22.048 1040.55 21.405ZM1267.56 21.337C1270.65 20.001 1308.4 20.315 1310.42 21.693C1311.13 22.177 1301.15 22.564 1288.25 22.553C1273.79 22.54 1265.85 22.073 1267.56 21.337ZM323.084 17.579L314.258 18.152C309.403 18.468 304.687 19.44 303.774 20.314C302.628 21.411 302.362 21.279 302.912 19.884C303.471 18.467 306.581 17.825 313.395 17.724L323.084 17.579ZM290.079 18.374C291.416 17.454 293.004 17.042 293.609 17.456C294.215 17.87 293.122 18.621 291.182 19.126C288.376 19.856 288.15 19.702 290.079 18.374ZM300.079 16.16C301.518 15.832 301.957 16.447 301.223 17.755C300.563 18.926 299.162 19.885 298.105 19.885C295.516 19.885 297.136 16.829 300.079 16.16ZM909.018 18.934C911.466 18.614 915.01 18.625 916.891 18.961C918.773 19.297 916.769 19.561 912.439 19.546C908.108 19.531 906.569 19.256 909.018 18.934ZM243.882 16.231C246.874 15.923 251.303 15.931 253.724 16.25C256.145 16.569 253.696 16.821 248.283 16.812C242.87 16.801 240.89 16.54 243.882 16.231ZM313.858 14.934C315.277 14.545 316.976 14.594 317.63 15.04C318.283 15.486 317.122 15.803 315.047 15.746C312.754 15.681 312.287 15.363 313.858 14.934Z" fill="#03393F"/>
</g>
<defs>
<filter id="filter0_d_89_209" x="-10" y="0" width="1460" height="50" filterUnits="userSpaceOnUse" color-interpolation-filters="sRGB">
<feFlood flood-opacity="0" result="BackgroundImageFix"/>
<feColorMatrix in="SourceAlpha" type="matrix" values="0 0 0 0 0 0 0 0 0 0 0 0 0 0 0 0 0 0 127 0" result="hardAlpha"/>
<feOffset dy="-2"/>
<feGaussianBlur stdDeviation="5"/>
<feComposite in2="hardAlpha" operator="out"/>
<feColorMatrix type="matrix" values="0 0 0 0 0 0 0 0 0 0 0 0 0 0 0 0 0 0 0.1 0"/>
<feBlend mode="normal" in2="BackgroundImageFix" result="effect1_dropShadow_89_209"/>
<feBlend mode="normal" in="SourceGraphic" in2="effect1_dropShadow_89_209" result="shape"/>
</filter>
</defs>
</svg>
