<svg width="21" height="21" viewBox="0 0 21 21" fill="none" xmlns="http://www.w3.org/2000/svg">
<g clip-path="url(#clip0_89_331)">
<path d="M13.0417 4.66683C13.8556 4.82563 14.6036 5.22371 15.19 5.81011C15.7764 6.39651 16.1745 7.14455 16.3333 7.9585M13.0417 1.3335C14.7327 1.52136 16.3096 2.27864 17.5135 3.481C18.7174 4.68336 19.4767 6.25934 19.6667 7.95016M18.8333 14.6002V17.1002C18.8343 17.3322 18.7867 17.562 18.6937 17.7746C18.6008 17.9873 18.4644 18.1782 18.2934 18.335C18.1224 18.4919 17.9205 18.6114 17.7006 18.6858C17.4808 18.7601 17.2478 18.7877 17.0167 18.7668C14.4523 18.4882 11.9892 17.6119 9.82498 16.2085C7.81151 14.929 6.10443 13.222 4.82499 11.2085C3.41663 9.0345 2.54019 6.55932 2.26665 3.9835C2.24583 3.75305 2.27321 3.5208 2.34707 3.30152C2.42092 3.08224 2.53963 2.88074 2.69562 2.70985C2.85162 2.53896 3.04149 2.40242 3.25314 2.30893C3.4648 2.21544 3.6936 2.16705 3.92499 2.16683H6.42499C6.82941 2.16285 7.22148 2.30606 7.52812 2.56977C7.83476 2.83349 8.03505 3.1997 8.09165 3.60016C8.19717 4.40022 8.39286 5.18577 8.67499 5.94183C8.7871 6.2401 8.81137 6.56426 8.74491 6.8759C8.67844 7.18753 8.52404 7.47359 8.29998 7.70016L7.24165 8.7585C8.42795 10.8448 10.1554 12.5722 12.2417 13.7585L13.3 12.7002C13.5266 12.4761 13.8126 12.3217 14.1243 12.2552C14.4359 12.1888 14.76 12.213 15.0583 12.3252C15.8144 12.6073 16.5999 12.803 17.4 12.9085C17.8048 12.9656 18.1745 13.1695 18.4388 13.4814C18.703 13.7933 18.8435 14.1915 18.8333 14.6002Z" stroke="black" stroke-linecap="round" stroke-linejoin="round"/>
</g>
<defs>
<clipPath id="clip0_89_331">
<rect width="20" height="20" fill="white" transform="translate(0.5 0.5)"/>
</clipPath>
</defs>
</svg>
